<?xml version="1.0" encoding="UTF-8" standalone="no"?>
<!-- Created with Inkscape (http://www.inkscape.org/) -->

<svg
   xmlns:osb="http://www.openswatchbook.org/uri/2009/osb"
   xmlns:dc="http://purl.org/dc/elements/1.1/"
   xmlns:cc="http://creativecommons.org/ns#"
   xmlns:rdf="http://www.w3.org/1999/02/22-rdf-syntax-ns#"
   xmlns:svg="http://www.w3.org/2000/svg"
   xmlns="http://www.w3.org/2000/svg"
   xmlns:xlink="http://www.w3.org/1999/xlink"
   xmlns:sodipodi="http://sodipodi.sourceforge.net/DTD/sodipodi-0.dtd"
   xmlns:inkscape="http://www.inkscape.org/namespaces/inkscape"
   width="210.71851mm"
   height="155.47511mm"
   viewBox="0 0 746.64038 550.89607"
   id="svg8344"
   version="1.1"
   inkscape:version="0.91 r13725"
   sodipodi:docname="3chesskings.svg">
  <defs
     id="defs8346">
    <linearGradient
       id="linearGradient4181"
       osb:paint="solid">
      <stop
         style="stop-color:#333277;stop-opacity:1;"
         offset="0"
         id="stop4183" />
    </linearGradient>
    <linearGradient
       id="linearGradient4175">
      <stop
         style="stop-color:#9e9c66;stop-opacity:1;"
         offset="0"
         id="stop4177" />
    </linearGradient>
    <linearGradient
       id="linearGradient4169"
       osb:paint="solid">
      <stop
         style="stop-color:#609100;stop-opacity:1;"
         offset="0"
         id="stop4171" />
    </linearGradient>
    <linearGradient
       id="linearGradient4163"
       osb:paint="solid">
      <stop
         style="stop-color:#ac2a00;stop-opacity:1;"
         offset="0"
         id="stop4165" />
    </linearGradient>
    <linearGradient
       id="linearGradient4157"
       osb:paint="solid">
      <stop
         style="stop-color:#ee9f00;stop-opacity:1;"
         offset="0"
         id="stop4159" />
    </linearGradient>
    <linearGradient
       inkscape:collect="always"
       xlink:href="#linearGradient4157"
       id="linearGradient4161"
       x1="291.32191"
       y1="117.351"
       x2="439.66442"
       y2="117.351"
       gradientUnits="userSpaceOnUse" />
    <linearGradient
       inkscape:collect="always"
       xlink:href="#linearGradient4163"
       id="linearGradient4167"
       x1="310.9375"
       y1="76.550781"
       x2="419.6875"
       y2="76.550781"
       gradientUnits="userSpaceOnUse" />
    <linearGradient
       inkscape:collect="always"
       xlink:href="#linearGradient4169"
       id="linearGradient4173"
       x1="581.54882"
       y1="143.19132"
       x2="690.47851"
       y2="143.19132"
       gradientUnits="userSpaceOnUse" />
    <linearGradient
       inkscape:collect="always"
       xlink:href="#linearGradient4181"
       id="linearGradient4185"
       x1="301.18328"
       y1="181.43555"
       x2="429.8033"
       y2="181.43555"
       gradientUnits="userSpaceOnUse" />
  </defs>
  <sodipodi:namedview
     id="base"
     pagecolor="#ffffff"
     bordercolor="#666666"
     borderopacity="1.0"
     inkscape:pageopacity="0.0"
     inkscape:pageshadow="2"
     inkscape:zoom="0.83947749"
     inkscape:cx="362.50904"
     inkscape:cy="218.60394"
     inkscape:document-units="px"
     inkscape:current-layer="layer1"
     showgrid="false"
     inkscape:window-width="1873"
     inkscape:window-height="1056"
     inkscape:window-x="47"
     inkscape:window-y="24"
     inkscape:window-maximized="1"
     inkscape:snap-global="false"
     fit-margin-top="0"
     fit-margin-left="0"
     fit-margin-right="0"
     fit-margin-bottom="0" />
  <metadata
     id="metadata8349">
    <rdf:RDF>
      <cc:Work
         rdf:about="">
        <dc:format>image/svg+xml</dc:format>
        <dc:type
           rdf:resource="http://purl.org/dc/dcmitype/StillImage" />
        <dc:title />
      </cc:Work>
    </rdf:RDF>
  </metadata>
  <g
     inkscape:label="Layer 1"
     inkscape:groupmode="layer"
     id="layer1"
     transform="translate(-254.95117,45.410156)">
    <path
       style="opacity:1;fill:url(#linearGradient4163);fill-opacity:1;fill-rule:evenodd;stroke:none;stroke-width:1px;stroke-linecap:butt;stroke-linejoin:miter;stroke-opacity:1"
       d="m 633.50781,-45.410156 0,0.103515 c -4.29177,-9.28e-4 -10.45898,3.044086 -10.45898,7.236329 0,4.522412 4.78711,6.65039 4.78711,6.65039 0,0 0.26571,6.915531 -2.39453,9.841797 -2.66024,2.926266 -6.38389,5.587805 -9.57618,8.248047 -3.19229,2.660242 0.26563,7.1816405 0.26563,7.1816405 0,0 -4.78866,4.2565291 -5.05469,7.7148437 -0.26602,3.4583149 7.2e-4,12.7702438 2.12891,14.8984378 2.1282,2.128193 4.78906,3.191406 4.78906,3.191406 0,0 -3.45862,2.659357 -2.39453,3.191406 1.0641,0.532048 4.25621,4.256572 5.32031,6.384766 1.06409,2.128194 2.39453,9.310547 2.39453,9.310547 l -12.23828,-7.980469 -15.96094,3.990234 -2.1289,7.449219 -9.04297,-1.064453 1.13672,8.337891 c 7.06702,-2.076823 27.09119,-7.265625 51.44336,-7.265625 23.16503,0 42.53746,4.726148 50.46289,6.976562 l 1.09765,-8.048828 -9.04492,1.064453 -2.1289,-7.449219 -15.96094,-3.990234 -12.23828,7.980469 c 0,0 1.33044,-7.182353 2.39453,-9.310547 1.0641,-2.128194 4.25621,-5.852718 5.32031,-6.384766 1.06409,-0.532049 -2.39258,-3.191406 -2.39258,-3.191406 0,0 2.65891,-1.063213 4.78711,-3.191406 2.12819,-2.128194 2.39493,-11.4401227 2.12891,-14.8984378 -0.26603,-3.4583147 -5.05469,-7.7148437 -5.05469,-7.7148437 0,0 3.45792,-4.5213985 0.26563,-7.1816405 -3.19229,-2.660242 -6.91594,-5.321781 -9.57618,-8.248047 -2.66024,-2.926266 -2.39453,-9.841797 -2.39453,-9.841797 0,0 4.78907,-2.127978 4.78907,-6.65039 0,-4.154722 -6.05767,-7.179381 -10.34375,-7.232422 l 0,-0.107422 -5.12696,0 z"
       id="path8957"
       inkscape:connector-curvature="0" />
    <path
       style="opacity:1;fill:url(#linearGradient4163);fill-opacity:1;fill-rule:evenodd;stroke:none;stroke-width:1px;stroke-linecap:butt;stroke-linejoin:miter;stroke-opacity:1"
       d="m 903.52148,-9.6152344 -11.85937,0.5410156 -9.16406,7.0078126 5.39257,20.4824222 -23.17968,1.078125 1.61523,19.40625 21.56445,-0.539063 -8.625,24.25586 12.97461,2.162109 c -0.004,-1.65e-4 -0.18164,-0.0059 -0.18164,-0.0059 l -0.008,0.517578 c -5.52436,0.265966 -11.83842,0.621312 -17.09961,1.099609 -11.85896,1.078089 -35.03711,12.936485 -35.03711,39.888676 0,23.44686 24.8456,60.70148 31.31836,70.01172 4.55137,1.69384 13.48103,4.22265 26.62891,4.22265 14.43815,0 23.86309,-3.06368 27.89062,-4.70312 6.84155,-9.88171 30.99219,-46.379 30.99219,-69.53125 0,-26.952191 -23.17814,-38.810587 -35.03711,-39.888676 -4.40797,-0.400733 -9.49245,-0.697525 -14.29492,-0.945313 l 11.74219,-4.984374 -9.16407,-22.09961 21.56055,-2.15625 -1.61523,-17.789062 -19.94532,0 3.23243,-22.6386722 -9.70118,-5.3925782 z"
       id="path8955"
       inkscape:connector-curvature="0" />
    <path
       style="opacity:1;fill:url(#linearGradient4181);fill-opacity:1;fill-rule:evenodd;stroke:none;stroke-width:1px;stroke-linecap:butt;stroke-linejoin:miter;stroke-opacity:1"
       d="m 363.99219,18.416016 0,0.175781 c -5.99337,0.535106 -19.05664,2.865159 -19.05664,13.175781 0,9.837022 4.40392,16.195901 6.72656,18.869141 l 0,-0.433594 28.0293,0 c 2.39055,-2.892871 6.36132,-9.096569 6.36132,-18.435547 0,-10.310392 -13.06308,-12.640606 -19.05664,-13.175781 l 0,-0.175781 c 0,0 -0.63068,0.0189 -1.50195,0.06641 -0.87206,-0.04757 -1.50195,-0.06641 -1.50195,-0.06641 z"
       id="path8953"
       inkscape:connector-curvature="0" />
    <path
       style="opacity:1;fill:url(#linearGradient4169);fill-opacity:1;fill-rule:evenodd;stroke:none;stroke-width:1px;stroke-linecap:butt;stroke-linejoin:miter;stroke-opacity:1"
       d="m 636.52344,45.552734 c -29.11772,0 -52.10882,7.595595 -53.04883,7.910157 -2.76377,1.246883 -7.73758,4.111826 -11.23633,9.820312 -5.05446,8.246751 -2.92658,21.5483 -2.39453,25.804688 0.53205,4.256387 3.98935,13.036619 7.18164,15.962889 2.10092,1.92585 4.78564,5.00304 6.44922,6.96094 0.39285,-0.1904 0.84202,-0.39923 1.40625,-0.63281 1.84111,-0.7622 4.69031,-1.75297 8.82422,-2.73633 8.26781,-1.96672 21.67524,-3.90235 42.4668,-3.90235 20.79152,0 34.20096,1.93563 42.46874,3.90235 4.13392,0.98336 6.98116,1.97413 8.82227,2.73633 0.44994,0.18626 0.84238,0.36301 1.18359,0.52343 1.67296,-1.9655 4.2904,-4.96036 6.35352,-6.85156 3.19229,-2.92627 6.65154,-11.706502 7.18359,-15.962889 0.53205,-4.256388 2.65993,-17.557937 -2.39453,-25.804688 C 694.7346,55.036452 686.48633,52.642578 686.48633,52.642578 L 686.5,52.537109 c -7.2771,-2.105528 -26.60233,-6.984375 -49.97656,-6.984375 z"
       id="path8951"
       inkscape:connector-curvature="0" />
    <path
       style="opacity:1;fill:url(#linearGradient4167);fill-opacity:1;fill-rule:evenodd;stroke:none;stroke-width:1px;stroke-linecap:butt;stroke-linejoin:miter;stroke-opacity:1"
       d="m 351.66211,52.257812 c -3.24454,0.379953 -14.33416,1.919526 -21.24023,6.214844 -13.29416,8.268462 -12.19141,24.962891 -12.19141,24.962891 l -6.00586,1.841797 -1.28711,1.126953 c 1.4053,1.549963 3.76622,4.052581 6.69922,6.644531 4.58005,4.047492 10.39782,7.742962 13.85937,7.578122 4.20291,-0.20014 9.59506,-1.872029 14.27149,-3.917966 4.67643,-2.045936 8.75712,-4.566247 10.14062,-5.863281 1.31723,-1.234895 2.10768,-3.362101 3.10157,-5.466797 0.49694,-1.052348 1.05391,-2.116659 1.98632,-3 0.93242,-0.883341 2.33434,-1.472344 3.85157,-1.396484 1.61932,0.08097 2.45758,1.252611 3.05859,2.267578 0.60101,1.014967 1.05681,2.183635 1.49023,3.351562 0.43343,1.167928 0.83476,2.331867 1.20508,3.220704 0.37032,0.888837 0.88316,1.490008 0.67774,1.335937 0.66806,0.501046 1.40315,1.229258 2.51172,2.210938 1.10856,0.981679 2.4961,2.15616 4.06054,3.277343 3.12889,2.242368 6.95669,4.197266 10.48242,4.197266 3.47758,0 9.86518,-2.223419 15.92579,-5.201172 6.0606,-2.977753 11.9706,-6.683188 15.02734,-9.230469 0.15151,-0.126262 0.25442,-0.203525 0.40039,-0.324218 l -0.92578,-0.810547 -6.00391,-1.841797 c 0,0 1.10274,-16.694429 -12.1914,-24.962891 -6.48828,-4.035466 -16.7896,-5.651886 -20.7461,-6.154297 l 0,1.427735 -28.1582,0 0,-1.488282 z"
       id="path8949"
       inkscape:connector-curvature="0" />
    <path
       style="opacity:1;fill:url(#linearGradient4161);fill-opacity:1;fill-rule:evenodd;stroke:none;stroke-width:1px;stroke-linecap:butt;stroke-linejoin:miter;stroke-opacity:1"
       d="m 294.69336,82.605469 c -0.74612,-0.03972 -1.42727,0.0323 -2.00781,0.25 -4.64434,1.741629 4.06445,18.578121 4.06445,18.578121 0,0 10.44931,22.64147 12.77148,31.34961 1.5974,5.99024 3.1238,12.16281 4.13672,16.29688 1.6235,0.31185 3.73854,0.66879 6.9668,1.05664 8.15339,0.97956 21.90919,1.9707 44.13477,1.9707 22.22557,0 35.97941,-0.99114 44.13281,-1.9707 4.31322,-0.5182 6.93086,-1.00344 8.50781,-1.35547 1.03184,-4.20608 2.51589,-10.19093 4.06445,-15.99805 2.32217,-8.70814 12.77149,-31.34961 12.77149,-31.34961 0,0 8.70879,-16.836492 4.06445,-18.578121 -4.64434,-1.741628 -15.67383,5.80664 -15.67383,5.80664 l -0.23828,-0.208984 c -0.29223,0.239617 -0.51441,0.413381 -0.83398,0.679687 -3.46592,2.888262 -9.45362,6.604491 -15.73242,9.689454 -6.27881,3.084964 -12.67113,5.564454 -17.48829,5.564454 -4.76899,0 -9.12728,-2.41063 -12.54687,-4.861329 -1.70979,-1.225352 -3.18763,-2.480117 -4.34375,-3.503907 -1.15612,-1.023789 -2.08595,-1.875495 -2.29102,-2.029296 -1.07855,-0.808919 -1.38192,-1.74975 -1.82226,-2.806641 -0.44034,-1.056892 -0.84431,-2.242575 -1.25586,-3.351563 -0.41156,-1.108987 -0.84171,-2.143905 -1.2168,-2.777343 -0.17335,-0.292756 -0.29993,-0.4099 -0.36133,-0.47461 -0.47184,0.0096 -0.75,0.07309 -1.0625,0.369141 -0.36363,0.344497 -0.78994,1.029213 -1.2207,1.941406 -0.86152,1.824387 -1.70751,4.497769 -3.88281,6.53711 -2.10902,1.977199 -6.21458,4.369391 -11.14258,6.52539 -4.928,2.156002 -10.55849,3.974512 -15.52344,4.210942 -5.70631,0.27172 -11.56696,-4.215657 -16.37304,-8.462895 -3.28917,-2.906704 -5.91833,-5.732319 -7.31446,-7.289063 -0.93048,-0.625067 -8.38039,-5.547598 -13.2832,-5.808593 z"
       id="path8947"
       inkscape:connector-curvature="0" />
    <path
       style="opacity:1;fill:url(#linearGradient4157);fill-opacity:1;fill-rule:evenodd;stroke:none;stroke-width:1px;stroke-linecap:butt;stroke-linejoin:miter;stroke-opacity:1"
       d="m 636.17188,108.2832 c -20.57138,0 -33.70882,1.91846 -41.64649,3.80664 -3.96883,0.94409 -6.6383,1.87911 -8.28906,2.5625 -1.65076,0.68339 -2.1836,1.04883 -2.1836,1.04883 l -0.34961,-0.53125 c -1.01533,1.09959 -2.32778,2.68274 -2.95312,4.2461 -0.61776,1.54438 1.53864,3.87531 3.46094,5.57617 0.2198,-0.098 0.41529,-0.18951 0.66992,-0.29492 1.84111,-0.7622 4.69031,-1.75493 8.82422,-2.73829 8.26781,-1.96671 21.67524,-3.90234 42.4668,-3.90234 20.79152,0 34.20096,1.93563 42.46874,3.90234 4.13392,0.98336 6.98116,1.97609 8.82227,2.73829 0.17371,0.0719 0.29949,0.13256 0.45703,0.20117 1.89494,-1.69269 3.962,-3.9661 3.35547,-5.48242 -0.58439,-1.46098 -1.7789,-2.95383 -2.76562,-4.04688 l -0.21875,0.33203 c 0,0 -0.53284,-0.36544 -2.1836,-1.04883 -1.65076,-0.68339 -4.31827,-1.61841 -8.28711,-2.5625 -7.93767,-1.88818 -21.07706,-3.80664 -41.64843,-3.80664 z"
       id="path8945"
       inkscape:connector-curvature="0" />
    <path
       style="opacity:1;fill:url(#linearGradient4163);fill-opacity:1;fill-rule:evenodd;stroke:none;stroke-width:1px;stroke-linecap:butt;stroke-linejoin:miter;stroke-opacity:1"
       d="m 636.17188,121.59961 c -20.57138,0 -33.70882,1.91846 -41.64649,3.80664 -3.96883,0.94409 -6.6383,1.88106 -8.28906,2.56445 -1.65076,0.68339 -2.1836,1.04688 -2.1836,1.04688 l -0.23632,-0.35938 c -1.06468,0.65617 -2.15126,1.4886 -2.80079,2.46289 -0.94123,1.41187 0.0626,5.11337 1.04297,7.93164 l 0.64844,-0.42578 c 0,0 0.93428,-0.59912 2.77539,-1.36133 1.84112,-0.76217 4.69032,-1.75492 8.82422,-2.73828 8.26781,-1.96671 21.67527,-3.90234 42.4668,-3.90234 20.79153,0 34.19898,1.93563 42.46679,3.90234 4.13391,0.98336 6.98311,1.97609 8.82422,2.73828 1.03218,0.42732 1.70481,0.76767 2.16211,1.01563 0.88202,-2.69063 1.64044,-5.87431 0.78321,-7.16016 -0.60257,-0.90385 -1.58339,-1.69275 -2.57227,-2.32617 l -0.14648,0.22266 c 0,0 -0.53284,-0.36349 -2.1836,-1.04688 -1.65076,-0.68339 -4.31827,-1.62036 -8.28711,-2.56445 -7.93767,-1.88818 -21.07706,-3.80664 -41.64843,-3.80664 z"
       id="path8943"
       inkscape:connector-curvature="0" />
    <path
       style="opacity:1;fill:url(#linearGradient4173);fill-opacity:1;fill-rule:evenodd;stroke:none;stroke-width:1px;stroke-linecap:butt;stroke-linejoin:miter;stroke-opacity:1"
       d="m 636.77344,134.16797 c -20.57138,0 -33.70882,1.91846 -41.64649,3.80664 -3.96883,0.94409 -6.6383,1.88106 -8.28906,2.56445 -1.65076,0.68339 -2.18359,1.04883 -2.18359,1.04883 l -1.29297,0.84961 c 0.003,0.008 0.0488,0.12109 0.0488,0.12109 0,0 -0.10689,-0.0161 -0.18946,-0.0293 l -0.0469,0.0312 -0.0273,-0.043 c -0.50452,-0.0489 -1.59765,0.0525 -1.59765,1.9043 0,2.3942 1.86088,6.38356 3.45703,7.18164 1.59614,0.79807 2.92773,0 2.92773,0 l 0,0.61132 c 1.56258,-0.51634 3.44342,-1.0673 5.77149,-1.62109 8.26781,-1.96671 21.67524,-3.9043 42.4668,-3.9043 20.79152,0 34.20096,1.93759 42.46874,3.9043 2.16203,0.51429 3.95485,1.02908 5.45313,1.51367 l 0,-0.5039 c 0,0 1.32964,0.79807 2.92578,0 1.59615,-0.79808 3.45899,-4.78743 3.45899,-7.18164 0,-2.39421 -1.86329,-1.86329 -1.86329,-1.86329 0,0 0.21446,-0.52582 0.37305,-0.9082 l -0.0957,-0.0625 c 0,0 -0.53284,-0.36544 -2.1836,-1.04883 -1.65075,-0.68339 -4.32022,-1.62036 -8.28906,-2.56445 -7.93767,-1.88818 -21.0751,-3.80664 -41.64648,-3.80664 z"
       id="path8941"
       inkscape:connector-curvature="0" />
    <path
       style="opacity:1;fill:url(#linearGradient4163);fill-opacity:1;fill-rule:evenodd;stroke:none;stroke-width:1px;stroke-linecap:butt;stroke-linejoin:miter;stroke-opacity:1"
       d="m 636.17188,150.23438 c -20.57138,-10e-6 -33.70882,1.91845 -41.64649,3.80664 -2.83456,0.67427 -4.98057,1.33936 -6.5918,1.91601 l 0,0.9668 c 0,0 -3.9913,0.79957 -7.18359,1.59765 -3.19229,0.79807 -4.52304,3.99055 -4.78906,6.38477 -0.14915,1.34234 1.03593,3.25088 2.10937,4.68555 1.74166,-0.55174 3.80051,-1.13356 6.24414,-1.71485 10.07689,-2.39705 26.44838,-4.76367 51.85743,-4.76367 25.409,0 41.78053,2.36662 51.85742,4.76367 2.33214,0.55477 4.29279,1.10945 5.98437,1.63867 1.05777,-1.42594 2.19726,-3.29114 2.05078,-4.60937 -0.26602,-2.39422 -1.59677,-5.5867 -4.78906,-6.38477 -3.19229,-0.79808 -7.18164,-1.59765 -7.18164,-1.59765 l 0,-1.07422 c -1.57741,-0.55215 -3.60957,-1.17493 -6.27344,-1.80859 -7.93767,-1.88819 -21.07706,-3.80664 -41.64843,-3.80664 z"
       id="path8939"
       inkscape:connector-curvature="0" />
    <path
       style="opacity:1;fill:url(#linearGradient4169);fill-opacity:1;fill-rule:evenodd;stroke:none;stroke-width:1px;stroke-linecap:butt;stroke-linejoin:miter;stroke-opacity:1"
       d="m 416.40625,152.83398 c -1.73475,0.32916 -4.03876,0.70118 -7.0625,1.06446 -8.35377,1.00363 -22.24604,1.99609 -44.58398,1.99609 -22.33795,0 -36.23217,-0.99246 -44.58594,-1.99609 -2.20878,-0.26537 -4.02224,-0.53591 -5.52735,-0.79102 0.005,0.0191 0.0996,0.4043 0.0996,0.4043 0,0 -5.45961,-2.18591 -8.67773,4.67383 -2.33867,4.98507 1.7525,8.90304 4.17383,10.6875 1.72887,0.33989 4.0565,0.73783 7.63672,1.16797 8.62326,1.036 23.16583,2.08203 46.66211,2.08203 23.49627,0 38.03884,-1.04603 46.6621,-2.08203 6.08176,-0.73067 9.01555,-1.40228 10.27735,-1.7461 2.41501,-1.97873 5.55398,-5.60208 3.43945,-10.10937 -3.21812,-6.85974 -8.67969,-4.67383 -8.67969,-4.67383 0,0 0.15318,-0.62464 0.16602,-0.67774 z"
       id="path8937"
       inkscape:connector-curvature="0" />
    <path
       style="opacity:1;fill:url(#linearGradient4157);fill-opacity:1;fill-rule:evenodd;stroke:none;stroke-width:1px;stroke-linecap:butt;stroke-linejoin:miter;stroke-opacity:1"
       d="m 636.17188,166.65625 c -25.18891,0 -41.29037,2.34945 -51.03711,4.66797 -4.87338,1.15926 -8.1567,2.30953 -10.19727,3.1543 -1.70095,0.70416 -2.32862,1.07603 -2.53711,1.20507 l -1.22656,11.03516 c 0,0 2.9253,3.19256 5.85156,3.72461 1.29544,0.23553 3.7732,0.75634 6.03516,1.23633 0.42758,-0.10762 0.80112,-0.21456 1.2539,-0.32227 10.07689,-2.39705 26.44838,-4.76367 51.85743,-4.76367 25.409,0 41.78053,2.36662 51.85742,4.76367 0.40192,0.0956 0.73121,0.1896 1.11328,0.28516 2.2016,-0.46654 4.60016,-0.97063 5.85742,-1.19922 2.92626,-0.53205 5.85156,-3.72461 5.85156,-3.72461 l -1.24804,-11.22852 c -0.41707,-0.22299 -1.07205,-0.5467 -2.19532,-1.01171 -2.04057,-0.84477 -5.32584,-1.99504 -10.19922,-3.1543 -9.74674,-2.31852 -25.84822,-4.66797 -51.0371,-4.66797 z"
       id="path8935"
       inkscape:connector-curvature="0" />
    <path
       style="opacity:1;fill:url(#linearGradient4185);fill-opacity:1;fill-rule:evenodd;stroke:none;stroke-width:1px;stroke-linecap:butt;stroke-linejoin:miter;stroke-opacity:1"
       d="m 423.96484,171.52344 -0.31054,0.11523 c 0,0 -3.16843,1.14084 -11.99414,2.20117 -8.82571,1.06033 -23.50935,2.10938 -47.11914,2.10938 -23.6098,0 -38.29343,-1.04905 -47.11914,-2.10938 -6.29436,-0.7562 -9.61774,-1.53657 -11.06055,-1.93164 -2.09896,1.343 -4.17837,3.58547 -4.9668,7.31836 -0.65382,3.09558 0.37205,5.85806 0.88477,6.98242 1.92548,0.49802 4.38466,1.05213 7.62695,1.61524 10.08431,1.7514 27.10969,3.52344 54.63477,3.52344 27.52507,0 44.55045,-1.77204 54.63476,-3.52344 4.62382,-0.80305 7.73219,-1.59325 9.7793,-2.21094 0.52879,-1.35889 1.19384,-3.75819 0.63867,-6.38672 -0.87143,-4.12585 -3.31983,-6.42097 -5.62891,-7.70312 z"
       id="path8933"
       inkscape:connector-curvature="0" />
    <path
       style="opacity:1;fill:url(#linearGradient4157);fill-opacity:1;fill-rule:evenodd;stroke:none;stroke-width:1px;stroke-linecap:butt;stroke-linejoin:miter;stroke-opacity:1"
       d="m 925.48828,179.67188 c -5.01925,1.81606 -14.40688,4.38476 -27.62695,4.38476 -12.6849,0 -21.90614,-2.37887 -27.06641,-4.17578 -2.92829,1.66283 -7.03474,4.31726 -9.32031,7.25586 -3.77331,4.8514 -6.46875,10.78125 -6.46875,10.78125 0,0 -14.01404,4.31266 -24.25586,8.625 -10.24184,4.31236 -5.39057,13.47665 -3.77344,16.17187 1.5202,2.53366 22.57325,13.15951 44.79492,13.5293 0.0463,0.0527 0.0977,0.11994 0.14454,0.17383 l 52.82617,0 c 0.0468,-0.0539 0.0982,-0.12109 0.14453,-0.17383 22.22167,-0.36979 43.27278,-10.99564 44.79297,-13.5293 1.61714,-2.69522 6.47034,-11.85951 -3.77149,-16.17187 -10.24183,-4.31234 -24.25781,-8.625 -24.25781,-8.625 0,0 -2.69545,-5.92985 -6.46875,-10.78125 -2.39392,-3.07788 -6.75175,-5.82411 -9.69336,-7.46484 z"
       id="path8931"
       inkscape:connector-curvature="0" />
    <path
       style="opacity:1;fill:url(#linearGradient4163);fill-opacity:1;fill-rule:evenodd;stroke:none;stroke-width:1px;stroke-linecap:butt;stroke-linejoin:miter;stroke-opacity:1"
       d="m 432.02734,188.59766 c -0.39103,0.1414 -0.83061,0.29439 -1.3457,0.45703 -2.20362,0.69577 -5.67366,1.60166 -10.85742,2.50195 -10.36752,1.80058 -27.59561,3.58008 -55.2832,3.58008 -27.6876,0 -44.91569,-1.7795 -55.28321,-3.58008 -5.18375,-0.90029 -8.6538,-1.80618 -10.85742,-2.50195 -0.0636,-0.0201 -0.10434,-0.0368 -0.16601,-0.0566 -3.54929,1.95091 -8.12583,4.80998 -9.03126,7.06445 -4.10505,10.22139 7.54688,16.25391 7.54688,16.25391 l 23.80273,2.90234 c 0,0 0.006,0.78261 0.008,0.87891 10.27381,0.80002 24.52383,1.42968 44.19922,1.42968 20.58801,0 35.30891,-0.68603 45.66796,-1.53906 10e-4,-0.0741 0.008,-0.76953 0.008,-0.76953 l 23.80078,-2.90234 c 0,0 11.65389,-6.03252 7.54883,-16.25391 -0.96892,-2.41256 -6.1409,-5.52456 -9.75782,-7.46484 z"
       id="path8929"
       inkscape:connector-curvature="0" />
    <path
       style="opacity:1;fill:url(#linearGradient4181);fill-opacity:1;fill-rule:evenodd;stroke:none;stroke-width:1px;stroke-linecap:butt;stroke-linejoin:miter;stroke-opacity:1"
       d="m 636.17188,190.13672 c -22.58555,0 -37.82032,1.88934 -47.76368,3.95117 0.01,0.60623 0.0759,1.32538 0.32227,1.94141 0.53205,1.33012 7.44882,7.44874 7.71484,10.375 0.26602,2.92627 1.33052,8.24716 -0.26562,11.43945 -1.59615,3.19229 -3.99091,6.11902 -7.44922,10.10937 -3.45832,3.99038 -3.99024,8.51279 -3.99024,11.70508 0,3.19229 -4.4e-4,7.71512 1.59571,11.43946 1.59614,3.72434 12.5039,11.17187 12.5039,11.17187 l -10.90625,3.45899 -0.26757,2.66015 4.78906,3.72461 -5.85156,2.12891 -0.26758,7.18164 5.05468,5.05469 -5.05468,0.79882 -0.26563,5.05274 3.45899,0.5332 0.53125,9.04492 c 0,0 -3.45779,0.79715 -4.25586,4.52149 -0.79807,3.72434 3.72461,13.03654 3.72461,18.62304 0,5.58651 -3.19172,29.79396 -5.58594,35.64649 -2.39422,5.85253 -5.05469,22.34513 -5.05469,27.93164 0,4.73095 0.50074,12.9372 0.67578,15.73633 2.08717,0.71925 5.32969,1.68226 9.99219,2.66992 9.37584,1.98608 24.32262,3.99219 46.44141,3.99219 22.11877,0 37.06361,-2.00611 46.43945,-3.99219 4.68292,-0.99198 7.9388,-1.95944 10.02539,-2.67969 0.176,-2.80815 0.67578,-10.99965 0.67578,-15.72656 0,-5.58651 -2.66047,-22.07911 -5.05469,-27.93164 -2.39422,-5.85253 -5.58789,-30.05998 -5.58789,-35.64649 0,-5.5865 4.52268,-14.8987 3.72461,-18.62304 -0.79807,-3.72434 -4.25586,-4.52149 -4.25586,-4.52149 l 0.53125,-9.04492 3.45899,-0.5332 -0.26563,-5.05274 -5.05468,-0.79882 5.05468,-5.05469 -0.26562,-7.18164 -5.85352,-2.12891 4.78907,-3.72461 -0.26563,-2.66015 -10.9082,-3.45899 c 0,0 10.90776,-7.44753 12.5039,-11.17187 1.59615,-3.72434 1.59571,-8.24717 1.59571,-11.43946 0,-3.19229 -0.53192,-7.7147 -3.99024,-11.70508 -3.45831,-3.99036 -5.85307,-6.91708 -7.44922,-10.10937 -1.59614,-3.19229 -0.53164,-8.51318 -0.26562,-11.43945 0.26602,-2.92626 7.18279,-9.04488 7.71484,-10.375 0.25521,-0.63802 0.32087,-1.39136 0.32617,-2.00977 -9.95036,-2.03501 -25.11369,-3.88281 -47.44921,-3.88281 z"
       id="path8927"
       inkscape:connector-curvature="0" />
    <path
       style="opacity:1;fill:url(#linearGradient4181);fill-opacity:1;fill-rule:evenodd;stroke:none;stroke-width:1px;stroke-linecap:butt;stroke-linejoin:miter;stroke-opacity:1"
       d="m 410.38477,220.70703 c -10.49309,0.85017 -25.19692,1.52149 -45.625,1.52149 -19.52365,0 -33.7651,-0.61587 -44.15625,-1.41211 0.0617,10.73518 -0.0152,34.78836 -1.79297,47.23242 -2.32217,16.2552 -10.45035,60.37686 -13.9336,70.24609 -2.56739,7.27429 -8.24907,18.56654 -11.08007,24.04492 6.78863,2.09754 35.23937,10.15821 71.72656,10.15821 36.42245,0 64.82077,-8.02765 71.67383,-10.14258 -2.8288,-5.47365 -8.51858,-16.78082 -11.08789,-24.06055 -3.48325,-9.86923 -11.61143,-53.99089 -13.9336,-70.24609 -1.78836,-12.51852 -1.85519,-36.70724 -1.79101,-47.3418 z"
       id="path8925"
       inkscape:connector-curvature="0" />
    <path
       style="opacity:1;fill:url(#linearGradient4181);fill-opacity:1;fill-rule:evenodd;stroke:none;stroke-width:1px;stroke-linecap:butt;stroke-linejoin:miter;stroke-opacity:1"
       d="m 874.63867,239.96094 c 2.69325,3.99645 5.1435,9.43634 4.62695,15.63476 -1.07807,12.93705 -8.08814,55.52005 -15.0957,70.61328 -7.00757,15.09322 -19.94164,51.75014 -27.48828,55.52344 -7.5466,3.77331 -21.56254,10.7796 -22.64062,19.4043 -0.23335,1.86679 -0.45759,3.91277 -0.52149,6.00195 -0.29431,0.2572 -0.62317,0.55795 -0.92969,0.83008 0.0434,0.57407 0.23924,1.90302 1.11914,3.88867 1.19798,2.70346 3.65687,6.41368 8.86329,10.2207 10.41282,7.61412 31.94016,15.5586 75.82812,15.5586 43.88797,0 65.4153,-7.94449 75.82813,-15.5586 5.20641,-3.80703 7.6653,-7.51724 8.86328,-10.2207 0.83829,-1.89178 1.04572,-3.15931 1.10156,-3.77539 -0.3497,-0.31115 -0.72055,-0.65134 -1.05469,-0.94336 -0.0639,-2.08918 -0.28814,-4.13516 -0.52148,-6.00195 -1.07809,-8.6247 -15.09403,-15.63099 -22.64063,-19.4043 -7.54662,-3.7733 -20.48266,-40.43022 -27.49023,-55.52344 -7.00756,-15.09323 -14.01566,-57.67623 -15.09375,-70.61328 -0.51654,-6.19842 1.9337,-11.63831 4.62695,-15.63476 l -47.38086,0 z"
       id="path8923"
       inkscape:connector-curvature="0" />
    <path
       style="opacity:1;fill:url(#linearGradient4157);fill-opacity:1;fill-rule:evenodd;stroke:none;stroke-width:1px;stroke-linecap:butt;stroke-linejoin:miter;stroke-opacity:1"
       d="m 288.35742,365.31055 c -3.50382,0.0794 -8.2773,1.17127 -8.82422,6.42773 -0.74279,7.13918 6.45977,9.89226 6.18555,14.74219 -0.27422,4.84993 -2.36198,4.51396 -6.42578,11.48047 -4.0638,6.96652 -12.01075,5.69536 -17.95703,12.90234 -4.62941,5.61091 -5.80561,15.67355 -4.64453,20.89844 0.82535,3.71407 3.07696,8.21034 4.33398,10.55664 0.42424,0.36983 6.44961,5.47451 22.06055,10.82031 16.20354,5.54875 42.5003,11.14453 82.65625,11.14453 40.15594,0 66.45075,-5.59578 82.65429,-11.14453 12.73237,-4.36007 19.0628,-8.55082 21.21875,-10.16406 1.10297,-2.00271 3.76131,-7.0802 4.67969,-11.21289 1.16108,-5.22489 -0.0151,-15.28753 -4.64453,-20.89844 -5.94628,-7.20698 -13.89128,-5.93582 -17.95508,-12.90234 -4.0638,-6.96651 -6.15351,-6.63054 -6.42773,-11.48047 -0.27422,-4.84993 6.93029,-7.60301 6.1875,-14.74219 -0.87506,-8.41034 -12.57422,-6.1582 -12.57422,-6.1582 0,0 -0.0174,-0.0329 -0.0176,-0.0332 -5.36278,1.70294 -34.88682,10.49414 -73.33984,10.49414 -38.63995,0 -68.24233,-8.8709 -73.39258,-10.51172 -3.5e-4,6.6e-4 -0.0254,0.0508 -0.0254,0.0508 0,0 -1.64575,-0.31716 -3.74805,-0.26953 z"
       id="path8921"
       inkscape:connector-curvature="0" />
    <path
       style="opacity:1;fill:url(#linearGradient4169);fill-opacity:1;fill-rule:evenodd;stroke:none;stroke-width:1px;stroke-linecap:butt;stroke-linejoin:miter;stroke-opacity:1"
       d="m 697.03711,406.23828 0.041,0.0801 c 2e-5,0 -4.25675,2.1415 -13.90624,4.18555 -9.64952,2.04404 -24.84089,4.06836 -47.17383,4.06836 -22.33295,0 -37.52629,-2.02432 -47.17578,-4.06836 -9.6495,-2.04405 -13.90625,-4.18555 -13.90625,-4.18555 l 0.0391,-0.0781 c -0.63337,0.0285 -1.21955,0.0906 -1.6543,0.21485 -1.86217,0.53205 -7.44726,3.99023 -7.44726,3.99023 l -1.86329,6.65039 c 0,0 -3.72443,4.25693 -9.04492,7.44922 -5.32048,3.19229 -19.68554,10.64063 -19.68554,10.64063 0,0 -3.45747,4.25725 -1.86133,9.84375 1.19592,4.18573 6.2728,8.66858 8.74414,10.65429 1.25861,0.38916 38.50979,11.76563 94.0293,11.76563 53.41905,0 89.69423,-10.46567 93.51562,-11.61328 2.31578,-1.82598 7.68906,-6.42344 8.94141,-10.80664 1.59614,-5.5865 -1.86327,-9.84375 -1.86329,-9.84375 10e-6,0 -14.36506,-7.44834 -19.68554,-10.64063 -5.32049,-3.19229 -9.04492,-7.44922 -9.04492,-7.44922 l -1.86133,-6.65039 c 0,0 -5.58705,-3.45818 -7.44922,-3.99023 -0.44267,-0.12648 -1.04064,-0.18914 -1.6875,-0.2168 z"
       id="path8919"
       inkscape:connector-curvature="0" />
    <path
       style="opacity:1;fill:url(#linearGradient4163);fill-opacity:1;fill-rule:evenodd;stroke:none;stroke-width:1px;stroke-linecap:butt;stroke-linejoin:miter;stroke-opacity:1"
       d="m 809.5625,410.74414 c -5.86234,5.51832 -12.41649,12.68939 -13.84961,18.42188 -1.27653,5.10611 -0.60088,9.23959 1.47656,12.86914 -0.03,0.15586 -0.0548,0.32314 -0.082,0.48437 l 0.20508,-0.0976 c 0,-2e-5 0.9264,1.98959 3.75195,5.24218 2.82556,3.25259 7.48824,7.64239 14.80274,12.06055 14.629,8.83631 39.88742,17.80273 82.26367,17.80273 42.37624,0 67.63467,-8.96642 82.26367,-17.80273 7.3145,-4.41816 11.97718,-8.80796 14.80274,-12.06055 2.82555,-3.25259 3.75195,-5.24218 3.75195,-5.24218 l 0.63476,0.30078 c -0.0369,-0.23221 -0.0746,-0.46623 -0.11718,-0.6875 2.07737,-3.62955 2.75507,-7.76303 1.47847,-12.86914 -1.42367,-5.695 -7.90143,-12.81048 -13.73433,-18.31446 -0.20708,0.73519 -0.48588,1.55447 -0.87891,2.44141 -1.44448,3.25972 -4.34665,7.50068 -10.01367,11.64453 -11.33403,8.2877 -33.60412,16.24414 -77.91797,16.24414 -44.31384,10e-6 -66.58393,-7.95644 -77.91797,-16.24414 -5.66702,-4.14385 -8.56919,-8.38481 -10.01367,-11.64453 -0.41294,-0.93187 -0.69693,-1.78635 -0.90625,-2.54883 z"
       id="path8917"
       inkscape:connector-curvature="0" />
    <path
       style="opacity:1;fill:url(#linearGradient4181);fill-opacity:1;fill-rule:evenodd;stroke:none;stroke-width:1px;stroke-linecap:butt;stroke-linejoin:miter;stroke-opacity:1"
       d="m 259.60742,445.68555 -4.65625,3.49218 1.74024,29.02735 c 0,0 5.86872,5.08025 8.70898,6.38672 20.96671,9.64429 83.16379,9.98568 99.67188,9.90234 0.20835,10e-4 0.54936,-0.001 0.77539,0 0.0438,-2.6e-4 0.0253,2.7e-4 0.0684,0 16.50827,0.0833 78.70326,-0.25807 99.66992,-9.90234 2.84026,-1.30647 8.70898,-6.38672 8.70898,-6.38672 l 1.74219,-29.02735 -4.4082,-3.30468 c -2.6247,1.90187 -9.51946,6.31392 -22.08594,10.61718 -16.6242,5.6928 -43.31554,11.33789 -83.80078,11.33789 -40.48525,3e-5 -67.17854,-5.64509 -83.80274,-11.33789 -13.08566,-4.48105 -19.9652,-9.04569 -22.33203,-10.80468 z"
       id="path8915"
       inkscape:connector-curvature="0" />
    <path
       style="opacity:1;fill:url(#linearGradient4181);fill-opacity:1;fill-rule:evenodd;stroke:none;stroke-width:1px;stroke-linecap:butt;stroke-linejoin:miter;stroke-opacity:1"
       d="m 999.8457,447.53711 c -0.5479,0.73803 -1.19964,1.56134 -1.97265,2.45117 -3.05712,3.51915 -8.01301,8.15871 -15.64649,12.76953 -15.26694,9.22165 -41.2191,18.3125 -84.0957,18.3125 -42.8766,0 -68.82876,-9.09085 -84.0957,-18.3125 -7.63348,-4.61082 -12.58937,-9.25038 -15.64649,-12.76953 -0.59739,-0.68767 -1.10286,-1.32345 -1.56445,-1.92383 0.34503,10.62829 4.35409,24.68237 26.38086,33.39063 23.17888,9.16374 37.1922,9.70119 59.83203,10.7793 0.65791,0.0313 1.00978,0.0429 1.64062,0.0723 l -0.16601,1.00781 c 0,0 3.59739,-0.0161 13.79101,-0.41211 10.24117,0.39835 13.84375,0.41211 13.84375,0.41211 l -0.16601,-1.00781 c 0.63074,-0.0295 0.98085,-0.041 1.63867,-0.0723 22.63983,-1.07809 36.65511,-1.61556 59.83398,-10.7793 22.3958,-8.85415 26.16294,-23.23112 26.39258,-33.91797 z"
       id="path8913"
       inkscape:connector-curvature="0" />
    <path
       style="opacity:1;fill:url(#linearGradient4181);fill-opacity:1;fill-rule:evenodd;stroke:none;stroke-width:1px;stroke-linecap:butt;stroke-linejoin:miter;stroke-opacity:1"
       d="m 540.98633,459.03906 -6.79102,6.20703 -0.79687,17.5586 3.72461,12.23633 c 0,0 74.48604,11.4391 95.50195,10.375 1.43993,-0.0729 2.12571,-0.1235 3.38672,-0.19141 1.26163,0.0679 1.94791,0.11846 3.38867,0.19141 21.01591,1.0641 95.50391,-10.375 95.50391,-10.375 l 3.72461,-12.23633 -0.79883,-17.5586 -6.71289,-6.13671 c -2.00441,0.61431 -39.50968,11.88476 -94.94531,11.88476 -56.41511,0 -94.43888,-11.72321 -95.18555,-11.95508 z"
       id="path8446"
       inkscape:connector-curvature="0" />
  </g>
</svg>
