<?xml version="1.0"?>
<svg xmlns:rdf="http://www.w3.org/1999/02/22-rdf-syntax-ns#" xmlns="http://www.w3.org/2000/svg" xmlns:cc="http://creativecommons.org/ns#" xmlns:xlink="http://www.w3.org/1999/xlink" xmlns:dc="http://purl.org/dc/elements/1.1/" id="svg2" viewBox="0 0 1052.4 744.09" version="1.1">
  <defs id="defs4">
    <filter id="filter4451">
      <feGaussianBlur id="feGaussianBlur4453" stdDeviation="8.3589911"/>
    </filter>
    <filter id="filter4455">
      <feGaussianBlur id="feGaussianBlur4457" stdDeviation="8.3589911"/>
    </filter>
    <filter id="filter4459">
      <feGaussianBlur id="feGaussianBlur4461" stdDeviation="8.3589911"/>
    </filter>
    <filter id="filter4626">
      <feGaussianBlur id="feGaussianBlur4628" stdDeviation="4.6025001"/>
    </filter>
    <linearGradient id="linearGradient4667" y2="1054.7" gradientUnits="userSpaceOnUse" x2="518.86" y1="308.27" x1="518.86">
      <stop id="stop3758" stop-color="#000001" offset="0"/>
      <stop id="stop3764" stop-color="#00002b" offset=".40138"/>
      <stop id="stop3766" stop-color="#000087" offset="1"/>
      <stop id="stop3768" stop-color="#004ac9" offset="1"/>
      <stop id="stop3760" stop-color="#00f" stop-opacity=".36275" offset="1"/>
    </linearGradient>
  </defs>
  <g id="layer1" transform="translate(0 -308.27)">
    <g id="g4669">
      <path id="path4353" d="m31.188 292.03c-25.966 0-47.406 21.44-47.406 47.406v680.56c0 25.966 21.44 47.406 47.406 47.406h990.69c25.966 0 47.406-21.44 47.406-47.406v-680.56c0-25.966-21.44-47.406-47.406-47.406h-990.69z" fill="url(#linearGradient4667)" transform="matrix(.81642 0 0 .79289 85.046 166.68)"/>
      <path id="path3770" filter="url(#filter4459)" d="m780.37 595.06-240.25-112.97-2.86 417.38-13.53-417.13-275.66 132.68 267.21-145.13-163.47-89.81l171.42 77.101 5.5674-132.81 10.829 132.56 128.56-59.743-120.11 72.196z" fill="#fff" transform="matrix(.82612 0 0 .78160 81.538 172.84)"/>
      <path id="path3821" filter="url(#filter4455)" d="m537.73 846-13.66-365-217.19 104.54 210.8-115.84-167.17-88.16l173.76 76.992 6.3836-120.78 6.5879 120.9 112.23-50.303-105.85 61.596 187.22 102.32-193.81-91.142z" fill="#fff" transform="matrix(.82612 0 0 .78160 81.538 172.84)"/>
      <path id="path3880" opacity=".75" d="m540.09 864.4-17.04-381.87-249.14 124.21 241.53-137.38-216.76-119.69l224.37 106.52 7.606-138.95 7.606 138.95 127.67-58.169-120.07 71.343 204.97 110.26-212.58-97.084z" transform="matrix(.82612 0 0 .78160 81.538 172.84)" filter="url(#filter4451)" fill="#fff"/>
      <path id="path3889" d="m236.97 882.92c-0.47053 0.01-0.86811 0.0227-1.0843 0.0749-0.97419 0.23551-1.7403 0.83042-2.7365 1.011-0.89106 0.16156-1.8439 0-2.7624 0-0.45924 0-0.95751-0.14895-1.3683 0-6.3052 2.2864 5.8229-0.42783-4.1564 1.9846-0.87134 0.21065-1.8455-0.16156-2.7365 0-1.4089 0.25544-2.7217 0.75561-4.1306 1.011-0.44552 0.0808-0.98333-0.14895-1.3941 0-0.5809 0.21065-0.78738 0.78169-1.3683 0.99233-1.1022 0.39967-3.0284-0.39967-4.1306 0-0.41076 0.14895 0.32472 0.75682 0 0.99232-0.32473 0.23551-0.98333-0.14894-1.3941 0-0.5809 0.21065-0.78737 0.8004-1.3683 1.0111-0.41076 0.14894-0.9326-0.10534-1.3683 0-0.97418 0.2355-1.7882 0.75682-2.7623 0.99231-0.43567 0.10533-0.93259-0.10534-1.3683 0-0.97419 0.23552-1.7882 0.77554-2.7624 1.011-1.307 0.31597-2.794-0.24234-4.1306 0-0.99622 0.18062-1.7661 0.8117-2.7623 0.99233-0.89106 0.16155-1.891-0.21064-2.7624 0-0.61613 0.14895-0.78736 0.78169-1.3683 0.99232-0.41075 0.14896-0.90903 0-1.3683 0-0.91848 0-1.891-0.21063-2.7623 0-1.5708 0.37974-1.637 2.6056-4.1306 2.0034-0.43567 0.10533-0.93485 0-1.3941 0h-4.1306c-0.45925 0-1.0435-0.23551-1.3683 0-0.32473 0.23551 0.41076 0.84336 0 0.99232-0.8215 0.2979-1.891-0.21064-2.7623 0-0.61613 0.14894-0.78737 0.8004-1.3683 1.011-0.41076 0.14895-0.93485 0-1.3941 0-0.91848 0-1.8652-0.21065-2.7365 0-1.5708 0.37975-1.637 2.6056-4.1306 2.0034-0.89246 0.21575-9.521 0-11.024 0h-23.441c-1.6472 0-7.362-0.21738-8.2612 0-9.9793 2.4125 2.1746-0.30177-4.1306 1.9846-0.82151 0.29789-1.9408-0.29789-2.7623 0-0.5809 0.21065-0.75214 0.8621-1.3683 1.011-0.87134 0.21064-1.8439 0-2.7623 0-0.45924 0.33305-0.78737 0.78168-1.3683 0.99233-0.82151 0.29789-1.9408-0.2979-2.7623 0-1.8549 0.67262-0.90745 1.3307-2.7624 2.0034-0.41075 0.14895-0.95751-0.14895-1.3683 0-0.58089 0.21064-0.75213 0.84338-1.3683 0.99233-0.87134 0.21065-1.891-0.21064-2.7623 0-0.61613 0.14895-0.78737 0.78168-1.3683 0.99232-0.41075 0.14894-0.93484 0-1.3941 0h-2.7365c-5.5863 0-6.7667 0.0297-8.6743-0.33702v80.884c0 9.9577 11.054 17.974 24.784 17.974h818.43c13.73 0 24.784-8.0165 24.784-17.974v-85.527h-13.424c-0.91848 0-1.8712-0.16155-2.7624 0-0.99614 0.18062-1.7403 0.8117-2.7364 0.99233-0.89113 0.16155-1.8439 0-2.7624 0h-15.154c-0.91832 0-1.8712-0.16156-2.7623 0-0.99622 0.18063-1.7403 0.8117-2.7365 0.99232-0.89104 0.16155-1.8439 0-2.7623 0-1.4327 0-7.1775-0.19649-8.2612 0-0.99623 0.18062-1.7661 0.83042-2.7624 1.011-1.0837 0.19649-6.8285 0-8.2612 0h-44.094c-0.91847 0-1.891 0.21064-2.7623 0-0.61613-0.14895-0.75214-0.8621-1.3683-1.011-0.87133-0.21064-1.8713 0.16155-2.7623 0-0.99623-0.18062-1.7882-0.75681-2.7623-0.99232-0.74563-0.18026-5.0295 0-5.4989 0h-12.392c-2.1279 0-4.9454 0.2354-6.8929 0-1.4325-0.17315-2.7066-0.78577-4.1306-0.99233-1.1279-0.16359-6.1862 0.2563-6.893 0-2.0272-0.73509-1.4966-1.0012-1.2392-1.0672-0.17382 0.0161-0.82803 0.0562-2.8914 0.0562h-19.285c-0.49883 0-7.3218 0.17502-8.287 0-0.99622-0.18061-1.7403-0.81169-2.7365-0.99232-0.89105-0.16156-1.8439 0-2.7623 0h-17.917c-0.91847 0-1.8455 0.16156-2.7365 0-0.99623-0.18062-1.7661-0.8117-2.7623-0.99232-1.8114-0.32844-5.1819 0.41364-6.893 0-0.61613-0.14896-0.78737-0.8004-1.3683-1.011-0.41074-0.14894-0.93483 0-1.3941 0h-8.2613c-0.45924 0-0.92273 0.0808-1.3683 0-1.4089-0.25544-2.7529-0.65927-4.1306-0.99232-0.45924-0.33306-0.77795-0.86211-1.3941-1.0111-0.87135-0.21064-1.8439 0-2.7624 0-1.3777 0-2.7796 0.19595-4.1306 0-1.0069-0.14605-1.7403-0.81169-2.7365-0.99232-0.89104-0.16156-1.8713 0.16156-2.7623 0-0.99622-0.18062-1.7882-0.75682-2.7623-0.99232-0.43567-0.10534-0.93259 0.10533-1.3683 0-0.97418-0.23552-1.7661-0.83043-2.7623-1.0111-0.89104-0.16154-1.8617 0.13064-2.7623 0-1.424-0.20654-2.7066-0.78576-4.1306-0.99232-0.90063-0.13063-1.9723 0.3695-2.7365 0-0.85443-0.4131-0.66796-1.4768-1.3941-2.0034-0.32473-0.2355-0.95751 0.14897-1.3683 0-0.58089-0.21064-0.81319-0.78167-1.3941-0.99231-0.41076-0.14897-0.95751 0.14893-1.3683 0-0.58088-0.21065-0.78737-0.8004-1.3683-1.0111-1.1022-0.39967-3.0284 0.39968-4.1306 0-0.58089-0.21064-0.81318-0.78168-1.3941-0.99232-0.41074-0.14895-0.90903 0-1.3683 0h-9.6553c-0.45923 0-0.93259 0.10534-1.3683 0-0.97419-0.23551-1.7882-0.75683-2.7623-0.99232-0.7773-0.18793-3.2253 0-4.1306 0h-44.095c-1.1279 0-5.9745-0.21581-6.8671 0-0.97418 0.23549-1.7882 0.75681-2.7623 0.99232-0.96875 0.23419-6.5153-0.27388-6.893 0-0.32473 0.23552 0.32473 0.75682 0 0.99232-0.64945 0.47102-2.1129-0.47101-2.7623 0-0.32472 0.23552 0.41076 0.86209 0 1.0111-1.2323 0.44684-2.8984-0.44685-4.1306 0-0.5809 0.21064-1.0778 0.57102-1.3683 0.99231-0.20538 0.29791 0.41075 0.8621 0 1.0111-0.82151 0.29789-1.9408-0.2979-2.7623 0-0.41076 0.14894 0.38211 0.80757 0 0.99232-1.2083 0.58422-2.7822 0.60117-4.1306 0.99232-0.95344 0.2766-1.9079 0.59794-2.7623 1.0111-0.54038 0.26127-0.75213 0.84338-1.3683 0.99232-0.87134 0.21064-1.8713-0.16156-2.7623 0-1.9924 0.36125-3.5505 1.5324-5.4989 2.0034-1.2399 0.29974-2.8907-0.29976-4.1306 0-0.61613 0.14894-0.81318 0.78168-1.3941 0.99232-0.41075 0.14896-0.93259-0.10534-1.3683 0-9.9793 2.4125 2.1746-0.28305-4.1306 2.0034-0.41074 0.14895-0.93484 0-1.3941 0h-22.022c-0.45924 0-0.9584 0.10534-1.3941 0-0.97418-0.23552-1.7882-0.75682-2.7623-0.99232-0.86472-0.20905-4.3898 0-5.4989 0h-60.618c-1.4304 0-4.3583 0.21147-5.5247 0-1.4089-0.25545-2.7066-0.8045-4.1306-1.011-2.1672-0.31435-4.7498 0.38857-6.893 0-6.6529-1.2062 0.0708-0.47986-4.1306-2.0034-0.41074-0.14895-1.0435 0.23551-1.3683 0-2.8505-2.0673 4.3654 0.0945-1.3683-1.9846-0.82151-0.2979-2.1129 0.471-2.7624 0-0.32473-0.23552 0.32473-0.77554 0-1.0111-0.32473-0.2355-0.90902 0-1.3683 0-1.803 0-5.3392 0.22539-6.893 0-1.424-0.20654-2.7217-0.73688-4.1306-0.99232-0.89105-0.16156-1.8439 0-2.7624 0h-8.2612c-0.45923 0-1.0693-0.23551-1.3941 0-0.32473 0.23551 0.32474 0.75682 0 0.99232-0.32473 0.23552-0.93259-0.10533-1.3683 0-0.97419 0.23552-1.7882 0.77554-2.7623 1.0111-0.43567 0.10533-1.0435-0.23552-1.3683 0-0.32473 0.2355 0.32473 0.75681 0 0.99232-0.64946 0.47102-1.9408-0.2979-2.7624 0-0.58089 0.21064-0.75213 0.84337-1.3683 0.99232-0.87133 0.21064-1.9408-0.29789-2.7623 0-0.41075 0.14895 0.41075 0.8621 0 1.0111-0.82151 0.2979-1.8439 0-2.7623 0h-19.284c-0.91847 0-1.8713-0.16156-2.7623 0-0.99622 0.18062-1.7623 0.75681-2.7365 0.99232-1.307 0.31597-2.8236-0.31598-4.1306 0-0.61614 0.14896-0.81319 0.80039-1.3941 1.011-0.41076 0.14894-0.93259-0.10534-1.3683 0-0.97418 0.2355-1.7882 0.7568-2.7623 0.99232-0.40914 0.0989-6.6102 0.10257-6.893 0-0.58089-0.21064-0.78737-0.78168-1.3683-0.99232-0.41076-0.14896-0.90902 0-1.3683 0-2.1279 0-4.9454 0.23541-6.893 0-1.4325-0.17316-2.6981-0.8379-4.1306-1.011-3.242-0.39188-7.8554 0.45953-11.024 0-1.0069-0.14605-1.7494-0.86989-2.7623-0.99232-2.7179-0.32854-5.5058 0-8.2612 0-0.45924 0-0.94856 0.0808-1.3941 0-1.4089-0.25544-2.7066-0.8045-4.1306-1.0111-0.90064-0.13064-1.8652 0.21064-2.7365 0-0.61613-0.14895-0.81319-0.78168-1.3941-0.99232-0.90214-0.32714-5.6703 0.29556-6.893 0-0.97419-0.23551-1.7403-0.81171-2.7365-0.99232-0.89105-0.16156-1.8439 0-2.7623 0h-8.2612c-0.45924 0-0.95841 0.10533-1.3941 0-0.97419-0.23552-1.7623-0.77554-2.7365-1.0111-0.43566-0.10533-0.98332 0.14897-1.3941 0-0.58089-0.21063-0.78737-0.78168-1.3683-0.99232-0.39431-0.14298-6.157 0-6.893 0-0.45924 0-1.0435 0.23551-1.3683 0-0.72611-0.52661-0.53966-1.5903-1.3941-2.0034-0.76422-0.36948-2.0871 0.47103-2.7365 0-0.64945-0.471 0.41076-1.4076 0-2.0034-0.20537-0.29789-1.0694 0.23552-1.3941 0-0.32473-0.2355 0.32473-0.7568 0-0.99232-0.32473-0.23551-0.93259 0.10534-1.3683 0-9.9793-2.4125 2.1746 0.28304-4.1306-2.0034-0.41075-0.14894-0.98333 0.14896-1.3941 0-1.1618-0.42128-1.5747-1.5634-2.7365-1.9846-0.41076-0.14896-0.95841 0.10533-1.3941 0-0.97419-0.23552-1.7623-0.77554-2.7365-1.0111-0.86713-0.20962-5.6511 0-6.8929 0-0.83182 0-3.0288-0.10434-4.4404-0.0749z" fill="#000b00"/>
      <path id="path4345" d="m316.73 905.1c0.20072-0.18374 0.72172-0.20338 1.1578-0.0436 0.48187 0.17651 0.33874 0.30753-0.36495 0.33406-0.63677 0.024-0.99355-0.10668-0.79282-0.29041zm62.623-1.3365c-2.6486-0.66641-4.1931-1.6468-4.1931-2.6618 0-0.5367-0.25877-1.2127-0.57504-1.5022-0.6893-0.63096-0.77873-2.7786-0.38514-9.2484 0.20138-3.3102 0.0937-4.7396-0.33862-4.495-0.43832 0.24796-0.44473 0.0351-0.0208-0.69003 0.41723-0.71361 0.41207-1.3775-0.0161-2.0778-0.47707-0.78032-0.45011-0.92787 0.11148-0.61016 0.57076 0.3229 0.58829 0.15834 0.0764-0.71721-0.82097-1.4042-0.86766-3.4207-0.0792-3.4207 0.3218 0 0.42863-0.37323 0.23739-0.8294-0.19123-0.45617-0.0755-0.8294 0.25726-0.8294 0.82684 0-0.45841-3.6-2.2208-6.2205-1.2912-1.92-3.0874-2.8046-3.0874-1.5206 0 0.30412-0.20387 0.50008-0.45305 0.43547-0.24917-0.0646-1.0465 0.18406-1.7718 0.5526-0.92228 0.46863-1.3033 1.1663-1.2675 2.3207 0.12445 4.007-4.6026 5.5483-14.742 4.8066-4.1148-0.30099-4.4769 0.15128-2.8251 3.5285 1.4897 3.0458 1.4866 3.0434 2.7716 2.1201 0.98342-0.70653 1.0006-0.6871 0.20803 0.23588-0.77339 0.90071-0.69435 1.1319 0.7563 2.2117 1.0183 0.75803 1.6952 1.8742 1.8225 3.0051 0.11138 0.98957 0.38265 1.9641 0.60283 2.1657 0.22017 0.20155 0.40032 1.329 0.40032 2.5055s0.39897 2.6964 0.88658 3.3776c0.48761 0.68122 1.0092 2.385 1.1591 3.7861l0.27254 2.5476-1.7632-0.6092c-0.96974-0.33506-1.7632-0.81816-1.7632-1.0735 0-0.25539-0.33978-0.28536-0.75507-0.0666-0.41529 0.21877-0.56094 0.2009-0.32367-0.0397 0.23727-0.24061-0.36037-1.8137-1.3281-3.4957-1.2791-2.2232-1.6067-3.3196-1.1998-4.0156 0.39793-0.6806 0.24171-1.3341-0.54043-2.2606-0.60509-0.71678-1.515-2.4229-2.022-3.7914-1.903-5.1369-9.3583-13.823-11.864-13.823-0.26741 0-1.1038 1.207-1.8587 2.6823-1.0484 2.0489-1.3224 3.4202-1.1604 5.8067 0.11667 1.7184 0.0346 3.1862-0.18244 3.2617-0.43371 0.15102 0.79751 6.704 1.8579 9.8884 0.46496 1.3963 1.2065 2.2136 2.4288 2.6771 1.8303 0.69397 2.8342 2.1029 2.0172 2.831-0.26006 0.23174-1.1619 0.57691-2.0041 0.76703-1.1779 0.26591-2.1914-0.11574-4.392-1.6538-1.5734-1.0997-2.7148-2.2158-2.5363-2.4801 0.17847-0.26432 0.0523-0.63457-0.28039-0.82278-0.33267-0.18821-0.58697-1.7605-0.5651-3.494 0.0958-7.5979-0.0703-11.169-0.51967-11.169-0.26554 0-0.53978-0.63035-0.60944-1.4008-0.0697-0.77043-0.50743-2.0767-0.97284-2.9029-0.73102-1.2977-0.72311-1.7839 0.0581-3.5725 0.49738-1.1387 1.1454-1.934 1.4401-1.7673 0.29467 0.16671 1.2176-0.32104 2.051-1.0839 1.3205-1.2088 1.5046-1.8343 1.4329-4.868-0.0453-1.9145-0.19923-2.8589-0.3422-2.0986-0.68675 3.652-1.5826 5.6911-2.9886 6.8024-1.4423 1.14-3.6264 4.406-3.7708 5.6386-0.15684 1.339-1.2989 0.73695-2.1534-1.1351-1.4881-3.26-1.1999-4.6084 1.4846-6.9459 1.3289-1.1572 2.4162-2.4054 2.4162-2.7738 0-0.36839 0.41625-1.0908 0.92499-1.6054 0.50875-0.51458 1.0138-2.2282 1.1224-3.8079 0.10855-1.5798 0.46852-3.1205 0.79993-3.4239 0.35744-0.32718 0.42069-1.4621 0.15546-2.7897-0.2846-1.4247-0.12778-3.4734 0.43147-5.6369 0.48323-1.8693 0.92755-3.9378 0.98741-4.5967 0.0599-0.65892 0.21843-1.0977 0.3524-0.97506 0.48587 0.44475 3.0963-3.3463 2.7965-4.0613-0.16939-0.40409-0.0611-0.59499 0.24077-0.42425 0.30182 0.17075 1.0462-0.26797 1.6542-0.97492 0.60801-0.70695 3.0082-2.4346 5.3339-3.8392 2.3256-1.4046 4.5002-3.037 4.8324-3.6274 0.33224-0.59048 1.1233-1.9132 1.758-2.9395 0.86043-1.3913 1.1932-3.1611 1.3081-6.9578 0.0848-2.8005 0.32906-5.3509 0.54285-5.6676 0.21381-0.31665 0.10939-0.57574-0.23202-0.57574-0.34142 0-0.45376-0.39833-0.24966-0.8852 0.20411-0.48687-0.008-1.1051-0.47199-1.3739-0.65387-0.37899-0.66563-0.49057-0.0524-0.49714 0.4349-0.004 0.64065-0.23074 0.45722-0.50241-0.40259-0.59628 2.4846-1.3398 3.3348-0.85878 0.33047 0.18697 0.43556 0.81662 0.23354 1.3993-0.57951 1.6714 0.49591 1.2427 2.5446-1.0142 3.5062-3.8625 4.2565-4.5617 4.8952-4.5617 0.92658 0 2.1226-3.7213 1.7485-5.4406-0.51398-2.3624 0.95818-3.6427 4.2826-3.7243 1.5701-0.0385 3.1609 0.1466 3.5352 0.41145 0.81576 0.57726 1.0997 8.7535 0.30398 8.7535-0.9404 0-1.3061 2.5482-0.62304 4.3418 0.3578 0.93951 0.92384 1.6533 1.2579 1.5861 1.2739-0.25607 1.9887 1.6737 1.1508 3.1068-0.43914 0.75108-0.60411 1.6534-0.36661 2.0052 0.23748 0.35175 0.56692 1.433 0.73207 2.4027 0.3976 2.3347 0.77752 2.6091 0.84628 0.6112 0.16912-4.9132 0.17262-4.9226 1.9105-5.1056 1.5569-0.16394 1.6541-0.0518 1.5101 1.7432-0.0846 1.0551-0.39312 1.7835-0.68557 1.6186-0.29416-0.16582-0.41499 1.1777-0.27044 3.0071 0.25966 3.2858 2.1605 6.702 3.2351 5.8139 0.26348-0.21778 0.27884-0.078 0.0342 0.31066-0.54109 0.85929 2.0143 2.968 3.1519 2.6009 0.43254-0.13956 0.62774-0.0187 0.43379 0.26856-0.50239 0.74409 2.5104 2.4168 3.6389 2.0204 0.51816-0.18202 0.79446-0.11225 0.614 0.15504-0.30874 0.45728 2.5892 1.2143 5.502 1.4372 1.1895 0.091 1.3288-0.202 1.5101-3.1774 0.10992-1.8027 0.0876-3.3796-0.0495-3.5041-0.69975-0.63553-0.5653-3.9904 0.22067-5.5066 1.3848-2.6712 6.2651-3.7831 9.6054-2.1884 0.94822 0.45267 1.9676 0.68528 2.2652 0.51689 0.29765-0.16839 0.54983-0.10487 0.56039 0.14116 0.0433 1.009 1.7851 2.4797 3.1026 2.6199 3.4048 0.36221 5.1303 1.0628 6.5028 2.6401 1.4364 1.6508 1.4433 1.706 0.30203 2.4282-0.64229 0.40644-1.5658 1.0559-2.0523 1.4433-0.4865 0.38737-1.3699 0.62904-1.9632 0.53704-0.93601-0.14515-1.0786 0.27173-1.0786 3.1525 0 3.3292-0.73004 4.5967-1.9856 3.4474-0.93778-0.85842-1.665-0.76834-1.2766 0.15813 0.17834 0.42541-0.008 0.96149-0.41431 1.1913-0.50341 0.28478-0.58297 0.18736-0.24988-0.30598 0.31739-0.47009 0.25233-0.59009-0.18562-0.34233-0.46418 0.26261-0.49323 0.81743-0.0933 1.7804 0.33526 0.80714 0.36068 1.793 0.0601 2.3304-0.28653 0.51229-0.41099 2.1689-0.27657 3.6814 0.18382 2.0684-0.0849 3.3361-1.0842 5.1146-0.73074 1.3006-1.5147 2.3646-1.7421 2.3646-0.22741 0-0.72957 0.96577-1.1159 2.1462-0.38635 1.1804-1.106 2.4527-1.5991 2.8273-0.49316 0.37465-0.74962 0.89896-0.56991 1.1651 0.17971 0.26618-0.0377 0.35595-0.48307 0.1995-0.46928-0.16484-1.562 0.64611-2.5986 1.9285-0.98384 1.2172-2.1286 2.2189-2.5439 2.2261-0.41529 0.007-0.75507 0.26189-0.75507 0.566 0 0.30412-0.5276 0.55294-1.1725 0.55294-0.64485 0-1.3331 0.23796-1.5295 0.52878-0.19636 0.29084-0.80064 0.37296-1.3428 0.18251-0.71193-0.25007-0.84845-0.14281-0.49138 0.38605 0.33271 0.49279 0.26141 0.60049-0.21799 0.32928-0.42145-0.23843-1.3781 0.29129-2.342 1.2969-0.89628 0.93497-2.0967 1.7-2.6676 1.7-0.57087 0-1.2074 0.25105-1.4146 0.55788-0.59032 0.87432 0.2895 2.7597 1.2878 2.7597 0.49557 0 0.75142 0.22161 0.56854 0.49246-0.18287 0.27084 0.29354 0.86792 1.0587 1.3268 1.8165 1.0895 2.9654 4.64 3.1689 9.7923 0.0901 2.2809 0.56885 5.543 1.0639 7.2492 0.4951 1.7062 0.77348 3.9629 0.6186 5.0148-0.15487 1.052 0.10026 2.9272 0.56696 4.1672 1.3898 3.6924-0.93933 5.4892-3.6079 2.7833-1.3825-1.4019-3.4339-5.029-2.5668-4.5384 0.30956 0.17513 0.59504-0.25612 0.6344-0.95832 0.10838-1.9332-0.12826-2.8992-0.80435-3.2833-0.37726-0.21437-0.30897-0.44024 0.17805-0.58883 0.85492-0.26086 0.98131-2.9254 0.33587-7.081-0.40157-2.5855-2.3873-6.6916-4.0838-8.4446-0.9178-0.94835-1.0059-0.9521-1.3804-0.0587-0.22002 0.52485-0.23457 1.9686-0.0323 3.2082 0.24272 1.4877 0.0681 2.7816-0.5138 3.806-1.314 2.3135-1.0761 10.964 0.34098 12.397 0.58213 0.58857 0.89709 1.2178 0.69992 1.3983-0.19718 0.18049-0.17946 0.84455 0.0394 1.4757 0.28354 0.81776 0.90697 1.1475 2.1694 1.1475 1.4676 0 1.7715 0.22782 1.7715 1.3282 0 1.5804-2.4655 2.582-4.8677 1.9776zm13.283-59.651c1.7344-2.2296 1.5965-7.2736-0.1723-6.3034-0.38047 0.2087-0.30915-0.0521 0.1585-0.57954 1.0974-1.2377 0.38165-1.831-2.6624-2.207-1.3289-0.16411-3.465-0.70094-4.7467-1.193-2.6967-1.0351-3.1808-0.84874-2.1914 0.84361 0.39076 0.66835 0.58638 1.8094 0.43473 2.5356-0.15166 0.72621-0.054 1.3204 0.21718 1.3204 0.2711 0 0.6779 0.93308 0.90399 2.0735 0.22608 1.1404 0.76944 2.4467 1.2074 2.9029 3.1089 3.2378 3.2856 3.3482 4.4486 2.7785 0.63374-0.31046 1.7148-1.2877 2.4024-2.1715z"/>
      <path id="path4349" d="m197.9 895.58c0.1756-0.15125 0.6314-0.16742 1.0129-0.0359 0.42157 0.1453 0.29635 0.25315-0.31928 0.27499-0.55707 0.0198-0.8692-0.0878-0.6936-0.23906zm54.786-1.1002c-2.3171-0.54856-3.6683-1.3556-3.6683-2.1911 0-0.4418-0.22639-0.99826-0.50308-1.2366-0.60302-0.51939-0.68127-2.2873-0.33693-7.613 0.17617-2.7248 0.082-3.9015-0.29624-3.7002-0.38346 0.20412-0.38907 0.0289-0.0182-0.56802 0.365-0.58741 0.36049-1.1339-0.0141-1.7104-0.41736-0.64234-0.39378-0.7638 0.0975-0.50227 0.49932 0.2658 0.51465 0.13035 0.0668-0.59038-0.71822-1.1559-0.75907-2.8158-0.0693-2.8158 0.28153 0 0.37499-0.30723 0.2077-0.68274-0.16731-0.37551-0.066-0.68275 0.22505-0.68275 0.72335 0-0.40104-2.9634-1.9428-5.1206-1.1297-1.5805-2.701-2.3086-2.701-1.2517 0 0.25034-0.17836 0.41164-0.39634 0.35846-0.218-0.0532-0.91551 0.15151-1.55 0.45488-0.80686 0.38576-1.1402 0.96009-1.1088 1.9104 0.10888 3.2984-4.0266 4.5672-12.897 3.9567-3.5998-0.24777-3.9166 0.12453-2.4715 2.9045 1.3033 2.5072 1.3005 2.5052 2.4248 1.7452 0.86034-0.58161 0.87533-0.56561 0.18199 0.19416-0.6766 0.74144-0.60745 0.93172 0.66165 1.8206 0.89084 0.62398 1.483 1.5428 1.5944 2.4737 0.0974 0.81459 0.33478 1.6168 0.5274 1.7827 0.19261 0.16591 0.35022 1.094 0.35022 2.0624 0 0.96844 0.34902 2.2196 0.77561 2.7804 0.42659 0.56076 0.88292 1.9632 1.014 3.1166l0.23843 2.0971-1.5425-0.50148c-0.84837-0.27581-1.5425-0.67348-1.5425-0.8837 0-0.21023-0.29726-0.2349-0.66056-0.0548-0.36332 0.18008-0.49074 0.16537-0.28317-0.0327 0.20757-0.19806-0.31527-1.493-1.1619-2.8776-1.119-1.8301-1.4056-2.7326-1.0496-3.3055 0.34812-0.56025 0.21145-1.0982-0.47281-1.8608-0.52935-0.59002-1.3254-1.9945-1.7689-3.121-1.6648-4.2285-8.187-11.379-10.379-11.379-0.23393 0-0.96567 0.99361-1.6261 2.208-0.91716 1.6866-1.1569 2.8154-1.0151 4.7799 0.10207 1.4145 0.0302 2.6228-0.15961 2.685-0.37942 0.12432 0.6977 5.5186 1.6254 8.1399 0.40676 1.1494 1.0555 1.8222 2.1249 2.2037 1.6012 0.57126 2.4795 1.7311 1.7647 2.3304-0.22752 0.19077-1.0165 0.4749-1.7533 0.63141-1.0304 0.21889-1.9172-0.0953-3.8423-1.3614-1.3765-0.90526-2.375-1.824-2.2189-2.0415 0.15613-0.21759 0.0458-0.52237-0.24529-0.6773-0.29103-0.15492-0.51351-1.4492-0.49438-2.8762 0.0838-6.2544-0.0615-9.1944-0.45463-9.1944-0.2323 0-0.47223-0.51888-0.53317-1.1531-0.0609-0.6342-0.44392-1.7095-0.85109-2.3896-0.63952-1.0682-0.6326-1.4685 0.0509-2.9408 0.43513-0.93735 1.0021-1.592 1.2598-1.4548 0.25779 0.13722 1.0652-0.26428 1.7943-0.89222 1.1552-0.99501 1.3163-1.5099 1.2536-4.0072-0.0396-1.576-0.17429-2.3534-0.29938-1.7276-0.60079 3.0062-1.3846 4.6848-2.6146 5.5996-1.2618 0.93843-3.1726 3.6269-3.2989 4.6416-0.13721 1.1022-1.1363 0.60665-1.8839-0.9344-1.3018-2.6836-1.0497-3.7935 1.2988-5.7177 1.1626-0.95257 2.1138-1.98 2.1138-2.2833 0-0.30325 0.36414-0.89793 0.80922-1.3215 0.44507-0.4236 0.88692-1.8342 0.98188-3.1346 0.095-1.3004 0.40988-2.5687 0.69981-2.8185 0.31271-0.26932 0.36804-1.2036 0.13601-2.2964-0.24898-1.1728-0.11179-2.8592 0.37747-4.6401 0.42275-1.5388 0.81147-3.2415 0.86383-3.7839 0.0523-0.54239 0.1911-0.90359 0.30829-0.80264 0.42507 0.36611 2.7088-2.7546 2.4465-3.3432-0.14819-0.33263-0.0535-0.48978 0.21064-0.34923 0.26405 0.14056 0.91529-0.22058 1.4472-0.80252 0.53192-0.58194 2.6318-2.0041 4.6663-3.1603 2.0346-1.1562 3.937-2.4999 4.2276-2.986 0.29065-0.48606 0.98275-1.5749 1.538-2.4197 0.75275-1.1453 1.0438-2.6021 1.1444-5.7274 0.0742-2.3053 0.28787-4.4047 0.47491-4.6654 0.18704-0.26067 0.0957-0.47393-0.20299-0.47393-0.29868 0-0.39696-0.3279-0.21841-0.72868 0.17857-0.40077-0.007-0.90969-0.41292-1.1309-0.57204-0.31197-0.58232-0.40382-0.0459-0.40923 0.38047-0.003 0.56047-0.18994 0.39999-0.41357-0.3522-0.49084 2.1737-1.1029 2.9175-0.70692 0.28911 0.1539 0.38105 0.67222 0.20432 1.1518-0.50698 1.3758 0.43383 1.023 2.2261-0.83484 3.0674-3.1795 3.7238-3.7551 4.2826-3.7551 0.81063 0 1.8569-3.0633 1.5297-4.4786-0.44965-1.9447 0.83827-2.9986 3.7466-3.0658 1.3736-0.0317 2.7653 0.12067 3.0927 0.3387 0.71367 0.47518 0.96206 7.2056 0.26594 7.2056-0.8227 0-1.1426 2.0976-0.54507 3.574 0.31302 0.77338 0.80822 1.3609 1.1004 1.3056 1.1145-0.21079 1.7398 1.3777 1.0068 2.5574-0.38417 0.61827-0.52851 1.361-0.32073 1.6506 0.20777 0.28955 0.49598 1.1796 0.64046 1.9778 0.34784 1.9218 0.68021 2.1477 0.74037 0.50313 0.14794-4.0444 0.15101-4.0521 1.6714-4.2028 1.3621-0.13495 1.4471-0.0426 1.3212 1.4349-0.074 0.86853-0.34392 1.4681-0.59978 1.3324-0.25734-0.13649-0.36305 0.96948-0.23658 2.4754 0.22715 2.7048 1.8901 5.5169 2.8302 4.7859 0.23051-0.17926 0.24395-0.0642 0.0299 0.25573-0.47336 0.70734 1.7622 2.4432 2.7574 2.141 0.37841-0.11489 0.54918-0.0154 0.3795 0.22107-0.43951 0.61251 2.1962 1.9894 3.1835 1.6631 0.45332-0.14983 0.69504-0.0924 0.53716 0.12762-0.27011 0.37642 2.2651 0.99955 4.8134 1.1831 1.0406 0.0749 1.1624-0.16627 1.3211-2.6155 0.0962-1.484 0.0767-2.782-0.0433-2.8845-0.61217-0.52315-0.49454-3.2848 0.19306-4.5328 1.2115-2.1989 5.481-3.1141 8.4032-1.8014 0.82954 0.37263 1.7213 0.56411 1.9817 0.42549 0.26041-0.13862 0.48102-0.0863 0.49026 0.1162 0.0379 0.83055 1.5617 2.0413 2.7143 2.1566 2.9787 0.29815 4.4882 0.87483 5.6889 2.1732 1.2566 1.3589 1.2626 1.4044 0.26423 1.9988-0.5619 0.33457-1.3699 0.8692-1.7955 1.1881-0.42561 0.31887-1.1985 0.5178-1.7175 0.44208-0.81887-0.11949-0.94365 0.22368-0.94365 2.595 0 2.7406-0.63867 3.7839-1.7371 2.8378-0.82041-0.70663-1.4566-0.63248-1.1168 0.13016 0.15602 0.35019-0.007 0.79148-0.36246 0.98065-0.4404 0.23443-0.51 0.15424-0.2186-0.25187 0.27766-0.38697 0.22075-0.48574-0.16239-0.28179-0.40608 0.21617-0.4315 0.67287-0.0816 1.4656 0.2933 0.66442 0.31554 1.476 0.0526 1.9183-0.25066 0.42169-0.35954 1.7854-0.24195 3.0304 0.16081 1.7026-0.0743 2.7462-0.94855 4.2102-0.63928 1.0706-1.3251 1.9465-1.5241 1.9465-0.19895 0-0.63827 0.79499-0.97626 1.7666-0.33799 0.97165-0.96754 2.019-1.399 2.3274-0.43144 0.3084-0.65581 0.74-0.49858 0.9591 0.15722 0.21911-0.033 0.29301-0.42261 0.16422-0.41055-0.13569-1.3665 0.53186-2.2734 1.5875-0.8607 1.0019-1.8622 1.8265-2.2255 1.8324-0.36331 0.006-0.66057 0.21558-0.66057 0.46592s-0.46158 0.45517-1.0257 0.45517c-0.56415 0-1.1663 0.19587-1.3381 0.43528-0.17178 0.2394-0.70044 0.30701-1.1748 0.15023-0.62283-0.20585-0.74227-0.11756-0.42989 0.31778 0.29108 0.40565 0.2287 0.49432-0.19071 0.27106-0.36869-0.19626-1.2056 0.23978-2.0489 1.0676-0.78411 0.76964-1.8343 1.3994-2.3337 1.3994-0.49942 0-1.0563 0.20666-1.2376 0.45923-0.51644 0.71972 0.25327 2.2717 1.1266 2.2717 0.43355 0 0.65737 0.18242 0.49739 0.40538-0.15999 0.22294 0.2568 0.71444 0.92618 1.0922 1.5891 0.89682 2.5943 3.8195 2.7723 8.0608 0.0788 1.8775 0.49765 4.5628 0.93079 5.9673 0.43313 1.4045 0.67667 3.2621 0.54117 4.1281-0.1355 0.86596 0.0877 2.4096 0.496 3.4303 1.2158 3.0395-0.82177 4.5185-3.1564 2.2911-1.2095-1.154-3.0041-4.1397-2.2455-3.7359 0.27082 0.14416 0.52057-0.21083 0.555-0.78886 0.0948-1.5914-0.1122-2.3865-0.70367-2.7027-0.33006-0.17646-0.27031-0.36239 0.15576-0.48473 0.74793-0.21472 0.8585-2.4081 0.29384-5.8288-0.35132-2.1283-2.0885-5.5084-3.5727-6.9514-0.80294-0.78066-0.88001-0.78375-1.2077-0.0484-0.19249 0.43205-0.2052 1.6205-0.0282 2.641 0.21233 1.2246 0.0595 2.2897-0.44951 3.133-1.1496 1.9044-0.94142 9.0253 0.2983 10.205 0.50928 0.48449 0.78482 1.0024 0.61233 1.151-0.1725 0.14858-0.15699 0.69521 0.0344 1.2148 0.24806 0.67316 0.79345 0.94462 1.8978 0.94462 1.2839 0 1.5498 0.18753 1.5498 1.0934 0 1.3009-2.1569 2.1254-4.2585 1.6279zm11.62-49.103c1.5173-1.8353 1.3967-5.9874-0.15074-5.1888-0.33286 0.17179-0.27045-0.0429 0.13867-0.47706 0.96008-1.0188 0.33387-1.5073-2.3292-1.8167-1.1626-0.13508-3.0313-0.57699-4.1527-0.982-2.3592-0.8521-2.7828-0.69866-1.9171 0.69443 0.34186 0.55017 0.513 1.4894 0.38033 2.0872-0.13268 0.5978-0.0472 1.0869 0.19 1.0869 0.23717 0 0.59306 0.76808 0.79085 1.7068 0.19779 0.93877 0.67314 2.0141 1.0563 2.3896 2.7198 2.6653 2.8744 2.7562 3.8919 2.2872 0.55442-0.25556 1.5002-1.06 2.1017-1.7875z"/>
      <path id="path4351" d="m101.53 906.7c0.13478-0.13031 0.48459-0.14425 0.77737-0.031 0.32354 0.1252 0.22744 0.21813-0.24504 0.23696-0.42755 0.017-0.66709-0.0757-0.53233-0.206zm42.047-0.948c-1.7784-0.47269-2.8154-1.1681-2.8154-1.888 0-0.3807-0.17375-0.86018-0.3861-1.0655-0.46281-0.44754-0.52287-1.9709-0.25859-6.5599 0.13521-2.3479 0.0629-3.3618-0.22736-3.1883-0.29431 0.17588-0.29861 0.0248-0.0139-0.48946 0.28013-0.50615 0.27667-0.97704-0.0108-1.4738-0.32032-0.55349-0.30221-0.65815 0.0748-0.4328 0.38322 0.22903 0.39499 0.11232 0.0513-0.50872-0.55121-0.996-0.58258-2.4263-0.0532-2.4263 0.21606 0 0.28779-0.26474 0.1594-0.5883-0.12841-0.32357-0.0507-0.5883 0.17273-0.5883 0.55516 0-0.3078-2.5535-1.4911-4.4123-0.867-1.3619-2.073-1.9893-2.073-1.0786 0 0.21571-0.13688 0.3547-0.30418 0.30888-0.16731-0.0458-0.70264 0.13055-1.1896 0.39196-0.61925 0.3324-0.87509 0.82728-0.85102 1.6461 0.0836 2.8422-3.0903 3.9354-9.8979 3.4094-2.7628-0.21349-3.0059 0.1073-1.8968 2.5028 1.0002 2.1604 0.99811 2.1587 1.861 1.5038 0.6603-0.50116 0.67181-0.48737 0.13968 0.16731-0.51928 0.63888-0.46621 0.80284 0.5078 1.5688 0.68371 0.53767 1.1382 1.3294 1.2236 2.1316 0.0748 0.7019 0.25693 1.3932 0.40477 1.5361 0.14783 0.14296 0.26879 0.94268 0.26879 1.7772 0 0.83448 0.26787 1.9126 0.59526 2.3958 0.32741 0.4832 0.67762 1.6917 0.77827 2.6855l0.18299 1.807-1.1838-0.43212c-0.65111-0.23765-1.1838-0.58032-1.1838-0.76146 0-0.18116-0.22814-0.20241-0.50697-0.0472-0.27884 0.15517-0.37664 0.1425-0.21732-0.0281 0.1593-0.17066-0.24197-1.2864-0.89172-2.4795-0.85883-1.577-1.0788-2.3546-0.80557-2.8483 0.26719-0.48275 0.16229-0.94626-0.36286-1.6034-0.40627-0.50842-1.0172-1.7186-1.3576-2.6893-1.2777-3.6436-6.2834-9.805-7.9659-9.805-0.17954 0-0.74113 0.85618-1.248 1.9026-0.70389 1.4533-0.88788 2.426-0.77909 4.1187 0.0783 1.2189 0.0232 2.26-0.12249 2.3136-0.29121 0.10712 0.53547 4.7552 1.2474 7.0139 0.31218 0.9904 0.81006 1.5701 1.6308 1.8989 1.2289 0.49224 1.903 1.4916 1.3544 2.008-0.17462 0.16438-0.78013 0.40921-1.3456 0.54407-0.79086 0.18862-1.4714-0.0821-2.9489-1.1731-1.0564-0.78005-1.8228-1.5717-1.7029-1.7592 0.11983-0.18749 0.0351-0.45011-0.18825-0.58361-0.22337-0.13349-0.39412-1.2488-0.37943-2.4784 0.0644-5.3893-0.0472-7.9226-0.34892-7.9226-0.17829 0-0.36243-0.44712-0.4092-0.99358-0.0468-0.54648-0.3407-1.473-0.65319-2.0591-0.49083-0.92048-0.48551-1.2654 0.039-2.534 0.33396-0.80769 0.76906-1.3718 0.96691-1.2535 0.19785 0.11824 0.81753-0.22772 1.3771-0.7688 0.88663-0.85738 1.0103-1.3011 0.96212-3.4529-0.0304-1.358-0.13377-2.0278-0.22976-1.4886-0.46111 2.5904-1.0626 4.0367-2.0067 4.825-0.96841 0.80862-2.4349 3.1252-2.5318 3.9995-0.10531 0.94973-0.8721 0.52273-1.4458-0.80515-0.99912-2.3124-0.80562-3.2688 0.99678-4.9268 0.89228-0.82081 1.6223-1.7062 1.6223-1.9674 0-0.2613 0.27948-0.77372 0.62107-1.1387 0.34158-0.36501 0.68069-1.5805 0.75357-2.701 0.0729-1.1206 0.31458-2.2134 0.5371-2.4286 0.23999-0.23208 0.28246-1.0371 0.10438-1.9788-0.19109-1.0105-0.0858-2.4638 0.2897-3.9983 0.32445-1.3259 0.62278-2.7931 0.66297-3.2605 0.0402-0.46737 0.14667-0.7786 0.23662-0.69162 0.32622 0.31547 2.0789-2.3736 1.8776-2.8807-0.11373-0.28663-0.041-0.42204 0.16167-0.30093 0.20265 0.12112 0.70246-0.19007 1.1107-0.69151 0.40823-0.50146 2.0198-1.7269 3.5813-2.7232s3.0216-2.1542 3.2446-2.573c0.22307-0.41883 0.75425-1.3571 1.1804-2.085 0.57772-0.98686 0.80112-2.2422 0.87828-4.9352 0.057-1.9864 0.22094-3.7955 0.36449-4.0201 0.14355-0.22461 0.0735-0.40838-0.15579-0.40838-0.22923 0-0.30466-0.28255-0.16762-0.62788 0.13704-0.34535-0.006-0.78386-0.31692-0.9745-0.43903-0.26882-0.44692-0.34796-0.0352-0.35262 0.292-0.003 0.43015-0.16367 0.30699-0.35637-0.27031-0.42294 1.6682-0.95031 2.2391-0.60914 0.22188 0.13261 0.29244 0.57924 0.15681 0.99251-0.3891 1.1855 0.33296 0.88149 1.7085-0.71936 2.3541-2.7397 2.8579-3.2357 3.2868-3.2357 0.62213 0 1.4252-2.6396 1.174-3.8591-0.34509-1.6757 0.64336-2.5838 2.8755-2.6417 1.0542-0.0273 2.1223 0.10397 2.3736 0.29184 0.54773 0.40945 0.73836 6.2089 0.2041 6.2089-0.63141 0-0.87693 1.8075-0.41833 3.0797 0.24024 0.6664 0.6203 1.1727 0.84457 1.125 0.85533-0.18164 1.3353 1.1872 0.7727 2.2037-0.29485 0.53276-0.40562 1.1728-0.24615 1.4223 0.15945 0.24949 0.38065 1.0164 0.49153 1.7042 0.26696 1.656 0.52205 1.8506 0.56822 0.43353 0.11355-3.485 0.11591-3.4916 1.2828-3.6214 1.0454-0.11628 1.1106-0.0367 1.014 1.2364-0.0568 0.74838-0.26395 1.265-0.46032 1.1481-0.19751-0.11761-0.27863 0.83537-0.18157 2.133 0.17433 2.3307 1.4506 4.7538 2.1721 4.1239 0.17691-0.15447 0.18722-0.0553 0.023 0.22036-0.3633 0.6095 1.3525 2.1052 2.1163 1.8449 0.29042-0.099 0.42149-0.0132 0.29126 0.19049-0.33731 0.52779 1.6855 1.7142 2.4433 1.4331 0.34791-0.1291 0.53342-0.0796 0.41226 0.10998-0.20731 0.32435 1.7384 0.86128 3.6942 1.0194 0.79865 0.0646 0.89216-0.14327 1.014-2.2538 0.0738-1.2787 0.0589-2.3972-0.0332-2.4855-0.46983-0.45079-0.37954-2.8304 0.14818-3.9059 0.92977-1.8947 4.2065-2.6834 6.4493-1.5522 0.63665 0.32109 1.3211 0.48608 1.5209 0.36664 0.19986-0.11945 0.36918-0.0744 0.37627 0.10012 0.0291 0.71567 1.1986 1.7589 2.0832 1.8583 2.2861 0.25691 3.4446 0.75383 4.3662 1.8726 0.96443 1.1709 0.96904 1.2101 0.20278 1.7224-0.43124 0.28829-1.0513 0.74897-1.378 1.0237-0.32664 0.27476-0.91981 0.44617-1.3181 0.38092-0.62846-0.10296-0.72423 0.19274-0.72423 2.2361 0 2.3615-0.49016 3.2605-1.3332 2.4453-0.62964-0.60888-1.1179-0.54499-0.85712 0.11216 0.11975 0.30175-0.005 0.682-0.27818 0.845-0.33801 0.20201-0.39142 0.13291-0.16778-0.21703 0.21311-0.33344 0.16943-0.41855-0.12462-0.24281-0.31167 0.18627-0.33117 0.57981-0.0626 1.2629 0.22509 0.5725 0.24217 1.2718 0.0403 1.653-0.19238 0.36337-0.27594 1.5384-0.1857 2.6113 0.12342 1.4671-0.057 2.3663-0.72798 3.6279-0.49065 0.92249-1.017 1.6773-1.1697 1.6773s-0.48986 0.68503-0.74927 1.5223c-0.2594 0.83725-0.74256 1.7397-1.0737 2.0054-0.33113 0.26575-0.50332 0.63764-0.38265 0.82645 0.12066 0.18879-0.0253 0.25246-0.32435 0.14149-0.31508-0.11692-1.0488 0.4583-1.7448 1.3679-0.66057 0.86334-1.4292 1.5739-1.708 1.579-0.27883 0.005-0.50696 0.18576-0.50696 0.40148 0 0.2157-0.35426 0.3922-0.78723 0.3922-0.43298 0-0.8951 0.16878-1.027 0.37507-0.13184 0.2063-0.53757 0.26455-0.90162 0.12945-0.47801-0.17737-0.56967-0.10129-0.32993 0.27383 0.2234 0.34954 0.17552 0.42594-0.14637 0.23357-0.28297-0.16912-0.92526 0.20661-1.5725 0.9199-0.60179 0.66319-1.4078 1.2058-1.7911 1.2058s-0.81073 0.17808-0.94982 0.39571c-0.39635 0.62016 0.19438 1.9575 0.86467 1.9575 0.33274 0 0.50452 0.15718 0.38174 0.3493-0.12279 0.19211 0.19709 0.61563 0.71082 0.94113 1.2196 0.77278 1.9911 3.2912 2.1277 6.9458 0.0605 1.6178 0.38194 3.9317 0.71436 5.1419s0.51933 2.8109 0.41534 3.5571c-0.10399 0.74619 0.0673 2.0763 0.38067 2.9558 0.93313 2.6191-0.6307 3.8935-2.4224 1.9742-0.92828-0.99437-2.3056-3.5671-1.7234-3.2191 0.20785 0.12422 0.39953-0.18167 0.42596-0.67975 0.0728-1.3713-0.0861-2.0564-0.54006-2.3289-0.25331-0.15207-0.20745-0.31227 0.11955-0.41767 0.57401-0.18503 0.65887-2.075 0.22551-5.0226-0.26963-1.8339-1.6029-4.7465-2.742-5.9899-0.61624-0.67267-0.67539-0.67533-0.92685-0.0417-0.14774 0.37229-0.1575 1.3963-0.0217 2.2756 0.16296 1.0552 0.0457 1.973-0.34498 2.6996-0.88229 1.641-0.72254 7.7769 0.22894 8.7932 0.39086 0.41747 0.60233 0.86379 0.46995 0.99181-0.1324 0.12802-0.12049 0.59905 0.0264 1.0467 0.19038 0.58005 0.60896 0.81397 1.4566 0.81397 0.9854 0 1.1894 0.16159 1.1894 0.94213 0 1.121-1.6554 1.8314-3.2683 1.4027zm8.9182-42.311c1.1645-1.5815 1.0719-5.1592-0.11569-4.4711-0.25547 0.14802-0.20757-0.0369 0.10642-0.41108 0.73684-0.87792 0.25624-1.2988-1.7876-1.5654-0.89228-0.11642-2.3265-0.49719-3.1871-0.84619-1.8106-0.73423-2.1357-0.60201-1.4714 0.59839 0.26237 0.47407 0.39372 1.2834 0.29189 1.7985-0.10182 0.51511-0.0362 0.93656 0.14582 0.93656 0.18203 0 0.45516 0.66183 0.60697 1.4708 0.1518 0.80892 0.51662 1.7355 0.8107 2.0591 2.0874 2.2966 2.2061 2.3749 2.9869 1.9708 0.42552-0.22021 1.1514-0.91335 1.613-1.5403z"/>
      <path id="path4464" d="m156.66 921.72c-7.472 0.00005-14.074 3.0974-19.827 9.2815-5.3788 5.7934-8.8891 13.047-10.533 21.763l-5.9377 27.674-4.5953-0.51293 9.5262-44.185c0.0752-0.53631 0.21541-1.3225 0.43887-2.3448-0.00002-0.68195-0.00002-1.371 0-2.1006-0.00002-2.8721-0.76658-5.1341-2.2976-6.7902-1.5311-1.6559-3.8005-2.4913-6.7897-2.4914-5.1553 0.00005-9.1681 1.7455-12.082 5.2514-2.914 3.5059-4.3888 7.7838-4.3888 12.848h1.2392c0-4.8201 1.2796-8.754 3.8208-11.846s5.9685-4.6407 10.301-4.6408c1.5687 0.0001 2.6835 0.41789 3.3561 1.2945 0.67263 0.87668 1.0068 2.2036 1.0068 3.9569-0.00007 1.0698-0.0572 2.0792-0.20653 3.0531-0.14934 0.97405-0.37254 2.179-0.67122 3.5905l-8.0805 37.395-1.3424 6.7169c-2.0156 0-5.0796 0.31963-9.1906 0.95258-1.27 0.19469-2.9972 0.49022-5.1633 0.8793l0.8003 1.0258c4.7061-1.1679 10.112-1.7586 16.238-1.7586 2.3895 0 8.3773 0.56654 17.942 1.6853 4.184 0.48718 7.6124 0.73275 10.301 0.73275 5.7549 0 10.961-0.63919 15.593-1.9052s8.4776-3.1106 11.54-5.5445c0.97125-1.1694 1.6677-2.1524 2.1169-2.931 1.3452-2.3373 2.0136-4.6485 2.0137-6.9367-0.00008-1.6063-0.37746-3.2049-1.1617-4.7873-0.78442-1.5824-2.05-3.0826-3.7692-4.4942-1.4206-1.1204-3.0086-2.1032-4.8018-2.9798-1.7934-0.87664-3.7975-1.5658-5.9636-2.0517l5.3956-2.125c9.4897-3.7488 14.225-8.4697 14.225-14.167-0.00008-3.5051-1.8943-6.6281-5.7054-9.3792-3.8113-2.751-8.267-4.1278-13.347-4.1278zm640.27 0c-7.472 0.00005-14.1 3.0974-19.853 9.2815-5.3788 5.7934-8.8891 13.047-10.533 21.763l-5.9377 27.674-4.5953-0.51293 9.5262-44.185c0.075-0.53631 0.21533-1.3225 0.43887-2.3448-0.00007-0.68195-0.00007-1.371 0-2.1006-0.00007-2.8721-0.76653-5.1341-2.2976-6.7902-1.5311-1.6559-3.7747-2.4913-6.7639-2.4914-5.1553 0.00005-9.1939 1.7455-12.108 5.2514-2.914 3.5059-4.363 7.7838-4.363 12.848h1.2134c0-4.8201 1.2796-8.754 3.8208-11.846s5.9685-4.6407 10.301-4.6408c1.5687 0.0001 2.7091 0.41789 3.3819 1.2945 0.67257 0.87668 1.0068 2.2036 1.0068 3.9569 0 1.0698-0.0831 2.0792-0.23235 3.0531-0.14926 0.97405-0.37269 2.179-0.67122 3.5905l-8.0805 37.395-1.3424 6.7169c-2.0156 0-5.0796 0.31963-9.1906 0.95258-1.27 0.19469-2.9713 0.49022-5.1374 0.8793l0.77449 1.0258c4.7061-1.1679 10.112-1.7586 16.238-1.7586 2.3895 0 8.3772 0.56654 17.942 1.6853 4.1839 0.48718 7.6124 0.73275 10.301 0.73275 5.7549 0 10.961-0.63919 15.593-1.9052 4.6319-1.266 8.4776-3.1106 11.54-5.5445 0.97126-1.1694 1.6677-2.1524 2.1169-2.931 1.3451-2.3373 2.0394-4.6485 2.0395-6.9367-0.00007-1.6063-0.40328-3.2049-1.1876-4.7873-0.78441-1.5824-2.0242-3.0826-3.7434-4.4942-1.4206-1.1204-3.0345-2.1032-4.8276-2.9798-1.7934-0.87664-3.7717-1.5658-5.9378-2.0517l5.3698-2.125c9.4897-3.7488 14.251-8.4697 14.251-14.167-0.00008-3.5051-1.9201-6.6281-5.7312-9.3792-3.8112-2.751-8.2412-4.1278-13.321-4.1278zm-314.11 0.14655c-8.5162 0.00005-16.122 2.1152-22.847 6.3505-6.7252 4.2355-10.707 9.5221-11.901 15.852l-3.5885 20.81c0 0.14561-0.0583 0.44083-0.20653 0.8793v1.319c0 5.1619 3.1223 9.2436 9.3971 12.261 5.5292 2.63 12.185 3.9569 19.956 3.9569 7.0227 0 13.234-1.4752 18.614-4.4209 5.3798-2.9457 8.723-6.6822 10.068-11.211l-1.3424-0.14655c-1.3453 4.3817-4.6313 7.9727-9.8618 10.796-4.9319 2.679-10.447 4.0301-16.574 4.0301-6.4254 0-11.899-1.4502-16.419-4.3477-4.5203-2.8974-6.7897-6.5604-6.7897-10.991-0.00066-0.24222 0.0138-0.56275 0.0516-0.92815 0.0377-0.36548 0.10554-0.78277 0.18071-1.2701l4.363-24.181c0.97131-5.2094 4.3414-9.4879 10.094-12.872 5.7527-3.384 12.187-5.0803 19.285-5.0804 6.5758 0.0001 11.646 1.4503 15.232 4.3476 3.5854 2.8975 5.3697 6.9785 5.3698 12.237-0.00006 4.4294-1.6722 8.3398-5.0342 11.773-3.3621 3.4332-7.6238 5.1537-12.779 5.1537-2.4648 0-4.7494-0.39295-6.8413-1.1968-2.092-0.80382-3.638-1.8118-4.6469-3.0287-1.009-1.2169-1.7604-2.496-2.246-3.8103-0.48566-1.3142-0.72289-2.6901-0.72285-4.1523-0.00004-1.9954 0.44633-3.7175 1.3424-5.1781 0.37391-0.73096 0.90215-1.468 1.5748-2.1738 0.6726-0.70577 1.535-1.394 2.5816-2.0761v-1.1724c-1.3453 0.87673-2.4029 1.6636-3.1496 2.3448-0.74677 0.68128-1.386 1.394-1.9104 2.125-1.1948 1.7044-1.7814 3.6717-1.7813 5.9109-0.00003 3.214 1.0026 6.0174 3.0205 8.4022 1.4182 1.7533 3.2575 2.9823 5.4989 3.7126 2.2413 0.73001 4.7748 1.0991 7.6158 1.0991 5.6022 0 10.199-1.8932 13.786-5.691 3.2878-3.4561 4.9308-7.4651 4.9309-12.042-0.00006-6.4278-2.4236-11.075-7.2802-13.898-4.0358-2.3372-9.7174-3.4927-17.039-3.4928zm-329.62 2.5646c4.5579 0.00005 8.5566 1.2049 12.03 3.6149 3.4737 2.4101 5.2148 5.0416 5.2149 7.9137-0.00007 0.63298-0.11222 1.248-0.33561 1.8319-1.3453 3.9435-3.6719 7.0907-6.9962 9.4525-3.3244 2.3618-8.1004 4.0824-14.302 5.1537l-6.7122 1.0991v0.70833c1.3452-0.19454 2.2228-0.26863 2.6333-0.26868 0.41037 0.00005 0.98177 0.00005 1.7297 0 3.8852 0.00005 7.3372 0.73752 10.327 2.2471 2.4647 1.217 4.5003 2.9146 6.1443 5.1048 1.9426 2.5319 2.9172 4.9645 2.9172 7.2542-0.00007 4.0401-2.676 7.4098-8.0547 10.136-5.0072 2.5318-10.689 3.8103-17.039 3.8103-2.9893 0-6.1642-0.22127-9.5262-0.63505-3.362-0.41386-6.6212-0.8317-9.7586-1.2701l6.4024-27.82c1.5687-7.2554 4.3568-13.524 8.3903-18.783 4.8566-6.3773 10.51-9.5501 16.935-9.5502zm640.24 0c4.5579 0.00005 8.5824 1.2049 12.056 3.6149 3.4737 2.4101 5.1889 5.0416 5.1891 7.9137 0 0.63298-0.11207 1.248-0.33561 1.8319-1.3453 3.9435-3.6719 7.0907-6.9962 9.4525-3.3244 2.3618-8.0746 4.0824-14.276 5.1537l-6.738 1.0991v0.70833c1.3452-0.19454 2.2226-0.26863 2.6333-0.26868 0.4103 0.00005 0.98175 0.00005 1.7297 0 3.8852 0.00005 7.3372 0.73752 10.327 2.2471 2.4647 1.217 4.526 2.9146 6.1701 5.1048 1.9426 2.5319 2.9172 4.9645 2.9172 7.2542-0.00008 4.0401-2.7018 7.4098-8.0805 10.136-5.0071 2.5318-10.689 3.8103-17.039 3.8103-2.9892 0-6.1643-0.22127-9.5262-0.63505-3.3621-0.41386-6.6212-0.8317-9.7586-1.2701l6.4024-27.82c1.5687-7.2554 4.3567-13.524 8.3903-18.783 4.8566-6.3773 10.51-9.5501 16.935-9.5502zm-576.79 3.6393c-2.7635 0.00005-4.9908 0.78618-6.6348 2.3448-1.27 1.1679-2.1908 2.7672-2.7882 4.8117l0.90357 0.21982c0.52214-1.7042 1.2887-3.081 2.2976-4.1278 1.009-1.0467 2.0559-1.5631 3.1754-1.5632 1.1218 0.00009 1.678 0.46805 1.6781 1.3922 0 0.0981-0.0281 0.31902-0.10327 0.6839-0.075 0.36479-0.10327 0.68424-0.10326 0.977l-8.3128 40.326c-0.0729 0.4384-0.1453 1.0283-0.25816 1.7586-0.1132 0.73033-0.18071 1.3459-0.18071 1.8807 0 3.312 0.77828 4.9827 2.3493 4.9827 0.59738 0 1.3068-0.36822 2.0911-1.0747 0.78435-0.70657 1.7202-1.9606 2.8398-3.7615l10.998-17.586c0.89607-1.4131 2.04-2.6663 3.4594-3.7615 1.4194-1.095 2.7831-1.6364 4.0532-1.6365 0.52213 0.00005 0.96848 0.17272 1.3424 0.56178 0.37392 0.38939 0.51405 0.78324 0.43888 1.1724l-4.1564 22.569c-0.22351 0.87516-0.0155 1.712 0.61959 2.4914 0.63498 0.77941 1.6259 1.1724 2.9689 1.1724 2.0931 0 4.1673-0.71337 6.2217-2.1494 2.0543-1.4361 3.4321-3.1568 4.1048-5.1537l-1.0068-0.14655c-0.44693 1.4607-1.3105 2.6412-2.5816 3.5416-1.2712 0.90033-2.497 1.3434-3.6917 1.3434-1.2701 0-1.7983-0.59074-1.5748-1.7586l4.1306-21.836c0.22343-1.0223-0.1248-1.8583-1.0585-2.5158-0.93374-0.65742-2.0625-0.97701-3.4078-0.97701-1.9427 0-4.004 0.73753-6.1701 2.2471-1.8674 1.315-3.3702 2.8888-4.492 4.6896l-10.404 16.804c-0.15049 0.19462-0.46955 0.58843-0.95521 1.1968-0.48567 0.60856-0.86081 0.90373-1.0843 0.90373-0.22346 0-0.3098-0.2711-0.30979-0.80603 0-0.68202 0.14019-1.7876 0.43887-3.3462l8.0547-38.934c0.0752-0.38927 0.17222-0.93061 0.28398-1.6365 0.11153-0.70572 0.1807-1.2713 0.18072-1.7098-0.00002-2.3862-1.1148-3.5904-3.3561-3.5905zm301.84 0c-2.7635 0.00005-4.965 0.78618-6.609 2.3448-1.27 1.1679-2.2166 2.7672-2.814 4.8117l0.90357 0.21982c0.52213-1.7042 1.2887-3.081 2.2976-4.1278 1.0089-1.0467 2.0559-1.5631 3.1754-1.5632 1.1218 0.00009 1.7039 0.46805 1.7039 1.3922 0 0.0981-0.0539 0.31902-0.12908 0.6839-0.075 0.36479-0.10327 0.68424-0.10326 0.977l-8.287 40.326c-0.0729 0.4384-0.17112 1.0283-0.28398 1.7586-0.11245 0.73033-0.18071 1.3459-0.18071 1.8807 0 3.312 0.8041 4.9827 2.3751 4.9827 0.59739 0 1.281-0.36822 2.0653-1.0747 0.78434-0.70657 1.7202-1.9606 2.8398-3.7615l10.998-17.586c0.89605-1.4131 2.0658-2.6663 3.4852-3.7615 1.4193-1.095 2.7573-1.6364 4.0273-1.6365 0.52212 0.00005 0.96848 0.17272 1.3424 0.56178 0.37392 0.38939 0.51405 0.78324 0.43888 1.1724l-4.1306 22.569c-0.2235 0.87516-0.0154 1.712 0.61959 2.4914 0.63499 0.77941 1.6 1.1724 2.9431 1.1724 2.0931 0 4.1673-0.71337 6.2217-2.1494 2.0543-1.4361 3.4322-3.1568 4.1048-5.1537l-1.0068-0.14655c-0.44694 1.4607-1.3105 2.6412-2.5816 3.5416-1.2712 0.90033-2.497 1.3434-3.6917 1.3434-1.2701 0-1.7983-0.59074-1.5748-1.7586l4.1564-21.836c0.22342-1.0223-0.15062-1.8583-1.0843-2.5158-0.93374-0.65742-2.0625-0.97701-3.4078-0.97701-1.9427 0-4.004 0.73753-6.1701 2.2471-1.8674 1.315-3.3444 2.8888-4.4662 4.6896l-10.43 16.804c-0.15049 0.19462-0.46954 0.58843-0.9552 1.1968-0.48569 0.60856-0.83501 0.90373-1.0585 0.90373-0.22347 0-0.33561-0.2711-0.33561-0.80603 0-0.68202 0.1402-1.7876 0.43887-3.3462l8.0805-38.934c0.0753-0.38927 0.1464-0.93061 0.25816-1.6365 0.11152-0.70572 0.18071-1.2713 0.18072-1.7098-0.00001-2.3862-1.1148-3.5904-3.3561-3.5905zm-225.12 0.0732c-1.27 0.00004-2.525 0.34456-3.795 1.0503-1.27 0.70587-2.3265 1.7382-3.1496 3.0531l-2.7882 4.7385 0.87775 0.2931 3.2528-4.8362c0.29869-0.38922 0.74509-0.75819 1.3424-1.1236 0.59738-0.36565 1.0976-0.53725 1.4715-0.53735 0.82081 0.0001 1.2134 0.46641 1.2134 1.4411 0 0.14567-0.0583 0.61372-0.20653 1.3922l-9.6553 43.525-0.20653 1.6853c0 1.266 0.36336 2.1513 1.1101 2.6379 0.74673 0.48647 1.7202 0.73275 2.9172 0.73275 1.644 0 3.1339-0.41816 4.4404-1.2212 1.3065-0.8031 2.5183-1.9103 3.6401-3.3218l2.2202-2.9066-0.77449-0.14655-2.246 2.8333c-0.4492 0.53641-1.1176 1.0764-2.0137 1.612-0.8961 0.5354-1.7047 0.80602-2.4526 0.80602-0.82313 0-1.2392-0.49076-1.2392-1.4655 0-0.14561 0.056-0.56365 0.20653-1.2457l9.6553-44.258c0.075-0.24366 0.10325-0.563 0.10326-1.0014-0.00001-1.0713-0.36224-1.9809-1.1101-2.6868-0.74789-0.70562-1.6944-1.0502-2.814-1.0503zm283.7 0c-1.27 0.00004-2.5508 0.34456-3.8208 1.0503-1.27 0.70587-2.3006 1.7382-3.1238 3.0531l-2.814 4.7385 0.90357 0.2931 3.2529-4.8362c0.29868-0.38922 0.74508-0.75819 1.3424-1.1236 0.59738-0.36565 1.0718-0.53725 1.4457-0.53735 0.82081 0.0001 1.2392 0.46641 1.2392 1.4411 0 0.14567-0.0842 0.61372-0.23235 1.3922l-9.6295 43.525-0.23235 1.6853c0 1.266 0.38918 2.1513 1.1359 2.6379 0.74673 0.48647 1.7202 0.73275 2.9172 0.73275 1.6439 0 3.1081-0.41816 4.4146-1.2212 1.3065-0.8031 2.5183-1.9103 3.6401-3.3218l2.246-2.9066-0.8003-0.14655-2.2202 2.8333c-0.4492 0.53642-1.1176 1.0764-2.0137 1.6121-0.8961 0.53539-1.7305 0.80602-2.4784 0.80602-0.82313 0-1.2392-0.49076-1.2392-1.4655 0-0.14561 0.0819-0.56365 0.23235-1.2457l9.6295-44.258c0.075-0.24365 0.12908-0.56299 0.12908-1.0014 0-1.0713-0.38806-1.9809-1.1359-2.6868-0.7479-0.70562-1.6686-1.0502-2.7882-1.0503zm-242.05 1.2457-5.4989 25.329-1.7813-0.85483c-1.0466-0.43843-1.9091-0.73364-2.5816-0.8793-1.1948-0.29229-2.6438-0.43965-4.363-0.43965-1.8674 0-3.5946 0.22126-5.1633 0.6839-1.5687 0.46287-3.1299 1.1262-4.6986 2.0028-2.914 1.6062-5.4744 3.7948-7.6416 6.5703-2.1672 2.7756-3.5052 5.4564-4.0273 8.0358-0.0753 0.58542-0.21433 1.4694-0.43888 2.6135-0.22463 1.1441-0.33561 2.2021-0.33561 3.1752 0 2.2392 0.4884 3.9854 1.4974 5.2514 1.0089 1.266 2.7781 1.9052 5.3182 1.9052 2.3918 0 4.618-0.56568 6.6348-1.6853 2.0167-1.1196 4.3853-3.4059 7.1511-6.8634 2.0156-2.5319 4.0769-5.3354 6.1701-8.4022 0.74784-1.0713 1.6944-2.4979 2.814-4.2988l-2.814 12.261c-0.44925 1.8499-0.67125 3.4477-0.67122 4.8117-0.00003 1.3135 0.34817 2.3221 1.0585 3.0287 0.71023 0.70673 1.9467 1.0747 3.6659 1.0747 2.3895 0 4.369-0.83459 5.9377-2.4914 1.0465-1.0698 1.8551-2.5207 2.4526-4.3721l-0.77449-0.2931c-0.7479 1.7534-1.5133 2.9573-2.2976 3.6149-0.78439 0.65741-1.884 0.977-3.3045 0.977-1.27 0-1.9104-0.76194-1.9104-2.2715 0-0.48733 0.0571-1.0772 0.20653-1.8075 0.14935-0.73033 0.31418-1.493 0.46469-2.2715l9.7586-44.405h-4.8276zm283.67 0-5.473 25.329-1.8071-0.85483c-1.0466-0.43843-1.9091-0.73364-2.5816-0.8793-1.1948-0.29229-2.6438-0.43965-4.363-0.43965-1.8674 0-3.5946 0.22126-5.1633 0.6839-1.5687 0.46287-3.1299 1.1262-4.6986 2.0028-2.914 1.6062-5.4486 3.7948-7.6158 6.5703-2.1672 2.7756-3.5052 5.4564-4.0273 8.0358-0.0753 0.58542-0.24013 1.4694-0.46469 2.6135-0.22463 1.1441-0.33561 2.2021-0.33561 3.1752 0 2.2392 0.51421 3.9854 1.5232 5.2514 1.0089 1.266 2.7781 1.9052 5.3182 1.9052 2.3918 0 4.5922-0.56568 6.609-1.6853 2.0167-1.1196 4.4111-3.4059 7.1769-6.8634 2.0156-2.5319 4.0769-5.3354 6.1701-8.4022 0.74784-1.0713 1.6686-2.4979 2.7882-4.2988l-2.7882 12.261c-0.44919 1.8499-0.67124 3.4477-0.67122 4.8117-0.00002 1.3135 0.34817 2.3221 1.0585 3.0287 0.71022 0.70673 1.9209 1.0747 3.6401 1.0747 2.3895 0 4.369-0.83459 5.9378-2.4914 1.0465-1.0698 1.8809-2.5207 2.4784-4.3721l-0.8003-0.2931c-0.74792 1.7534-1.5133 2.9573-2.2976 3.6149-0.7844 0.65741-1.884 0.977-3.3045 0.977-1.27 0-1.9104-0.76194-1.9104-2.2715 0-0.48733 0.0829-1.0772 0.23234-1.8075 0.14934-0.73033 0.28838-1.493 0.43888-2.2715l9.7586-44.405h-4.8276zm-59.661 0.95262c-1.1218 0.00005-2.0813 0.29533-2.8656 0.90373-0.78436 0.60849-1.1876 1.2718-1.1876 2.0028-0.00001 0.82766 0.38918 1.5411 1.1359 2.125 0.74672 0.5841 1.7202 0.87935 2.9172 0.8793 1.0465 0.00005 1.9241-0.29523 2.6333-0.90373 0.70907-0.60839 1.0584-1.3219 1.0585-2.1006-0.00002-0.78002-0.33419-1.4433-1.0068-2.0273-0.67264-0.5841-1.5654-0.87925-2.6849-0.8793zm108.56 0c-1.1218 0.00005-2.0813 0.29533-2.8656 0.90373-0.78437 0.60849-1.1617 1.2718-1.1617 2.0028 0 0.82766 0.36336 1.5411 1.1101 2.125 0.74673 0.5841 1.7202 0.87935 2.9172 0.8793 1.0466 0.00005 1.9241-0.29523 2.6333-0.90373 0.70907-0.60839 1.0585-1.3219 1.0585-2.1006-0.00001-0.78002-0.33418-1.4433-1.0068-2.0273-0.67264-0.5841-1.5654-0.87925-2.6849-0.8793zm23.777 21.323c-1.1948 0-2.3354 0.0737-3.3819 0.21983-1.0466 0.14638-2.1333 0.41694-3.2528 0.80603-2.0179 0.72958-3.5499 1.689-4.5953 2.8822s-1.549 2.4707-1.549 3.8347c-0.00001 2.6285 1.5611 4.7442 4.6986 6.3505l9.5262 4.8117c1.9426 0.97325 2.9172 2.4728 2.9172 4.4698-0.00002 1.7043-0.76658 3.1795-2.2976 4.4209-1.5311 1.2415-3.6345 1.8563-6.325 1.8563-1.27 0-2.4246-0.14714-3.4336-0.41523-1.009-0.26817-1.9157-0.6132-2.7365-1.0503 0.3739-0.73103 0.56795-1.5172 0.56796-2.3448 0-0.34023-0.0819-0.7832-0.23235-1.3434-0.1505-0.56017-0.3445-1.0031-0.56795-1.3434-0.5974-1.0237-1.364-1.8341-2.2976-2.4181-0.93371-0.5841-2.0345-0.87931-3.3045-0.87931-0.74784 0-1.1101 0.68774-1.1101 2.0517 0 1.0222 0.20805 1.9816 0.61959 2.9066 0.41156 0.92495 1.0261 1.7118 1.8846 2.3448 0.85847 0.63294 1.9592 1.248 3.3045 1.8319 2.6153 1.1204 5.4269 1.6853 8.4161 1.6853 3.8853 0 7.0754-0.88528 9.5778-2.6623s3.7692-3.818 3.7692-6.1063c-0.00002-1.266-0.41723-2.4701-1.2392-3.5905-0.822-1.1204-2.0478-2.079-3.6917-2.9066l-10.662-5.3491c-2.6153-1.315-3.9241-2.7174-3.9241-4.2255-0.00001-1.364 0.98861-2.5439 2.9689-3.5416 1.9802-0.99772 4.1094-1.4899 6.3508-1.4899 1.3452 0 2.5419 0.22294 3.5885 0.65948-0.00003 1.6568 0.61454 3.2047 1.8846 4.6408 1.27 1.4361 2.9971 2.1494 5.1633 2.1494 0.67262 0.00008 1.0068-0.3681 1.0068-1.0991-0.00003-0.87524-0.34826-1.8353-1.0585-2.8822-0.71029-1.0467-1.589-1.8828-2.6333-2.5158-2.2414-1.1694-4.887-1.7586-7.9514-1.7586zm227.31 0.0732c-1.9404 0.00005-4.1419 1.0086-6.609 3.0531-1.2701 1.0223-2.3848 2.128-3.3562 3.2974-0.67271 0.82772-1.5933 2.1061-2.7881 3.8103l-8.5194 12.774c-0.74794 1.0222-1.2763 1.5886-1.5748 1.7342-0.15-0.14561-0.26283-0.26953-0.33562-0.41522 0-0.53634 0.14035-1.3226 0.43888-2.3448l4.492-17.391c0.0764-0.1961 0.10326-0.46587 0.10326-0.80602 0-1.0223-0.43118-1.834-1.2908-2.4425-0.85956-0.60854-1.9615-0.90368-3.3045-0.90372-1.571 0.00004-3.0189 0.44308-4.363 1.319-1.3441 0.87597-2.4017 2.1049-3.1496 3.7126l-1.8846 4.1034 0.77449 0.14655 1.7813-3.6638c0.52214-1.1694 1.2747-2.1275 2.246-2.8577 0.97133-0.73013 1.8617-1.0747 2.6849-1.0747 0.97132 0.00005 1.4714 0.51638 1.4715 1.5876 0 0.1471-0.0816 0.56522-0.23234 1.2457l-5.0342 20.004c-0.22354 0.87664-0.33561 1.6385-0.33561 2.2715 0 0.97325 0.22343 1.7358 0.67122 2.2715 0.44802 0.53578 1.1456 0.80602 2.1169 0.80602 0.67257 0 1.507-0.63919 2.4784-1.9052 0.29868-0.38932 1.0793-1.545 2.3493-3.4439l10.094-14.973c0.82315-1.2169 1.8257-2.4966 3.0206-3.8592 1.8674-2.1916 3.4823-3.2974 4.8276-3.2974 1.122 0 1.6781 0.39385 1.6781 1.1724 0 0.43832-0.10995 1.1502-0.33565 2.125l-4.1565 18.123c0 0.19462-0.0818 0.4658-0.23231 0.85488v0.73275c0 1.1204 0.3188 2.1034 0.95516 2.931 0.63612 0.82771 1.5136 1.2457 2.6334 1.2457 1.6439 0 3.2448-0.46669 4.776-1.3678 1.531-0.90119 2.8258-2.0568 3.8724-3.4684l2.2202-2.9066-0.77449-0.21982-2.5816 3.0531c-0.67271 0.82764-1.3554 1.4914-2.0653 1.954-0.7103 0.46271-1.3367 0.6839-1.8588 0.6839-0.89824 0-1.3424-0.66338-1.3424-1.9784 0-0.19486 0.0157-0.41554 0.0512-0.65948 0.038-0.2437 0.1055-0.66151 0.18076-1.2945l4.2601-19.662c0.22338-1.0223-0.11079-1.9567-1.0069-2.8089-0.89601-0.8521-1.9244-1.27-3.0462-1.2701zm-361.79 0.0732c-1.27 0.00004-2.525 0.3445-3.795 1.0503-1.27 0.70581-2.3288 1.7137-3.1496 3.0287l-2.7882 4.7629 0.87775 0.2931 3.2528-4.8362c0.29869-0.38923 0.74509-0.75815 1.3424-1.1236 0.59738-0.36555 1.0976-0.56177 1.4715-0.56177 0.8208 0 1.2134 0.49084 1.2134 1.4655 0 0.14569-0.0583 0.61359-0.20653 1.3922l-4.9309 19.711-0.23235 1.6853c0 1.266 0.38918 2.1506 1.1359 2.6379 0.74673 0.48717 1.6966 0.73275 2.8914 0.73275 1.6439 0 3.1328-0.41738 4.4404-1.2212 1.3076-0.8038 2.5183-1.9102 3.6401-3.3218l2.246-2.9066-0.80031-0.14655-2.2202 2.8333c-0.4469 0.53501-1.1423 1.0764-2.0395 1.6121-0.89724 0.53539-1.7047 0.80602-2.4526 0.80602-0.82088 0-1.2392-0.49225-1.2392-1.4655 0-0.1471 0.0819-0.56514 0.23234-1.2457l4.9309-20.444c0.075-0.2437 0.10325-0.58745 0.10326-1.0258-0.00001-1.0713-0.36338-1.9565-1.1101-2.6623-0.74675-0.70568-1.6922-1.0502-2.814-1.0503zm108.58 0c-1.27 0.00004-2.5508 0.3445-3.8208 1.0503-1.27 0.70581-2.3029 1.7137-3.1238 3.0287l-2.814 4.7629 0.90357 0.2931 3.2528-4.8362c0.2987-0.38923 0.74509-0.75815 1.3424-1.1236 0.59739-0.36555 1.0717-0.56177 1.4457-0.56177 0.82081 0 1.2392 0.49084 1.2392 1.4655 0 0.14569-0.0842 0.61359-0.23234 1.3922l-4.9309 19.711-0.20653 1.6853c-0.00001 1.266 0.36336 2.1506 1.1101 2.6379 0.74673 0.48717 1.7224 0.73275 2.9172 0.73275 1.6439 0 3.1069-0.41738 4.4146-1.2212 1.3076-0.8038 2.5183-1.9102 3.6401-3.3218l2.246-2.9066-0.77449-0.14655-2.246 2.8333c-0.44691 0.535-1.1164 1.0764-2.0137 1.612-0.89723 0.5354-1.7305 0.80603-2.4784 0.80603-0.82089 0-1.2134-0.49226-1.2134-1.4655 0-0.14709 0.056-0.56513 0.20653-1.2457l4.9309-20.444c0.075-0.2437 0.12907-0.58745 0.12908-1.0258-0.00001-1.0713-0.38919-1.9565-1.1359-2.6623-0.74674-0.70567-1.6664-1.0502-2.7882-1.0503zm-398.89 0.14662c-3.3609 0.00005-6.426 0.56499-9.1906 1.6853-2.7646 1.1204-5.1882 2.8166-7.2802 5.1048s-3.5398 4.9448-4.363 7.9626c-0.22346 0.82764-0.33561 1.7363-0.33561 2.76 0 3.2125 0.97459 5.9417 2.9172 8.1824 2.3166 2.7265 5.6329 4.1034 9.9651 4.1034 6.4276 0 11.581-1.5238 15.464-4.5431 3.2126-2.5319 5.4657-6.0229 6.738-10.503 0.0729-0.29115 0.14523-0.73424 0.25816-1.319 0.11254-0.58464 0.18068-1.1262 0.18072-1.612-0.00004-3.8959-1.449-6.7963-4.363-8.6953-2.0179-1.3149-3.8118-2.1506-5.344-2.5402-1.5322-0.38942-3.0782-0.58616-4.6469-0.58621zm571.96 0c-3.3609 0.00005-6.426 0.56499-9.1906 1.6853-2.7646 1.1204-5.1882 2.8166-7.2802 5.1048s-3.5399 4.9448-4.363 7.9626c-0.22354 0.82764-0.33561 1.7363-0.33561 2.76 0 3.2125 0.97459 5.9417 2.9172 8.1824 2.3166 2.7265 5.6328 4.1034 9.9651 4.1034 6.4276 0 11.581-1.5238 15.464-4.5431 3.2126-2.5319 5.4657-6.0229 6.738-10.503 0.0728-0.29115 0.1453-0.73424 0.25816-1.319 0.11068-0.58464 0.18072-1.1262 0.18072-1.612 0-3.8959-1.449-6.7963-4.363-8.6953-2.0179-1.3149-3.8118-2.1506-5.344-2.5402-1.5322-0.38942-3.0782-0.58616-4.6469-0.58621zm-633.87 0.2931-2.9172 0.29311c-0.8961 0.0489-2.6944 0.0984-5.4214 0.17097-2.727 0.0726-4.9274 0.19556-6.609 0.36638-1.6816 0.17091-3.3796 0.53974-5.06 1.0991-1.6804 0.55948-3.3386 2.5761-4.9825 6.0574-1.644 3.4813-2.4526 7.2429-2.4526 11.284 0 3.4576 0.47439 5.9415 1.4457 7.4496 1.4935 2.3373 4.4172 3.5172 8.7517 3.5172 6.2748 0 11.54-2.5324 15.8-7.5962l-1.3424-0.43965c-1.7192 1.8499-3.3342 3.2023-4.8276 4.079-2.0179 1.168-4.3293 1.7586-6.9446 1.7586-4.2592 0-6.8488-1.5736-7.7449-4.7384-0.14819-0.87665-0.20654-1.6143-0.20653-2.1983 0-1.2169 0.1402-2.618 0.43888-4.1767 0.0752-0.48584 0.21541-1.1264 0.43888-1.954l8.855 0.43965c3.5843 0 6.4122-0.51656 8.4677-1.5144 2.0555-0.99771 3.0979-2.3002 3.098-3.908l1.2134-9.9898zm191.12 0c-3.8853 0-7.2555 0.61482-10.094 1.8807-3.4361 1.4606-6.2219 3.6735-8.3903 6.5948-1.8674 2.4353-3.2884 5.3114-4.2597 8.6709-0.59739 2.0446-0.90357 3.7909-0.90357 5.2025 0 2.4352 0.58542 4.3528 1.7813 5.7643 1.1959 1.4116 2.9219 2.125 5.1632 2.125 2.4648 0 4.6663-0.49233 6.609-1.4655 0.89606-0.4384 2.1768-1.3229 3.8208-2.6379 2.0931-1.7043 4.5447-4.164 7.3835-7.3764 0.89606-1.0223 2.0647-2.3989 3.4852-4.1523l-3.1496 8.5488c-0.0753 0.19469-0.21549 0.53985-0.43888 1.0747-0.00003 0.4874-0.00003 0.95383 0 1.3922-0.00003 1.5096 0.64037 2.7153 1.9104 3.5905 0.97129 0.68187 2.1141 1.0258 3.4594 1.0258 4.0335 0 7.2914-2.3355 9.7586-7.01l-0.90357-0.43965c-0.8984 1.7044-1.5949 2.8598-2.1169 3.4928-0.82087 1.0223-1.5734 1.5881-2.246 1.6853-0.67266 0.0977-1.313 0.14655-1.9104 0.14655-2.0932 0-3.1238-0.95875-3.1238-2.8577-0.00008-0.73103 0.16817-1.7396 0.54214-3.0531l6.8413-21.323h-4.2597l-0.43888 1.1724c-0.8984-0.48735-1.6767-0.83131-2.3493-1.0258-2.0156-0.68186-4.077-1.0259-6.1701-1.0259zm467.2 0c-1.4957 0-2.8186 0.41807-3.9757 1.2457-1.1571 0.82767-2.1177 1.8348-2.8656 3.0531l-2.3493 4.1034 0.90357 0.2931 1.9104-3.2241c0.29868-0.43832 0.74538-1.0525 1.3424-1.8319 0.59736-0.7795 1.3476-1.1724 2.246-1.1724 1.0444 0 1.549 0.51504 1.549 1.5388 0 0.14569-0.029 0.41675-0.10326 0.7816-0.0749 0.36485-0.10327 0.6843-0.10327 0.977l-5.1633 23.448h10.094l5.3698-20.957c0.30094-1.2169 0.71711-2.2985 1.2392-3.2241 0.82083-1.4606 1.9076-2.4449 3.2528-2.9798 0.15073 0.58393 0.3582 1.1006 0.61959 1.5632 0.26104 0.46287 0.66794 0.90685 1.265 1.3434 1.1218 0.87656 2.5428 1.319 4.2597 1.319 0.89829 0 1.6344-0.27043 2.1944-0.7816 0.56008-0.51109 0.85187-1.0283 0.85194-1.5632-0.00007-0.97466-0.61242-1.8591-1.8071-2.6868-1.1949-0.82766-2.4217-1.2457-3.6917-1.2457-1.2723 0-2.4409 0.24544-3.4852 0.73276-0.67265 0.29276-1.5631 0.85898-2.6849 1.7342-1.4182 1.1204-2.505 3.0622-3.2528 5.7887l-5.4989 20.224h-2.7882l4.363-22.202c0-0.2437 0.0816-0.6132 0.23235-1.0991v-0.95257c0-1.5587-0.33404-2.64-1.0068-3.273-0.67265-0.63298-1.6472-0.95258-2.9172-0.95258zm-597.65 0.29311c3.4361 0 6.0257 1.0328 7.7449 3.1264 1.3452 1.6553 2.0136 3.9164 2.0137 6.7902 0 1.3625-0.19407 2.7894-0.56796 4.25-0.89612 3.7489-2.6513 6.9945-5.2665 9.77-2.8388 3.1159-6.0126 4.6896-9.5262 4.6896-2.987 0-5.2176-0.81177-6.7122-2.4425s-2.246-3.8436-2.246-6.6192c0-1.5572 0.30614-3.3519 0.90357-5.3979 1.4205-4.4307 3.0915-7.7751 5.0342-10.014 2.3166-2.7755 5.1865-4.1522 8.6226-4.1522zm571.96 0c3.4361 0 6.0257 1.0328 7.7449 3.1264 1.3451 1.6553 2.0137 3.9164 2.0137 6.7902 0 1.3625-0.19442 2.7894-0.56795 4.25-0.89611 3.7489-2.6513 6.9945-5.2665 9.77-2.8388 3.1159-6.0126 4.6896-9.5262 4.6896-2.987 0-5.2177-0.81177-6.7122-2.4425-1.4946-1.6307-2.246-3.8436-2.246-6.6192 0-1.5572 0.3065-3.3519 0.90357-5.3979 1.4205-4.4307 3.0915-7.7751 5.0342-10.014 2.3166-2.7755 5.1865-4.1522 8.6226-4.1522zm-440.84 0.5862c1.27 0.00004 2.5788 0.19591 3.9241 0.61062 1.3452 0.41457 2.5722 0.98021 3.6917 1.7098l-2.4526 7.3764c-0.89611 2.0445-2.9294 4.7996-6.0668 8.2557-2.4671 2.679-4.6663 4.8418-6.609 6.4971-1.4935 1.266-2.8023 2.1023-3.9241 2.4914-0.67036 0.24339-1.5351 0.36638-2.5816 0.36638-1.3453 0-2.2648-0.41801-2.7882-1.2701-0.52331-0.85218-0.80031-2.0562-0.8003-3.6149 0-1.0223 0.166-2.3006 0.46469-3.8103 0.0752-0.48584 0.21541-1.2236 0.43888-2.1982 1.1218-4.3328 2.7928-7.8737 5.0342-10.649 3.0622-3.8468 6.9605-5.7643 11.669-5.7643zm-75.668 0.21982c1.1218 0 2.1816 0.0983 3.227 0.31753 1.0454 0.21917 2.2432 0.58864 3.5885 1.1236l1.4715 0.80603-3.6917 6.7902c-1.0466 1.5587-2.3554 3.5747-3.9241 6.0086-1.1948 1.8009-2.5855 3.6456-4.1564 5.5445-1.27 1.6552-2.663 3.0319-4.1564 4.1523-2.1661 1.6553-4.1433 2.4914-5.9377 2.4914-1.3453 0.00007-2.28-0.41801-2.8398-1.2701-0.55975-0.85218-0.85194-2.082-0.85193-3.6882 0-0.82764 0.083-1.7615 0.23234-2.76 0.14934-0.99849 0.31868-1.9822 0.54215-2.9554 0.67262-2.9702 1.7291-5.6253 3.1496-7.9626 1.7922-3.0668 4.1058-5.3538 6.9446-6.8634 2.1684-1.1678 4.3116-1.7342 6.4024-1.7342zm283.67 0c1.1218 0 2.2074 0.0983 3.2528 0.31753 1.0454 0.21917 2.2432 0.58864 3.5885 1.1236l1.4457 0.80603-3.6917 6.7902c-1.0466 1.5587-2.3554 3.5747-3.9241 6.0086-1.1948 1.8009-2.5855 3.6456-4.1564 5.5445-1.27 1.6552-2.6372 3.0319-4.1306 4.1523-2.1661 1.6553-4.1433 2.4914-5.9377 2.4914-1.3453 0.00007-2.3058-0.41801-2.8656-1.2701-0.55975-0.85218-0.82613-2.082-0.82612-3.6882 0-0.82764 0.0572-1.7615 0.20653-2.76 0.14934-0.99849 0.34449-1.9822 0.56796-2.9554 0.67263-2.9702 1.7032-5.6253 3.1238-7.9626 1.7921-3.0668 4.1316-5.3538 6.9704-6.8634 2.1684-1.1678 4.2858-1.7342 6.3766-1.7342zm-409.42 0.14655h4.6986v3.6393c-0.00001 6.621-2.6199 9.941-7.8482 9.941l-8.855-0.43965c0.52212-2.2897 0.9405-4.0102 1.2392-5.1781 1.0466-3.5052 1.992-5.5711 2.814-6.1795 0.82197-0.6084 1.9648-1.0506 3.4594-1.3434 1.4946-0.29276 2.9985-0.43965 4.492-0.43965z" fill="#fff"/>
      <path id="path4532" d="m30.153 291.56c-10.238 0-19.768 3.3391-27.562 8.9688 0.23122-0.003 0.45554-0.0312 0.6875-0.0312h990.69c25.966 0 47.406 21.44 47.406 47.406v680.56c0 15.728-7.8705 29.789-19.844 38.438 25.653-0.3783 46.719-21.641 46.719-47.375v-680.56c0-25.966-21.44-47.406-47.406-47.406h-990.69z" fill-opacity=".53725" transform="matrix(.82612 0 0 .78160 81.538 172.84)" filter="url(#filter4626)" fill="#fff"/>
    </g>
  </g>
  <metadata>
    <rdf:RDF>
      <cc:Work>
        <dc:format>image/svg+xml</dc:format>
        <dc:type rdf:resource="http://purl.org/dc/dcmitype/StillImage"/>
        <cc:license rdf:resource="http://creativecommons.org/licenses/publicdomain/"/>
        <dc:publisher>
          <cc:Agent rdf:about="http://openclipart.org/">
            <dc:title>Openclipart</dc:title>
          </cc:Agent>
        </dc:publisher>
      </cc:Work>
      <cc:License rdf:about="http://creativecommons.org/licenses/publicdomain/">
        <cc:permits rdf:resource="http://creativecommons.org/ns#Reproduction"/>
        <cc:permits rdf:resource="http://creativecommons.org/ns#Distribution"/>
        <cc:permits rdf:resource="http://creativecommons.org/ns#DerivativeWorks"/>
      </cc:License>
    </rdf:RDF>
  </metadata>
</svg>
