<?xml version="1.0" encoding="UTF-8" standalone="no"?>
<svg
   xmlns:dc="http://purl.org/dc/elements/1.1/"
   xmlns:cc="http://creativecommons.org/ns#"
   xmlns:rdf="http://www.w3.org/1999/02/22-rdf-syntax-ns#"
   xmlns:svg="http://www.w3.org/2000/svg"
   xmlns="http://www.w3.org/2000/svg"
   xmlns:xlink="http://www.w3.org/1999/xlink"
   xmlns:sodipodi="http://sodipodi.sourceforge.net/DTD/sodipodi-0.dtd"
   xmlns:inkscape="http://www.inkscape.org/namespaces/inkscape"
   id="svg2"
   sodipodi:docname="iceagecold.svg"
   viewBox="0 0 525.00002 478.12502"
   version="1.1"
   inkscape:version="0.92.1 r15371"
   width="560"
   height="510">
  <defs
     id="defs7512">
    <linearGradient
       inkscape:collect="always"
       id="linearGradient8124">
      <stop
         style="stop-color:#1a2b72;stop-opacity:1;"
         offset="0"
         id="stop8120" />
      <stop
         style="stop-color:#1a2b72;stop-opacity:0;"
         offset="1"
         id="stop8122" />
    </linearGradient>
    <linearGradient
       inkscape:collect="always"
       id="linearGradient8106">
      <stop
         style="stop-color:#630a0a;stop-opacity:1;"
         offset="0"
         id="stop8102" />
      <stop
         style="stop-color:#630a0a;stop-opacity:0;"
         offset="1"
         id="stop8104" />
    </linearGradient>
    <linearGradient
       inkscape:collect="always"
       id="linearGradient8073">
      <stop
         style="stop-color:#7b8d4c;stop-opacity:1;"
         offset="0"
         id="stop8069" />
      <stop
         style="stop-color:#7b8d4c;stop-opacity:0;"
         offset="1"
         id="stop8071" />
    </linearGradient>
    <linearGradient
       inkscape:collect="always"
       id="linearGradient8063">
      <stop
         style="stop-color:#405a74;stop-opacity:1;"
         offset="0"
         id="stop8059" />
      <stop
         style="stop-color:#405a74;stop-opacity:0;"
         offset="1"
         id="stop8061" />
    </linearGradient>
    <linearGradient
       inkscape:collect="always"
       xlink:href="#linearGradient8063"
       id="linearGradient8065"
       x1="0"
       y1="205.03125"
       x2="417.5625"
       y2="205.03125"
       gradientUnits="userSpaceOnUse"
       gradientTransform="translate(5.6250003,38.902424)" />
    <linearGradient
       inkscape:collect="always"
       xlink:href="#linearGradient8073"
       id="linearGradient8075"
       x1="21.413462"
       y1="185.84242"
       x2="395.61371"
       y2="185.84242"
       gradientUnits="userSpaceOnUse"
       gradientTransform="translate(5.6250003,38.902424)" />
    <style
       id="style8077"
       type="text/css">
    .fil0 {fill:black}
  </style>
    <linearGradient
       inkscape:collect="always"
       xlink:href="#linearGradient8106"
       id="linearGradient8108"
       x1="468.62891"
       y1="117.33301"
       x2="657.27148"
       y2="117.33301"
       gradientUnits="userSpaceOnUse" />
    <linearGradient
       inkscape:collect="always"
       xlink:href="#linearGradient8124"
       id="linearGradient8126"
       x1="484.70163"
       y1="342.9516"
       x2="628.36377"
       y2="342.9516"
       gradientUnits="userSpaceOnUse" />
  </defs>
  <sodipodi:namedview
     id="namedview10"
     bordercolor="#666666"
     inkscape:pageshadow="2"
     guidetolerance="10"
     pagecolor="#ffffff"
     gridtolerance="10"
     inkscape:window-maximized="1"
     inkscape:zoom="0.48517716"
     objecttolerance="10"
     borderopacity="1"
     inkscape:current-layer="svg2"
     inkscape:cx="52.557674"
     inkscape:cy="166.80723"
     inkscape:window-y="-8"
     inkscape:window-x="-8"
     inkscape:window-width="1366"
     showgrid="false"
     inkscape:pageopacity="0"
     inkscape:window-height="705"
     inkscape:snap-global="false"
     fit-margin-top="0"
     fit-margin-left="0"
     fit-margin-right="0"
     fit-margin-bottom="0" />
  <ellipse
     id="circle4"
     style="fill:#235c96;stroke-width:2.65253544"
     cy="243.93369"
     cx="214.40625"
     rx="208.78125"
     ry="205.03125" />
  <ellipse
     ry="205.03125"
     rx="208.78125"
     cx="214.40625"
     cy="243.93369"
     style="fill:url(#linearGradient8065);fill-opacity:1;stroke-width:2.65253544"
     id="ellipse8057" />
  <path
     inkscape:connector-curvature="0"
     id="path8136"
     d="m 145.12085,256.11724 c -5.25978,12.03949 -16.68023,20.35461 -25.51365,29.69864 -8.49197,8.12775 -28.249599,30.74858 -29.40373,6.06581 C 91.199161,275.19478 72.986366,281.7407 62.584706,278.48665 62.282969,264.03911 50.866755,258.638 37.822133,260.85989 29.395084,246.58456 7.7914324,246.8307 5.2506487,228.49389 10.860778,215.8778 28.033694,208.85928 41.655601,208.7413 c 12.555107,0 25.110215,0 37.665322,0 15.093966,-6.0676 21.222807,-24.42834 36.402207,-29.72026 18.52047,-0.40355 38.2288,-3.01388 55.84556,4.24876 24.03505,1.58115 47.91267,5.72853 72.09159,4.41564 18.91614,-1.4e-4 37.83227,-7e-4 56.74841,-1.2e-4 9.15968,10.06287 24.52165,8.7429 36.50696,13.29591 14.27514,0.43662 26.78275,7.29367 40.64859,9.41981 14.05552,2.84198 26.95997,8.78726 40.0655,14.05667 16.30085,12.23944 12.28525,33.10624 -1.13194,45.98571 -13.27667,16.4169 -28.22895,35.72987 -51.27015,36.77839 -16.63855,2.40396 -30.28886,-9.91916 -45.89461,-12.7593 -15.23897,-6.12452 -31.71828,-9.94333 -44.02921,-21.65609 -15.49629,-13.1596 -35.21773,-13.86383 -53.98387,-10.37049 -17.85645,2.34274 -35.87854,1.43855 -53.82713,1.5773 -1.58907,-10.08256 -16.42273,-1.4901 -19.80888,-9.12924 z"
     style="opacity:1;fill:#dde7f2;fill-opacity:1;stroke:none;stroke-width:0.93750006px;stroke-linecap:butt;stroke-linejoin:miter;stroke-opacity:1" />
  <path
     id="ellipse8128"
     style="fill:#dde7f2;fill-opacity:1;stroke-width:2.65253544"
     sodipodi:type="arc"
     sodipodi:cx="215.16325"
     sodipodi:cy="-241.03714"
     sodipodi:rx="209.34262"
     sodipodi:ry="205.03125"
     sodipodi:start="0"
     sodipodi:end="3.0984415"
     d="M 424.50587,-241.03714 A 209.34262,205.03125 0 0 1 219.67959,-36.05361 209.34262,205.03125 0 0 1 6.015503,-232.19255 l 209.147747,-8.84459 z"
     transform="scale(1,-1)" />
  <path
     id="path6"
     style="fill:#94ba32;stroke-width:2.65253544"
     inkscape:connector-curvature="0"
     d="m 27.038462,243.93368 c 0,41.00626 13.383414,78.33245 36.402886,108.82428 L 54.875963,294.40292 Z M 67.188703,129.85219 91.814184,124.06926 C 112.69231,94.10315 142.13583,78.33152 168.90265,73.60003 l -42.29159,28.91466 41.75625,-9.9887 29.97885,-16.29736 -8.56539,-14.720191 C 140.52981,67.81709 96.632214,93.05171 67.188703,129.85219 Z m 27.302164,113.55577 17.666113,34.6976 52.46298,4.73149 28.37283,105.14423 h 34.79688 l 39.6149,-47.3149 -2.14134,-29.44039 c 17.13077,-13.14303 30.51418,-29.44038 35.86754,-50.46923 l -26.76682,6.30866 -34.79688,-53.62356 8.03005,-5.25722 34.26154,47.31491 33.7262,-28.91467 c -17.6661,-2.10288 -29.4435,-10.51442 -34.26154,-25.23461 l 61.02837,9.46298 21.9488,44.16058 9.63605,-58.88078 27.30218,31.54328 C 394.27934,149.82959 337.53366,85.69161 262.58654,66.23993 c 0,17.87452 -10.17139,32.59471 -24.62548,41.00625 l -19.27211,-11.04014 -36.93822,21.02884 12.84807,12.09159 19.80746,-23.13173 -3.74736,28.38894 c -24.09015,0 -35.86755,3.68005 -50.85698,11.56587 l -3.21201,14.72019 -16.59543,-3.68004 -6.95938,18.40023 14.45408,4.20577 c 8.03006,-9.9887 14.45409,-16.29736 29.97885,-19.9774 l 16.0601,17.34879 -9.63606,3.15433 5.8887,4.7315 8.56539,-9.98871 -12.31275,-16.82308 c 12.31275,0 19.27212,7.3601 23.55482,25.76034 l 21.94879,-31.54327 26.76683,11.04014 -2.67668,6.83438 -31.58486,2.62861 v 11.56587 l 24.09015,1.57715 -7.49471,18.92597 c -43.8976,0 -56.74568,-1.05144 -65.8464,-20.50312 l -36.40288,-2.1029 c -26.76683,15.77165 -40.150246,36.27477 -43.897603,60.98366 z m 51.927643,-108.82428 21.41347,5.25721 v -21.02884 z m 118.84472,20.50312 10.70673,-5.78292 14.45408,29.44038 -9.63605,2.10288 z m 5.8887,209.76276 9.63606,3.68004 16.0601,-36.27476 -20.3428,12.61731 z" />
  <metadata
     id="metadata8">
    <rdf:RDF>
      <cc:Work>
        <dc:format>image/svg+xml</dc:format>
        <dc:type
           rdf:resource="http://purl.org/dc/dcmitype/StillImage" />
        <cc:license
           rdf:resource="http://creativecommons.org/publicdomain/zero/1.0/" />
        <dc:publisher>
          <cc:Agent
             rdf:about="http://openclipart.org/">
            <dc:title>Openclipart</dc:title>
          </cc:Agent>
        </dc:publisher>
        <dc:title></dc:title>
      </cc:Work>
      <cc:License
         rdf:about="http://creativecommons.org/publicdomain/zero/1.0/">
        <cc:permits
           rdf:resource="http://creativecommons.org/ns#Reproduction" />
        <cc:permits
           rdf:resource="http://creativecommons.org/ns#Distribution" />
        <cc:permits
           rdf:resource="http://creativecommons.org/ns#DerivativeWorks" />
      </cc:License>
    </rdf:RDF>
  </metadata>
  <path
     d="m 27.038462,243.93368 c 0,41.00626 13.383414,78.33245 36.402886,108.82428 L 54.875963,294.40292 Z M 67.188703,129.85219 91.814184,124.06926 C 112.69231,94.10315 142.13583,78.33152 168.90265,73.60003 l -42.29159,28.91466 41.75625,-9.9887 29.97885,-16.29736 -8.56539,-14.720191 C 140.52981,67.81709 96.632214,93.05171 67.188703,129.85219 Z m 27.302164,113.55577 17.666113,34.6976 52.46298,4.73149 28.37283,105.14423 h 34.79688 l 39.6149,-47.3149 -2.14134,-29.44039 c 17.13077,-13.14303 30.51418,-29.44038 35.86754,-50.46923 l -26.76682,6.30866 -34.79688,-53.62356 8.03005,-5.25722 34.26154,47.31491 33.7262,-28.91467 c -17.6661,-2.10288 -29.4435,-10.51442 -34.26154,-25.23461 l 61.02837,9.46298 21.9488,44.16058 9.63605,-58.88078 27.30218,31.54328 C 394.27934,149.82959 337.53366,85.69161 262.58654,66.23993 c 0,17.87452 -10.17139,32.59471 -24.62548,41.00625 l -19.27211,-11.04014 -36.93822,21.02884 12.84807,12.09159 19.80746,-23.13173 -3.74736,28.38894 c -24.09015,0 -35.86755,3.68005 -50.85698,11.56587 l -3.21201,14.72019 -16.59543,-3.68004 -6.95938,18.40023 14.45408,4.20577 c 8.03006,-9.9887 14.45409,-16.29736 29.97885,-19.9774 l 16.0601,17.34879 -9.63606,3.15433 5.8887,4.7315 8.56539,-9.98871 -12.31275,-16.82308 c 12.31275,0 19.27212,7.3601 23.55482,25.76034 l 21.94879,-31.54327 26.76683,11.04014 -2.67668,6.83438 -31.58486,2.62861 v 11.56587 l 24.09015,1.57715 -7.49471,18.92597 c -43.8976,0 -56.74568,-1.05144 -65.8464,-20.50312 l -36.40288,-2.1029 c -26.76683,15.77165 -40.150246,36.27477 -43.897603,60.98366 z m 51.927643,-108.82428 21.41347,5.25721 v -21.02884 z m 118.84472,20.50312 10.70673,-5.78292 14.45408,29.44038 -9.63605,2.10288 z m 5.8887,209.76276 9.63606,3.68004 16.0601,-36.27476 -20.3428,12.61731 z"
     inkscape:connector-curvature="0"
     style="fill:url(#linearGradient8075);fill-opacity:1;stroke-width:2.65253544"
     id="path8067" />
  <path
     style="opacity:0.48999999;fill:#dde7f2;fill-opacity:1;stroke-width:2.65253544"
     d="M 220.27039,36.066924 C 107.90772,33.388916 14.486908,115.17721 7.7361661,225.35492 c -0.515977,-0.0795 -1.969021,3.22132 -2.484701,3.13937 2.5407836,18.33682 16.3517269,20.38707 24.7787759,34.6624 13.044622,-2.22189 32.253473,0.88152 32.55521,15.32906 10.40166,3.25405 22.471968,1.96615 21.476277,18.65306 1.154131,24.68277 30.013012,2.72517 38.504982,-5.40258 8.83341,-9.34402 17.29375,-23.57915 22.55353,-35.61864 l 2.56348,-1.23414 c 3.38615,7.63915 18.21929,0.0339 19.80835,10.11643 17.9486,-0.13875 35.97107,-0.22058 53.82752,-2.56333 18.76613,-3.49334 38.4887,-2.79033 53.98498,10.36927 12.31093,11.71276 30.76233,22.43893 46.0013,28.56345 15.60576,2.84013 27.28326,8.25701 43.9218,5.85306 23.0412,-1.04852 37.99286,-20.36167 51.26953,-36.77857 11.49976,-11.03888 16.07936,-27.94096 6.89393,-40.25391 C 417.63077,123.3484 329.18233,38.818032 220.27039,36.066924 Z"
     id="path8130"
     inkscape:connector-curvature="0"
     sodipodi:nodetypes="ccccccccccccccccc" />
  <g
     style="clip-rule:evenodd;fill-rule:evenodd;image-rendering:optimizeQuality;shape-rendering:geometricPrecision;text-rendering:geometricPrecision"
     id="g8093"
     transform="matrix(0.15624532,0,0,0.11004938,432.37625,8.2436539)">
    <g
       id="Layer_x0020_1">
  
 <g
   id="g8116"
   transform="translate(-667.22085,84.580648)">
  <path
     inkscape:connector-curvature="0"
     id="path8110"
     d="M 545.24116,21.439626 342.69195,224.43318 V 2998.6785 l -297.866455,321.4064 59.573325,405.9871 190.63452,236.8258 297.86646,101.4968 262.12247,-50.7484 226.37853,-169.1613 83.4026,-355.2387 L 962.2542,3083.2591 843.10762,2914.0978 855.02227,309.01383 807.36364,122.93641 Z"
     style="fill:#ebf7fb;fill-opacity:1;stroke:none;stroke-width:7.14947224px;stroke-linecap:butt;stroke-linejoin:miter;stroke-opacity:1" />
  <path
     sodipodi:nodetypes="cssscssscccccccccccccccccccccccccccsssccsssccc"
     style="fill:#000000"
     inkscape:connector-curvature="0"
     class="fil0"
     d="m 913,2981 c 182,105 304,302 304,527 0,336 -273,609 -609,609 -336,0 -609,-273 -609,-609 0,-225 122,-422 304,-527 V 304 C 303,137 440,0 607,0 774,0 911,137 911,304 v 556 h 209 v 28 11 39 H 911 v 492 h 209 v 28 11 39 H 911 v 492 h 209 v 28 11 39 H 911 v 492 h 209 v 28 11 39 H 911 v 336 z m -110,63 V 304 C 803,197 715,109 608,109 501,109 413,197 413,304 v 2740 l -55,32 c -154,89 -250,254 -250,433 0,276 224,499 499,499 276,0 499,-224 499,-499 0,-179 -95,-343 -250,-433 l -55,-32 z"
     id="path8081" />
  <path
     id="path8095"
     transform="matrix(6.0001799,0,0,8.5189034,-2731.2898,278.59098)"
     d="m 536.87169,256.63819 -0.006,73.83642 c -30.16576,5.98669 -52.16406,25.47261 -52.16406,48.59766 0,27.93786 32.1646,50.59375 71.83008,50.59375 39.66548,0 71.83203,-22.65589 71.83203,-50.59375 0,-23.12505 -22.00025,-42.61097 -52.16601,-48.59766 l 1.32597,-74.08688 c 0,0 -0.79375,-0.46987 -40.65155,0.25046 z"
     style="fill:#0b238e;fill-opacity:1;stroke-width:0.13987046"
     inkscape:connector-curvature="0"
     sodipodi:nodetypes="ccssscccc" />
  <path
     sodipodi:nodetypes="ccssscccc"
     inkscape:connector-curvature="0"
     style="fill:url(#linearGradient8126);fill-opacity:1;stroke-width:0.13987046"
     d="m 536.87169,256.63819 -0.006,73.83642 c -30.16576,5.98669 -52.16406,25.47261 -52.16406,48.59766 0,27.93786 32.1646,50.59375 71.83008,50.59375 39.66548,0 71.83203,-22.65589 71.83203,-50.59375 0,-23.12505 -22.00025,-42.61097 -52.16601,-48.59766 l 1.32597,-74.08688 c 0,0 -0.79375,-0.46987 -40.65155,0.25046 z"
     transform="matrix(6.0001799,0,0,8.5189034,-2731.2898,278.59098)"
     id="path8118" />
</g>
</g>
  </g>
</svg>
