<?xml version="1.0" standalone="no"?>
<!DOCTYPE svg PUBLIC "-//W3C//DTD SVG 1.1//EN" "http://www.w3.org/Graphics/SVG/1.1/DTD/svg11.dtd">
<!--Generator: Xara Designer (www.xara.com), SVG filter version: 6.1.0.16-->
<svg stroke-width="0.501" stroke-linejoin="bevel" fill-rule="evenodd" xmlns:xlink="http://www.w3.org/1999/xlink" xmlns="http://www.w3.org/2000/svg" version="1.1" overflow="visible" width="720pt" height="720pt" viewBox="0 0 720 720">
 <defs>
	</defs>
 <g id="Document" fill="none" stroke="black" font-family="Times New Roman" font-size="16" transform="scale(1 -1)">
  <g id="Spread" transform="translate(0 -720)">
   <g id="Layer 1">
    <path d="M 334.702,275.421 L 340.64,274.267 L 344.677,305.04 L 345.39,315.427 L 349.429,320.043 L 350.855,321.583 L 353.468,323.506 L 356.319,326.583 L 359.881,330.43 L 363.443,335.045 L 366.769,339.66 L 368.907,344.278 L 369.858,349.661 L 381.498,376.973 L 383.161,373.126 L 382.448,356.585 L 377.696,331.198 L 385.535,330.43 L 382.211,320.043 L 379.597,308.887 L 395.749,277.346 L 396.227,268.497 L 407.152,264.652 L 393.611,303.118 L 400.739,321.967 L 400.977,328.507 L 402.64,325.812 L 403.35,322.351 L 405.489,321.583 L 407.152,322.351 L 408.102,324.274 L 409.053,326.967 L 408.815,331.582 L 407.865,335.815 L 406.677,339.276 L 405.253,342.353 L 407.865,344.278 L 409.766,343.124 L 411.429,340.815 L 410.716,336.583 L 409.766,333.891 L 409.053,329.275 L 409.29,326.196 L 410.478,323.122 L 413.33,322.351 L 415.228,323.122 L 416.178,325.812 L 416.891,329.275 L 415.468,336.199 L 413.805,339.66 L 417.604,346.2 L 420.693,336.199 L 419.742,333.507 L 418.794,330.814 L 417.604,329.275 L 416.178,323.89 L 417.842,322.351 L 422.118,320.813 L 424.254,321.967 L 424.967,323.89 L 425.918,326.967 L 425.918,331.198 L 424.732,336.199 L 426.87,340.815 L 430.195,345.046 L 432.331,339.66 L 434.234,320.043 L 429.719,311.964 L 431.858,303.118 L 430.907,258.88 L 436.607,258.496 L 439.459,271.96 L 438.983,295.039 L 443.973,303.502 L 448.247,315.427 L 449.673,329.275 L 452.287,334.659 L 463.927,339.276 L 468.204,347.739 L 469.865,358.126 L 482.455,339.276 L 492.907,323.89 L 494.095,319.272 L 494.095,306.581 L 492.194,292.349 L 492.194,276.192 L 489.581,268.497 L 490.056,261.96 L 503.832,259.651 L 501.934,268.113 L 499.32,271.96 L 501.221,308.887 L 504.072,326.967 L 502.646,333.507 L 500.27,339.276 L 497.657,344.278 L 494.806,349.661 L 492.194,355.431 L 490.056,361.587 L 488.393,368.895 L 487.682,376.589 L 491.244,375.819 L 495.046,375.435 L 498.845,375.819 L 503.122,376.589 L 507.158,377.741 L 511.435,379.666 L 515.235,382.359 L 518.801,385.82 L 521.175,390.051 L 522.838,394.669 L 524.501,399.668 L 525.689,403.515 L 528.54,405.054 L 531.389,406.592 L 534.24,408.515 L 536.379,410.439 L 538.277,413.132 L 539.94,416.979 L 541.128,420.44 L 542.554,424.288 L 542.554,435.056 L 543.029,439.29 L 545.168,442.751 L 545.878,443.135 L 547.306,442.751 L 548.492,442.367 L 549.68,442.751 L 550.868,445.441 L 551.581,448.137 L 551.343,454.677 L 549.205,460.06 L 546.353,461.214 L 543.029,461.601 L 540.178,461.985 L 537.327,464.291 L 535.904,466.214 L 534.24,468.522 L 532.815,470.063 L 531.389,471.599 L 526.637,472.37 L 522.838,471.599 L 519.987,469.677 L 517.613,466.984 L 514.762,466.984 L 513.571,465.062 L 516.187,460.06 L 516.898,453.906 L 514.047,444.673 L 512.386,430.055 L 509.059,420.44 L 507.634,418.518 L 505.973,417.363 L 503.832,416.979 L 501.934,416.593 L 497.657,419.67 L 493.618,422.747 L 489.581,426.594 L 486.019,431.212 L 479.606,441.213 L 477.465,446.982 L 475.092,453.906 L 475.092,467.752 L 465.59,488.524 L 463.452,490.063 L 461.788,491.603 L 458.462,496.987 L 450.861,500.45 L 444.448,541.608 L 440.171,546.226 L 442.545,561.61 L 447.299,565.459 L 448.96,570.843 L 448.96,579.305 L 447.535,586.616 L 444.683,591.231 L 441.122,595.078 L 436.607,598.923 L 432.571,599.691 L 430.432,591.999 L 426.393,586.229 L 422.831,578.535 L 421.168,570.843 L 423.306,564.305 L 424.732,560.842 L 426.87,558.149 L 422.831,555.072 L 418.794,550.841 L 415.228,545.455 L 412.142,539.302 L 409.053,532.761 L 406.677,525.067 L 405.013,517.759 L 403.825,510.067 L 403.825,504.681 L 403.59,498.912 L 402.64,493.526 L 401.214,488.524 L 399.076,481.984 L 396.227,475.062 L 393.136,468.909 L 390.049,462.753 L 386.723,456.599 L 383.636,450.827 L 380.785,444.289 L 378.409,438.904 L 376.748,436.979 L 375.085,435.056 L 374.135,433.518 L 372.709,431.596 L 369.62,432.366 L 366.769,433.904 L 364.155,435.827 L 361.304,437.749 L 358.455,437.749 L 355.367,437.749 L 351.805,436.979 L 348.241,434.288 L 347.053,433.134 L 345.63,430.055 L 344.677,427.364 L 343.966,422.747 L 356.792,427.364 L 357.98,417.363 L 358.693,416.979 L 361.782,416.979 L 360.831,409.671 L 359.643,402.747 L 358.455,394.669 L 357.98,384.282 L 357.98,377.741 L 357.03,370.817 L 355.367,363.893 L 353.468,356.969 L 350.855,350.818 L 348.241,344.278 L 345.865,338.506 L 343.966,333.12 L 342.303,330.43 L 340.64,328.507 L 338.977,326.196 L 338.264,325.044 L 339.214,304.656 L 334.702,275.421 Z" fill="#666666" stroke="none" stroke-width="0.319" marker-start="none" marker-end="none" stroke-miterlimit="79.8403193612775"/>
    <path d="M 65.086,316.582 L 75.065,316.582 L 86.703,333.12 L 88.604,345.43 L 90.029,346.2 L 90.98,346.584 L 92.878,346.584 L 93.831,340.431 L 92.168,328.507 L 93.591,318.888 L 92.168,314.273 L 93.591,312.734 L 106.419,308.503 L 104.518,316.198 L 104.994,322.351 L 106.182,327.737 L 114.26,328.507 L 121.623,335.815 L 140.152,330.814 L 150.366,346.968 L 151.792,346.968 L 152.74,347.739 L 154.878,347.739 L 159.393,359.278 L 167.706,351.586 L 177.446,322.351 L 173.884,314.273 L 176.02,304.656 L 170.082,296.193 L 168.419,291.194 L 183.148,285.809 L 181.96,291.965 L 184.811,303.502 L 188.61,309.274 L 188.848,318.12 L 186.472,325.044 L 185.522,336.583 L 185.759,340.815 L 187.185,344.278 L 194.548,343.508 L 195.736,344.278 L 197.637,348.123 L 218.304,392.744 L 224.954,394.669 L 231.607,397.362 L 237.545,401.591 L 243.482,406.976 L 248.947,413.132 L 253.934,419.67 L 263.436,434.288 L 271.987,454.677 L 278.403,453.522 L 281.254,455.445 L 283.865,458.522 L 286.241,461.601 L 288.617,465.062 L 291.231,467.752 L 294.32,470.063 L 297.881,471.599 L 301.683,471.599 L 304.059,473.524 L 304.532,476.987 L 304.059,481.984 L 302.871,485.834 L 299.544,490.063 L 295.032,492.758 L 290.043,495.064 L 284.818,496.987 L 279.353,498.144 L 273.651,498.912 L 268.188,500.066 L 262.961,500.066 L 257.261,492.758 L 253.222,484.295 L 249.897,474.676 L 246.333,465.062 L 243.007,455.445 L 239.208,447.366 L 233.745,441.213 L 226.617,436.979 L 214.027,440.058 L 183.858,479.678 L 177.683,505.452 L 173.409,508.912 L 171.745,523.529 L 173.409,532.761 L 171.27,540.454 L 167.231,541.608 L 168.894,556.611 L 168.894,565.073 L 171.27,568.534 L 170.557,575.074 L 173.169,576.996 L 174.597,583.92 L 173.409,586.229 L 171.981,587.384 L 169.607,588.538 L 167.469,589.692 L 166.281,589.306 L 165.33,588.154 L 164.142,587.384 L 162.954,586.616 L 160.581,587 L 158.205,587.384 L 156.066,588.154 L 153.455,587.384 L 152.027,586.616 L 150.366,585.075 L 149.178,582.768 L 148.465,580.076 L 148.94,573.151 L 152.74,572.383 L 153.215,568.534 L 150.128,562.38 L 147.277,556.611 L 144.188,550.841 L 141.812,544.687 L 139.201,538.147 L 136.588,531.991 L 134.687,525.067 L 133.026,518.529 L 131.363,504.295 L 128.274,491.219 L 124.71,479.678 L 119.96,468.909 L 98.106,454.29 L 86.703,436.979 L 78.152,430.055 L 75.776,428.519 L 72.214,424.288 L 69.363,419.67 L 67.7,414.284 L 68.888,413.132 L 71.264,413.132 L 73.402,412.746 L 75.065,412.362 L 78.627,394.282 L 81.003,376.589 L 80.525,358.126 L 77.439,339.66 L 73.162,327.737 L 65.086,316.582 Z" fill="#cccccc" stroke="none" stroke-width="0.319" marker-start="none" marker-end="none" stroke-miterlimit="79.8403193612775"/>
    <path d="M 716.201,64.627 L 711.686,69.242 L 707.172,73.474 L 702.422,76.937 L 697.435,80.784 L 692.445,84.245 L 686.983,87.708 L 681.518,90.783 L 675.58,93.478 L 669.64,96.168 L 663.702,99.247 L 657.762,101.17 L 651.587,103.863 L 645.412,105.785 L 638.997,107.71 L 632.584,110.016 L 626.884,113.864 L 621.894,117.327 L 615.956,121.174 L 610.492,124.635 L 605.027,127.712 L 599.089,131.559 L 593.627,135.02 L 587.924,138.483 L 581.986,141.56 L 576.522,144.637 L 570.584,148.484 L 565.121,150.793 L 559.419,155.022 L 553.481,158.101 L 547.541,161.562 L 541.841,165.025 L 524.026,172.717 L 506.208,180.025 L 489.106,187.72 L 471.29,195.028 L 453.712,203.106 L 435.897,210.03 L 418.079,217.338 L 400.264,223.876 L 382.448,230.416 L 364.395,235.802 L 346.34,241.571 L 328.287,246.957 L 309.996,251.188 L 291.231,255.035 L 272.7,258.496 L 253.462,261.189 L 247.046,262.73 L 240.869,263.498 L 234.456,264.268 L 228.28,264.652 L 222.343,265.42 L 216.165,266.191 L 209.99,267.343 L 204.052,268.497 L 190.746,268.497 L 177.683,269.268 L 164.857,270.806 L 152.027,272.728 L 139.201,275.421 L 126.135,278.884 L 113.545,281.961 L 100.954,285.809 L 88.366,289.653 L 75.776,294.655 L 62.948,298.889 L 50.357,303.118 L 37.769,307.735 L 25.178,311.964 L 12.59,316.198 L 0,320.043 L 65.086,316.582 L 75.065,316.582 L 83.852,315.427 L 93.591,313.118 L 106.419,308.887 L 168.419,291.578 L 170.795,290.424 L 175.782,288.885 L 180.772,287.347 L 182.908,286.193 L 184.334,285.809 L 185.522,285.041 L 186.71,283.886 L 188.61,283.116 L 216.165,283.116 L 225.429,283.5 L 244.435,283.5 L 253.462,283.886 L 262.961,283.886 L 272.227,283.5 L 281.254,283.5 L 290.755,282.729 L 299.782,281.961 L 308.808,280.807 L 317.597,279.268 L 326.386,278.116 L 334.938,275.808 L 340.878,275.037 L 396.227,268.497 L 407.389,264.652 L 430.907,259.651 L 436.607,258.496 L 441.359,256.19 L 490.056,261.96 L 503.832,260.035 L 514.047,255.035 L 519.987,248.495 L 526.164,241.571 L 538.99,226.187 L 545.643,218.109 L 551.818,210.414 L 558.469,203.49 L 563.933,197.72 L 582.462,187.336 L 564.171,197.72 L 563.221,225.417 L 566.547,248.495 L 557.996,264.652 L 562.745,276.192 L 558.469,289.653 L 561.082,308.503 L 563.458,314.659 L 560.132,323.89 L 567.735,356.969 L 563.221,368.895 L 574.623,380.05 L 588.875,405.438 L 595.287,422.747 L 604.554,427.748 L 602.891,486.602 L 612.155,505.065 L 622.132,521.222 L 617.62,540.07 L 618.332,541.994 L 619.518,547.762 L 621.894,558.149 L 624.983,561.61 L 632.584,560.458 L 640.66,559.303 L 647.073,553.534 L 650.874,544.687 L 647.313,538.915 L 642.798,533.913 L 643.273,523.145 L 648.261,515.068 L 656.577,476.987 L 655.389,470.063 L 653.726,463.139 L 659.666,430.055 L 666.554,427.748 L 684.607,400.823 L 689.834,413.132 L 686.508,420.44 L 686.268,428.132 L 689.834,431.596 L 692.445,427.748 L 694.346,431.596 L 697.435,435.056 L 701.947,433.518 L 705.033,429.287 L 706.224,433.134 L 709.075,421.979 L 716.676,414.671 L 717.386,386.974 L 708.36,367.741 L 708.835,351.586 L 701.947,339.276 L 696.482,311.964 L 683.894,296.193 L 676.528,252.343 L 660.376,220.415 L 663.465,197.336 L 662.514,190.796 L 660.854,177.332 L 658.95,163.871 L 658.238,158.101 L 663.465,133.481 L 662.084,123.054 L 687.931,99.247 L 692.208,94.246 L 696.009,88.86 L 700.284,83.861 L 704.085,79.246 L 708.36,73.858 L 712.161,69.242 L 716.201,64.627 Z M 646.297,131.593 L 645.65,139.637 L 648.736,158.485 L 644.221,198.875 L 648.023,226.571 L 641.848,255.035 L 630.445,246.957 L 625.456,201.565 L 614.056,183.104 L 611.746,159.55 L 623.795,143.485 L 646.297,131.593 Z M 599.089,177.332 L 599.802,182.718 L 615.006,204.645 L 607.165,218.493 L 615.241,238.878 L 602.653,240.419 L 597.903,252.727 L 590.063,255.035 L 580.798,260.035 L 580.798,246.957 L 572.485,221.954 L 582.462,187.336 L 599.089,177.332 Z" stroke-width="0.319" fill="#000000" stroke="none" marker-start="none" marker-end="none" stroke-miterlimit="79.8403193612775"/>
   </g>
  </g>
 </g>
</svg>
