<?xml version="1.0" encoding="utf-8"?>

<!DOCTYPE svg PUBLIC "-//W3C//DTD SVG 1.1//EN" "http://www.w3.org/Graphics/SVG/1.1/DTD/svg11.dtd">
<svg version="1.1" id="Layer_1" xmlns="http://www.w3.org/2000/svg" xmlns:xlink="http://www.w3.org/1999/xlink" x="0px" y="0px"
	 viewBox="0 24 2560 1552.1501" enable-background="new 0 24 2560 1552.1501" xml:space="preserve">
<g>
	<path fill="#EF9A49" stroke="#EF9A49" stroke-width="0.3" d="M1609.2001,256.9796c-5.2401,4.1467-10.3334,8.48-14.9867,13.2801
		c-18.0133,13.7731-34.9601,28.9065-52.5466,43.2399c-22.52,18.8533-45.0535,37.68-67.6667,56.4
		c-15.4265,12.7198-30.3066,26.12-46.2267,38.2265c-13.2133-27.2265-24.7333-55.2532-37.3199-82.7733
		c-27.2134-61.2401-54.6267-122.3867-81.7466-183.6667c-2.7333-6.12-5.3199-12.32-8.5864-18.1733
		c-9.7734,17.2132-18.7334,34.8799-28.1201,52.32c-38.4,71.8533-76.3334,143.96-114.9199,215.7067
		c-9.4401-5.7333-18.0266-12.7067-27.04-19.0533c-42.8533-30.4401-85.3333-61.3867-128.1468-91.8932
		c-14.3066-10.0801-28.1999-20.7468-42.7999-30.4c0,0,0,0-0.0002,0c-3.8799-3.2535-7.9199-6.3467-12.5334-8.4801
		c3.8668,19.9201,5.7468,40.1602,8.7468,60.2269c9.6801,70.3465,19.28,140.6932,28.9467,211.0266
		c4.3467,30.4667,8.0667,61.0267,12.7734,91.44l1.48-0.04c14.4666-0.0667,28.9334-0.2667,43.4,0.24
		c127.8135,0.2402,255.6134,1.2267,383.4268,1.1334c35.9866-0.28,71.9465,1.0533,107.9332,0.8133
		c22.2935,0,44.6001,0.16,66.9067,0.2933c0.6934,0,2.08-0.0134,2.7733-0.0134c0.28-16.04,2.1201-32,2.9866-48.0133
		c7.4802-105.6,14.7334-211.2132,22.2935-316.8134C1621.1868,246.0595,1615.5334,251.993,1609.2001,256.9796z M1339.6001,424.7661
		c-14.48,11.4802-33.4265,15.7601-51.6001,15.3467c-19.0266,0.6533-39.3467-2.84-54.52-15.0932
		c-14.6266-11.7333-21.3333-31.7733-18.2932-50.0533c4.9067-16.68,18.4534-28.52,28.7465-41.9068
		c17.9202-19.8532,33.5068-42.3466,42.0935-67.8665c2.5332,3.8,3.6533,8.2933,5.5067,12.44
		c7.3464,16.9201,17.7465,32.3467,29.5333,46.4667c9.2532,11.1867,19.12,21.88,27.7067,33.6133
		c5.0798,7.3068,9.8533,15.5868,9.7333,24.7735C1358.3066,398.313,1352.1201,414.6196,1339.6001,424.7661z"/>
	<path fill="#E77843" stroke="#E77843" stroke-width="0.3" d="M1286.0267,265.1929c2.5333,3.8,3.6533,8.2933,5.5067,12.44
		c7.3464,16.92,17.7466,32.3467,29.5333,46.4667c9.2533,11.1867,19.12,21.88,27.7067,33.6133
		c5.0801,7.3066,9.8534,15.5867,9.7334,24.7733c-0.2001,15.8267-6.3867,32.1333-18.9067,42.28
		c-14.48,11.48-33.4266,15.76-51.6,15.3467c-19.0267,0.6533-39.3467-2.84-54.52-15.0933
		c-14.6266-11.7333-21.3334-31.7733-18.2933-50.0533c4.9067-16.68,18.4534-28.52,28.7467-41.9067
		C1261.8534,313.2063,1277.4401,290.713,1286.0267,265.1929z"/>
	<path fill="#E77843" stroke="#E77843" stroke-width="0.3" d="M651.6133,377.5529c-5.1733-9.9201-12.3467-18.64-19.8-26.9201
		c-15.5601-18.12-31.0667-36.7198-41.3867-58.4265c-2.6533-5.72-4.5867-11.7333-7.1333-17.4935
		c-5.12,15.5469-12.6533,30.2534-22.2933,43.4801c-11.1733,16.1467-25.04,30.1333-37.0667,45.6c-1.5333,2-2.9067,4.16-3.8134,6.52
		c-8.64,8.04-9.88,21.0532-8.12,32.1333c1.4667,7.7067,3.5067,15.9867,9.2,21.7333c1.76,4.4533,5.5333,7.64,9.0533,10.7067
		c13.0933,10.7067,30.3734,15.3067,47.0933,15c10.6-0.2402,21.4267,0.8799,31.76-2.0935
		c14.9867-3.4533,29.8934-11.2532,37.96-24.8665C655.0934,409.6463,659.4,391.8996,651.6133,377.5529z"/>
	<path fill="#FFF500" stroke="#FFF500" stroke-width="0.3" d="M922.3734,240.3928c-7.28,5.8001-14.64,11.5469-21.2133,18.1601
		c-0.36,0.2933-1.0933,0.9065-1.4534,1.2132c-0.0005,0.0005-0.0012,0.0009-0.0017,0.0016
		c-2.1852,1.7322-4.3306,3.4912-6.4363,5.3169c-0.0007,0.0005-0.0012,0.0009-0.0019,0.0015
		c-0.3734,0.3067-1.1201,0.9201-1.4933,1.2267c-16.3199,12.9199-32.3597,26.2397-47.9063,40.0797
		c-0.0001,0.0002-0.0002,0.0002-0.0002,0.0002c-0.36,0.2935-1.0933,0.8933-1.4534,1.2001
		c-13.1733,10.1999-26.0133,20.8932-38.4,32.0532c-0.3467,0.2935-1.04,0.8933-1.3867,1.1867c-8.12,5.64-15.8133,11.9333-22.7333,19
		c-0.3467,0.2933-1.04,0.8799-1.3867,1.1733c-10.8799,7.7198-21.1333,16.4132-30.8,25.6001c-0.92,0.7466-1.84,1.5066-2.7333,2.2667
		c-4.5599,3.3199-9.0397,6.7864-12.9464,10.8664c-0.0001,0.0001-0.0001,0.0001-0.0002,0.0001c-0.3333,0.32-1,0.9468-1.3333,1.2668
		c-0.98,1.2668-2.0002,2.5-3.0817,3.6749c1.0817-1.1749,2.1017-2.4084,3.0817-3.6749c-2.3734,1.5735-4.7734,3.0799-7.16,4.6267
		c-3.7734-6.7198-6.52-13.9335-9.7067-20.9335c-30.0533-67.3067-59.96-134.6799-90.0134-201.9867
		c-8.8133-20.4932-18.6133-40.5599-26.8267-61.2933c-0.4933-0.0267-1.4933-0.0799-1.9866-0.1067
		c-11.44,23.3867-24.4133,46-36.2933,69.1733c-1.0533,2.1867-1.9467,4.4401-2.9067,6.6667
		c-0.3333,0.5865-0.9868,1.7601-1.3201,2.3467c-3.36,4.6533-6.0267,9.7333-8,15.1068c-1.6533,2.3599-3.3333,4.6799-4.9199,7.0799
		c-0.8,1.64-1.6,3.28-2.44,4.8933c-2.3467,5.1732-4.8533,10.2667-7.2267,15.4265c-8.8268,13.8933-15.68,28.9335-23.7067,43.2934
		c-5.4133,10.6667-11.7333,20.9068-16.3867,31.9601c-2.1466,3.5332-4.3867,7.0133-6.68,10.4531
		c-0.2133,0.4-0.6266,1.2136-0.84,1.6135c-1.8667,4.6667-4.0133,9.2-6.4933,13.5735c-4.5467,7.9867-8.1867,16.4799-13.4533,24.0532
		c-0.3333,0.5735-0.9867,1.7465-1.32,2.3201c-2.7067,6.96-6.24,13.5332-10,19.96c-8.9867-5.4668-17.5733-11.6533-25.56-18.4935
		c-1.1466-0.7733-2.2933-1.5598-3.4267-2.3333c-0.52-0.2132-1.56-0.6267-2.0934-0.8265c-21.3067-16.4-44.04-30.9201-65.0667-47.6534
		c-1.1867-0.8268-2.3467-1.6534-3.5067-2.4801c-13.5333-8.6667-26.6-18.1067-39.1733-28.0932
		c-10.3867-6.36-19.5867-14.4265-30.0933-20.5868c-7.1067-5.72-14.5467-11.0267-22.2534-15.9066
		c-6.0533-4.72-11.7733-10.2267-19.0933-12.9467c0.68,2.9867,1.1333,6.0133,1.5467,9.0399
		c15.8533,117.1867,32.3333,234.2802,47.9867,351.48c0.1067,0.6266,0.32,1.8934,0.4267,2.5333l1.4667-0.0267
		c17.9067-1.2133,35.8666-0.5466,53.7733,0.3067c88.9067,0.1066,177.8134,0.0667,266.72,0.1867
		c19.5467,0.3333,39.1067-0.4,58.6,1.1466c53.1467,0.0667,106.2934,0.1733,159.44,0.1467
		c21.5466,0.0933,43.1201-0.24,64.6533,0.4533l1.3867,0.12l0.08-1.1066c-0.1201-15.2933,1.8667-30.52,2.6533-45.7867
		c7.2133-102.56,14.2-205.1332,21.68-307.6801C923.3734,247.2597,923.28,243.7661,922.3734,240.3928z M647.0667,422.9264
		c-8.0667,13.6133-22.9733,21.4132-37.96,24.8665c-10.3334,2.9734-21.16,1.8534-31.76,2.0935c-16.72,0.3067-34-4.2933-47.0934-15
		c-3.52-3.0667-7.2933-6.2535-9.0533-10.7067c-5.6933-5.7468-7.7333-14.0267-9.2-21.7333c-1.76-11.0801-0.52-24.0932,8.12-32.1333
		c0.9066-2.36,2.28-4.52,3.8133-6.52c12.0267-15.4667,25.8934-29.4533,37.0667-45.6c9.64-13.2267,17.1733-27.9333,22.2933-43.4801
		c2.5467,5.7601,4.48,11.7734,7.1334,17.4935c10.3199,21.7067,25.8267,40.3066,41.3867,58.4265
		c7.4533,8.2802,14.6266,17,19.8,26.9201C659.4,391.8996,655.0934,409.6463,647.0667,422.9264z M753.3818,383.386
		c2.6852-1.829,5.1798-3.9323,7.653-6.0657C758.5618,379.4537,756.0673,381.5571,753.3818,383.386z"/>
	<path fill="#85C226" stroke="#85C226" stroke-width="0.3" d="M2293.7202,528.9929c-19.2002-10.72-40.2803-17.4667-60.3467-26.3333
		c-11.2534-2.9601-21.9468-7.64-32.9868-11.2267c-55.5867-19.04-113.1067-32.9066-171.6001-39
		c-85.5865-9.4-173.1866-0.5599-254.9332,26.6c-11.4268,3.4268-22.2534,8.6667-33.9067,11.3333
		c-3.12,1.7735-6.1066,3.7601-9.2133,5.5469c1.5732-0.1468,3.16-0.2668,4.7866-0.36c15.2666,0.36,30.6-0.3333,45.8,1.6133
		c31.4268,3.2399,62.2534,10.5865,92.5333,19.44c50.08,14.84,99.0665,33.0933,149.08,48.2
		c49.4133,14.5867,100.8533,26.76,152.7468,22.5466c45.4531-3.4399,90.0667-23.0933,121.5066-56.3733
		C2296.3201,530.4863,2294.5867,529.4863,2293.7202,528.9929z"/>
	<path fill="#B8DC7C" stroke="#B8DC7C" stroke-width="0.3" d="M1728.0535,497.1796c0.6666-0.32,2.0133-0.9467,2.6799-1.2667
		c1.5732-0.1466,3.16-0.2667,4.7866-0.36c15.2666,0.36,30.6-0.3333,45.8,1.6133c31.4268,3.24,62.2534,10.5867,92.5333,19.44
		c50.08,14.84,99.0665,33.0933,149.08,48.2c49.4133,14.5867,100.8533,26.76,152.7468,22.5466
		c45.4531-3.4399,90.0667-23.0933,121.5066-56.3733c5.1067-4.4933,9.5466-9.6667,14.6399-14.1867
		c4.5735,2.9866,8.8401,6.48,12.3601,10.6933c4.4934,8.3734,11.2666,15.3334,14.9065,24.1866
		c15.6934,34.5601,12.6135,75.28-1.3865,109.8667c-3.1067,7.5733-6.8,14.92-9.3467,22.72c-1.1733,2.2-2.4133,4.3734-3.72,6.4933
		c-4.0269,2.3867-6.1868,6.4267-7.0269,10.92c-3.7998,6.1201-8.2266,11.8267-13.1333,17.08c-3.7065,2.52-6.96,5.9866-11.2798,7.3734
		c-7.9468,1.0533-16.0801-0.8933-23.9067,1.3334c-10.04,1.24-20.1733-0.0533-30.2266,0.72
		c-71.2402-0.8267-142.4934-0.7067-213.7335-1.04c-24.6,0.16-49.2267-0.5334-73.8134,0.2266c-7.4933-0.5067-15-0.32-22.48-0.7466
		c19.1868-1.1467,38.4133-0.3734,57.6267-0.4401c50.7467,0.08,101.5466,1.0934,152.2666-0.1733
		c-8.4265-1.6-17.0398-0.36-25.5466-0.7466c-68.0133-0.7466-136.04-0.04-204.0533-0.4133c-32.0133,0.36-63.9867-0.9467-96-0.76
		c-36,0.1333-72.0133-0.5867-108.0133-0.36c-3.4266-0.04-6.8134-0.28-10.2001-0.5333c-2.6934-8.4401-1.2133-17.3467-1.3334-26.0134
		c-0.0266-23.1334,0-46.2534-0.0266-69.3867c2.3867-40.6934,0.88-81.48,1.4133-122.2134
		C1705.8134,501.4596,1717.8267,502.3796,1728.0535,497.1796 M1737.8134,527.153c-9.84,2.9333-15.9467,14.3333-13.12,24.1733
		c2.24,9.6933,12.7068,17.0133,22.5867,14.4533c11.0801-2.3333,18.0133-15.3067,14.1067-25.8666
		C1758.5601,530.2463,1747.52,523.9529,1737.8134,527.153 M1784.52,529.713c-7.6666,1.16-13.9733,7.44-15.6934,14.9067
		c-3.2134,11.3066,5.76,24.6133,17.8,24.68c12.36,1.0134,22.4133-12.2,19.6001-23.9333
		C1804.4266,535.6063,1794.48,527.8863,1784.52,529.713 M1825.7733,533.5796c-9.6666,3.0533-15.4933,14.3467-12.7599,24.0267
		c2.04,8.4667,10.1066,15.2933,19,14.88c10.6266,0.04,19.5066-10.2534,18.6934-20.6933
		C1850.8401,539.5263,1837.5735,529.2463,1825.7733,533.5796 M1875.2268,544.5396c-8.8534,1.7333-15.6934,10.28-15.48,19.28
		c-0.7068,10.8534,9.2666,21.2267,20.2666,20.1467c10.6666-0.36,19.0667-11.0667,17.84-21.4933
		C1897.5067,551.3929,1886.1733,542.033,1875.2268,544.5396 M2315.1467,551.1263c-8.8533,2.4533-15.1333,11.6133-14.1733,20.76
		c0.2668,11.1066,11.6001,20.7333,22.6267,18.2133c9.9468-1.9066,17.04-12.3199,15.4133-22.2933
		C2338.0669,556.6596,2326.0669,547.7263,2315.1467,551.1263 M1913.7866,558.913c-7.9733,2.8-13.5066,11.16-12.9332,19.6
		c-0.0801,10.0934,8.8934,19.5467,19.1466,19.16c11.2533,0.3467,20.4667-10.9734,18.9067-21.9067
		C1938.4001,563.793,1925.1467,554.593,1913.7866,558.913 M2272.5334,567.153c-8.8533,1.7466-15.76,10.28-15.4268,19.3333
		c-0.6133,10.32,8.3467,20.4267,18.8801,20.0933c11.2,0.5601,20.4932-10.5333,19.24-21.4266
		C2294.8267,574.0729,2283.52,564.5796,2272.5334,567.153 M1956.5067,572.4996c-7.7733,2.8666-13.1866,11.0533-12.64,19.36
		c-0.2534,10.52,9.4934,20.2667,20.1467,19.28c11.96-0.32,20.7334-13.5333,17.4532-24.7867
		C1979.2533,575.5796,1966.8934,568.3796,1956.5067,572.4996 M2007.2001,579.1796c-9.5067,1.6133-16.48,11.1467-15.7467,20.6533
		c0.1733,9.9866,9.0533,19.2267,19.2134,18.84c10.5734,0.3199,19.5466-9.8267,18.9866-20.1867
		C2030.0267,587.0197,2018.6,576.713,2007.2001,579.1796 M2225.8135,584.2463c-7.8535,2.9067-13.3066,11.2534-12.6133,19.6266
		c-0.0935,10.4133,9.5999,20.0134,20.1733,18.9867c11.8267-0.1867,20.4531-13.1334,17.5598-24.2933
		C2248.9734,587.5663,2236.3601,579.9663,2225.8135,584.2463 M2045.7468,593.5129c-9.4668,3.0934-15.1602,13.9867-12.6934,23.5734
		c1.7599,9.16,10.9065,16.3066,20.3066,15.2267c10.5732-0.7467,18.7332-11.48,17.3467-21.8667
		C2070.0269,598.6196,2057.1201,589.3263,2045.7468,593.5129 M2183.04,600.1796c-8.8132,2.5733-14.76,11.9733-13.72,21.04
		c0.6133,10.4667,10.7732,19.4933,21.3601,17.8534c11.1733-1.0934,19.0532-13.2667,16.4399-23.9867
		C2205.2534,604.433,2193.52,596.7396,2183.04,600.1796 M2091.1333,603.0063c-10.3066,1.7733-17.6133,12.7067-15.6665,22.9067
		c1.2534,9.1866,9.7466,17.1333,19.2266,16.6533c10.4268,0.1333,19.3201-9.8134,18.7734-20.08
		C2113.9067,611.0463,2102.5334,600.6196,2091.1333,603.0063 M2139.1067,607.033c-8.9734,2.3733-15.3066,11.5867-14.3733,20.8133
		c0.2534,10.4267,10.0933,19.4667,20.52,18.56c10.3599-0.8533,18.7466-10.9333,17.6267-21.2933
		C2162.76,613.473,2150.48,603.6596,2139.1067,607.033z"/>
	<path fill="#D2D68B" stroke="#D2D68B" stroke-width="0.3" d="M1693.6133,503.9129c11.1335-3.6933,22.7601-5.7467,34.4402-6.7333
		c-10.2268,5.2-22.2401,4.28-32.8801,8.4c-0.5333,40.7333,0.9734,81.52-1.4133,122.2134c0.0266,23.1333,0,46.2533,0.0266,69.3867
		c0.1201,8.6667-1.36,17.5733,1.3334,26.0134c3.3867,0.2533,6.7734,0.4933,10.2001,0.5333c36-0.2266,72.0133,0.4933,108.0133,0.36
		c32.0133-0.1867,63.9867,1.1201,96,0.76c68.0133,0.3734,136.04-0.3333,204.0533,0.4133
		c8.5068,0.3867,17.1201-0.8533,25.5466,0.7466c-50.72,1.2667-101.5199,0.2534-152.2666,0.1733
		c-19.2134,0.0667-38.4399-0.7067-57.6267,0.4401c-6.88-0.1067-13.76-0.3066-20.6266,0.1866
		c-66.8002-1.08-133.6134-0.5333-200.4135-1.0267c-5.4133-0.0667-10.8132-0.0267-16.1866,0.4933l-1.2399,0.08
		c0.8267-9.7067,0.4132-19.4666,0.5732-29.1866C1692.1467,632.7529,1692.6,568.3263,1693.6133,503.9129z"/>
	<path fill="#1F1917" stroke="#1F1917" stroke-width="0.3" d="M1737.8134,527.153c9.7067-3.2,20.7467,3.0933,23.5734,12.76
		c3.9066,10.56-3.0266,23.5333-14.1067,25.8666c-9.8799,2.56-20.3467-4.76-22.5867-14.4533
		C1721.8667,541.4863,1727.9734,530.0863,1737.8134,527.153 M1737.76,529.473c-5.6799,2.0933-9.9734,7.28-11.1067,13.2133
		c-2.1466,9.1067,4.0801,19.5467,13.5468,21.0134c10.1866,2.1867,20.4399-6.8666,19.96-17.2
		C1760.9067,535.2196,1748.6,525.0729,1737.76,529.473z"/>
	<path fill="#FADDB5" stroke="#FADDB5" stroke-width="0.3" d="M2324.1868,527.4863c7.04,6.5067,11.6799,14.9333,16.6133,23.0267
		c2.8667,8.5466,6.24,16.9733,7.8667,25.88c5.2268,27.2267,1.7068,55.72-8,81.5599c-2.1333,5.5333-4.3867,11-6.4265,16.5734
		c-2.04,3.2-4.0134,6.4399-5.8801,9.7333c2.5466-7.8,6.24-15.1466,9.3467-22.72c14-34.5867,17.0798-75.3067,1.3865-109.8667
		C2335.4534,542.8196,2328.6802,535.8596,2324.1868,527.4863z"/>
	<path fill="#D9251D" stroke="#D9251D" stroke-width="0.3" d="M1737.76,529.473c10.84-4.4,23.1467,5.7466,22.4,17.0267
		c0.48,10.3333-9.7733,19.3867-19.96,17.2c-9.4667-1.4667-15.6934-11.9066-13.5468-21.0133
		C1727.7866,536.7529,1732.0801,531.5663,1737.76,529.473z"/>
	<path fill="#1F1917" stroke="#1F1917" stroke-width="0.3" d="M1784.52,529.713c9.96-1.8267,19.9066,5.8934,21.7068,15.6533
		c2.8132,11.7333-7.2401,24.9467-19.6001,23.9333c-12.04-0.0667-21.0134-13.3734-17.8-24.68
		C1770.5468,537.153,1776.8534,530.8729,1784.52,529.713 M1783.1067,532.2863c-9.9867,2.3734-15.2533,14.5601-11.3999,23.7867
		c2.7466,8.4133,12.8799,13.36,21.1866,10.1467c9.0532-3,13.9467-14.24,10.4399-23.0134
		C1800.6667,535.1663,1791.3334,529.793,1783.1067,532.2863z"/>
	<path fill="#D9251D" stroke="#D9251D" stroke-width="0.3" d="M1783.1067,532.2863c8.2267-2.4933,17.5601,2.88,20.2267,10.92
		c3.5067,8.7733-1.3867,20.0133-10.4399,23.0133c-8.3068,3.2134-18.4401-1.7333-21.1866-10.1466
		C1767.8534,546.8463,1773.12,534.6596,1783.1067,532.2863z"/>
	<path fill="#3F1809" stroke="#3F1809" stroke-width="0.3" d="M1825.7733,533.5796c11.8002-4.3333,25.0668,5.9467,24.9335,18.2134
		c0.8132,10.4399-8.0668,20.7333-18.6934,20.6933c-8.8934,0.4133-16.96-6.4133-19-14.88
		C1810.28,547.9263,1816.1067,536.6329,1825.7733,533.5796 M1822.0801,537.9796c-8.6267,5.6533-9.4801,19.1733-2.88,26.6667
		c4.6,5.16,13.48,7.8,19.4399,3.6c5.2933-1.8134,8.8134-6.9867,9.6133-12.3867c1.8268-9-4.0665-19.1733-13.4933-20.4266
		C1830.4399,534.033,1825.6934,535.4996,1822.0801,537.9796z"/>
	<path fill="#D9251C" stroke="#D9251C" stroke-width="0.3" d="M1822.0801,537.9796c3.6133-2.48,8.3599-3.9467,12.6799-2.5466
		c5.0667,3.9066,11.7067,7.9333,12.1067,15.0667c1.2933,7.1466-4.1333,12.6666-8.2267,17.7466c-5.96,4.2-14.84,1.56-19.4399-3.6
		C1812.6,557.153,1813.4534,543.6329,1822.0801,537.9796z"/>
	<path fill="#B8382E" stroke="#B8382E" stroke-width="0.3" d="M1834.76,535.433c9.4268,1.2533,15.3201,11.4266,13.4933,20.4266
		c-0.7999,5.4-4.3199,10.5734-9.6133,12.3867c4.0934-5.08,9.52-10.6,8.2267-17.7467
		C1846.4667,543.3663,1839.8267,539.3396,1834.76,535.433z"/>
	<path fill="#1F1917" stroke="#1F1917" stroke-width="0.3" d="M1875.2268,544.5396c10.9465-2.5067,22.2799,6.8533,22.6266,17.9333
		c1.2267,10.4267-7.1733,21.1334-17.84,21.4933c-11,1.08-20.9734-9.2933-20.2666-20.1467
		C1859.5334,554.8196,1866.3734,546.2729,1875.2268,544.5396 M1873.8,547.1129c-11.3999,3.4667-15.7333,19.3334-8.12,28.3467
		c5.2799,7.1467,16.6266,8.6267,23.4266,2.8134c8.9468-6.7333,8.8667-22.12-0.3334-28.5734
		C1884.5601,546.4063,1878.8401,545.9796,1873.8,547.1129z"/>
	<path fill="#D8251C" stroke="#D8251C" stroke-width="0.3" d="M1873.8,547.1129c5.04-1.1333,10.76-0.7067,14.9733,2.5867
		c9.2001,6.4534,9.2802,21.84,0.3334,28.5734c-6.8,5.8133-18.1467,4.3333-23.4266-2.8134
		C1858.0668,566.4463,1862.4001,550.5796,1873.8,547.1129z"/>
	<path fill="#411708" stroke="#411708" stroke-width="0.3" d="M2315.1467,551.1263c10.9202-3.4,22.9202,5.5333,23.8667,16.68
		c1.6267,9.9734-5.4666,20.3867-15.4133,22.2933c-11.0266,2.52-22.3599-7.1066-22.6267-18.2133
		C2300.0134,562.7396,2306.2935,553.5796,2315.1467,551.1263 M2305.1868,562.4063c-3.2534,6.32-2.3467,14.9867,2.6799,20.2134
		c6.0269,7.1466,18.2666,7.12,24.3467,0.04c6.6667-6.9733,6.2266-19.4-1.28-25.5867
		C2323.5735,549.3663,2308.8535,552.2996,2305.1868,562.4063z"/>
	<path fill="#B0382E" stroke="#B0382E" stroke-width="0.3" d="M2305.1868,562.4063c3.6667-10.1066,18.3867-13.04,25.7466-5.3333
		c-4.7065-1.5067-9.6931-3.4133-14.6931-2.4667C2311.8936,556.0996,2308.5735,559.4596,2305.1868,562.4063z"/>
	<path fill="#D9251C" stroke="#D9251C" stroke-width="0.3" d="M2305.1868,562.4063c3.3867-2.9467,6.7068-6.3066,11.0535-7.8
		c5-0.9467,9.9866,0.96,14.6931,2.4667c7.5066,6.1867,7.9468,18.6133,1.28,25.5867c-6.0801,7.08-18.3198,7.1066-24.3467-0.04
		C2302.8401,577.3929,2301.9333,568.7263,2305.1868,562.4063z"/>
	<path fill="#1F1917" stroke="#1F1917" stroke-width="0.3" d="M1913.7866,558.913c11.3601-4.32,24.6135,4.88,25.1201,16.8533
		c1.5599,10.9333-7.6534,22.2534-18.9067,21.9067c-10.2532,0.3867-19.2267-9.0667-19.1466-19.16
		C1900.28,570.0729,1905.8134,561.713,1913.7866,558.913 M1916.4399,560.4063c-5.7999,1.3334-10.7732,5.9734-12.52,11.64
		c-3.0398,9.2134,2.0668,20.5734,11.8269,22.8667c10.6533,3.2267,21.9733-6.5867,21.1199-17.4667
		C1937.12,567.0729,1926.7201,557.8863,1916.4399,560.4063z"/>
	<path fill="#D9251D" stroke="#D9251D" stroke-width="0.3" d="M1916.4399,560.4063c10.2802-2.52,20.6801,6.6667,20.4268,17.04
		c0.8534,10.88-10.4666,20.6933-21.1199,17.4667c-9.7601-2.2933-14.8667-13.6533-11.8269-22.8667
		C1905.6667,566.3796,1910.64,561.7396,1916.4399,560.4063z"/>
	<path fill="#1F1917" stroke="#1F1917" stroke-width="0.3" d="M2272.5334,567.153c10.9866-2.5734,22.2932,6.92,22.6934,18
		c1.2532,10.8933-8.04,21.9866-19.24,21.4266c-10.5334,0.3334-19.4934-9.7733-18.8801-20.0933
		C2256.7734,577.433,2263.6802,568.8997,2272.5334,567.153 M2271.1467,569.7663c-8.0933,2.5467-13.3333,11.68-11.8,19.9733
		c1.28,8.4267,9.2666,15.64,18.0134,14.7067c9.8667-0.4667,17.2266-10.64,15.5598-20.16
		C2292.1333,574.0596,2280.9333,566.3796,2271.1467,569.7663z"/>
	<path fill="#D9251C" stroke="#D9251C" stroke-width="0.3" d="M2271.1467,569.7663c9.7866-3.3867,20.9866,4.2933,21.7732,14.52
		c1.6667,9.52-5.6931,19.6933-15.5598,20.16c-8.7468,0.9333-16.7334-6.28-18.0134-14.7067
		C2257.8135,581.4463,2263.0535,572.313,2271.1467,569.7663z"/>
	<path fill="#1F1917" stroke="#1F1917" stroke-width="0.3" d="M1956.5067,572.4996c10.3867-4.12,22.7466,3.08,24.96,13.8533
		c3.2802,11.2534-5.4933,24.4667-17.4532,24.7867c-10.6533,0.9866-20.4001-8.76-20.1467-19.28
		C1943.3201,583.553,1948.7334,575.3663,1956.5067,572.4996 M1960.48,573.6863c-5.1866,0.84-9.9199,4.16-12.3867,8.8134
		c-5.96,10.28,0.9067,25.9333,13.3601,26.3199c9.6799,1.4,18.6134-7.4667,18.2935-17.0133
		C1980.64,581.5663,1970.8267,571.713,1960.48,573.6863z"/>
	<path fill="#D9251C" stroke="#D9251C" stroke-width="0.3" d="M1960.48,573.6863c10.3467-1.9733,20.16,7.88,19.2668,18.12
		c0.3199,9.5467-8.6135,18.4133-18.2935,17.0134c-12.4534-0.3867-19.3201-16.04-13.3601-26.32
		C1950.5601,577.8463,1955.2933,574.5263,1960.48,573.6863z"/>
	<path fill="#1F1917" stroke="#1F1917" stroke-width="0.3" d="M2007.2001,579.1796c11.3999-2.4667,22.8267,7.84,22.4532,19.3067
		c0.5601,10.36-8.4132,20.5067-18.9866,20.1866c-10.16,0.3867-19.04-8.8533-19.2134-18.84
		C1990.7201,590.3263,1997.6934,580.793,2007.2001,579.1796 M2005.76,581.7529c-7.2133,1.9734-12.2266,9.4-12.1067,16.7467
		c-0.6266,9.8133,8.3867,19.2,18.3734,17.92c10.5333-0.4267,17.6266-12.1467,14.9467-21.92
		C2025.1333,585.1396,2014.9333,578.8863,2005.76,581.7529z"/>
	<path fill="#D9251D" stroke="#D9251D" stroke-width="0.3" d="M2005.76,581.7529c9.1733-2.8666,19.3733,3.3867,21.2134,12.7467
		c2.6799,9.7733-4.4133,21.4933-14.9467,21.92c-9.9867,1.28-19-8.1066-18.3734-17.92
		C1993.5334,591.153,1998.5468,583.7263,2005.76,581.7529z"/>
	<path fill="#3F170A" stroke="#3F170A" stroke-width="0.3" d="M2225.8135,584.2463c10.5466-4.28,23.1599,3.32,25.1199,14.32
		c2.8933,11.16-5.7332,24.1066-17.5598,24.2933c-10.5735,1.0266-20.2668-8.5734-20.1733-18.9867
		C2212.5068,595.4996,2217.96,587.153,2225.8135,584.2463 M2228.5068,585.8329c-9,1.88-14.6934,11.88-12.6934,20.6933
		c1.2798,10.76,14.8667,18.0667,24.2666,12.08c8.9067-4.6133,11.6133-16.9333,6.3066-25.2267
		C2242.9067,587.2596,2235.2666,584.3263,2228.5068,585.8329z"/>
	<path fill="#D9251D" stroke="#D9251D" stroke-width="0.3" d="M2228.5068,585.8329c6.7598-1.5067,14.3999,1.4267,17.8799,7.5467
		c5.3066,8.2933,2.6001,20.6133-6.3066,25.2267c-9.3999,5.9866-22.9868-1.32-24.2666-12.08
		C2213.8135,597.713,2219.5068,587.713,2228.5068,585.8329z"/>
	<path fill="#3E1406" stroke="#3E1406" stroke-width="0.3" d="M2045.7468,593.5129c11.3733-4.1866,24.28,5.1067,24.96,16.9333
		c1.3865,10.3867-6.7734,21.12-17.3467,21.8667c-9.4001,1.08-18.5468-6.0667-20.3066-15.2267
		C2030.5867,607.4996,2036.28,596.6063,2045.7468,593.5129 M2048.5068,595.153c-6.1334,1.2267-11.3335,6.0533-12.9868,12.08
		c-2.6399,8.6801,1.9867,19.36,10.96,22.08c9.8401,3.5867,21.3467-4.4133,21.9202-14.76
		C2070.1868,603.6463,2059.5735,592.4463,2048.5068,595.153z"/>
	<path fill="#D9251D" stroke="#D9251D" stroke-width="0.3" d="M2048.5068,595.153c11.0667-2.7067,21.6799,8.4933,19.8933,19.4
		c-0.5735,10.3467-12.0801,18.3467-21.9202,14.76c-8.9733-2.72-13.5999-13.4-10.96-22.08
		C2037.1733,601.2063,2042.3734,596.3796,2048.5068,595.153z"/>
	<path fill="#1F1917" stroke="#1F1917" stroke-width="0.3" d="M2183.04,600.1796c10.48-3.44,22.2134,4.2534,24.0801,14.9067
		c2.6133,10.72-5.2666,22.8933-16.4399,23.9866c-10.5869,1.64-20.7468-7.3867-21.3601-17.8533
		C2168.28,612.153,2174.2268,602.7529,2183.04,600.1796 M2181.7866,602.9396c-10.9866,4.4133-13.8667,20.44-5.6265,28.7466
		c5.7466,6.72,17.04,7.04,23.3999,1.0267c6.5466-5.6,7.52-16.2667,2.8535-23.3067
		C2198.3467,602.3796,2189.1067,599.9529,2181.7866,602.9396z"/>
	<path fill="#FFFFFE" stroke="#FFFFFE" stroke-width="0.3" d="M292.7067,602.9663l1.4667-0.0267
		c13.92,1.0933,27.8933-0.16,41.8134,0.8133c-2.5467,6.4534-6.4267,12.24-9.76,18.28
		c-15.3333,29.0667-25.9467,60.6666-30.64,93.2133c-1.7466,14.04-0.3867,28.2534-2.0267,42.2933
		c-0.2133-5.0133-0.48-10.0267-0.44-15.04c0.0133-41.7733-0.08-83.5599-0.0267-125.3333
		C293.1067,612.433,293.3734,607.6596,292.7067,602.9663z"/>
	<path fill="#FCE8CD" stroke="#FCE8CD" stroke-width="0.3" d="M294.1733,602.9396c17.9067-1.2133,35.8667-0.5467,53.7734,0.3067
		c88.9066,0.1066,177.8133,0.0667,266.72,0.1866c19.5467,0.3334,39.1066-0.4,58.6,1.1467
		c53.1466,0.0667,106.2933,0.1733,159.44,0.1467c-0.2402,3.3066,0.3734,6.6266,2.1867,9.4533
		c40.2133,68.4133,48.7333,153.8133,25.3866,229.4133c-2.5333-1.5067-5.2933-2.68-8.2667-2.7333
		c-22.0134-1.1333-43.76-5.12-65.6934-7.2533c1.08-0.1201,3.24-0.36,4.32-0.48c3.3199-21.1467-12.4267-42.96-33.4534-46.6134
		c-15.2534-3.1067-31.4933,4.3467-40.1867,17.0134c-4.56,5.9333-6.2266,13.36-7.8533,20.4933
		c-29.7333-3.4401-59.3867-7.4933-89.1334-10.8267c-13.24-1.8-26.5867-4.2534-39.9733-2.4267
		c-32.8667,4.0667-65.8267,7.28-98.6801,11.5733c0.8534-0.9066,1.7067-1.7867,2.5733-2.6666
		c-3.56-11.4534-12.16-21.36-23.48-25.6266c-17.2533-7.8933-39.4267-0.2534-49.04,15.8799c-4.0933,6.28-6.0133,13.6266-7.32,20.92
		c-31.3867,3.96-62.84,7.2667-94.2667,10.8799c-2.68,0.64-4.9867-0.5733-5.6-3.3467c-3.68-11.2933-5.9733-23.0132-8.1866-34.6667
		c-2.7067-13.7333-0.6-27.7867-2.5067-41.5867c0-1.5333,0-3.0667,0.0267-4.5865c1.64-14.04,0.28-28.2534,2.0267-42.2933
		c4.6933-32.5467,15.3067-64.1467,30.64-93.2134c3.3333-6.04,7.2133-11.8267,9.76-18.28
		C322.0667,602.7796,308.0934,604.033,294.1733,602.9396 M699.0667,672.2463c-11.6,3.16-20.5333,14.2-20.96,26.2667
		c-0.84,11.5867,6.1333,23.16,16.7333,27.88c9.5067,4.6266,21.48,3.2266,29.7867-3.2667c7.1467-5.4266,11.56-14.2933,11.4-23.2933
		c-0.0134-9.92-5.6134-19.6-14.1733-24.5867C715.1067,671.1263,706.6533,670.1129,699.0667,672.2463 M465.84,675.1129
		c-11.5467,3.6667-20.1067,15.2134-19.88,27.3867c-0.2933,11.8933,7.6533,23.2533,18.8,27.28c10.32,4.0267,22.84,1.3066,30.5733-6.6
		c5.8267-5.6934,9-13.9467,8.52-22.0667c-0.4-10.0933-6.64-19.6-15.5867-24.1867C481.44,673.3263,473.16,672.7796,465.84,675.1129z"
		/>
	<path fill="#1F1917" stroke="#1F1917" stroke-width="0.3" d="M2091.1333,603.0063c11.4001-2.3867,22.7734,8.04,22.3335,19.48
		c0.5466,10.2667-8.3467,20.2133-18.7734,20.08c-9.48,0.48-17.9731-7.4667-19.2266-16.6533
		C2073.52,615.713,2080.8267,604.7796,2091.1333,603.0063 M2085.3066,607.6996c-9.6533,5.7333-10.7065,21.6267-1.6665,28.4
		c6.76,7.4,20.7466,5.2,24.8799-4c4.7466-6.6667,3.3867-16.72-2.5332-22.2534
		C2100.8267,604.153,2091.5601,603.3929,2085.3066,607.6996z"/>
	<path fill="#D9251C" stroke="#D9251C" stroke-width="0.3" d="M2181.7866,602.9396c7.3201-2.9866,16.5601-0.56,20.627,6.4667
		c4.6665,7.04,3.6931,17.7067-2.8535,23.3067c-6.3599,6.0133-17.6533,5.6933-23.3999-1.0267
		C2167.9199,623.3796,2170.8,607.353,2181.7866,602.9396z"/>
	<path fill="#8F5444" stroke="#8F5444" stroke-width="0.3" d="M997.0267,604.4063l1.48-0.04
		c14.4666-0.0667,28.9333-0.2667,43.4,0.24c-25.0001,39.5067-40.1868,84.9733-44.3067,131.5067
		c-1.1733-17.4,0.0667-34.8534-0.0933-52.28c-0.0934-25.6666,0.3066-51.3333-0.2133-76.9866
		C997.2267,606.233,997.0934,605.0063,997.0267,604.4063z"/>
	<path fill="#FFFFFF" stroke="#FFFFFF" stroke-width="0.3" d="M832.7067,604.7263c21.5466,0.0933,43.1201-0.24,64.6533,0.4533
		c0.7867,29.76,0.1467,59.5467,0.36,89.32c0,98.6666-0.0132,197.3333,0,296c0.08,12.1333-0.32,24.28,0.4133,36.4
		c-0.1333,9.1599-1.2667,18.28-2.5334,27.3467c-6.3867,39.8267-23.64,77.52-48.2534,109.3467
		c-0.6934,0.9333-1.3734,1.8667-2.0533,2.8267c5.1201,7.8132,10.2133,15.6533,14.92,23.7466
		c-5.9066-7.0667-9.12-16.0667-15.8398-22.48c-14.6133,16.8667-30.1866,33.1201-48.3066,46.24
		c-1.2266,0.8933-2.4,1.8401-3.5867,2.7734c-65.96,49.1333-151.1733,69.3866-232.5067,61.0931
		c-50.28-4.8933-99.44-21.2133-142.4-47.8534c-0.9467-0.6266-1.8933-1.24-2.8267-1.8533l-1.04-0.6934
		c-21.28-13.7467-40.84-30.24-57.7067-49.16c-15.8267-17.08-28.4667-36.7733-39.4933-57.2001c-1.64-3.8267-3.24-7.6666-4.92-11.4666
		c-10.88-24.8667-17.2133-51.6801-18.7067-78.7734c0.5067-75.2,0-150.4133,0.2667-225.6133
		c0.1067-14.36-0.4267-28.72,0.3867-43.0533c1.9067,13.7999-0.2,27.8533,2.5067,41.5867
		c2.2133,11.6534,4.5067,23.3734,8.1867,34.6666c0.6133,2.7734,2.92,3.9868,5.6,3.3467c31.4267-3.6133,62.88-6.92,94.2667-10.8799
		c25.8-2.4933,51.4667-6.1333,77.2667-8.5067c32.8533-4.2933,65.8133-7.5067,98.68-11.5734
		c13.3867-1.8267,26.7333,0.6266,39.9734,2.4267c29.7466,3.3333,59.4,7.3867,89.1333,10.8267
		c25.7067,3.2933,51.4933,6.1201,77.1733,9.5867c21.9333,2.1333,43.6801,6.1201,65.6934,7.2534
		c1.4534,1.48,2.9467,2.96,4.4401,4.4534c-6.0667,17.9733-15.5867,34.7333-20.4133,53.1466
		c11.5865-16.4534,18.4133-35.7598,24.24-54.8667c23.3465-75.6,14.8267-161-25.3867-229.4133
		C833.08,611.353,832.4667,608.033,832.7067,604.7263 M308.2267,850.4463c2.8,11.9733,7.5467,23.5334,13.4667,34.3066
		c3.7466,7.5067,6.1067,16.2534,12.8933,21.7467c-2.3066-9.96-8.2133-18.5734-11.9733-28
		C317.5333,869.2996,314.3867,858.9796,308.2267,850.4463 M564.28,857.433c-49.6667,12.68-99.2934,25.4933-149.0667,37.7333
		c-24.9067,6.8667-50.2,12.24-74.9867,19.5334c1.2267,5.44,4.8533,9.7333,8.32,13.9333c13.6,18.56,29.4533,35.4534,46.8534,50.4666
		c24.2533,20.8134,52.2667,36.9867,81.8933,48.8534c53.6933,20.96,113.7333,25.4265,169.92,12.48
		c36.5466-7.84,71.0134-23.9333,101.84-44.88c29.0533-20.7466,54.8799-46.2667,74.5733-76.12
		c3.0533-4.48,6.2534-8.92,8.3066-13.9733c-2.1067-0.6667-4.2-1.3333-6.3066-1.8667
		c-79.5334-16.5334-159.12-32.8267-238.6266-49.4933C579.2534,852.193,571.76,855.9263,564.28,857.433z"/>
	<path fill="#FADDB5" stroke="#FADDB5" stroke-width="0.3" d="M1041.9067,604.6063c127.8132,0.24,255.6133,1.2267,383.4266,1.1333
		c35.9867-0.28,71.9467,1.0533,107.9332,0.8134c29.1868,46.3333,44.6268,101.2,44.0668,155.9467
		c-0.2799,59.9333-20.0801,119.4133-55.2134,167.92c-9.0399-3.76-17.3999-8.8799-26.1333-13.24
		c-65.9332-34.5334-131.9066-69.0134-197.8267-103.5867c-1.5333-0.6934-3.28-1.5466-4.88-0.5733
		c-80.7866,38.52-161.4133,77.4666-242.2533,115.8933c-25.6134-35.6533-42.96-77.2001-50.1733-120.5067
		c-0.9867-6.1466-1.9467-12.28-2.96-18.4c-1.04-17.9467-1.56-35.9333-0.2933-53.8933
		C1001.72,689.5796,1016.9067,644.1129,1041.9067,604.6063 M1407.2268,673.9529c-13.3467,1.6133-24.5868,13.68-24.8667,27.1866
		c-0.96,12.2266,7.0266,24.3467,18.4933,28.5466c9.7067,3.8667,21.3734,1.8,29.2399-5.0667c8.3734-6.9866,12.0267-18.9067,9.16-29.4
		C1435.8534,681.4196,1421.28,671.673,1407.2268,673.9529 M1173.8534,676.673c-12.8534,2.2133-23.4266,14-23.6266,27.16
		c-0.7867,11.2133,5.8667,22.3066,15.9066,27.2266c9.5599,4.9866,21.8534,3.8,30.4-2.7468c9.1733-6.7333,13.6-19.1466,10.72-30.16
		C1203.9333,683.7263,1188.3867,673.593,1173.8534,676.673 M1444.48,772.433c-8.4265,1.72-16.3867,6-22.1599,12.4133
		c-11.8134,12.7067-14.9333,32.6-7.76,48.3733c3.5067,7.9333,9.64,14.6,16.96,19.2133c12,7.3867,27.9867,7.5734,40.1067,0.3467
		c17.3733-10,25.5466-32.6534,19.0667-51.5466C1485.2268,781.953,1464.4001,768.193,1444.48,772.433 M1139.1067,777.6329
		c-11.3066,2.1866-21.24,9.72-26.9733,19.6133c-9.88,16.3066-7.8134,39.1067,5.5067,52.9333
		c7.8933,8.8,19.8667,13.6934,31.6799,12.8c13.3867-0.3867,25.6001-8.8,32.4534-20.0134
		c10.1067-16.5334,7.8534-39.8133-5.9866-53.5867C1166.6934,779.3663,1152.3201,774.8996,1139.1067,777.6329z"/>
	<path fill="#D9251D" stroke="#D9251D" stroke-width="0.3" d="M2085.3066,607.6996c6.2534-4.3066,15.52-3.5466,20.6802,2.1467
		c5.9199,5.5333,7.2798,15.5867,2.5332,22.2534c-3.5601,2.4933-7.0667,5.3199-11.2798,6.56c-4.6802,0.5067-9.2134-1.24-13.6001-2.56
		C2074.6001,629.3263,2075.6533,613.433,2085.3066,607.6996z"/>
	<path fill="#8F5444" stroke="#8F5444" stroke-width="0.3" d="M1533.2666,606.553c22.2935,0,44.6001,0.16,66.9067,0.2933
		c0.6934,0,2.08-0.0134,2.7733-0.0134c-0.0133,0.68-0.0267,2.0667-0.0267,2.76c-0.8665,19.84-0.1599,39.7067-0.3865,59.5733
		c0,111.56,0,223.1067,0,334.6667c-0.1333,12.3867,0.3333,24.8-0.5601,37.1734c-2.0667,16.5066-3.7333,33.2-8.6267,49.1866
		c-3.2932,12.9867-6.3467,26.04-11.1199,38.5867c-7.52,24.72-21.2802,46.8134-31.48,70.4
		c-0.3202,0.6934-0.9335,2.0933-1.2534,2.7866c-10.8534,18.8401-22,37.5735-35.0535,55
		c-10.7466,14.8134-22.6133,28.7467-34.7732,42.4133c-0.8667,0.9468-1.7334,1.9069-2.5735,2.88
		c-0.7732,0.7867-1.5332,1.5867-2.2932,2.3866c-16.6,16.2001-33.8267,31.92-53.0667,44.9734
		c-39.24,27.5466-86.7067,45.5466-135.1602,43.3333c-45.1466-1.8534-88.04-21.0134-123.6934-48.0267
		c-18.8533-14.2533-36.2533-30.4401-51.6934-48.3066c-4.5599-5.2267-9.0133-10.5067-13.6666-15.6134
		c-0.5333-0.6266-1.6-1.8667-2.12-2.48c-0.28-0.4266-0.8401-1.2666-1.1201-1.6934c-14.8533-20.3333-29.1866-41.1067-41.2-63.28
		c-5.96-9.7866-9.8134-20.7067-16.3334-30.1466c-0.2667-1.12-0.5466-2.24-0.7999-3.3334c-1.9067-7.4534-5.6267-14.2666-8.28-21.4534
		c-10.2801-25.4534-19.1734-51.5333-24.9734-78.3999c-0.6934-15.3334-4.92-30.2933-5.0533-45.6667
		c-0.3734-70.24,0.24-140.48-0.3867-210.7067c1.1201-11.28-0.7867-22.6,0.64-33.84c1.0133,6.1201,1.9733,12.2534,2.96,18.4
		c7.2133,43.3066,24.5599,84.8534,50.1733,120.5067c80.84-38.4267,161.4667-77.3733,242.2533-115.8933
		c1.6001-0.9733,3.3466-0.1201,4.88,0.5733c65.92,34.5733,131.8933,69.0533,197.8265,103.5867
		c8.7334,4.36,17.0935,9.48,26.1333,13.24c35.1333-48.5067,54.9335-107.9866,55.2134-167.92
		C1577.8934,707.7529,1562.4534,652.8863,1533.2666,606.553 M1282.7467,857.3129c-41.6666,21.4133-83.3199,42.8533-125,64.2534
		c-26.16,13.6533-52.6666,26.6934-78.6267,40.7333c32.0267,33.2267,72.3199,58.4,116.0667,73
		c52.1067,17.4401,109.16,19.6536,162.4266,6.1733c49.3734-12.28,95.4001-37.8799,131.7201-73.52
		c-66.64-37.0533-133.5468-73.6534-200.24-110.6267C1287.1333,855.8329,1284.7334,855.9796,1282.7467,857.3129z"/>
	<path fill="#431809" stroke="#431809" stroke-width="0.3" d="M2139.1067,607.033c11.3733-3.3734,23.6533,6.4399,23.7734,18.08
		c1.1199,10.36-7.2668,20.44-17.6267,21.2933c-10.4268,0.9067-20.2666-8.1333-20.52-18.56
		C2123.8,618.6196,2130.1333,609.4063,2139.1067,607.033 M2137.8667,609.8863c-10.5867,3.9067-14.3599,18.7333-7.3066,27.4133
		c5.6533,8.12,19.1201,8.8666,25.5332,1.2933c5.5068-6.12,5.8801-16,1.2268-22.7067
		C2153.2402,609.6063,2144.7334,607.2596,2137.8667,609.8863z"/>
	<path fill="#D9251C" stroke="#D9251C" stroke-width="0.3" d="M2137.8667,609.8863c6.8667-2.6266,15.3735-0.28,19.4534,6
		c4.6533,6.7067,4.28,16.5867-1.2268,22.7067c-6.4131,7.5733-19.8799,6.8267-25.5332-1.2933
		C2123.5068,628.6196,2127.28,613.793,2137.8667,609.8863z"/>
	<path fill="#B6382E" stroke="#B6382E" stroke-width="0.3" d="M2097.2402,638.6596c4.2131-1.24,7.7197-4.0667,11.2798-6.56
		c-4.1333,9.2-18.1199,11.4-24.8799,4C2088.0269,637.4196,2092.5601,639.1663,2097.2402,638.6596z"/>
	<path fill="#1F1A17" stroke="#1F1A17" stroke-width="0.3" d="M699.0667,672.2463c7.5867-2.1334,16.04-1.12,22.7867,3
		c8.5599,4.9866,14.16,14.6667,14.1733,24.5867c0.16,9-4.2534,17.8667-11.4,23.2933c-8.3066,6.4933-20.28,7.8933-29.7867,3.2667
		c-10.6-4.72-17.5733-16.2933-16.7333-27.88C678.5333,686.4463,687.4667,675.4063,699.0667,672.2463z"/>
	<path fill="#1F1A17" stroke="#1F1A17" stroke-width="0.3" d="M1407.2268,673.9529c14.0532-2.28,28.6266,7.4667,32.0265,21.2667
		c2.8667,10.4933-0.7866,22.4134-9.16,29.4c-7.8665,6.8667-19.5332,8.9333-29.2399,5.0667
		c-11.4667-4.2-19.4532-16.3199-18.4933-28.5466C1382.64,687.6329,1393.8801,675.5663,1407.2268,673.9529z"/>
	<path fill="#1F1A17" stroke="#1F1A17" stroke-width="0.3" d="M465.84,675.1129c7.32-2.3333,15.6-1.7866,22.4267,1.8134
		c8.9467,4.5867,15.1867,14.0933,15.5867,24.1866c0.48,8.12-2.6933,16.3734-8.52,22.0667
		c-7.7333,7.9066-20.2533,10.6266-30.5733,6.6c-11.1466-4.0267-19.0933-15.3866-18.8-27.28
		C445.7333,690.3263,454.2933,678.7796,465.84,675.1129z"/>
	<path fill="#1F1A17" stroke="#1F1A17" stroke-width="0.3" d="M1173.8534,676.673c14.5333-3.08,30.08,7.0533,33.4,21.48
		c2.8799,11.0133-1.5466,23.4266-10.72,30.16c-8.5466,6.5466-20.8401,7.7333-30.4,2.7468
		c-10.04-4.92-16.6934-16.0134-15.9066-27.2267C1150.4268,690.673,1161,678.8863,1173.8534,676.673z"/>
	<path fill="#E3C19D" stroke="#E3C19D" stroke-width="0.3" d="M2317.6133,701.673c0.8401-4.4933,3-8.5333,7.0269-10.92
		C2322.5735,694.5663,2320.2002,698.2063,2317.6133,701.673z"/>
	<path fill="#E6C09E" stroke="#E6C09E" stroke-width="0.3" d="M2293.2002,726.1263c4.3198-1.3867,7.5732-4.8534,11.2798-7.3734
		c-3.2,3.5334-5.5864,9.3867-11.0933,9.3867c-8.0266,0.3465-16.1201,0.24-24.0933-0.68
		C2277.1201,725.2329,2285.2534,727.1796,2293.2002,726.1263z"/>
	<path fill="#784A10" stroke="#784A10" stroke-width="0.3" d="M1691.8134,726.2729c5.3734-0.52,10.7733-0.5599,16.1866-0.4933
		c66.8,0.4933,133.6133-0.0533,200.4135,1.0267c-9.3467,2.0932-18.9335,0.9733-28.4135,1.16
		c-62.7732,0.56-125.5466-0.2266-188.3199-0.2266L1691.8134,726.2729z"/>
	<path fill="#934C1E" stroke="#934C1E" stroke-width="0.3" d="M1908.4135,726.8063c6.8666-0.4935,13.7466-0.2933,20.6266-0.1867
		c7.48,0.4267,14.9867,0.24,22.48,0.7466c7,2.5867,14.5067,1.6533,21.8,1.6667c85.3467,0.5466,170.7068,0.2667,256.0667,0.3333
		c3.24-0.12,6.4534-0.7067,9.6802-1.1866c10.0532-0.7734,20.1865,0.52,30.2266-0.72c1.3599,8.5065,0.6533,17.1333,0.7466,25.7067
		c0.0667,33.7734-0.0801,67.56,0.0667,101.3334c1.3733,18.2266,1.8267,36.6133-0.2666,54.8133
		c-0.5867,12.0134-3.6267,23.6667-6,35.4133c-2.0667,8.64-5.1599,17.0933-5.5601,26.0667c-0.6399-0.16-1.2532-0.32-1.8401-0.4666
		c-0.8799,3.5733-1.8533,7.12-2.8799,10.6533c-5.9067,11.7466-10.2,24.2533-16.7466,35.6934
		c-8.6401,16.8933-19.8801,32.24-31.3467,47.28c-8.1868,10.4-17.5732,19.7599-27.1467,28.8667
		c-4.1733,3.6801-8.3601,7.3734-11.8533,11.72c-0.2666,0.2933-0.8135,0.8667-1.0933,1.16c-1.1733,1.0667-2.3867,2.0931-3.6001,3.08
		c-0.4534,0.3466-1.3733,1.0533-1.8401,1.4c-9.6799,6.3866-18.8665,13.4933-28.8665,19.3866
		c-20.627,12.2533-42.5869,22.4534-65.6667,29.1333c-9.6667,3.3734-19.7734,5.1333-29.6135,7.8534
		c-0.4666,0.08-1.3865,0.2266-1.8533,0.2932c-12.3201,1.6134-24.6267,3.2534-37.0134,4.28
		c-10.6266-0.0132-21.2532,0.2134-31.8665-0.04c-12.2668-0.8667-24.4001-2.7333-36.6001-4.0933
		c-0.6267-0.0801-1.8667-0.24-2.48-0.3066c-10.3201-3.0533-20.9066-5.0533-31.12-8.4133
		c-37.6934-11.5466-72.5468-31.3734-102.7334-56.6134c-0.64-0.4667-1.9467-1.4-2.6-1.8534
		c-0.9333-0.8799-1.7866-1.7999-2.5601-2.7466c-5.6934-7.2267-12.8667-13.0801-18.8667-20
		c-25.9332-28.76-47.1466-62.1734-59.7332-98.92c-3.8667-10.0134-5.7734-20.6667-9.9202-30.5867
		c-2.6931-12.4-3.6931-25.0667-6.1998-37.4933c-0.8267-4.2534-0.9735-8.5867-0.9067-12.9067
		c0.3734-56.4666-0.3199-112.96,0.3467-169.4133c62.7733,0,125.5468,0.7867,188.3199,0.2267
		C1889.48,727.7797,1899.0668,728.8996,1908.4135,726.8063 M2096.5068,796.4196c-10.2134,3.0933-18.0669,12.3734-19.7068,22.8799
		c-2.7332,14.8134,8.2,30.6667,23.2534,32.7867c12.3733,2.7333,25.96-4.28,31.1333-15.8c5.4265-11.2933,2.5601-25.8533-6.96-34.0667
		C2116.8267,795.5796,2105.9333,793.6863,2096.5068,796.4196 M1871.2134,797.673c-12.6666,0.7733-24.0934,10.6666-26.3199,23.2133
		c-2,9.9067,1.7599,20.7467,9.4266,27.3467c9.8933,8.7333,26.0266,9.16,36.3733,0.9467c11.1467-8.2133,14.52-24.9733,7.48-36.8667
		C1893.04,802.713,1881.9867,796.9396,1871.2134,797.673 M2141.8267,909.7797c-20.7065,3.5466-35.8933,24.0667-34.9465,44.7733
		c0.8667,14.6667,8.6667,29.5334,21.9465,36.5466c16.48,9.4133,39.5334,5.2667,50.9734-10.1067
		c10.8667-13.0933,12.8667-32.5867,5.5066-47.8133C2177.8936,917.1263,2159.4668,906.4996,2141.8267,909.7797 M1835.1868,915.2063
		c-12.2134,2.5466-22.5468,11.4-28.2001,22.3466c-9.4399,18.2533-4.5333,42.7733,11.8934,55.3467
		c9.1199,7.12,21.3199,9.8133,32.6399,7.64c11.8134-2.5067,22.52-10.3333,28.04-21.1467
		c10.4266-18.7466,5.1868-44.8267-12.4534-57.3467C1858.1067,915.2196,1846.1733,912.9396,1835.1868,915.2063 M1971.1733,931.1796
		c-13.1199,2.3867-27.2799,8.5733-32.9866,21.4666c-1.3201,4.2667-2.5067,10.9333,2.3467,13.4
		c7.0798,0.7333,13.9199-2.28,20.7999-3.6134c13.6801-3.8799,28.3066-4.1067,42.12-0.76c7.3066,1.3867,14.4,4.0533,21.8533,4.64
		c4.7734,0.3866,6.3601-5.3334,6.1068-9.1333c-1.1068-8.1067-7.1201-14.8134-14.0934-18.6667
		C2003.5867,930.1663,1986.7468,929.1396,1971.1733,931.1796 M2026.3334,1034.2996c-1.2001,8.6801-5.4399,16.7334-11.9867,22.5735
		c-12.8132,11.9468-30.5734,17.0933-47.7334,18c-11.36,0.6799-22.52-1.84-33.52-4.28c3.4135,8.8,10.7601,15.4934,18.8267,20.0801
		c19.8401,11.2932,46.3334,10.2133,64.6934-3.5867c11.7869-8.4401,19.2802-23.3734,16.8002-37.96
		C2032.2933,1043.7797,2030.7334,1037.8862,2026.3334,1034.2996z"/>
	<path fill="#7E4A13" stroke="#7E4A13" stroke-width="0.3" d="M1951.52,727.3663c24.5867-0.76,49.2134-0.0667,73.8134-0.2267
		c71.2401,0.3334,142.4933,0.2133,213.7335,1.04c-3.2268,0.48-6.4402,1.0667-9.6802,1.1867
		c-85.3599-0.0667-170.72,0.2133-256.0667-0.3333C1966.0267,729.0197,1958.52,729.953,1951.52,727.3663z"/>
	<path fill="#EE9B8D" stroke="#EE9B8D" stroke-width="0.3" d="M1444.48,772.433c19.9202-4.24,40.7468,9.52,46.2134,28.7999
		c6.48,18.8933-1.6934,41.5466-19.0667,51.5466c-12.12,7.2267-28.1067,7.04-40.1067-0.3467
		c-7.3199-4.6133-13.4532-11.28-16.96-19.2133c-7.1733-15.7734-4.0533-35.6667,7.76-48.3734
		C1428.0933,778.433,1436.0535,774.153,1444.48,772.433z"/>
	<path fill="#EE9B8D" stroke="#EE9B8D" stroke-width="0.3" d="M1139.1067,777.6329c13.2134-2.7333,27.5867,1.7333,36.6801,11.7466
		c13.8398,13.7734,16.0931,37.0533,5.9867,53.5867c-6.8534,11.2133-19.0667,19.6266-32.4534,20.0134
		c-11.8134,0.8933-23.7867-4-31.6801-12.8c-13.3199-13.8267-15.3866-36.6266-5.5067-52.9333
		C1117.8667,787.353,1127.8,779.8196,1139.1067,777.6329z"/>
	<path fill="#F6C5B4" stroke="#F6C5B4" stroke-width="0.3" d="M717,803.5263c8.6934-12.6667,24.9333-20.1201,40.1867-17.0134
		c21.0267,3.6533,36.7734,25.4667,33.4534,46.6134c-1.08,0.12-3.24,0.36-4.32,0.48c-25.68-3.4667-51.4666-6.2933-77.1733-9.5867
		C710.7734,816.8862,712.4401,809.4597,717,803.5263z"/>
	<path fill="#F6C5B4" stroke="#F6C5B4" stroke-width="0.3" d="M411.4133,809.9263c9.6133-16.1333,31.7867-23.7733,49.04-15.8799
		c11.32,4.2667,19.92,14.1733,23.48,25.6266c-0.8666,0.8799-1.72,1.76-2.5733,2.6666c-25.8,2.3734-51.4667,6.0134-77.2667,8.5067
		C405.4,823.5529,407.32,816.2063,411.4133,809.9263z"/>
	<path fill="#1F1A17" stroke="#1F1A17" stroke-width="0.3" d="M2096.5068,796.4196c9.4265-2.7333,20.3198-0.84,27.72,5.8
		c9.52,8.2133,12.3865,22.7733,6.96,34.0667c-5.1733,11.52-18.76,18.5333-31.1333,15.7999
		c-15.0535-2.12-25.9866-17.9733-23.2534-32.7867C2078.4399,808.793,2086.2935,799.5129,2096.5068,796.4196z"/>
	<path fill="#1F1A17" stroke="#1F1A17" stroke-width="0.3" d="M1871.2134,797.673c10.7733-0.7333,21.8267,5.04,26.96,14.64
		c7.04,11.8933,3.6667,28.6533-7.48,36.8667c-10.3467,8.2133-26.48,7.7867-36.3733-0.9467c-7.6667-6.6-11.4266-17.44-9.4266-27.3467
		C1847.12,808.3396,1858.5468,798.4463,1871.2134,797.673z"/>
	<path fill="#F4EBDE" stroke="#F4EBDE" stroke-width="0.3" d="M852.0134,840.8596c2.9733,0.0533,5.7333,1.2267,8.2667,2.7333
		c-5.8267,19.1067-12.6534,38.4133-24.24,54.8667c4.8267-18.4133,14.3466-35.1732,20.4133-53.1467
		C854.96,843.8196,853.4667,842.3396,852.0134,840.8596z"/>
	<path fill="#F2EBE0" stroke="#F2EBE0" stroke-width="0.3" d="M308.2267,850.4463c6.16,8.5334,9.3066,18.8534,14.3867,28.0533
		c3.76,9.4266,9.6667,18.04,11.9733,28c-6.7867-5.4933-9.1467-14.24-12.8933-21.7467
		C315.7733,873.9796,311.0267,862.4196,308.2267,850.4463z"/>
	<path fill="#FCE8CD" stroke="#FCE8CD" stroke-width="0.3" d="M564.28,857.433c7.48-1.5067,14.9733-5.24,22.72-3.3334
		c79.5067,16.6667,159.0934,32.96,238.6266,49.4933c2.1067,0.5334,4.2,1.2,6.3066,1.8667
		c-2.0533,5.0533-5.2534,9.4935-8.3066,13.9733c-19.6934,29.8533-45.52,55.3734-74.5733,76.12
		c-30.8267,20.9467-65.2934,37.04-101.84,44.88c-56.1867,12.9467-116.2266,8.48-169.92-12.48
		c-29.6267-11.8667-57.64-28.04-81.8933-48.8534c-17.4-15.0133-33.2533-31.9066-46.8534-50.4666
		c-3.4667-4.2-7.0933-8.4933-8.32-13.9333c24.7867-7.2933,50.08-12.6667,74.9867-19.5334
		C464.9867,882.9263,514.6133,870.113,564.28,857.433 M576.4534,888.2863c-5.4133,2.36-7.3867,8.64-8.92,13.8799
		c-2.8533,12.3867-2.6533,26.1201,3.1334,37.6667c1.84,4.1201,7.0533,8.2534,11.3734,4.8c5.3467-4.4,7-11.6533,8.2-18.16
		c1.24-11.1866,1.0134-23.3333-4.7466-33.3333C583.7067,890.1396,580.2267,886.793,576.4534,888.2863z"/>
	<path fill="#FADDB5" stroke="#FADDB5" stroke-width="0.3" d="M1282.7467,857.3129c1.9867-1.3333,4.3866-1.48,6.3467,0.0134
		c66.6934,36.9733,133.6,73.5733,200.24,110.6267c-36.3199,35.64-82.3467,61.24-131.72,73.52
		c-53.2667,13.48-110.3202,11.2667-162.4266-6.1733c-43.7467-14.6-84.04-39.7734-116.0667-73
		c25.96-14.04,52.4666-27.08,78.6267-40.7333C1199.4268,900.1663,1241.0801,878.7263,1282.7467,857.3129 M1233.6001,909.353
		c-4.4667,1.9067-3.8534,7.7466-2.9067,11.64c2.8,9.6533,11.8534,15.84,20.7467,19.4267c18.2533,7.0134,39.6533,6.44,57.1067-2.6
		c8.5466-4.5067,16.7867-12.9333,15.7999-23.3333c0.1067-3.68-3.6533-6.0533-7.04-5.3467c-8.9066,0.8667-17.3333,4.28-26.1599,5.68
		c-12.8267,2.5734-26.0667,1.0134-38.5734-2.4C1246.3467,911.033,1240.0801,908.4196,1233.6001,909.353z"/>
	<path fill="#201A17" stroke="#201A17" stroke-width="0.3" d="M576.4534,888.2863c3.7733-1.4935,7.2533,1.8533,9.04,4.8533
		c5.76,10,5.9866,22.1467,4.7466,33.3334c-1.2,6.5067-2.8533,13.76-8.2,18.16c-4.32,3.4534-9.5333-0.6799-11.3734-4.8
		c-5.7867-11.5466-5.9866-25.28-3.1334-37.6666C569.0667,896.9263,571.04,890.6462,576.4534,888.2863z"/>
	<path fill="#1F1A17" stroke="#1F1A17" stroke-width="0.3" d="M1233.6001,909.353c6.48-0.9333,12.7466,1.68,18.9733,3.0667
		c12.5067,3.4133,25.7467,4.9733,38.5734,2.4c8.8267-1.4,17.2533-4.8133,26.1599-5.68c3.3867-0.7067,7.1467,1.6667,7.04,5.3467
		c0.9867,10.4-7.2533,18.8267-15.7999,23.3333c-17.4534,9.04-38.8534,9.6134-57.1067,2.6
		c-8.8933-3.5867-17.9467-9.7734-20.7467-19.4267C1229.7467,917.0996,1229.1333,911.2596,1233.6001,909.353z"/>
	<path fill="#BB691D" stroke="#BB691D" stroke-width="0.3" d="M2141.8267,909.7797c17.6401-3.28,36.0669,7.3465,43.48,23.4
		c7.3601,15.2266,5.3601,34.72-5.5066,47.8133c-11.4399,15.3734-34.4934,19.52-50.9734,10.1067
		c-13.2798-7.0133-21.0798-21.8799-21.9465-36.5466C2105.9333,933.8463,2121.1201,913.3263,2141.8267,909.7797z"/>
	<path fill="#BB691D" stroke="#BB691D" stroke-width="0.3" d="M1835.1868,915.2063c10.9866-2.2667,22.9199,0.0132,31.9199,6.8398
		c17.6401,12.52,22.88,38.6,12.4534,57.3467c-5.52,10.8134-16.2267,18.64-28.04,21.1467c-11.3199,2.1732-23.52-0.52-32.6399-7.64
		c-16.4268-12.5734-21.3334-37.0934-11.8934-55.3467C1812.64,926.6063,1822.9734,917.7529,1835.1868,915.2063z"/>
	<path fill="#A3673D" stroke="#A3673D" stroke-width="0.3" d="M1971.1733,931.1796c15.5735-2.04,32.4133-1.0134,46.1467,7.3333
		c6.9733,3.8534,12.9866,10.56,14.0934,18.6667c0.2533,3.8-1.3334,9.52-6.1068,9.1333c-7.4532-0.5867-14.5466-3.2534-21.8533-4.64
		c-13.8134-3.3467-28.4399-3.1201-42.12,0.76c-6.88,1.3333-13.7201,4.3467-20.7999,3.6133c-4.8534-2.4666-3.6667-9.1333-2.3467-13.4
		C1943.8934,939.7529,1958.0535,933.5663,1971.1733,931.1796z"/>
	<path fill="#C0345A" stroke="#C0345A" stroke-width="0.3" d="M1698.4399,947.5529c4.1467,9.92,6.0535,20.5733,9.9202,30.5867
		c12.5865,36.7466,33.7999,70.16,59.7332,98.92c6,6.92,13.1733,12.7734,18.8667,20c-3.5732,0.28-7.3333,1.0533-10.7866-0.1733
		c-0.36-0.12-1.0933-0.36-1.4532-0.4933c2.2266-0.4266,4.48-0.8134,6.7733-1.1866c-4.04-6.76-10.7334-11.2134-15.6133-17.2667
		c-7.2134-8.8134-15.5334-16.7867-21.4135-26.6134c-4.84-7.96-11.1333-14.9467-15.3734-23.2666
		C1715.3201,1002.8463,1702.5468,976.2463,1698.4399,947.5529z"/>
	<path fill="#C03558" stroke="#C03558" stroke-width="0.3" d="M2236.8135,1016.673c6.5466-11.4401,10.8398-23.9467,16.7466-35.6934
		c-1.5732,11.4933-7.8132,21.4666-12.6267,31.7867c-7.0532,14.6266-15.7866,28.3734-25.0933,41.64
		c-8.3333,9.8534-16.0266,20.2933-25.48,29.1201c-7.1733,7.5466-15.3733,14.1599-21.5735,22.5867
		c-0.5864-0.3867-1.7332-1.1733-2.3198-1.5734c3.4932-4.3467,7.6799-8.04,11.8533-11.72
		c9.5735-9.1067,18.96-18.4667,27.1467-28.8667C2216.9333,1048.913,2228.1733,1033.5663,2236.8135,1016.673z"/>
	<path fill="#1F1917" stroke="#1F1917" stroke-width="0.3" d="M2026.3334,1034.2996c4.4,3.5867,5.96,9.48,7.0801,14.8267
		c2.48,14.5867-5.0133,29.52-16.8002,37.96c-18.36,13.8-44.8533,14.88-64.6934,3.5867c-8.0665-4.5867-15.4132-11.28-18.8267-20.08
		c11,2.4401,22.16,4.96,33.52,4.28c17.16-0.9069,34.9202-6.0533,47.7334-18
		C2020.8934,1051.033,2025.1333,1042.9796,2026.3334,1034.2996z"/>
	<path fill="#1F4300" stroke="#1F4300" stroke-width="0.3" d="M1775.4135,1100.673c1.5332-0.2533,3.0933-0.5067,4.6798-0.7467
		c0.3202,157.6934-0.1599,315.3867,0.2401,473.0801c-0.8267,0-2.48-0.0133-3.3066-0.0133
		c0.5067-156.7334-0.0801-313.4935,0.2933-470.2267c-0.6,0.2533-1.8267,0.7466-2.4266,1
		C1775.0134,1102.9929,1775.28,1101.4463,1775.4135,1100.673z"/>
	<path fill="#B8DC7C" stroke="#B8DC7C" stroke-width="0.3" d="M1780.0933,1099.9263c3.1201-0.2,6.2668-0.4399,9.4268-0.12
		c0.6533,0.4534,1.96,1.3866,2.6,1.8534c-3.4266-0.88-6.9867-0.72-10.4667-0.3867c-1.2799,14.1467-0.2932,28.3734-0.5865,42.5601
		c0.08,142.7333-0.1733,285.4667,0.12,428.1868c30.7067,0.7599,61.4265,0.0933,92.1466,0.3199c76,0,152,0,228.0001,0
		c19.1333-0.2534,38.3066,0.5067,57.4399-0.36c0.76-32.9199,0.1201-65.8801,0.3333-98.8134c0-109.7999,0-219.6001-0.0134-329.4
		c0.0535-3.2,0.3735-6.3733,0.6536-9.5466c-0.0801,140.9734,0,281.9602-0.04,422.9468c0.0266,5.7068-0.3733,11.48,0.6399,17.16
		c-14.2932-1.2001-28.6799-0.2267-43.0132-0.5468c-97.3335,0-194.6667,0-292.0001,0c-14.9733,0.2935-30.0133-0.6133-44.9467,0.4668
		l-0.0533-1.24C1779.9333,1415.313,1780.4135,1257.6196,1780.0933,1099.9263z"/>
	<path fill="#85C226" stroke="#85C226" stroke-width="0.3" d="M1781.6533,1101.2729c3.48-0.3333,7.04-0.4933,10.4667,0.3867
		c30.1866,25.24,65.04,45.0667,102.7334,56.6133c10.2134,3.3601,20.7999,5.3601,31.12,8.4133
		c-5.3999,7.8933-9.6801,16.5334-12.28,25.76c-0.3066-0.4933-0.9067-1.48-1.2-1.9733c-2.2134,12.3334-1.1067,24.9066-1.3201,37.36
		c-0.0133,41.7734,0,83.5601-0.0133,125.3334c0.5067,16.4534-1.1866,33.0667,1.1866,49.4266
		c0.3334-0.5334,0.9734-1.5867,1.3066-2.12c5.2134,20.3734,19.4399,38.3734,38.7201,47.0668
		c10.7733,5.2932,22.9332,6.4933,34.7999,6.4399c-4.6666,0.7866-9.3733,1.04-14.0533,1.2267
		c14.7201,1.3999,29.6801-2.0668,42.6801-8.9867c2.4532-1.28,4.4-3.2935,6.2267-5.3199c6.6266-6.4268,13.64-12.6666,18.2001-20.8267
		c5.2932-8.3468,7.6399-18.0269,9.8401-27.5333c2.3333-6.2135,1.3865-12.9069,1.4399-19.3601
		c0.0132-54.6934-0.0269-109.3867,0.0132-164.0667c-0.0266-5.3467-0.4666-10.6801-1.3333-15.9468
		c-0.3066,0.48-0.9202,1.4133-1.2268,1.8933c-2.5865-10.2266-6.7866-20.08-13.1733-28.5066c9.8401-2.72,19.9468-4.48,29.6135-7.8534
		c23.0798-6.6801,45.0398-16.88,65.6667-29.1333c10-5.8933,19.1865-13,28.8665-19.3866c-0.0933,8.0133,0.2534,16.0266-0.1865,24.04
		c-0.28,3.1733-0.6001,6.3467-0.6536,9.5466c0.0134,109.7999,0.0134,219.6,0.0134,329.4
		c-0.2131,32.9332,0.4268,65.8934-0.3333,98.8134c-19.1333,0.8667-38.3066,0.1066-57.4399,0.36c-76.0001,0-152.0001,0-228.0001,0
		c-30.7201-0.2267-61.4399,0.4399-92.1466-0.3199c-0.2933-142.7201-0.04-285.4535-0.12-428.1869
		C1781.3601,1129.6462,1780.3734,1115.4197,1781.6533,1101.2729z"/>
	<path fill="#B8DC7C" stroke="#B8DC7C" stroke-width="0.3" d="M1774.8934,1103.7664c0.6-0.2534,1.8267-0.7467,2.4266-1
		c-0.3734,156.7333,0.2134,313.4933-0.2933,470.2267l-0.0668,1.2267c-21.6133-1.0266-43.3199-0.1466-64.96-0.4401
		c-12.1866,0.3334-24.4532-0.6801-36.5734,0.52c-6.7999-37.7198-14.6133-75.2666-23.5865-112.52
		c0.2-0.4532,0.6133-1.3732,0.8132-1.84c8.8,37.1067,17,74.36,23.4934,111.9601c13.2534,1.0265,26.5734,0.1733,39.8533,0.4399
		c20.0267-0.2134,40.0801,0.4399,60.1067-0.3066c0.6267-33.3867,0.0801-66.7999,0.2667-100.2001c0-109.7734,0-219.5466,0-329.3335
		c-0.4135-12.5599,1.1066-25.28-1.3066-37.7067L1774.8934,1103.7664z"/>
	<path fill="#85C226" stroke="#85C226" stroke-width="0.3" d="M1736.16,1156.0464c12.1466-17.6667,24.7201-35.16,38.9067-51.2534
		c2.4132,12.4268,0.8932,25.1467,1.3066,37.7068c0,109.7866,0,219.5599,0,329.3335c-0.1866,33.4,0.36,66.8132-0.2667,100.2
		c-20.0266,0.7466-40.08,0.0933-60.1067,0.3066c-13.2799-0.2666-26.5999,0.5867-39.8533-0.4399
		c-6.4934-37.6001-14.6934-74.8533-23.4934-111.9601c-0.2,0.4668-0.6133,1.3867-0.8132,1.84
		c-1.5334-4.0398-2.6533-8.2399-3.0668-12.5332c-0.9467-12.88-6.1866-24.88-9.1066-37.3468
		c-2.1067-9.4667-6.6-18.3732-7.7733-27.9867c2.7466-12.7733,7.9467-24.9199,11.8932-37.36
		c2.4402-8.1466,6.7068-15.7333,7.8801-24.24c2.4133-9.7733,7.1066-18.8134,10.6934-28.1866
		C1682.5067,1245.8997,1706.7334,1199.2864,1736.16,1156.0464z"/>
	<path fill="#B8DC7C" stroke="#B8DC7C" stroke-width="0.3" d="M2161.7734,1108.7797c1.2134-0.9868,2.4268-2.0133,3.6001-3.08
		c1.9331,2.2932,3.8533,4.6133,5.6399,7.0532c-2.3333-1.7733-4.7866-3.3866-7.2134-5c-0.7732,31.1201-0.1067,62.28-0.3333,93.4133
		c0,107.5601,0,215.1067,0,322.6667c0.2,16.0668-0.4133,32.1467,0.3066,48.2134c30.28,0.7065,60.5867,0.0933,90.8933,0.2933
		c32.7866-0.1733,65.5999,0.3467,98.3733-0.2534c-1.72-14.7466-5.0667-29.2266-7.9866-43.7599
		c-11.5466-57.7866-26.4133-114.9335-45.2534-170.7601c-2.7332-9.1733-7.48-17.7333-8.8267-27.2933
		c4.7334,10.3734,7.8533,21.4,11.7068,32.1333c20.9331,62.4535,36.4399,126.6268,48.6265,191.3335
		c1.2002,6.6799,2.7734,13.3334,3.2935,20.1333c-64.3335-0.3733-128.6802,0-193.0266-0.1866
		c1.0798-13.4667,0.1599-27.0267,0.4666-40.52c0-112.8934,0-225.7734,0-338.6669
		C2161.8667,1165.9263,2162.4001,1137.3396,2161.7734,1108.7797z"/>
	<path fill="#85C226" stroke="#85C226" stroke-width="0.3" d="M2163.8,1107.7529c2.4268,1.6134,4.8801,3.2267,7.2134,5
		c12.7866,14.5867,23.7466,30.7068,34.7466,46.6667c29.7334,44.3733,54.1733,92.1466,74.3467,141.5732
		c3.6799,9.72,8.3333,19.16,10.8667,29.28c1.3467,9.5601,6.0935,18.1201,8.8267,27.2933
		c18.8401,55.8267,33.7068,112.9735,45.2534,170.7601c2.9199,14.5333,6.2666,29.0133,7.9866,43.7599
		c-32.7734,0.6001-65.5867,0.0801-98.3733,0.2534c-30.3066-0.2001-60.6133,0.4132-90.8933-0.2933
		c-0.72-16.0667-0.1067-32.1466-0.3066-48.2134c0-107.5601,0-215.1067,0-322.6667
		C2163.6934,1170.033,2163.0269,1138.873,2163.8,1107.7529z"/>
	<path fill="#011B00" stroke="#011B00" stroke-width="0.3" d="M2159.9333,1110.1797c0.4668-0.3467,1.3867-1.0533,1.8401-1.4
		c0.6267,28.5599,0.0933,57.1466,0.2666,85.72c0,112.8933,0,225.7733,0,338.6667c-0.3066,13.4933,0.6133,27.0533-0.4666,40.52
		l-1.2268,0.64c-1.0132-5.6801-0.6133-11.4534-0.6399-17.16c0.04-140.9867-0.04-281.9733,0.04-422.9468
		C2160.1868,1126.2063,2159.8401,1118.193,2159.9333,1110.1797z"/>
	<path fill="#192701" stroke="#192701" stroke-width="0.3" d="M1925.9734,1166.6863c0.6133,0.0667,1.8533,0.2267,2.48,0.3066
		c-7.9333,10.5601-13.2666,23.2001-14.08,36.4667c-1.2267,13.4266-0.3066,26.92-0.5734,40.3734c0,41.3333,0,82.6666,0,124
		c-0.0532,7.6799-0.3066,15.3866,0.6266,23.04c1.3867,14.3334,7.2401,28.4934,17.4135,38.8534
		c1.1066,1.2533,2.2932,2.4667,3.5601,3.64c17.1599,17.3333,44.6533,22.9332,67.4933,14.7332
		c25.7999-8.6533,44.6133-34.2666,45.0399-61.5066c0.1067-59.6001,0.0533-119.2134,0.0266-178.8134
		c0.0267-14.7999-5.7732-28.8667-14.0266-40.9333c0.4668-0.0667,1.3867-0.2133,1.8533-0.2933
		c6.3867,8.4268,10.5868,18.28,13.1733,28.5067c2.0269,14.3866,0.7202,28.96,1.0935,43.4401
		c0,51.3467-0.0266,102.6934,0.0134,154.0402c-2.2002,9.5065-4.5469,19.1865-9.8401,27.5333
		c-4.5601,8.16-11.5735,14.3999-18.2001,20.8267c-10.4933,6.8666-22.3334,11.6801-34.8534,13.08
		c-11.8667,0.0533-24.0266-1.1466-34.7999-6.4399c-19.2802-8.6934-33.5067-26.6934-38.7201-47.0668
		c-3.04-13.7866-1.4532-27.9733-1.8267-41.96c0-43.5599,0-87.1199,0-130.6799c0.0801-11.8134-0.7067-23.76,1.8667-35.3867
		C1916.2933,1183.2196,1920.5735,1174.5796,1925.9734,1166.6863z"/>
	<path fill="#F6F03F" stroke="#F6F03F" stroke-width="0.3" d="M1928.4534,1166.9929c12.2,1.3601,24.3333,3.2267,36.6001,4.0934
		c10.3066,2.0533,20.8132,0.64,31.2266,1.3734c-22.2666,2.48-44.5599-1.1067-66.6801-3.2667
		c-8.9332,11.2133-13.5199,25.6533-13.3599,39.9467c-0.0133,53.3334-0.0133,106.6801-0.0133,160.0267
		c0,12.5333-0.9735,25.5068,3.7732,37.4266c2.5735,8.3867,8.8534,14.92,11.8401,23.1334
		c-10.1733-10.36-16.0267-24.52-17.4135-38.8534c-0.0665-62.4668,0.04-124.9468-0.0532-187.4135
		C1915.1868,1190.193,1920.52,1177.553,1928.4534,1166.9929z"/>
	<path fill="#E7E43E" stroke="#E7E43E" stroke-width="0.3" d="M1996.9199,1171.1263c12.3867-1.0267,24.6934-2.6666,37.0134-4.28
		c8.2534,12.0667,14.0533,26.1333,14.0266,40.9333c0.0267,59.6,0.0801,119.2134-0.0266,178.8134
		c-0.4266,27.24-19.24,52.8533-45.0399,61.5066c-22.84,8.2001-50.3334,2.6001-67.4933-14.7332
		c5.1998,2.1466,9.7999,5.4399,14.5598,8.3999c19.8534,11.0934,45.7601,10.6533,65.0134-1.6
		c13.5601-8.2799,23.76-21.7733,28.3066-36.9733c3.36-11.4668,3.3066-23.5334,3.0533-35.3601
		c-0.0267-52.0267-0.0133-104.0533-0.0133-156.0667c-0.3601-15.2267-3.8-31.4133-14.3601-42.9734
		C2020.3334,1170.1263,2008.6801,1172.8862,1996.9199,1171.1263z"/>
	<path fill="#85C226" stroke="#85C226" stroke-width="0.3" d="M796.0667,1213.9263c18.1201-13.12,33.6934-29.3733,48.3066-46.24
		c6.72,6.4133,9.9333,15.4133,15.8398,22.48c8.48,11.9734,14.8,25.3467,21.8933,38.1733
		c52.3867,100.76,83.0934,211.2135,104.3734,322.3201c1.2533,7.8934,3.4534,15.6934,3.7733,23.7201
		c-14.9467-0.92-29.96-0.1466-44.92-0.4c-40.8933,0-81.7734,0-122.6667,0c-8.5599,0.1466-17.16-0.4534-25.68,0.5466
		c0.7867-31.1067,0.1201-62.24,0.3467-93.36c0-83.1068-0.0267-166.2267,0-249.3335
		C797.24,1225.8596,798.04,1219.6863,796.0667,1213.9263z"/>
	<path fill="#FFF500" stroke="#FFF500" stroke-width="0.3" d="M1929.6,1169.193c22.1201,2.16,44.4135,5.7467,66.6801,3.2667
		c-10.4133-0.7334-20.9199,0.6799-31.2266-1.3734c10.6133,0.2533,21.2399,0.0267,31.8665,0.04c11.7601,1.76,23.4135-1,35.04-2.3334
		c10.5601,11.5601,14,27.7468,14.3601,42.9734c0,52.0133-0.0134,104.04,0.0133,156.0667
		c0.2533,11.8267,0.3066,23.8933-3.0533,35.3601c-4.5466,15.2-14.7466,28.6934-28.3066,36.9733
		c-19.2533,12.2533-45.16,12.6934-65.0134,1.6c-4.7599-2.96-9.36-6.2533-14.5598-8.3999c-1.2668-1.1733-2.4535-2.3867-3.5601-3.64
		c-2.9867-8.2134-9.2666-14.7467-11.8401-23.1334c-4.7467-11.9199-3.7732-24.8933-3.7732-37.4268
		c0-53.3467,0-106.6934,0.0133-160.0266C1916.0801,1194.8463,1920.6667,1180.4063,1929.6,1169.193z"/>
	<path fill="#85C226" stroke="#85C226" stroke-width="0.3" d="M356,1178.2329c16.8667,18.92,36.4267,35.4133,57.7067,49.16
		c-0.84,22.3467-0.1466,44.7333-0.3733,67.1067c0.08,92.4667-0.1466,184.9333,0.12,277.3868
		c-16.0266,0.96-32.08,0.2266-48.12,0.4532c-38.2267,0-76.4533,0.0133-114.6667,0c-9.4933-0.0933-18.9867,0.3467-28.4667-0.3199
		c2.2667-18.6801,6.96-36.96,10.2133-55.48c3.96-17.04,7.5467-34.16,11.4933-51.1868
		c11.7067-44.7866,24.1467-89.4534,40.5333-132.7734c4.2533-12.9467,10.8267-25.08,13.8-38.4266
		c5.04-13.1866,10.7067-26.1733,17.28-38.6533c6.4533-10.0133,12.24-20.6666,16.0267-31.9867
		c6.28-13.3333,14.12-25.8533,21.5867-38.5466C354.32,1182.8196,355.2133,1180.5397,356,1178.2329z"/>
	<path fill="#E77843" stroke="#E77843" stroke-width="0.3" d="M1036.7467,1183.4063c6.52,9.4401,10.3734,20.3601,16.3334,30.1467
		c12.0133,22.1733,26.3467,42.9467,41.2,63.28c-0.8933,13.4266-0.2533,26.8799-0.4399,40.3333c0,75.1067,0.0133,150.2268,0,225.3335
		c-0.1067,9.8267,0.36,19.6666-0.3066,29.4933c-16.4934,0.7866-33.0267,0.1066-49.5334,0.3199
		c-15.9066-0.2267-31.8133,0.5468-47.6934-0.48c-1.3734-0.0667-2.6266,0.5601-3.8799,0.9867
		c-4.3467-28.0533-10.4534-55.8267-16.5733-83.5468c-7.76-33.9465-16.5334-67.6799-26.9067-100.9333
		c-0.6133-2.2266-1.36-4.6133-0.5334-6.8799c3.5334-10.88,6.72-21.9199,11.2534-32.4534
		c5.7333-10.1201,8.5067-21.52,13.1733-32.1201c2.5067-5.5732,4.32-11.3999,5.4933-17.3866
		c6.1333-16.7867,13.9467-32.92,21.5466-49.08C1011.1733,1227.5663,1022.8134,1204.7797,1036.7467,1183.4063z"/>
	<path fill="#B8DC7C" stroke="#B8DC7C" stroke-width="0.3" d="M1912.4934,1190.4729c0.2932,0.4934,0.8933,1.48,1.2,1.9734
		c-2.5734,11.6266-1.7866,23.5732-1.8667,35.3866c0,43.5599,0,87.12,0,130.6801c0.3734,13.9866-1.2134,28.1733,1.8267,41.96
		c-0.3333,0.5333-0.9733,1.5865-1.3066,2.1199c-2.3733-16.36-0.6799-32.9733-1.1866-49.4266
		c0.0133-41.7733,0-83.5599,0.0133-125.3334C1911.3867,1215.3796,1910.28,1202.8063,1912.4934,1190.4729z"/>
	<path fill="#B8DC7C" stroke="#B8DC7C" stroke-width="0.3" d="M2048.96,1195.0596c0.3066-0.48,0.9202-1.4133,1.2268-1.8933
		c0.8667,5.2667,1.3066,10.6001,1.3333,15.9468c-0.04,54.6798,0,109.3733-0.0132,164.0667
		c-0.0535,6.4534,0.8933,13.1466-1.4399,19.3601c-0.04-51.3469-0.0134-102.6935-0.0134-154.0402
		C2049.6802,1224.0197,2050.9868,1209.4463,2048.96,1195.0596z"/>
	<path fill="#E77843" stroke="#E77843" stroke-width="0.3" d="M1549.4934,1201.9663
		c20.6399,34.7866,37.4133,71.7733,52.4399,109.2933c8.9734,22.2667,16.4534,45.08,24.36,67.7333
		c17.2001,55.7734,31.1866,112.5068,42.0267,169.8535c1,6.2666,2.7467,12.4666,3.2666,18.7999c-0.3334,1.4-0.6667,2.8134-1,4.2401
		c-14.1732,1.0133-28.3999,0.1599-42.5867,0.4399c-39.5601-0.0134-79.1066,0-118.6666-0.0134
		c-9.4-0.0665-18.8134,0.3201-28.2001-0.2932c-0.6399-31.6133-0.0665-63.2401-0.2532-94.8534c0-41.3334-0.0134-82.6666,0-124.0001
		c-0.3467-15.2134,0.7732-30.4667-0.6667-45.6267c-0.1866-2.7333-0.3733-5.4666-0.5466-8.1602
		c12.1599-13.6666,24.0266-27.6,34.7732-42.4133C1527.4934,1239.5397,1538.64,1220.8063,1549.4934,1201.9663z"/>
	<path fill="#676706" stroke="#676706" stroke-width="0.3" d="M1913.8,1243.833c0.2667-13.4534-0.6533-26.9468,0.5734-40.3734
		c0.0933,62.4667-0.0133,124.9467,0.0532,187.4135c-0.9332-7.6534-0.6798-15.3601-0.6266-23.04
		C1913.8,1326.4996,1913.8,1285.1663,1913.8,1243.833z"/>
	<path fill="#B8DC7C" stroke="#B8DC7C" stroke-width="0.3" d="M792.48,1216.6997c1.1867-0.9333,2.36-1.88,3.5867-2.7734
		c-0.9733,5.0134-0.8133,10.1467-0.7867,15.24c0.1333,114.5067-0.1201,229.0134,0.1333,343.5201l0.04,1.3734l-1.4133-0.0668
		c-67.3333-0.4933-134.6933-0.0668-202.04-0.2134c-58.96,0.1201-117.92-0.2399-176.88,0.1866
		c0.64-38.04,0.0934-76.0933,0.28-114.1333c0-71.5599-0.0134-143.1067,0-214.6667c-0.0667-5.7068,0.4-11.4534-0.6533-17.0801
		c0.9333,0.6134,1.88,1.2267,2.8267,1.8534c-1.1334,9.0267-0.72,18.1466-0.7333,27.2267c-0.0133,97.7733-0.0133,195.5601,0,293.3335
		c-0.08,7.1733-0.1733,14.36,0.28,21.5333c32.5067,0.7466,65.0266,0.0933,97.5467,0.3066c74.6667,0,149.3334,0,224.0001,0
		c18.3066-0.2001,36.6133,0.4266,54.92-0.2799c0.6533-30.7334,0.0667-61.4934,0.2667-92.2268c0-80.4401,0-160.8933,0-241.3335
		C793.7333,1231.2329,794.7467,1223.7529,792.48,1216.6997z"/>
	<path fill="#001400" stroke="#001400" stroke-width="0.3" d="M796.0667,1213.9263c1.9733,5.76,1.1733,11.9333,1.2667,17.9067
		c-0.0267,83.1067,0,166.2266,0,249.3334c-0.2267,31.12,0.44,62.2533-0.3467,93.36c-0.3867-0.4666-1.1733-1.3733-1.5734-1.84
		c-0.2533-114.5067,0-229.0135-0.1333-343.5201C795.2534,1224.073,795.0934,1218.9397,796.0667,1213.9263z"/>
	<path fill="#85C226" stroke="#85C226" stroke-width="0.3" d="M559.9734,1277.793c81.3333,8.2933,166.5466-11.96,232.5066-61.0931
		c2.2667,7.0533,1.2534,14.5333,1.3734,21.7999c0,80.4401,0,160.8933,0,241.3335c-0.2001,30.7334,0.3866,61.4933-0.2667,92.2267
		c-18.3066,0.7065-36.6133,0.08-54.92,0.2799c-74.6667,0-149.3333,0-224,0c-32.52-0.2134-65.04,0.4399-97.5467-0.3066
		c-0.4533-7.1733-0.36-14.36-0.28-21.5333c-0.0134-97.7733-0.0134-195.5599,0-293.3335c0.0133-9.08-0.4-18.2001,0.7333-27.2267
		C460.5333,1256.5796,509.6933,1272.8997,559.9734,1277.793 M559.6,1357.6997c-2.9067,9.2266-1.6533,19.84,4.1467,27.7067
		c4.4399,6.64,11.7333,10.7736,19.3066,12.8533c-0.5333,0.3199-1.5867,0.96-2.12,1.2802
		c7.5867,1.5198,15.8134,1.2799,22.7467-2.4802c4.48-2.4399,10.1466-5.3467,10.6933-11.04c2.2-3.7733,4.0267-7.7999,5.3467-11.96
		c0.32,0.4934,0.9733,1.4934,1.2933,2c1.88-7.6133,1.2267-15.8933-2.1066-22.9866c-0.6934-1.4268-1.84-2.2134-3.4534-2.3734
		c-5.8-7.8667-14.8-13.7467-24.7733-14.0133C577.1067,1335.5663,563.8534,1344.913,559.6,1357.6997 M571.8934,1453.0464
		c-6.3467,7.08-8.4533,17.0134-7.3467,26.28c-1.7067,4.8667,1.2933,9.4133,3.9733,13.2534
		c5.92,8.3599,15.8934,13.7466,26.1867,13.7198c9.1467,0.6666,17.96-3.7198,24.4-9.9733c1.5601-1.2134,1.7067-3.2401,1.92-5.0267
		c4.4133-7.1066,5.9467-15.64,5.12-23.8932c1.1333,4.0798,0.8666,8.3464,1.12,12.5598c1.0133-8.5999,0.6133-19.1199-6.2534-25.3199
		l0.52,1.0801c-4.0267-4.5601-8.64-8.8934-14.4-11.1201C595.1867,1439.5264,580.1867,1443.0063,571.8934,1453.0464z"/>
	<path fill="#B8DC7C" stroke="#B8DC7C" stroke-width="0.3" d="M315.52,1255.4996c4.92-10.8667,10.2667-21.5466,16.0267-31.9867
		C327.76,1234.833,321.9733,1245.4863,315.52,1255.4996z"/>
	<path fill="#001600" stroke="#001600" stroke-width="0.3" d="M413.7067,1227.3929l1.04,0.6934
		c1.0533,5.6266,0.5867,11.3734,0.6533,17.08c-0.0133,71.5601,0,143.1067,0,214.6667c-0.1867,38.04,0.36,76.0933-0.28,114.1333
		l-1.36,0.4667c-0.0667-0.64-0.2267-1.9066-0.3067-2.5465c-0.2667-92.4535-0.04-184.9202-0.12-277.3868
		C413.56,1272.1263,412.8667,1249.7396,413.7067,1227.3929z"/>
	<path fill="#EE9B8D" stroke="#EE9B8D" stroke-width="0.3" d="M1093.8401,1317.1663c0.1866-13.4534-0.4534-26.9066,0.4399-40.3333
		c0.28,0.4266,0.8401,1.2666,1.1201,1.6934c-0.1067,76.8799-0.0267,153.76-0.0533,230.64c0.1866,21.6666-0.36,43.36,0.2933,65.0267
		l-0.8534-0.0668c-33.6801-0.9467-67.4133,0.2401-101.0667-0.5865l-1.2933-0.7201c1.2534-0.4266,2.5067-1.0533,3.88-0.9867
		c15.8799,1.0267,31.7867,0.2533,47.6934,0.48c16.5067-0.2134,33.04,0.4667,49.5333-0.3199
		c0.6667-9.8267,0.2001-19.6666,0.3066-29.4933C1093.8534,1467.3931,1093.8401,1392.2729,1093.8401,1317.1663z"/>
	<path fill="#360000" stroke="#360000" stroke-width="0.3" d="M1095.4,1278.5264c0.52,0.6133,1.5867,1.8533,2.12,2.48
		c-0.0667,97.3066,0.1733,194.6267-0.12,291.9467l-0.96,0.6801l-0.7999,0.5601c-0.6533-21.6667-0.1067-43.3601-0.2933-65.0267
		C1095.3734,1432.2864,1095.2933,1355.4063,1095.4,1278.5264z"/>
	<path fill="#E77843" stroke="#E77843" stroke-width="0.3" d="M1097.52,1281.0063c4.6533,5.1067,9.1067,10.3866,13.6667,15.6133
		c15.4399,17.8667,32.84,34.0533,51.6934,48.3066c35.6534,27.0134,78.5466,46.1733,123.6934,48.0267
		c48.4534,2.2134,95.92-15.7867,135.1602-43.3334c19.2399-13.0532,36.4666-28.7733,53.0665-44.9733
		c2.6001,7.9333,1.6001,16.3334,1.6666,24.52c0.0267,71.1066,0,142.2267,0.0134,213.3335c-0.1067,9.84,0.3333,19.6934-0.3066,29.52
		c-29.8267,0.7201-59.6801,0.0933-89.5067,0.2933c-89.3334,0-178.6666,0.0266-268,0c-7.0934,0.0801-14.24-0.4934-21.2667,0.6399
		C1097.6934,1475.6331,1097.4534,1378.313,1097.52,1281.0063z"/>
	<path fill="#B8DC7C" stroke="#B8DC7C" stroke-width="0.3" d="M223.6,1555.2997c16.8133-89.04,39.48-177.4532,74.64-261.1466
		c-2.9733,13.3467-9.5467,25.48-13.8,38.4266c-16.3867,43.3199-28.8267,87.9867-40.5333,132.7736
		c-3.9467,17.0266-7.5333,34.1466-11.4933,51.1866c-3.2533,18.52-7.9467,36.7999-10.2133,55.48
		c9.48,0.6666,18.9733,0.2267,28.4667,0.3199c38.2133,0.0134,76.44,0,114.6667,0c16.04-0.2267,32.0934,0.5067,48.12-0.4532
		c0.08,0.64,0.24,1.9066,0.3067,2.5465c-13.8533-1.4399-27.8533-0.2799-41.76-0.6533c-41.3333,0-82.6667,0-124,0
		c-9.44,0.1201-18.88-0.2799-28.3067,0.2802C221.7467,1567.9797,222.3067,1561.5531,223.6,1555.2997z"/>
	<path fill="#EE9B8D" stroke="#EE9B8D" stroke-width="0.3" d="M959.6667,1349.0063c5.3066-16.8267,11.8267-33.2534,18.6667-49.5067
		c-1.1733,5.9867-2.9867,11.8134-5.4933,17.3866C968.1733,1327.4863,965.4,1338.8862,959.6667,1349.0063z"/>
	<path fill="#5A1B06" stroke="#5A1B06" stroke-width="0.3" d="M1477.0933,1302.2596c0.8401-0.9733,1.7068-1.9333,2.5735-2.88
		c0.1733,2.6934,0.36,5.4268,0.5466,8.1602c-0.2935,88.4668-0.1466,176.92-0.0801,265.3867c-0.7332,0-2.2134-0.0132-2.9465-0.0132
		C1477.2268,1482.6997,1477.4135,1392.473,1477.0933,1302.2596z"/>
	<path fill="#EE9B8D" stroke="#EE9B8D" stroke-width="0.3" d="M1474.8,1304.6462c0.76-0.7999,1.52-1.6,2.2932-2.3866
		c0.3202,90.2134,0.1335,180.4401,0.0935,270.6534v1.08c-126.92-0.5601-253.8401,0.1466-380.7467-0.36l0.96-0.6801
		c7.0267-1.1333,14.1733-0.5599,21.2667-0.64c89.3333,0.0267,178.6666,0,268,0c29.8267-0.2,59.6799,0.4268,89.5066-0.2932
		c0.64-9.8267,0.2001-19.6801,0.3066-29.52c-0.0133-71.1067,0.0134-142.2268-0.0133-213.3335
		C1476.4001,1320.9796,1477.4001,1312.5796,1474.8,1304.6462z"/>
	<path fill="#EE9B8D" stroke="#EE9B8D" stroke-width="0.3" d="M1480.2134,1307.5397c1.4399,15.16,0.3201,30.4133,0.6667,45.6267
		c-0.0134,41.3335,0,82.6669,0,124.0001c0.1866,31.6133-0.3867,63.2401,0.2532,94.8534c9.3867,0.6133,18.8,0.2267,28.2001,0.2933
		c39.5601,0.0133,79.1066,0,118.6666,0.0133c14.1868-0.2799,28.4135,0.5734,42.5867-0.4399c0.3333-1.4268,0.6666-2.84,1-4.2401
		c0.4534,2.12,0.92,4.28,1.4268,6.4399l-0.8934-0.0532c-29.36-0.5601-58.7466-0.0801-88.12-0.24
		c-34.6133,0.1201-69.24-0.2533-103.8533,0.1866l-0.0134-1.0533C1480.0668,1484.4597,1479.9199,1396.0063,1480.2134,1307.5397z"/>
	<path fill="#B8DC7C" stroke="#B8DC7C" stroke-width="0.3" d="M1642.16,1347.3396c3.0801-8.3733,5.6666-16.96,9.5067-25.0266
		c-1.1733,8.5066-5.4399,16.0933-7.8801,24.24c-3.9465,12.4399-9.1466,24.5867-11.8932,37.36
		c1.1733,9.6134,5.6666,18.52,7.7733,27.9867c2.9199,12.4668,8.1599,24.4668,9.1066,37.3468c-4.48-15.4-8.2533-31-12.9867-46.3335
		c-1.7198-6.3999-4.2131-12.5865-5.48-19.0934C1633.3867,1371.4197,1638.1067,1359.4597,1642.16,1347.3396z"/>
	<path fill="#1F1A17" stroke="#1F1A17" stroke-width="0.3" d="M559.6,1357.6997c4.2534-12.7867,17.5067-22.1333,31.08-21.0134
		c9.9733,0.2667,18.9733,6.1467,24.7733,14.0134c4,7.08,5.24,15.3199,4.2667,23.36c-1.32,4.16-3.1467,8.1866-5.3467,11.96
		c-7.4667,9.2533-19.4933,14.1868-31.32,12.24c-7.5733-2.08-14.8666-6.2134-19.3066-12.8534
		C557.9467,1377.5397,556.6934,1366.9263,559.6,1357.6997z"/>
	<path fill="#90BB49" stroke="#90BB49" stroke-width="0.3" d="M615.4534,1350.6997c1.6133,0.1599,2.76,0.9467,3.4533,2.3733
		c3.3333,7.0934,3.9866,15.3734,2.1066,22.9867c-0.3199-0.5067-0.9733-1.5067-1.2933-2
		C620.6934,1366.0197,619.4534,1357.7797,615.4534,1350.6997z"/>
	<path fill="#91B94E" stroke="#91B94E" stroke-width="0.3" d="M583.0533,1398.2596c11.8267,1.9468,23.8533-2.9867,31.32-12.24
		c-0.5467,5.6932-6.2133,8.6-10.6933,11.0399c-6.9333,3.7601-15.16,4-22.7467,2.4802
		C581.4667,1399.2196,582.52,1398.5796,583.0533,1398.2596z"/>
	<path fill="#B8DC7C" stroke="#B8DC7C" stroke-width="0.3" d="M1987.1733,1453.9797c12.52-1.3999,24.3601-6.2134,34.8534-13.08
		c-1.8267,2.0265-3.7734,4.0399-6.2267,5.3199c-13,6.9199-27.96,10.3866-42.6801,8.9867
		C1977.8,1455.0198,1982.5067,1454.7664,1987.1733,1453.9797z"/>
	<path fill="#1F1A17" stroke="#1F1A17" stroke-width="0.3" d="M571.8934,1453.0464c8.2933-10.04,23.2933-13.52,35.24-8.4401
		c5.76,2.2267,10.3734,6.5601,14.4,11.1201c1.8667,3.7466,3.64,7.5732,4.6133,11.6801c0.8267,8.2532-0.7067,16.7866-5.12,23.8932
		c-6.7333,8.1333-16.9333,13.8934-27.76,12.8134c-13.8934-0.4934-25.3867-11.6801-28.72-24.7866
		C563.44,1470.0598,565.5467,1460.1263,571.8934,1453.0464z"/>
	<path fill="#B8DC7C" stroke="#B8DC7C" stroke-width="0.3" d="M621.0134,1454.6464c6.8666,6.2001,7.2667,16.7201,6.2534,25.3199
		c-0.2534-4.2134,0.0133-8.48-1.12-12.5598c-0.9734-4.1068-2.7467-7.9335-4.6133-11.6801L621.0134,1454.6464z"/>
	<path fill="#8FB945" stroke="#8FB945" stroke-width="0.3" d="M564.5467,1479.3264c3.3333,13.1066,14.8267,24.2932,28.72,24.7866
		c10.8267,1.0801,21.0266-4.6801,27.76-12.8134c-0.2134,1.7866-0.36,3.8134-1.92,5.0267c-6.4399,6.2534-15.2533,10.6399-24.4,9.9733
		c-10.2933,0.0267-20.2667-5.36-26.1867-13.7198C565.84,1488.7397,562.84,1484.1931,564.5467,1479.3264z"/>
	<path fill="#050C00" stroke="#050C00" stroke-width="0.3" d="M219.6933,1574.0598c9.4267-0.5601,18.8667-0.16,28.3067-0.2802
		c41.3333,0,82.6667,0,124,0c13.9067,0.3734,27.9067-0.7866,41.76,0.6533c-1.6667,1.2267-3.7333,1.4-5.7466,1.4
		c-56.4533-0.1066-112.8933-0.0133-169.3467-0.04c-5.68-0.1199-11.4,0.48-17.04-0.2932
		C221.1467,1575.1396,220.1867,1574.4197,219.6933,1574.0598z"/>
	<path fill="#050C00" stroke="#050C00" stroke-width="0.3" d="M415.12,1573.9663c58.96-0.4265,117.92-0.0665,176.88-0.1866
		c67.3467,0.1466,134.7067-0.2799,202.04,0.2134l1.0132,1.0801c-12.0533,1.5865-24.2667,0.3199-36.3866,0.7198
		c-108.4401,0.0134-216.8933,0-325.3334,0c-6.32,0.0134-12.6667,0.3867-18.9467-0.52L415.12,1573.9663z"/>
	<path fill="#050C00" stroke="#050C00" stroke-width="0.3" d="M796.9867,1574.5264c8.52-1,17.12-0.4,25.68-0.5466
		c40.8933,0,81.7734,0,122.6667,0c14.96,0.2534,29.9733-0.52,44.92,0.4l0.8533,0.9867
		c-13.8933,0.9866-27.8533,0.1466-41.7733,0.4399c-48.9067,0.0133-97.8134-0.0933-146.72,0.0533
		C800.64,1575.873,798.64,1575.6331,796.9867,1574.5264z"/>
	<path fill="#1B0100" stroke="#1B0100" stroke-width="0.3" d="M993.72,1573.5398c33.6536,0.8267,67.3867-0.3601,101.0667,0.5865
		c-1.7866,2.5333-5.48,1.3734-8.1067,1.7734c-31.08-0.4268-62.1866,0.3999-93.2533-0.3867L993.72,1573.5398z"/>
	<path fill="#1A0100" stroke="#1A0100" stroke-width="0.3" d="M1096.4401,1573.6331c126.9066,0.5066,253.8267-0.2001,380.7467,0.36
		l0.0665,1.6c-65.7466,0.5333-131.5065,0.0133-197.2532,0.2c-55.5599,0-111.1067,0-166.6666,0
		C1107.76,1575.2064,1101.04,1577.6464,1096.4401,1573.6331z"/>
	<path fill="#1A0100" stroke="#1A0100" stroke-width="0.3" d="M1480.1467,1573.9797c34.6133-0.4399,69.24-0.0667,103.8533-0.1868
		c29.3734,0.16,58.76-0.3199,88.12,0.2401c-1.3334,2.3999-4.5333,1.5333-6.7466,1.8667
		c-61.7467-0.3867-123.52,0.2799-185.2534-0.3467L1480.1467,1573.9797z"/>
	<path fill="#050C00" stroke="#050C00" stroke-width="0.3" d="M1675.4266,1574.2997c12.1201-1.2001,24.3867-0.1866,36.5734-0.52
		c21.64,0.2935,43.3467-0.5865,64.96,0.4401l0.8267,1.1067c-25,1.0667-50.0798,0.1599-75.1199,0.4666
		c-9.4667-0.3066-19.0267,0.8134-28.4001-0.7999L1675.4266,1574.2997z"/>
	<path fill="#050C00" stroke="#050C00" stroke-width="0.3" d="M1780.3867,1574.2465c14.9333-1.0801,29.9734-0.1733,44.9467-0.4668
		c97.3334,0,194.6666,0,292.0001,0c14.3333,0.3199,28.72-0.6533,43.0132,0.5468c-1.52,1.52-3.72,1.4133-5.6533,1.5066
		c-117.7866-0.1066-235.5734,0.0134-353.3733-0.0533c-7.28-0.08-14.5867,0.4401-21.8134-0.4266L1780.3867,1574.2465z"/>
</g>
</svg>
