<?xml version="1.0" encoding="utf-8"?>

<!DOCTYPE svg PUBLIC "-//W3C//DTD SVG 1.1//EN" "http://www.w3.org/Graphics/SVG/1.1/DTD/svg11.dtd">
<svg version="1.1" id="Layer_1" xmlns="http://www.w3.org/2000/svg" xmlns:xlink="http://www.w3.org/1999/xlink" x="0px" y="0px"
	 viewBox="183.66 6 1552.6329 627.4069" enable-background="new 183.66 6 1552.6329 627.4069" xml:space="preserve">
<g>
	<path fill="#0C0803" stroke="#0C0803" stroke-width="0.4" d="M348.04,29.03c4.49-5.7,14.22-5.31,18.24,0.71
		c3.74,4.92,2.34,12.08-2.1,16.06c3.62,8.43,5.43,17.47,7.48,26.38c-2.36,1.39-5.22,2.95-5.62,5.96c-0.91,4.32,3.68,8.54,7.9,7.31
		c3.39-0.79,5.82-4.69,4.66-8.04c-0.73-2.68-3.38-3.98-5.43-5.52c4.75-8.62,12.65-14.73,20.21-20.74
		c-3.09-6.37,0.68-14.84,7.67-16.39c7-2.03,14.75,3.93,14.43,11.24c0.26,6.3-5.33,11.46-11.43,11.74
		c-2.26,13.94-2.47,28.12-2.98,42.21c10.84,0.05,21.68-0.04,32.52,0.02c-8.59,9.31-17.42,18.39-26.04,27.66
		c-1.38,1.04-1.18,2.72-0.68,4.16c8.2,27.41,16.64,54.76,24.13,82.38c1.03,2.91,0.06,5.88-0.87,8.67
		c8.41,7.64,13.69,18.68,13.68,30.12c6.83,64.09,13.79,128.18,20.69,192.28c4.03,37.29,8.01,74.59,12.07,111.89
		c0.58,7.31,3.02,14.26,4.95,21.29c2.68,9.52,5.29,19.05,8.05,28.55c-35.87,2.3-71.71,5.05-107.58,7.41c0-0.84,0-2.53,0-3.37
		c-16.72,0.15-33.45-0.06-50.18,0.09c0.05,0.82,0.15,2.46,0.2,3.27c-33.88-2.36-67.74-5.06-101.62-7.43
		c4.81-18.34,9.67-36.68,14.62-54.99c1.91-4.22,1.8-8.9,2.44-13.39c9.32-86.78,18.72-173.55,28.02-260.34
		c1.17-10.51,2.38-21.03,3.26-31.58c0.62-6,3.82-11.21,6.24-16.54c-1.26-4.1-3.2-8.01-3.96-12.25c-0.08-2.25,0.7-4.42,1.22-6.58
		c7.41-26.66,15.49-53.13,23.41-79.63c0.7-3.06-0.32-6.23-0.87-9.25c-6.79-7.67-14.07-14.92-21.02-22.47
		c9.65,0.1,19.3-0.02,28.96,0.07c-0.49-14.07-0.92-28.17-2.82-42.13c-4.65-0.58-9.39-3.1-10.91-7.82
		c-2.76-6.49,2.04-14.62,9.01-15.49c5.69-1.04,11.7,2.87,13.05,8.49c0.79,2.71,0.1,5.51-0.62,8.15
		c7.56,5.97,15.44,12.08,20.11,20.71c-2.21,1.66-5.12,3.2-5.55,6.23c-0.98,4.49,4,8.81,8.29,7.19c3.54-1,5.52-5.31,3.97-8.64
		c-0.9-2.26-3.29-3.31-5.21-4.56c2.21-8.84,3.89-17.88,7.51-26.28C344.88,41.62,343.66,33.88,348.04,29.03 M355.29,32.24
		c-3.61,1.05-4.03,6.55-0.73,8.25c2.76,2.09,6.72-0.53,6.95-3.67C361.72,33.68,358.27,30.96,355.29,32.24 M307.35,42.16
		c-3.1,1.86-2.58,6.91,0.81,8.1c3.24,1.46,7.04-1.75,6.09-5.18C313.91,41.9,309.87,40.51,307.35,42.16 M401.4,42.22
		c-2.5,1.43-2.87,5.24-0.65,7.09c2.6,2.77,8.06,0.62,7.69-3.31C408.72,42.45,404.19,40.18,401.4,42.22 M356.36,47.34
		c-2.74,6.91-4.66,14.13-6.28,21.38c2.28,2.67,4.54,5.72,4.65,9.38c0.76,6.75-4.51,13.32-11.15,14.37
		C336.03,94,328.15,87.68,327.92,80c-0.4-3.62,1.68-6.74,2.89-9.97c-3.92-4.78-8.81-8.71-13.76-12.38c1.49,14,2.54,28.08,2.43,42.17
		c24.84,0.25,49.69,0.04,74.54,0.1c0.44-14.11,0.94-28.25,2.77-42.26c-5.03,3.59-9.92,7.57-13.79,12.42
		c1.14,3.21,3.23,6.28,2.85,9.84c-0.29,6.13-5.18,11.67-11.29,12.56C367.03,93.9,359.2,87.7,359.02,80
		c-0.62-4.35,2.16-7.88,4.38-11.29c-1.05-7.38-3.28-14.77-6.34-21.59L356.36,47.34 M301.03,107.27c0.51,0.75,1.03,1.51,1.55,2.26
		c3.17,3.45,6.32,6.94,9.67,10.23c1.16,1.36,3.02,1.47,4.68,1.54c12.44,0.16,24.88-0.14,37.31-0.04c10.28,0.09,20.55,0.1,30.83-0.02
		c5,0.07,10,0.19,15.01,0.02c1.67-0.17,3.64,0.01,4.93-1.31c3.7-3.53,7.14-7.35,10.37-11.33c0.53-0.43,1.07-0.87,1.61-1.31
		C378.34,107.26,339.68,107.31,301.03,107.27 M313.2,128.17c-0.15,1.78-0.24,3.58-0.76,5.3c-7.95,26.5-16.01,52.97-23.43,79.63
		c-0.36,1.8-1.38,3.67-0.61,5.5c3.26,9.76,7.15,19.32,11.31,28.73c-0.32-6.69-1.15-13.57,0.35-20.16c0.32-1.95,2.77-2.58,4.03-1.08
		c0.68,3.51-1.66,7.8,1.14,10.73c2.26,1.88,5.6,3.04,8.49,2.1c2.18-1.94,2.89-4.94,3.62-7.65c2.76-12.26,2.72-25.29,8.12-36.85
		c1.98-3.68,1.38-8,2.17-11.97c1.97-13.59,5.73-27.53,14.41-38.45c4.61-5.8,12.03-10.36,19.68-8.75
		c7.85,1.62,13.52,8.05,17.41,14.67c6.98,12.17,9.94,26.2,11.11,40.05c0.21,2.59,1.86,4.74,2.71,7.14
		c4.3,11.12,4.41,23.23,7.1,34.74c0.72,2.7,1.51,5.8,4.06,7.38c3.19,0.19,6.91-0.72,8.8-3.52c1.24-3.16-0.03-6.61-0.02-9.88
		c1.33-0.15,3.1-1.21,3.9,0.47c1.15,2.56,1.12,5.42,1.48,8.16c1.99-5.18,4.01-10.35,5.74-15.63c0.74-1.8-0.06-3.67-0.46-5.44
		c-6.9-24.84-14.4-49.5-21.78-74.2c-1.03-3.61-2.62-7.17-2.41-11C370.64,128.36,341.92,128.36,313.2,128.17 M351.99,140.95
		c-7.06,4.06-11.02,11.6-14.26,18.77c4.82-1.25,10.21-2.89,14.98-0.56c2.65,1.12,3.81,3.9,5.15,6.23
		c-0.08,6.62-0.15,13.27,0.21,19.89c0.87-0.37,1.43-0.92,1.67-1.63c0.44-0.26,1.32-0.76,1.76-1.02c0.56-5.54-0.26-11.14,0.4-16.67
		c0.41-3.23,2.64-6.18,5.75-7.22c3.61-1.4,7.52-0.5,11.19,0.1c-2.91-6.74-6.8-13.52-13.16-17.54
		C361.63,138.64,356.15,138.45,351.99,140.95 M337.02,161.42c-2.69,7.88-4.73,16.01-5.5,24.31c2.93-1.85,5.79-3.94,9.13-5.01
		c2.97-1.05,6.16-0.7,9.24-0.81c1.78,0.8,3.56,1.57,5.35,2.37c-0.17-5.57,0.37-11.19-0.49-16.72c-0.34-3.61-4.5-5.3-7.72-5
		C343.65,160.33,340.34,162.42,337.02,161.42 M364.24,167c-0.39,4.67-0.05,9.37-0.23,14.06c7.47-2.87,15.47-0.21,21.49,4.55
		c-0.93-8.01-2.36-16.12-5.52-23.57c-3.37-1.5-7.27-1.83-10.87-1.14C366.26,161.49,364.48,164.24,364.24,167 M329.24,196.27
		c-5.35,11.88-5.02,25.22-8.22,37.67c-1,3.53-2.56,7.57-6.21,9.08c-3.86,1.44-7.89-0.45-11.44-1.9c0.57,4.1,0.69,8.7,3.51,12.01
		c2.64,2.9,7.22,1.94,10.14-0.02c5.82-3.89,8.74-10.54,11.37-16.76c0.68-1.9,3.34-1.41,3.82,0.4c7.55,15.6,14.8,31.42,23.91,46.2
		c1.29-1.85,3.42-0.99,5-0.11c9.33-14.82,16.45-30.87,24.17-46.54c0.68-1.97,3.52-1.25,3.82,0.61c2.46,6,5.42,12.27,10.93,16.06
		c2.77,1.86,6.87,3,9.73,0.72c3.42-3.23,3.51-8.28,4.14-12.63c-3.8,1.73-8.42,3.67-12.44,1.52c-4.45-3.03-5.38-8.82-6.39-13.71
		c-2.03-10.75-2.42-22-6.88-32.14c-2.75-6.61-9.1-11.82-16.26-12.67c-4.92-0.62-8.94,2.67-12.3,5.77c-1.56,1.34-2.8-0.78-3.93-1.59
		c-3.02-3.03-7.36-4.91-11.67-4.03C337.59,185.62,331.86,190.18,329.24,196.27 M427.35,230.42c-8.55,22.16-18.67,43.74-30.73,64.21
		c-0.88,1.31-2,2.64-1.89,4.33c-0.15,7.68-0.05,15.37-0.08,23.05c-0.42,1.83,0.76,3.33,2.66,3.29c0.25,4.63,0.24,9.27,0.25,13.91
		c13.79-16.24,26.29-33.53,39.18-50.48c1.4-2.03,3.53-4.05,3.04-6.77c-0.99-11.19-2.52-22.34-3.42-33.54
		C435.44,241.69,432.46,235,427.35,230.42 M285.68,248.42c-0.93,12.59-2.7,25.09-3.87,37.65c-0.25,1.41,0.86,2.53,1.52,3.66
		c7.78,10.5,15.74,20.88,23.69,31.26c3.84,4.82,7.4,9.86,11.64,14.35c0.1-3.52,0.11-7.04,0.16-10.55c2.84-0.01,5.69-0.05,8.54,0
		c0.04-4.55,0.48-9.16-0.2-13.67c-1.76-3.22-4.31-5.91-6.28-8.98c-13.15-19.57-23.06-41.07-32.25-62.71
		C287.04,242.18,286.04,245.27,285.68,248.42 M330.37,242.71c-3.32,6.4-7.53,13.33-14.76,15.73c-3.99,1.47-8.32,0.51-11.76-1.82
		c9.04,18.96,18.63,38.04,32.45,54.04c4.22,4.61,8.9,9.21,14.88,11.45c1.85,0.94,3.38-0.9,5-1.51c1.66,0.27,2.97,2.47,4.74,1.64
		c10.91-4.36,18-14.47,24.62-23.68c8.47-12.42,15.37-25.81,21.9-39.33c-10.07,0.52-16.75-8.43-20.55-16.6
		c-5.12,10.84-10.4,21.61-16.08,32.18c-2.72,4.84-5.41,9.77-9.08,13.99c-2.06-0.13-4.29,0.47-6.24-0.29
		c-2.34-2.09-3.88-4.88-5.51-7.51C342.75,268.6,336.55,255.65,330.37,242.71 M280.68,298.62c-1.31,13.4-2.49,26.81-3.84,40.2
		c-0.78,11.64-2.46,23.25-2.52,34.91c1.98,3.27,5.46,5.26,8.46,7.5c15.72,10.5,32.56,19.17,49.37,27.77c2.01-9.22,3.4-18.58,3.99-28
		c0.2-4.99,0.14-10.08-1.16-14.92c-1.26-4.59-5.79-6.95-8.64-10.44c-12.82-14.31-24.35-29.72-36.05-44.95
		C287.07,306.69,284.45,302.16,280.68,298.62 M392.33,356.33c-2.31,2.66-5.35,4.69-7.24,7.71c-1.86,4.03-1.8,8.61-1.88,12.96
		c-0.15,10.76,1.8,21.39,3.82,31.91c14.76-7.18,29.23-15.01,43.21-23.62c5.17-3.46,10.85-6.52,14.83-11.41
		c0.33-3.29-0.37-6.56-0.53-9.83c-1.75-21.86-3.69-43.71-6.08-65.51C423.11,317.8,408.91,338.05,392.33,356.33 M371.87,324.71
		c5.27,0.03,10.54,0.02,15.82,0.04c-0.08-5.59,0-11.18,0.01-16.77C382.84,313.95,377.58,319.56,371.87,324.71 M334.18,324.68
		c2.29,0.04,4.58,0.08,6.87,0.08c-2.06-1.82-4.18-3.59-6.3-5.34C334.5,321.16,334.32,322.92,334.18,324.68 M324.01,329.73
		c0.08,3.75-0.07,7.5,0.07,11.25c-0.13,1.9,1.59,3.06,2.65,4.4c1.97,2.64,4.38,4.92,6.45,7.49l0.79-0.03
		c4.4,4.79,7.77,10.63,13.63,13.87c3.09,2.71,5.95,5.69,8.55,8.89c1.32,2.51,2.54,5.07,3.76,7.64c1.62-2.58,3.48-5,5.09-7.59
		c2.06-1.1,3.69-2.91,5.16-4.71c2.66-1.59,5.22-3.36,7.58-5.38l-0.43-0.69c1.17-1.08,1.81-3.31,1.31-4.81
		c2.66-2.37,5.09-5,7.39-7.71c2.82-2.33,5.68-5.02,7.18-8.4c0.6-4.7,0.14-9.46,0.09-14.18c-7.56-0.16-15.12-0.18-22.68,0
		c-0.03,7.53-0.56,15.11,0.36,22.61l-0.68,0.01l-0.02,0.67c-0.2-7.72,0.16-15.44-0.33-23.15c-7.25-0.41-14.52-0.32-21.78-0.09
		c0.04,7.68,0.66,15.41-0.44,23.05l-0.66-0.02c0.26-7.71,0.05-15.43,0.12-23.14C339.45,329.71,331.73,329.68,324.01,329.73
		 M342.96,369.49c0.53,9.34-0.21,18.68-1.35,27.95c4.04-0.1,8.63-0.11,11.77-3.06c2.57-2.39,2.83-6.34,1.72-9.5
		C352.96,378.55,348.22,373.43,342.96,369.49 M362.67,389.6c-1.11,3.24-0.61,7.29,2.18,9.54c3.75,3.08,8.93,2.68,13.48,2.7
		c-1.16-9.61-2.54-19.22-2.25-28.93C370.4,377.28,364.89,382.59,362.67,389.6 M440.79,386.78c-14.73,10.06-30.68,18.1-46.38,26.5
		c0.06,18.66-0.12,37.31,0,55.97c0,1.01-0.01,2.02,0,3.04c-0.23,29.44-0.26,58.89-0.15,88.33c5.45,1.59,11.26,1.37,16.61,3.36
		c2.79,0.84,5.95,2.01,8.74,0.51c3.1-1.35,5.65-4.68,9.37-3.88c5.74,0.91,10.95,5.05,16.99,3.79c3.09-1.09,5.32-3.67,8.03-5.41
		c4.49-3.31,9.83-5.1,14.62-7.88c-0.12-6.09-1.18-12.11-1.75-18.17c-5.43-51.34-11.14-102.65-16.5-154
		C447.35,381.76,444.2,384.44,440.79,386.78 M271.55,381.71c-6.15,57.01-12.5,114.01-18.33,171.05c4.56,2.27,9.09,4.71,12.99,8.03
		c2.07,1.59,4.08,3.8,6.89,3.85c5.98,0.37,10.88-4.63,16.88-4.03c3.45,1.27,6.01,5.05,10.04,4.62c4.06-0.72,7.81-2.72,11.98-2.97
		c5.53-0.46,10.61-2.77,15.74-4.7c0.18-46.53-0.08-93.07-0.04-139.6c-0.17-1.48,0.38-3.63-1.51-4.13
		C307.43,404.12,288.46,394.49,271.55,381.71 M357.23,397.09c-1.3,0.73-1.29,1.42,0.04,2.04
		C358.54,398.39,358.53,397.71,357.23,397.09 M340.16,403.82c-0.09,1.35-0.17,2.7-0.24,4.06c-2.04,3.66-0.65,9.54-5.08,11.4
		c-0.35,4.56-0.23,9.15-0.23,13.73c0.04,33.33,0.08,66.66,0.09,99.99c0.23,23.68-0.22,47.38,0.48,71.06
		c11.71,0.11,23.45,0.53,35.13-0.23c4.09,0.61,8.24,0.36,12.33-0.02c-0.22-8.54,0.99-17.02,0.97-25.55
		c0.66-7.13,0.44-14.32,1.35-21.41c0.54,0.11,1.63,0.32,2.17,0.4301c0.41-39.42,0.11-78.85,0.31-118.28
		c0.03-3.12-0.06-6.24-0.43-9.33c0.79-4.15,0.44-8.39,0.24-12.57c-1.66,0.61-3.33,1.21-5,1.79c-1.05-4.08-2.04-8.17-3.02-12.26
		c-4.28-0.03-8.76,0.56-12.83-1.08c-2.38-0.9-4.74-2.13-7.35-1.96C352.75,403.63,346.45,403.45,340.16,403.82z"/>
	<path fill="#B29737" stroke="#B29737" stroke-width="0.4" d="M355.29,32.24c2.98-1.28,6.43,1.44,6.22,4.58
		c-0.23,3.14-4.19,5.76-6.95,3.67C351.26,38.79,351.68,33.29,355.29,32.24z"/>
	<path fill="#B19631" stroke="#B19631" stroke-width="0.4" d="M307.35,42.16c2.52-1.65,6.56-0.26,6.9,2.92
		c0.95,3.43-2.85,6.64-6.09,5.18C304.77,49.07,304.25,44.02,307.35,42.16z"/>
	<path fill="#B19735" stroke="#B19735" stroke-width="0.4" d="M401.4,42.22c2.79-2.04,7.32,0.23,7.04,3.78
		c0.37,3.93-5.09,6.08-7.69,3.31C398.53,47.46,398.9,43.65,401.4,42.22z"/>
	<path fill="#B49734" stroke="#B49734" stroke-width="0.4" d="M356.36,47.34l0.7-0.22c3.06,6.82,5.29,14.21,6.34,21.59
		c-2.22,3.41-5,6.94-4.38,11.29c0.18,7.7,8.01,13.9,15.54,12.48c6.11-0.89,11-6.43,11.29-12.56c0.38-3.56-1.71-6.63-2.85-9.84
		c3.87-4.85,8.76-8.83,13.79-12.42c-1.83,14.01-2.33,28.15-2.77,42.26c-24.85-0.06-49.7,0.15-74.54-0.1
		c0.11-14.09-0.94-28.17-2.43-42.17c4.95,3.67,9.84,7.6,13.76,12.38c-1.21,3.23-3.29,6.35-2.89,9.97c0.23,7.68,8.11,14,15.66,12.47
		c6.64-1.05,11.91-7.62,11.15-14.37c-0.11-3.66-2.37-6.71-4.65-9.38C351.7,61.47,353.62,54.25,356.36,47.34z"/>
	<path fill="#C99E68" stroke="#C99E68" stroke-width="0.4" d="M301.03,107.27c38.65,0.04,77.31-0.01,115.96,0.04
		c-0.54,0.44-1.08,0.88-1.61,1.31c-2.76-0.48-5.55-0.87-8.35-0.92c-29.68,0.2-59.36,0.06-89.03,0.03c-5.15,0.18-10.8-1.12-15.42,1.8
		C302.06,108.78,301.54,108.02,301.03,107.27z"/>
	<path fill="#7B601B" stroke="#7B601B" stroke-width="0.4" d="M302.58,109.53c4.62-2.92,10.27-1.62,15.42-1.8
		c29.67,0.03,59.35,0.17,89.03-0.03c2.8,0.05,5.59,0.44,8.35,0.92c-3.23,3.98-6.67,7.8-10.37,11.33c-1.29,1.32-3.26,1.14-4.93,1.31
		c-5.01,0.17-10.01,0.05-15.01-0.02c-0.12-2.55-0.19-5.1-0.5-7.63l-0.24-0.74c-2.86-1.25-5.96-1-8.87-0.11
		c-1.08-0.32-2.16-0.64-3.24-0.91c-2.32,0.22-4.62,0.56-6.94,0.73c-0.88,0.03-1.75,0.04-2.62,0.01c-2.61-0.21-5.44-1.36-7.89,0.09
		c-0.32,1.43-0.47,2.9-0.6,4.36c-0.03,1.41,0.03,2.81,0.07,4.22c-12.43-0.1-24.87,0.2-37.31,0.04c-1.66-0.07-3.52-0.18-4.68-1.54
		C308.9,116.47,305.75,112.98,302.58,109.53 M314.43,111.41c-2.62,1.03-3.63,4.77-1.72,6.91c2.23,3.17,8.13,0.56,7.27-3.26
		C320.09,112.28,316.8,110.86,314.43,111.41 M343.88,114.15c-1.21,3.08,1.88,4.93,4.14,6.15c1.76-1.36,4.54-2.49,3.94-5.24
		C352.06,110.7,344.81,109.83,343.88,114.15 M400.36,111.39c-1.7,0.39-3.45,1.76-3.25,3.68c-0.8,3.48,3.96,6.07,6.56,3.74
		C407.34,116.59,404.53,110.04,400.36,111.39 M322.43,114.43c-1.22,3.2,1.97,6.41,5.17,5.14c3.66-0.65,3.06-4.85,2.5-7.52
		C327.5,112.08,322.88,110.62,322.43,114.43 M334.39,112.3c-2.29,1.57-1.21,5.19,0.47,6.85c2.96,2.36,8.11-1.76,6.24-5.17
		C340.04,111.36,336.61,111.16,334.39,112.3 M388.34,112.21c-2.18,1.03-2.47,4.58-0.67,6.13c2.54,2.66,8.26-0.5,6.49-4.17
		C393.75,111.59,390.29,111.27,388.34,112.21z"/>
	<path fill="#F19308" stroke="#F19308" stroke-width="0.4" d="M314.43,111.41c2.37-0.55,5.66,0.87,5.55,3.65
		c0.86,3.82-5.04,6.43-7.27,3.26C310.8,116.18,311.81,112.44,314.43,111.41z"/>
	<path fill="#FBED07" stroke="#FBED07" stroke-width="0.4" d="M343.88,114.15c0.93-4.32,8.18-3.45,8.08,0.91
		c0.6,2.75-2.18,3.88-3.94,5.24C345.76,119.08,342.67,117.23,343.88,114.15z"/>
	<path fill="#DEDC04" stroke="#DEDC04" stroke-width="0.4" d="M400.36,111.39c4.17-1.35,6.98,5.2,3.31,7.42
		c-2.6,2.33-7.36-0.26-6.56-3.74C396.91,113.15,398.66,111.78,400.36,111.39z"/>
	<path fill="#D10F4C" stroke="#D10F4C" stroke-width="0.4" d="M322.43,114.43c0.45-3.81,5.07-2.35,7.67-2.38
		c0.56,2.67,1.16,6.87-2.5,7.52C324.4,120.84,321.21,117.63,322.43,114.43z"/>
	<path fill="#B91722" stroke="#B91722" stroke-width="0.4" d="M334.39,112.3c2.22-1.14,5.65-0.94,6.71,1.68
		c1.87,3.41-3.28,7.53-6.24,5.17C333.18,117.49,332.1,113.87,334.39,112.3z"/>
	<path fill="#08933E" stroke="#08933E" stroke-width="0.4" d="M354.77,112.68c2.45-1.45,5.28-0.3,7.89-0.09
		c-0.74,2.19,0.07,5.65-2.41,6.78c-2.36,1.12-4.26-1.22-6.08-2.33C354.3,115.58,354.45,114.11,354.77,112.68z"/>
	<path fill="#33277F" stroke="#33277F" stroke-width="0.4" d="M365.28,112.58c2.32-0.17,4.62-0.51,6.94-0.73
		c0.23,1.63,0.53,3.26,0.52,4.91c-0.36,2.61-3.81,3.81-5.9,2.45C365.69,117.2,365.68,114.8,365.28,112.58z"/>
	<path fill="#6C6432" stroke="#6C6432" stroke-width="0.4" d="M372.22,111.85c1.08,0.27,2.16,0.59,3.24,0.91
		c0.63,2.73,0.86,6.81,4.54,6.95c3.31-0.48,3.52-4.31,4.33-6.84l0.24,0.74c0.31,2.53,0.38,5.08,0.5,7.63
		c-10.28,0.12-20.55,0.11-30.83,0.02c-0.04-1.41-0.1-2.81-0.07-4.22c1.82,1.11,3.72,3.45,6.08,2.33c2.48-1.13,1.67-4.59,2.41-6.78
		c0.87,0.03,1.74,0.02,2.62-0.01c0.4,2.22,0.41,4.62,1.56,6.63c2.09,1.36,5.54,0.16,5.9-2.45
		C372.75,115.11,372.45,113.48,372.22,111.85z"/>
	<path fill="#189F96" stroke="#189F96" stroke-width="0.4" d="M375.46,112.76c2.91-0.89,6.01-1.14,8.87,0.11
		c-0.81,2.53-1.02,6.36-4.33,6.84C376.32,119.57,376.09,115.49,375.46,112.76z"/>
	<path fill="#E3322D" stroke="#E3322D" stroke-width="0.4" d="M388.34,112.21c1.95-0.94,5.41-0.62,5.82,1.96
		c1.77,3.67-3.95,6.83-6.49,4.17C385.87,116.79,386.16,113.24,388.34,112.21z"/>
	<path fill="#FFFFFE" stroke="#FFFFFE" stroke-width="0.4" d="M313.2,128.17c28.72,0.19,57.44,0.19,86.16,0.02
		c-0.21,3.83,1.38,7.39,2.41,11c7.38,24.7,14.88,49.36,21.78,74.2c0.4,1.77,1.2,3.64,0.46,5.44c-1.73,5.28-3.75,10.45-5.74,15.63
		c-0.36-2.74-0.33-5.6-1.48-8.16c-0.8-1.68-2.57-0.62-3.9-0.47c-0.01,3.27,1.26,6.72,0.02,9.88c-1.89,2.8-5.61,3.71-8.8,3.52
		c-2.55-1.58-3.34-4.68-4.06-7.38c-2.69-11.51-2.8-23.62-7.1-34.74c-0.85-2.4-2.5-4.55-2.71-7.14
		c-1.17-13.85-4.13-27.88-11.11-40.05c-3.89-6.62-9.56-13.05-17.41-14.67c-7.65-1.61-15.07,2.95-19.68,8.75
		c-8.68,10.92-12.44,24.86-14.41,38.45c-0.79,3.97-0.19,8.29-2.17,11.97c-5.4,11.56-5.36,24.59-8.12,36.85
		c-0.73,2.71-1.44,5.71-3.62,7.65c-2.89,0.94-6.23-0.22-8.49-2.1c-2.8-2.93-0.46-7.22-1.14-10.73c-1.26-1.5-3.71-0.87-4.03,1.08
		c-1.5,6.59-0.67,13.47-0.35,20.16c-4.16-9.41-8.05-18.97-11.31-28.73c-0.77-1.83,0.25-3.7,0.61-5.5
		c7.42-26.66,15.48-53.13,23.43-79.63C312.96,131.75,313.05,129.95,313.2,128.17z"/>
	<path fill="#F2C995" stroke="#F2C995" stroke-width="0.4" d="M351.99,140.95c4.16-2.5,9.64-2.31,13.69,0.35
		c6.36,4.02,10.25,10.8,13.16,17.54c-3.67-0.6-7.58-1.5-11.19-0.1c-3.11,1.04-5.34,3.99-5.75,7.22c-0.66,5.53,0.16,11.13-0.4,16.67
		c-0.44,0.26-1.32,0.76-1.76,1.02c-1.15-6.59-0.74-13.28-1.15-19.92c-0.18,0.41-0.55,1.24-0.73,1.66c-1.34-2.33-2.5-5.11-5.15-6.23
		c-4.77-2.33-10.16-0.69-14.98,0.56C340.97,152.55,344.93,145.01,351.99,140.95z"/>
	<path fill="#EFCA98" stroke="#EFCA98" stroke-width="0.4" d="M337.02,161.42c3.32,1,6.63-1.09,10.01-0.86
		c3.22-0.3,7.38,1.39,7.72,5c-0.87,4.69-1.21,9.46-1.03,14.23c-1.28,0.04-2.56,0.08-3.83,0.12c-3.08,0.11-6.27-0.24-9.24,0.81
		c-3.34,1.07-6.2,3.16-9.13,5.01C332.29,177.43,334.33,169.3,337.02,161.42 M337.68,168.2c0.1,1.17,0.3,2.32,0.6,3.46
		c2.93,1.99,6.68,0.94,9.86,0.22c-0.23-1.12-0.49-2.23-0.79-3.33C344.41,166.75,340.84,167.8,337.68,168.2z"/>
	<path fill="#F0CA98" stroke="#F0CA98" stroke-width="0.4" d="M364.24,167c0.24-2.76,2.02-5.51,4.87-6.1
		c3.6-0.69,7.5-0.36,10.87,1.14c3.16,7.45,4.59,15.56,5.52,23.57c-6.02-4.76-14.02-7.42-21.49-4.55
		C364.19,176.37,363.85,171.67,364.24,167 M372.39,167.46c-1.55,0.36-4.81,0.99-3.93,3.19c1.5,2.95,5.46,2.18,8.17,1.94
		c1.91-0.09,3.65-2.52,2.01-4.06C376.9,167.12,374.49,167.27,372.39,167.46z"/>
	<path fill="#FAE2BA" stroke="#FAE2BA" stroke-width="0.4" d="M357.86,165.39c0.18-0.42,0.55-1.25,0.73-1.66
		c0.41,6.64,0,13.33,1.15,19.92c-0.24,0.71-0.8,1.26-1.67,1.63C357.71,178.66,357.78,172.01,357.86,165.39z"/>
	<path fill="#EFD6B5" stroke="#EFD6B5" stroke-width="0.4" d="M353.72,179.79c-0.18-4.77,0.16-9.54,1.03-14.23
		c0.86,5.53,0.32,11.15,0.49,16.72c-1.79-0.8-3.57-1.57-5.35-2.37C351.16,179.87,352.44,179.83,353.72,179.79z"/>
	<path fill="#39A6D8" stroke="#39A6D8" stroke-width="0.4" d="M372.39,167.46c2.1-0.19,4.51-0.34,6.25,1.07
		c1.64,1.54-0.1,3.97-2.01,4.06c-2.71,0.24-6.67,1.01-8.17-1.94C367.58,168.45,370.84,167.82,372.39,167.46z"/>
	<path fill="#31A9DD" stroke="#31A9DD" stroke-width="0.4" d="M337.68,168.2c3.16-0.4,6.73-1.45,9.67,0.35
		c0.3,1.1,0.56,2.21,0.79,3.33c-3.18,0.72-6.93,1.77-9.86-0.22C337.98,170.52,337.78,169.37,337.68,168.2z"/>
	<path fill="#FFFFFF" stroke="#FFFFFF" stroke-width="0.4" d="M329.24,196.27c2.62-6.09,8.35-10.65,14.8-12.06
		c4.31-0.88,8.65,1,11.67,4.03c1.13,0.81,2.37,2.93,3.93,1.59c3.36-3.1,7.38-6.39,12.3-5.77c7.16,0.85,13.51,6.06,16.26,12.67
		c4.46,10.14,4.85,21.39,6.88,32.14c1.01,4.89,1.94,10.68,6.39,13.71c4.02,2.15,8.64,0.21,12.44-1.52
		c-0.63,4.35-0.72,9.4-4.14,12.63c-2.86,2.28-6.96,1.14-9.73-0.72c-5.51-3.79-8.47-10.06-10.93-16.06c-0.3-1.86-3.14-2.58-3.82-0.61
		c-7.72,15.67-14.84,31.72-24.17,46.54c-1.58-0.88-3.71-1.74-5,0.11c-9.11-14.78-16.36-30.6-23.91-46.2
		c-0.48-1.81-3.14-2.3-3.82-0.4c-2.63,6.22-5.55,12.87-11.37,16.76c-2.92,1.96-7.5,2.92-10.14,0.02c-2.82-3.31-2.94-7.91-3.51-12.01
		c3.55,1.45,7.58,3.34,11.44,1.9c3.65-1.51,5.21-5.55,6.21-9.08C324.22,221.49,323.89,208.15,329.24,196.27 M357.38,201.35
		c-3.42,0.98-4.61,5.82-1.95,8.23c2.41,2.62,7.24,1.44,8.23-1.96C365.03,203.97,361.02,199.94,357.38,201.35z"/>
	<path fill="#0B0804" stroke="#0B0804" stroke-width="0.4" d="M357.38,201.35c3.64-1.41,7.65,2.62,6.28,6.27
		c-0.99,3.4-5.82,4.58-8.23,1.96C352.77,207.17,353.96,202.33,357.38,201.35z"/>
	<path fill="#2DAAE2" stroke="#2DAAE2" stroke-width="0.4" d="M427.35,230.42c5.11,4.58,8.09,11.27,9.01,18
		c0.9,11.2,2.43,22.35,3.42,33.54c0.49,2.72-1.64,4.74-3.04,6.77c-12.89,16.95-25.39,34.24-39.18,50.48
		c-0.01-4.64,0-9.28-0.25-13.91l0.39-0.4c-1.41-3.11-1.71-6.54-1.67-9.91c0.05-6.79-0.1-13.6,0.59-20.36
		C408.68,274.16,418.8,252.58,427.35,230.42z"/>
	<path fill="#2DAAE1" stroke="#2DAAE1" stroke-width="0.4" d="M285.68,248.42c0.36-3.15,1.36-6.24,2.95-8.99
		c9.19,21.64,19.1,43.14,32.25,62.71c1.97,3.07,4.52,5.76,6.28,8.98c0.68,4.51,0.24,9.12,0.2,13.67c-2.85-0.05-5.7-0.01-8.54,0
		c-0.05,3.51-0.06,7.03-0.16,10.55c-4.24-4.49-7.8-9.53-11.64-14.35c-7.95-10.38-15.91-20.76-23.69-31.26
		c-0.66-1.13-1.77-2.25-1.52-3.66C282.98,273.51,284.75,261.01,285.68,248.42z"/>
	<path fill="#FFFFFF" stroke="#FFFFFF" stroke-width="0.4" d="M330.37,242.71c6.18,12.94,12.38,25.89,19.61,38.29
		c1.63,2.63,3.17,5.42,5.51,7.51c1.95,0.76,4.18,0.16,6.24,0.29c3.67-4.22,6.36-9.15,9.08-13.99c5.68-10.57,10.96-21.34,16.08-32.18
		c3.8,8.17,10.48,17.12,20.55,16.6c-6.53,13.52-13.43,26.91-21.9,39.33c-6.62,9.21-13.71,19.32-24.62,23.68
		c-1.77,0.83-3.08-1.37-4.74-1.64c-1.62,0.61-3.15,2.45-5,1.51c-5.98-2.24-10.66-6.84-14.88-11.45
		c-13.82-16-23.41-35.08-32.45-54.04c3.44,2.33,7.77,3.29,11.76,1.82C322.84,256.04,327.05,249.11,330.37,242.71z"/>
	<path fill="#52AAD1" stroke="#52AAD1" stroke-width="0.4" d="M394.73,298.96c-0.11-1.69,1.01-3.02,1.89-4.33
		c-0.69,6.76-0.54,13.57-0.59,20.36c-0.04,3.37,0.26,6.8,1.67,9.91l-0.39,0.4c-1.9,0.04-3.08-1.46-2.66-3.29
		C394.68,314.33,394.58,306.64,394.73,298.96z"/>
	<path fill="#2DAAE1" stroke="#2DAAE1" stroke-width="0.4" d="M280.68,298.62c3.77,3.54,6.39,8.07,9.61,12.07
		c11.7,15.23,23.23,30.64,36.05,44.95c2.85,3.49,7.38,5.85,8.64,10.44c1.3,4.84,1.36,9.93,1.16,14.92c-0.59,9.42-1.98,18.78-3.99,28
		c-16.81-8.6-33.65-17.27-49.37-27.77c-3-2.24-6.48-4.23-8.46-7.5c0.06-11.66,1.74-23.27,2.52-34.91
		C278.19,325.43,279.37,312.02,280.68,298.62 M301.36,349.35c0.02,3.98,0.07,7.96-0.15,11.94c-2.75-2.37-4.99-5.33-8.11-7.23
		c-0.22,0.45-0.67,1.36-0.9,1.81c2.62,3.15,5.75,5.83,8.49,8.89c-2.56,2.69-5.58,5.02-7.62,8.16c0.27,0.31,0.83,0.93,1.1,1.25
		c2.68-1.52,4.66-3.94,7.01-5.86c0.24,3.83,0.23,7.67,0.12,11.51c0.62,0.02,1.87,0.06,2.5,0.09c0-4-0.02-7.99,0.15-11.98
		c2.95,2.47,5.07,6.43,9.15,7.13c-1.4-4.44-5.69-6.94-8.63-10.29c2.3-2.66,5.16-4.84,7.19-7.72c-0.12-0.56-0.38-1.69-0.51-2.26
		c-2.51,2.02-4.81,4.28-7.19,6.44c-0.17-3.99-0.18-7.97-0.24-11.95C303.13,349.3,301.95,349.33,301.36,349.35z"/>
	<path fill="#2DAAE2" stroke="#2DAAE2" stroke-width="0.4" d="M392.33,356.33c16.58-18.28,30.78-38.53,46.13-57.79
		c2.39,21.8,4.33,43.65,6.08,65.51c0.16,3.27,0.86,6.54,0.53,9.83c-3.98,4.89-9.66,7.95-14.83,11.41
		c-13.98,8.61-28.45,16.44-43.21,23.62c-2.02-10.52-3.97-21.15-3.82-31.91c0.08-4.35,0.02-8.93,1.88-12.96
		C386.98,361.02,390.02,358.99,392.33,356.33 M400.27,356.08c0.06,3.81,0.05,7.63-0.12,11.45c-3.1-2.18-5.14-6.33-9.27-6.59
		c1.91,4.15,5.85,6.79,8.84,10.1c-2.52,2.69-5.36,5.09-7.63,8.01c0.27,0.37,0.79,1.11,1.05,1.48c2.75-1.29,4.54-4.17,7-5.98
		c0.23,3.79,0.05,7.6,0.23,11.39c0.4,0.13,1.19,0.38,1.59,0.5c1.67-3.45,0.25-8.03,0.87-11.91c2.87,2.43,5.5,5.12,8.34,7.58
		c0.2-0.91,0.31-1.82,0.32-2.74c-2.52-2.96-5.48-5.5-8.13-8.32c2.24-2.34,4.67-4.5,6.81-6.93c1.02-0.82,0.37-2.06-0.26-2.86
		c-2.47,1.95-4.63,4.26-7.05,6.28c-0.21-3.81-0.21-7.63-0.13-11.44C402.12,356.09,400.88,356.08,400.27,356.08z"/>
	<path fill="#1471B4" stroke="#1471B4" stroke-width="0.4" d="M371.87,324.71c5.71-5.15,10.97-10.76,15.83-16.73
		c-0.01,5.59-0.09,11.18-0.01,16.77C382.41,324.73,377.14,324.74,371.87,324.71z"/>
	<path fill="#2F72A7" stroke="#2F72A7" stroke-width="0.4" d="M334.18,324.68c0.14-1.76,0.32-3.52,0.57-5.26
		c2.12,1.75,4.24,3.52,6.3,5.34C338.76,324.76,336.47,324.72,334.18,324.68z"/>
	<path fill="#F0E553" stroke="#F0E553" stroke-width="0.4" d="M324.01,329.73c7.72-0.05,15.44-0.02,23.16-0.02
		c-0.07,7.71,0.14,15.43-0.12,23.14c-0.45-0.02-1.37-0.05-1.82-0.06c0.67-7.25,0.39-14.53,0.49-21.79
		c-6.93-0.31-13.87-0.32-20.8,0.01c-0.36,4.85-0.24,9.86,1.81,14.37c-1.06-1.34-2.78-2.5-2.65-4.4
		C323.94,337.23,324.09,333.48,324.01,329.73z"/>
	<path fill="#322881" stroke="#322881" stroke-width="0.4" d="M348.15,329.82c7.26-0.23,14.53-0.32,21.78,0.09
		c0.49,7.71,0.13,15.43,0.33,23.15c-7.5-0.73-15.04-0.42-22.55-0.19C348.81,345.23,348.19,337.5,348.15,329.82 M357.33,337.28
		c-2.7,0.91-4.23,4.45-2.54,6.89c1.59,3.1,6.87,2.86,8.16-0.39C364.87,340.35,361,335.85,357.33,337.28z"/>
	<path fill="#059441" stroke="#059441" stroke-width="0.4" d="M370.6,329.77c7.56-0.18,15.12-0.16,22.68,0
		c0.05,4.72,0.51,9.48-0.09,14.18c-1.5,3.38-4.36,6.07-7.18,8.4c-5.01,0.34-10.03,0.07-15.05,0.03
		C370.04,344.88,370.57,337.3,370.6,329.77 M379.24,337.24c-2.44,2.19-3.4,6.89,0.1,8.58c3.47,2.17,8.29-1.85,6.57-5.62
		C385.06,337.24,381.77,337.11,379.24,337.24z"/>
	<path fill="#FCEC06" stroke="#FCEC06" stroke-width="0.4" d="M324.92,331.01c6.93-0.33,13.87-0.32,20.8-0.01
		c-0.1,7.26,0.18,14.54-0.49,21.79c-3.76-0.11-7.51-0.08-11.26,0.05l-0.79,0.03c-2.07-2.57-4.48-4.85-6.45-7.49
		C324.68,340.87,324.56,335.86,324.92,331.01 M333.19,337.41c-1.13,2.1-2.91,5.09-0.87,7.21c1.92,2.52,6.63,2.27,7.78-0.79
		c1.09-2.2-0.46-4.43-1.25-6.44C336.96,337.43,335.07,337.43,333.19,337.41z"/>
	<path fill="#FDFEF3" stroke="#FDFEF3" stroke-width="0.4" d="M333.19,337.41c1.88,0.02,3.77,0.02,5.66-0.02
		c0.79,2.01,2.34,4.24,1.25,6.44c-1.15,3.06-5.86,3.31-7.78,0.79C330.28,342.5,332.06,339.51,333.19,337.41z"/>
	<path fill="#FCFCFC" stroke="#FCFCFC" stroke-width="0.4" d="M357.33,337.28c3.67-1.43,7.54,3.07,5.62,6.5
		c-1.29,3.25-6.57,3.49-8.16,0.39C353.1,341.73,354.63,338.19,357.33,337.28z"/>
	<path fill="#FAFDFB" stroke="#FAFDFB" stroke-width="0.4" d="M379.24,337.24c2.53-0.13,5.82,0,6.67,2.96
		c1.72,3.77-3.1,7.79-6.57,5.62C375.84,344.13,376.8,339.43,379.24,337.24z"/>
	<path fill="#020910" stroke="#020910" stroke-width="0.4" d="M301.36,349.35c0.59-0.02,1.77-0.05,2.36-0.07
		c0.06,3.98,0.07,7.96,0.24,11.95c2.38-2.16,4.68-4.42,7.19-6.44c0.13,0.57,0.39,1.7,0.51,2.26c-2.03,2.88-4.89,5.06-7.19,7.72
		c2.94,3.35,7.23,5.85,8.63,10.29c-4.08-0.7-6.2-4.66-9.15-7.13c-0.17,3.99-0.15,7.98-0.15,11.98c-0.63-0.03-1.88-0.07-2.5-0.09
		c0.11-3.84,0.12-7.68-0.12-11.51c-2.35,1.92-4.33,4.34-7.01,5.86c-0.27-0.32-0.83-0.94-1.1-1.25c2.04-3.14,5.06-5.47,7.62-8.16
		c-2.74-3.06-5.87-5.74-8.49-8.89c0.23-0.45,0.68-1.36,0.9-1.81c3.12,1.9,5.36,4.86,8.11,7.23
		C301.43,357.31,301.38,353.33,301.36,349.35z"/>
	<path fill="#8D1F7F" stroke="#8D1F7F" stroke-width="0.4" d="M370.96,352.38c5.02,0.04,10.04,0.31,15.05-0.03
		c-2.3,2.71-4.73,5.34-7.39,7.71c-1.51,1.03-2.7,3.18-1.31,4.81l0.43,0.69c-2.36,2.02-4.92,3.79-7.58,5.38
		c0.27-5.95-0.05-11.92,0.1-17.88l0.02-0.67L370.96,352.38z"/>
	<path fill="#E4511C" stroke="#E4511C" stroke-width="0.4" d="M333.97,352.84c3.75-0.13,7.5-0.16,11.26-0.05
		c0.45,0.01,1.37,0.04,1.82,0.06l0.66,0.02c-0.37,4.6-0.33,9.23-0.11,13.84C341.74,363.47,338.37,357.63,333.97,352.84z"/>
	<path fill="#069DE1" stroke="#069DE1" stroke-width="0.4" d="M347.71,352.87c7.51-0.23,15.05-0.54,22.55,0.19
		c-0.15,5.96,0.17,11.93-0.1,17.88c-1.47,1.8-3.1,3.61-5.16,4.71c-2.95,0.03-5.9-0.05-8.85-0.05c-2.6-3.2-5.46-6.18-8.55-8.89
		C347.38,362.1,347.34,357.47,347.71,352.87 M356.36,360.21c-3.15,1.58-2.82,6.73,0.37,8.1c2.98,1.55,6.86-0.98,6.73-4.31
		C363.54,360.52,359.19,358.32,356.36,360.21z"/>
	<path fill="#02090E" stroke="#02090E" stroke-width="0.4" d="M400.27,356.08c0.61,0,1.85,0.01,2.46,0.02
		c-0.08,3.81-0.08,7.63,0.13,11.44c2.42-2.02,4.58-4.33,7.05-6.28c0.63,0.8,1.28,2.04,0.26,2.86c-2.14,2.43-4.57,4.59-6.81,6.93
		c2.65,2.82,5.61,5.36,8.13,8.32c-0.01,0.92-0.12,1.83-0.32,2.74c-2.84-2.46-5.47-5.15-8.34-7.58c-0.62,3.88,0.8,8.46-0.87,11.91
		c-0.4-0.12-1.19-0.37-1.59-0.5c-0.18-3.79,0-7.6-0.23-11.39c-2.46,1.81-4.25,4.69-7,5.98c-0.26-0.37-0.78-1.11-1.05-1.48
		c2.27-2.92,5.11-5.32,7.63-8.01c-2.99-3.31-6.93-5.95-8.84-10.1c4.13,0.26,6.17,4.41,9.27,6.59
		C400.32,363.71,400.33,359.89,400.27,356.08z"/>
	<path fill="#F5FEFE" stroke="#F5FEFE" stroke-width="0.4" d="M356.36,360.21c2.83-1.89,7.18,0.31,7.1,3.79
		c0.13,3.33-3.75,5.86-6.73,4.31C353.54,366.94,353.21,361.79,356.36,360.21z"/>
	<path fill="#FFFFFF" stroke="#FFFFFF" stroke-width="0.4" d="M377.31,364.87c-1.39-1.63-0.2-3.78,1.31-4.81
		C379.12,361.56,378.48,363.79,377.31,364.87z"/>
	<path fill="#C99E68" stroke="#C99E68" stroke-width="0.4" d="M342.96,369.49c5.26,3.94,10,9.06,12.14,15.39
		c1.11,3.16,0.85,7.11-1.72,9.5c-3.14,2.95-7.73,2.96-11.77,3.06C342.75,388.17,343.49,378.83,342.96,369.49z"/>
	<path fill="#C99E67" stroke="#C99E67" stroke-width="0.4" d="M362.67,389.6c2.22-7.01,7.73-12.32,13.41-16.69
		c-0.29,9.71,1.09,19.32,2.25,28.93c-4.55-0.02-9.73,0.38-13.48-2.7C362.06,396.89,361.56,392.84,362.67,389.6z"/>
	<path fill="#96BD29" stroke="#96BD29" stroke-width="0.4" d="M356.15,375.6c2.95,0,5.9,0.08,8.85,0.05
		c-1.61,2.59-3.47,5.01-5.09,7.59C358.69,380.67,357.47,378.11,356.15,375.6z"/>
	<path fill="#B6B5B3" stroke="#B6B5B3" stroke-width="0.4" d="M584.96,381.49c3.34-3.52,8.42-4.17,13.03-3.72
		c1.44,0,3.11,0.7,3.43,2.27c-1.45,2.88-5.19,2.82-7.9,3.64c-0.94,3.2-1.52,6.62-3.36,9.46c-3.18,2.2-8.8799,1.72-9.37,6.65
		c5.8,1.74,12.44,1.81,17.81-1.29c2.03-0.62,0.9901-2.9,1.08-4.44c7.83-2.36,15.84-4,23.84-5.66c2.83-6.15,10.9-5.71,16.5-4.54
		c-0.04,0.78-0.13,2.33-0.17,3.1c-3.44,1.52-7.14,2.21-10.88,2.22c-3.1899-0.23-5.62,2.04-7.97,3.82
		c-5.68,4.58-11.49,9.05-16.58,14.3c7.9,0.81,15.85,0.61,23.77,1.2c-8.79,3.24-18.02,5.08-27.02,7.63
		c-2.56,0.56-3.66,3.15-4.75,5.23c-4.36,9.28-8.58,18.64-13.27,27.76c-1.67,3.43-5.67,4.44-8.77,6.14c0.49,2.57,1.75,5.6-0.27,7.85
		c-3.57,4.76-7.72,9.09-10.8,14.21c-19.63,32.04-39.38,64.01-59.11,95.99c-1.52,2.25-1.34,5.1-2.36,7.53
		c-1.98,3-5.39,5.09-6.19,8.79c-1.66,5.89-2.87,12.03-6.08,17.34c-2.76-9.5-5.37-19.03-8.05-28.55c-1.93-7.03-4.37-13.98-4.95-21.29
		c-4.06-37.3-8.04-74.6-12.07-111.89c15.6-10.44,31.67-20.18,47.46-30.32c1.7-1.22,2.92-2.94,4.19-4.56
		c-2.7401-2.17-5.26-4.57-7.61-7.14c7.39,0.03,14.75,0.95,22.14,0.63c5.21-6.08,11.37-11.43,15.57-18.32
		c-2.47-0.42-5.35,0.06-7.36-1.7c0.11-2.24,2.51-3.03,4.29-3.67c3.72-1.02,7.94-1.51,11.55,0.18c0.86,2.53-2.66,3.37-4.09,4.79
		c3.64,1.92,7.08,4.22,10.13,7c-2.99,1.71-8.11,2.2-7.93,6.65c5.93,1.43,12.74,1.61,17.98-1.92c1.86-1.28-0.49-4.3,1.71-5.33
		c4.59-2.96,9.49-5.42,14.42-7.76C586.28,383,585.62,382.25,584.96,381.49z"/>
	<path fill="#2DAAE2" stroke="#2DAAE2" stroke-width="0.4" d="M440.79,386.78c3.41-2.34,6.56-5.02,9.58-7.84
		c5.36,51.35,11.07,102.66,16.5,154c0.57,6.06,1.63,12.08,1.75,18.17c-4.79,2.78-10.13,4.57-14.62,7.88
		c-2.71,1.74-4.94,4.32-8.03,5.41c-6.04,1.2599-11.25-2.88-16.99-3.79c-3.72-0.8-6.27,2.53-9.37,3.88c-2.79,1.5-5.95,0.33-8.74-0.51
		c-5.35-1.99-11.16-1.77-16.61-3.36c-0.11-29.44-0.08-58.89,0.15-88.33c1.94-1.57,3.76-3.29,5.61-4.97
		c1.88,2.25,1.87,5.29,2.54,8.01l0.54,0.47c0.51,0.39,1.54,1.18,2.05,1.58c0.36-4.22,0.39-8.45,0.41-12.67
		c2.34,2.08,4.45,4.49,7.23,6.01c0.25-0.22,0.74-0.67,0.99-0.9c-2.02-3.33-5.07-5.86-7.77-8.61c3.02-2.99,6.02-6.01,8.99-9.05
		c-0.5-0.37-1.5-1.12-2-1.49c-2.42,2.56-5.02,4.95-7.4,7.56c-0.13-4,0.04-8-0.34-11.98c-0.51-0.06-1.52-0.18-2.03-0.24l-0.87-0.1
		c-0.22,3.47-0.56,6.94-1.2,10.36c-1.63-1.57-3.23-3.21-5.15-4.42c-0.29,0.3-0.86,0.91-1.14,1.21c2.01,3.11,4.89,5.52,7.49,8.12
		c-2.55,2.79-5.22,5.46-7.95,8.07c-0.12-18.66,0.06-37.31,0-55.97C410.11,404.88,426.06,396.84,440.79,386.78 M423.4,410.11
		c-0.21,3.76-0.01,7.53-0.22,11.29c-2.37-2.01-4.59-4.19-6.79-6.37c-0.41,0.67-0.78,1.36-1.13,2.06c2.2,2.86,4.97,5.2,7.44,7.82
		c-2.93,3.37-7.04,5.91-8.8,10.16c4.08-0.42,6.16-4.47,9.25-6.66c0.21,3.82,0.19,7.65,0.13,11.48c0.62,0.01,1.84,0.02,2.46,0.03
		c-0.05-3.83-0.06-7.65,0.15-11.47c2.61,2.04,4.65,5.26,8.21,5.65c-1.46-3.86-5.04-6.23-7.71-9.19c2.58-2.87,5.51-5.41,8.09-8.29
		c-0.05-0.92-0.16-1.83-0.32-2.73c-2.84,2.43-5.48,5.09-8.3,7.55c-0.51-3.97,0.64-8.32-0.79-12.06
		C424.65,409.56,423.81,409.93,423.4,410.11 M431.34,481.24c0.08,3.83,0.09,7.66-0.18,11.49c-2.34-1.9-4.22-4.41-6.95-5.78
		c-0.29,0.29-0.88,0.87-1.17,1.16c2.11,3.1,5.1,5.43,7.71,8.1c-2.83,3.09-5.81,6.04-8.81,8.97c0.61,0.6,1.22,1.22,1.84,1.83
		c2.42-2.47,4.86-4.92,7.43-7.24c0.23,3.96,0.17,7.93,0.15,11.9c0.6,0.02,1.79,0.05,2.38,0.07c0.08-4.01,0.08-8.02,0.26-12.02
		c2.39,2.19,4.7,4.48,7.21,6.55c0.21-1.13,1-2.47-0.21-3.3c-1.93-2.38-4.73-4.07-6.11-6.85c2.56-3.55,7.05-5.75,8.21-10.2
		c-4.03,0.82-6.17,4.69-9.13,7.16c-0.17-3.97-0.14-7.95-0.2-11.92C433.17,481.18,431.95,481.22,431.34,481.24z"/>
	<path fill="#2DAAE2" stroke="#2DAAE2" stroke-width="0.4" d="M271.55,381.71c16.91,12.78,35.88,22.41,54.64,32.12
		c1.89,0.5,1.34,2.65,1.51,4.13c-0.04,46.53,0.22,93.07,0.04,139.6c-5.13,1.93-10.21,4.24-15.74,4.7
		c-4.17,0.25-7.92,2.25-11.98,2.97c-4.03,0.43-6.59-3.35-10.04-4.62c-6-0.6-10.9,4.4-16.88,4.03c-2.81-0.05-4.82-2.26-6.89-3.85
		c-3.9-3.32-8.43-5.7599-12.99-8.03C259.05,495.72,265.4,438.72,271.55,381.71 M285.75,417.67c-0.99-0.16-1.98-0.31-2.96-0.45
		c-1.4-1.23-3.49-4.43-4.69-1.28c2.66,3.2,5.84,5.91,8.66,8.97c-2.69,2.76-5.47,5.45-8.05,8.32c2.12,1.36,3.83-0.28,5.22-1.82
		c2.81,2.08,1.78,6.15,2.78,9.12l0.19-1.01c0.73,0.13,2.2,0.4,2.93,0.54c-0.05-3.9-0.04-7.79,0.18-11.67c3,2.26,5.09,6.08,9.06,6.75
		c-1.49-4.39-5.78-6.84-8.64-10.26c2.43-2.7,5.33-4.99,7.5-7.92c-0.25-0.45-0.75-1.34-1-1.78c-2.44,1.94-4.64,4.17-6.95,6.27
		c-0.24-3.88-0.05-7.76-0.2-11.64c-0.55-0.02-1.65-0.07-2.2-0.09c-0.31,3.9-0.16,7.82-0.18,11.73l-0.49-0.43
		c0.15-3.78-0.04-7.56-0.43-11.32C285.95,412.32,285.8,415,285.75,417.67 M307.96,446.41c-0.58,3.85-0.19,7.77-0.26,11.65
		c-2.63-2.39-5.17-4.87-7.69-7.38c-0.48,0.38-1.45,1.14-1.93,1.51c2.91,3,6.04,5.79,8.79,8.95c-2.29,3.08-5.31,5.51-7.89,8.33
		c0.68,0.42,1.39,0.81,2.11,1.19c2.31-1.86,4.33-4.05,6.54-6.02c0.18,3.67-0.2,7.38,0.26,11.04c0.45,0.4,1.35,1.18,1.8,1.57
		c0.73-4.14,0.51-8.35,0.59-12.53c2.66,2.29,5.16,4.77,7.61,7.29c0.38-0.49,1.14-1.46,1.52-1.95c-2.85-2.86-5.69-5.73-8.58-8.54
		c2.16-3.29,6.74-5.29,7.18-9.42c-2.74-0.06-4.16,2.74-6.06,4.27c-1.65-3.15-1.24-6.75-1.17-10.16l-0.88-0.49
		C309.42,445.89,308.45,446.24,307.96,446.41 M279.31,481.2c0.04,3.83,0.05,7.67-0.2,11.51c-2.73-2.06-4.76-5.03-7.81-6.64
		c-0.41,0.22-1.23,0.64-1.64,0.86c2.8,3.29,5.86,6.34,8.99,9.33c-2.48,2.71-5.08,5.32-7.69,7.9c0.58,0.61,1.17,1.21,1.77,1.83
		c2.07-2.15,4.21-4.23,6.42-6.22c0.19,3.97,0.16,7.94,0.2,11.92c0.58,0,1.74,0,2.32,0.01c0.05-4,0.03-8,0.19-11.99
		c2.76,2.52,5.4,5.18,8.28,7.59c0.13-0.59,0.38-1.77,0.51-2.35c-2.44-3.17-5.59-5.7-8.22-8.71c2.56-2.67,5.57-4.98,7.57-8.13
		c-0.28-0.31-0.84-0.93-1.12-1.24c-2.59,1.65-4.65,3.97-6.96,5.97c-0.25-3.88-0.24-7.77-0.2-11.65
		C281.11,481.19,279.91,481.2,279.31,481.2z"/>
	<path fill="#73725B" stroke="#73725B" stroke-width="0.4" d="M357.23,397.09c1.3,0.62,1.31,1.3,0.04,2.04
		C355.94,398.51,355.93,397.82,357.23,397.09z"/>
	<path fill="#0F71B8" stroke="#0F71B8" stroke-width="0.4" d="M340.16,403.82c6.29-0.37,12.59-0.19,18.89-0.23
		c2.61-0.17,4.97,1.06,7.35,1.96c4.07,1.64,8.55,1.05,12.83,1.08c0.98,4.09,1.97,8.18,3.02,12.26c1.67-0.58,3.34-1.18,5-1.79
		c0.2,4.18,0.55,8.42-0.24,12.57c-0.49,2.4-0.96,4.82-1.05,7.28c-0.12,34.02-0.08,68.04-0.26,102.05
		c0.11,5.96,0.37,11.96-0.74,17.85c-0.91,7.09-0.69,14.28-1.35,21.41c0.02,8.53-1.19,17.01-0.97,25.55
		c-4.09,0.38-8.24,0.63-12.33,0.02c-11.25-1.67-22.65,0.06-33.94-1.04c-0.32-55.2599-0.04-110.53-0.31-165.79
		c0.22-5.82-1.13-11.98,1.45-17.46c1.75-3.64,2.49-7.63,2.41-11.66C339.99,406.52,340.07,405.17,340.16,403.82z"/>
	<path fill="#2A6E9F" stroke="#2A6E9F" stroke-width="0.4" d="M334.84,419.28c4.43-1.86,3.04-7.74,5.08-11.4
		c0.08,4.03-0.66,8.02-2.41,11.66c-2.58,5.48-1.23,11.64-1.45,17.46c0.27,55.26-0.01,110.53,0.31,165.79
		c11.29,1.1,22.69-0.63,33.94,1.04c-11.68,0.76-23.42,0.34-35.13,0.23c-0.7-23.68-0.25-47.38-0.48-71.06
		c-0.01-33.33-0.05-66.66-0.09-99.99C334.61,428.43,334.49,423.84,334.84,419.28z"/>
	<path fill="#5CADD2" stroke="#5CADD2" stroke-width="0.4" d="M285.75,417.67c0.05-2.67,0.2-5.35,0.73-7.97
		c0.39,3.76,0.58,7.54,0.43,11.32c-1.41-1.24-2.78-2.51-4.12-3.8C283.77,417.36,284.76,417.51,285.75,417.67z"/>
	<path fill="#03080A" stroke="#03080A" stroke-width="0.4" d="M287.58,409.72c0.55,0.02,1.65,0.07,2.2,0.09
		c0.15,3.88-0.04,7.76,0.2,11.64c2.31-2.1,4.51-4.33,6.95-6.27c0.25,0.44,0.75,1.33,1,1.78c-2.17,2.93-5.07,5.22-7.5,7.92
		c2.86,3.42,7.15,5.87,8.64,10.26c-3.97-0.67-6.06-4.49-9.06-6.75c-0.22,3.88-0.23,7.77-0.18,11.67c-0.73-0.14-2.2-0.41-2.93-0.54
		c0.72-3.65,0.51-7.39,0.33-11.08c-1.12,0.97-2.22,1.96-3.3,2.97c-1.39,1.54-3.1,3.18-5.22,1.82c2.58-2.87,5.36-5.56,8.05-8.32
		c-2.82-3.06-6-5.77-8.66-8.97c1.2-3.15,3.29,0.05,4.69,1.28c1.34,1.29,2.71,2.56,4.12,3.8l0.49,0.43
		C287.42,417.54,287.27,413.62,287.58,409.72z"/>
	<path fill="#02080E" stroke="#02080E" stroke-width="0.4" d="M423.4,410.11c0.41-0.18,1.25-0.55,1.67-0.73
		c1.43,3.74,0.28,8.09,0.79,12.06c2.82-2.46,5.46-5.12,8.3-7.55c0.16,0.9,0.27,1.81,0.32,2.73c-2.58,2.88-5.51,5.42-8.09,8.29
		c2.67,2.96,6.25,5.33,7.71,9.19c-3.56-0.39-5.6-3.61-8.21-5.65c-0.21,3.82-0.2,7.64-0.15,11.47c-0.62-0.01-1.84-0.02-2.46-0.03
		c0.06-3.83,0.08-7.66-0.13-11.48c-3.09,2.19-5.17,6.24-9.25,6.66c1.76-4.25,5.87-6.79,8.8-10.16c-2.47-2.62-5.24-4.96-7.44-7.82
		c0.35-0.7,0.72-1.39,1.13-2.06c2.2,2.18,4.42,4.36,6.79,6.37C423.39,417.64,423.19,413.87,423.4,410.11z"/>
	<path fill="#5FB3D8" stroke="#5FB3D8" stroke-width="0.4" d="M283.93,431.41c1.08-1.01,2.18-2,3.3-2.97
		c0.18,3.69,0.39,7.43-0.33,11.08l-0.19,1.01C285.71,437.56,286.74,433.49,283.93,431.41z"/>
	<path fill="#2C74A8" stroke="#2C74A8" stroke-width="0.4" d="M385.96,436.95c0.09-2.46,0.56-4.88,1.05-7.28
		c0.37,3.09,0.46,6.21,0.43,9.33c-0.2,39.43,0.1,78.86-0.31,118.28c-0.54-0.11-1.63-0.32-2.17-0.4301
		c1.11-5.89,0.85-11.89,0.74-17.85C385.88,504.99,385.84,470.97,385.96,436.95z"/>
	<path fill="#050909" stroke="#050909" stroke-width="0.4" d="M307.96,446.41c0.49-0.17,1.46-0.52,1.94-0.69
		c0.13,4.16,0.15,8.32,0.19,12.48c0.62-0.61,1.24-1.22,1.86-1.83c1.9-1.53,3.32-4.33,6.06-4.27c-0.44,4.13-5.02,6.13-7.18,9.42
		c2.89,2.81,5.73,5.68,8.58,8.54c-0.38,0.49-1.14,1.46-1.52,1.95c-2.45-2.52-4.95-5-7.61-7.29c-0.08,4.18,0.14,8.39-0.59,12.53
		c-0.45-0.39-1.35-1.17-1.8-1.57c-0.46-3.66-0.08-7.37-0.26-11.04c-2.21,1.97-4.23,4.16-6.54,6.02c-0.72-0.38-1.43-0.77-2.11-1.19
		c2.58-2.82,5.6-5.25,7.89-8.33c-2.75-3.16-5.88-5.95-8.79-8.95c0.48-0.37,1.45-1.13,1.93-1.51c2.52,2.51,5.06,4.99,7.69,7.38
		C307.77,454.18,307.38,450.26,307.96,446.41z"/>
	<path fill="#3D88A6" stroke="#3D88A6" stroke-width="0.4" d="M309.9,445.72l0.88,0.49c-0.07,3.41-0.48,7.01,1.17,10.16
		c-0.62,0.61-1.24,1.22-1.86,1.83C310.05,454.04,310.03,449.88,309.9,445.72z"/>
	<path fill="#4E92AC" stroke="#4E92AC" stroke-width="0.4" d="M402.36,445.91l0.87,0.1c-0.1,4.02-0.11,8.05-0.19,12.08
		c-0.63-0.61-1.26-1.22-1.88-1.82C401.8,452.85,402.14,449.38,402.36,445.91z"/>
	<path fill="#05070A" stroke="#05070A" stroke-width="0.4" d="M403.23,446.01c0.51,0.06,1.52,0.18,2.03,0.24
		c0.38,3.98,0.21,7.98,0.34,11.98c2.38-2.61,4.98-5,7.4-7.56c0.5,0.37,1.5,1.12,2,1.49c-2.97,3.04-5.97,6.06-8.99,9.05
		c2.7,2.75,5.75,5.28,7.77,8.61c-0.25,0.23-0.74,0.68-0.99,0.9c-2.78-1.52-4.89-3.93-7.23-6.01c-0.02,4.22-0.05,8.45-0.41,12.67
		c-0.51-0.4-1.54-1.19-2.05-1.58c-0.14-3.73,0.01-7.47-0.08-11.19c-1.01,0.88-2.01,1.79-3,2.71c-1.85,1.68-3.67,3.4-5.61,4.97
		c-0.01-1.02,0-2.03,0-3.04c2.73-2.61,5.4-5.28,7.95-8.07c-2.6-2.6-5.48-5.01-7.49-8.12c0.28-0.3,0.85-0.91,1.14-1.21
		c1.92,1.21,3.52,2.85,5.15,4.42c0.62,0.6,1.25,1.21,1.88,1.82C403.12,454.06,403.13,450.03,403.23,446.01z"/>
	<path fill="#5199B8" stroke="#5199B8" stroke-width="0.4" d="M400.02,467.32c0.99-0.92,1.99-1.83,3-2.71
		c0.09,3.72-0.06,7.46,0.08,11.19l-0.54-0.47C401.89,472.61,401.9,469.57,400.02,467.32z"/>
	<path fill="#010810" stroke="#010810" stroke-width="0.4" d="M279.31,481.2c0.6,0,1.8-0.01,2.41-0.01
		c-0.04,3.88-0.05,7.77,0.2,11.65c2.31-2,4.37-4.32,6.96-5.97c0.28,0.31,0.84,0.93,1.12,1.24c-2,3.15-5.01,5.46-7.57,8.13
		c2.63,3.01,5.78,5.54,8.22,8.71c-0.13,0.58-0.38,1.76-0.51,2.35c-2.88-2.41-5.52-5.07-8.28-7.59c-0.16,3.99-0.14,7.99-0.19,11.99
		c-0.58-0.01-1.74-0.01-2.32-0.01c-0.04-3.98-0.01-7.95-0.2-11.92c-2.21,1.99-4.35,4.07-6.42,6.22c-0.6-0.62-1.19-1.22-1.77-1.83
		c2.61-2.58,5.21-5.19,7.69-7.9c-3.13-2.99-6.19-6.04-8.99-9.33c0.41-0.22,1.23-0.64,1.64-0.86c3.05,1.61,5.08,4.58,7.81,6.64
		C279.36,488.87,279.35,485.03,279.31,481.2z"/>
	<path fill="#01090F" stroke="#01090F" stroke-width="0.4" d="M431.34,481.24c0.61-0.02,1.83-0.06,2.43-0.08
		c0.06,3.97,0.03,7.95,0.2,11.92c2.96-2.47,5.1-6.34,9.13-7.16c-1.16,4.45-5.65,6.65-8.21,10.2c1.38,2.78,4.18,4.47,6.11,6.85
		c1.21,0.83,0.42,2.17,0.21,3.3c-2.51-2.07-4.82-4.36-7.21-6.55c-0.18,4-0.18,8.01-0.26,12.02c-0.59-0.02-1.78-0.05-2.38-0.07
		c0.02-3.97,0.08-7.94-0.15-11.9c-2.57,2.32-5.01,4.77-7.43,7.24c-0.62-0.61-1.23-1.23-1.84-1.83c3-2.93,5.98-5.88,8.81-8.97
		c-2.61-2.67-5.6-5-7.71-8.1c0.29-0.29,0.88-0.87,1.17-1.16c2.73,1.37,4.61,3.88,6.95,5.78
		C431.43,488.9,431.42,485.07,431.34,481.24z"/>
</g>
<g>
	<path fill="#0D0803" stroke="#0D0803" stroke-width="0.4" d="M1436.92,38.83c7.1899-4.09,16.4099-4.33,23.75-0.46
		c8.36,4.31,14.2799,12.06,18.89,20.05c8.71,15.72,12.8999,33.55,14.85,51.3c8.33-0.06,16.6699-0.04,25-0.03
		c-7.8101,8.91-15.91,17.56-23.7201,26.47c4.1001,9.67,9.3701,18.86,13.8201,28.39c2.02,4.77,5.12,9.26,5.98,14.42
		c-1.78,4.93-5.16,9.11-7.97,13.49c-4.3101,6.26-9,12.25-13.9,18.06c15.02,4.06,29.0601,14.59,34.2,29.68
		c2.26,5.94,1.8401,12.38,2.76,18.57c2.7201,25.37,5.4701,50.74,8.2001,76.11c3.53,35.53,8.1699,70.93,12.9,106.32
		c5.1899,39.18,10.35,78.37,15.49,117.56c0.88,8.27,3.8199,16.11,5.95,24.12c2.2,7.55,4.2,15.17,6.58,22.68
		c0.1001,0.34,0.3201,1.01,0.42,1.35c-36.39,2.39-72.75,5.13-109.14,7.45c0.0601-0.84,0.1901-2.51,0.25-3.35
		c-16.27,0.14-32.54-0.04-48.7999,0.08c0.08,0.83,0.25,2.49,0.34,3.3199c-33.92-2.43-67.8201-5.0699-101.74-7.49
		c5.34-19.96,10.38-40.05,16.1-59.89c10.42-96.03,20.71-192.09,31.0699-288.13c0.92-6.29,0.51-12.81,2.8301-18.84
		c4.7999-13.95,17.27-24.09,30.99-28.67c-7.1901-8.1-13.6-16.87-19.41-26.01c-1.35-2.66-4.25-5.47-2.91-8.65
		c6.01-13.88,13.1901-27.24,19.8101-40.84c-7.45-8.98-15.67-17.3-23.23-26.18c9.1899-0.05,18.39-0.03,27.6,0
		c2.3-17.6,6.2-35.35,14.86-51.02C1423.17,50.84,1428.92,43.3,1436.92,38.83 M1444.33,43.32c-8.45,2.63-14.26,10.06-18.64,17.36
		c-8.45,14.97-12.6799,32.01-14.58,48.99c25.37,0.01,50.74-0.12,76.11,0.07c-0.5-6.94-1.8099-13.79-3.46-20.54
		c-3.47-13.62-8.48-27.39-17.9401-38.05C1460.61,45.24,1452.29,40.87,1444.33,43.32 M1392.66,116.89
		c3.21,4.52,7.0699,8.52,10.7899,12.61c1.3101,1.67,3.5701,1.6,5.51,1.7c26.36-0.02,52.73,0,79.0901-0.01
		c1.6399,0.07,3.1899-0.61,4.25-1.9c3.74-4.01,7.63-7.93,10.8199-12.41c-13.7-0.59-27.42-0.11-41.13-0.27
		C1438.88,116.79,1415.76,116.26,1392.66,116.89 M1406.23,138.15c-6.45,13.33-13.52,26.39-19.45,39.96
		c0.65,2.15,2.0499,3.98,3.24,5.87c5.95,8.93,12.35,17.62,19.71,25.45c1.21-5.36,2.35-10.85,4.9501-15.75
		c1.25-2.46,3.1799-4.73,3.1599-7.64c2.03-17.37,6.85-36.11,20.6901-47.93C1427.76,138.18,1416.99,138.03,1406.23,138.15
		 M1459.67,138.08c3.58,3.17,6.98,6.6,9.4299,10.75c8.2101,13.55,11.09,29.57,12.0701,45.17c1.01,5.18,3.13,10.08,4.0199,15.31
		c4.75-5.01,9-10.47,13.1001-16.02c3.34-4.97,7.3999-9.63,9.7-15.19c-5.86-13.57-12.99-26.57-19.36-39.91
		C1478.97,137.96,1469.3199,138.23,1459.67,138.08 M1442.17,141.19c-6.7101,4.2-10.6801,11.42-13.7101,18.5
		c4.48-1.15,9.3301-2.62,13.89-0.96c3.49,1.14,5.79,4.65,5.9301,8.26c0.3099,5.72,0.0399,11.46,0.11,17.19
		c1.41-1.22,4.03-1.88,3.8099-4.19c0.55-5.96-1.25-12.5,1.8201-17.98c3.4399-5.04,10.3099-4.28,15.52-3.18
		c-3-6.6-6.77-13.32-12.9701-17.4C1452.33,138.58,1446.49,138.41,1442.17,141.19 M1427.53,161.55
		c-2.37,7.42-4.29,14.98-5.3101,22.71c3.9401-2.19,8.1-4.59,12.78-4.39c4-0.24,7.64,1.63,11,3.59
		c-0.23-5.49,0.11-10.98-0.1899-16.46c-0.15-2.81-2.1101-5.51-4.92-6.12C1436.4,159.67,1432.01,162.09,1427.53,161.55
		 M1455.24,165.3c-0.9299,4.95-0.27,10.04-0.49,15.05c3.46-0.41,7.09-0.86,10.48,0.29c4.25,1.31,7.77,4.14,11.1901,6.88
		c-0.9501-8.56-2.4501-17.19-5.63-25.22C1466.08,159.83,1457.3,158.97,1455.24,165.3 M1418.16,196.14
		c-5.1,11.08-5.11,23.53-7.6801,35.28c-0.99,4.08-2.13,8.8-5.96,11.16c-3.9,2.21-8.36,0.01-12.21-1.18
		c0.5499,4.41,0.6599,9.82,4.6,12.72c3.34,1.79,7.48,0.34,10.23-1.95c5.0599-4.02,7.6-10.14,10.16-15.88
		c0.45-1.55,2.8899-1.43,3.4399-0.01c7.8201,15.57,14.76,31.67,24.15,46.39c1.67-0.81,3.46-0.63,5.2-0.09
		c9.1901-14.56,16.2101-30.35,23.78-45.77c0.46-1.75,3.0601-2.41,3.73-0.44c2.5801,5.47,4.89,11.39,9.6801,15.38
		c2.8099,2.51,7.22,4.31,10.7899,2.31c3.91-2.91,3.9801-8.33,4.5801-12.73c-3.63,1.21-7.62,3.13-11.4501,1.67
		c-3.87-1.71-5.35-6.08-6.36-9.86c-2.47-10.25-2.76-20.95-5.8199-31.08c-1.74-5.85-4.6801-11.8-10.13-15
		c-4.73-3.27-11.67-4.41-16.39-0.56c-1.88,1.08-3.21,3.5-5.41,3.69c-3.22-2.23-5.97-5.65-10.13-6.02
		C1428.97,183.36,1421.3101,189.02,1418.16,196.14 M1486.8199,216.71c0.02,5.92,1.1101,11.83,2.76,17.51
		c0.76,2.07,1.79,5.07,4.4701,5.07c3.0199-0.23,6.8899-1.18,7.98-4.42c0.5-2.9-0.35-5.84-0.0701-8.76
		c0.99-1.09,2.98-1.29,3.6801,0.25c1.52,3.31,1.01,7.09,1.17,10.63c0.0299,6.15-0.0701,12.87-3.7201,18.11
		c-2.23,3.22-6.38,4.58-10.14,3.87c-4.8899-0.5-8.6399-3.98-11.95-7.29c0.09,25.06-0.26,50.13-0.03,75.19
		c2.0901,2.84,4.76,5.46,5.03,9.24c12.72-15.72,24.85-31.92,36.96-48.12c1.4501-2.08,3.64-4.13,2.9601-6.93
		c-1.14-10.95-2.5-21.89-3.41-32.86c-1.47-11.38-9.65-20.88-19.45-26.29C1498.03,219.23,1492.59,216.88,1486.8199,216.71
		 M1390.89,224.84c4.78,2.29-0.58,8.9,3.25,12.07c2.66,2.09,8,4.05,9.97,0.1c2.88-6.11,3.53-13.03,4.12-19.68
		C1401.87,218.25,1396.3,221.61,1390.89,224.84 M1376.29,248.92c-0.98,12.41-2.63,24.75-3.8,37.13c-0.34,2.03,1.48,3.45,2.47,5.01
		c13.4701,17.66,26.4501,35.78,41.0901,52.49c-0.8-3.39-2.64-6.8-1.7201-10.35c0.7301-3.02,4.3401-4.74,3.77-8.14
		c-0.02-26.46-0.23-52.92-0.21-79.39c-3.92,6.08-8.98,12.93-16.86,13.44c-5.14,0.75-9.75-3.1-11.17-7.84
		c-2.58-7.88-2.09-16.42-1.1-24.54C1382.21,232.38,1377.1899,240.19,1376.29,248.92 M1452.51,286.56
		c-1.67,3.08-5.4401,2.02-8.3,2.21c-7.83-10.02-12.76-21.85-18.9199-32.88c-0.9601,8.35-0.02,16.74-0.15,25.11
		c0.0599,14.31,0.01,28.63,0.0699,42.94c3.8501-1.24,8.03-1.92,11.42-4.24c2.77-3.29,3.26-8.55,7.62-10.43
		c5.36-2.33,12.21-1.06,16.3199,3.16c2.3401,2.47,3.2301,5.95,5.5601,8.43c2.29,1.53,5.02,2.19,7.61,3.11
		c0.04-25.42,0.47-50.85-0.05-76.27C1466.64,260.65,1460.85,274.35,1452.51,286.56 M1499.05,331.07
		c-8.5901,10.67-16.87,21.72-26.91,31.11c-2.58,2.92-2.8201,7.06-3.14,10.76c-0.61,12.14,1.41,24.23,3.85,36.09
		c13.38-6.84,26.7101-13.81,39.59-21.55c6.5-4.04,13.16-8.03,18.55-13.53c-1.71-25.37-4.48-50.66-6.62-75.99
		C1515.9301,309,1507.64,320.15,1499.05,331.07 M1371.4301,298.35c-1.7201,16.15-3.1101,32.34-4.6101,48.52
		c-0.59,9-1.8999,18-1.9299,27.02c3.49,4.33,8.4,7.15,12.95,10.23c14.5,9.16,29.7001,17.16,45.02,24.84
		c2.16-10.87,4.05-21.89,3.92-33c-0.26-5-0.0901-10.96-4.1-14.63c-4.1901-3.82-7.9501-8.05-11.5801-12.39
		C1397.24,332.59,1384.62,315.23,1371.4301,298.35 M1447.4,315.35c-2.5701,2.98-3.16,7.27-6.1801,9.89
		c-6.0699,4.44-14.99,4.08-20.0699,9.95c0.46,3.04,2.02,5.79,2.5399,8.82c-0.0099,2.39-0.95,4.65-1.61,6.92
		c3.4801,3.84,8.4401,6.85,9.8101,12.15c0.89,2.61,1.13,5.74,3.5699,7.48c6.38,5.23,12.3101,12.03,13.51,20.49
		c0.66,3.81-1.03,7.4-2.7899,10.65c2.22,2.22,4.2699,4.6,6.12,7.14c1.47-1.94,3.1799-3.71,4.3999-5.83
		c-2.5499-2.73-6.12-5.02-6.6599-9.03c-1.48-8.59,3.71-16.58,9.71-22.22c3.86-3.31,2.98-9.12,6.0699-12.95
		c3.76-4.56,8.77-8.06,11.9901-13.09c0.6899-2.4,0.5199-4.95,0.6799-7.42c-0.1-1.57,0.42-3.64-1.21-4.59
		c-4.87-3.67-11.4501-3.99-16.27-7.73c-2.62-2.58-3.45-6.44-6.01-9.05C1452.9399,315.14,1449.96,314.98,1447.4,315.35
		 M1433.91,375.69c-0.02,8.73-1.16,17.4-2.41,26.02c3.6801-0.4,7.96-0.59,10.64-3.55c2.1799-2.35,2.36-5.87,1.46-8.8
		C1441.88,383.92,1438.09,379.44,1433.91,375.69 M1454.89,392.98c0.85,4.19,5.28,5.9,9.03,6.57c-1.25-7.57-2.02-15.21-2.15-22.88
		C1457.85,381.13,1453.83,386.69,1454.89,392.98 M1519.4301,391.44c-12.5,7.9-25.78,14.48-38.67,21.66
		c-0.36,42.29-0.25,84.6-0.41,126.89c0.2001,6.45-0.5,13,0.3,19.38c4.21,1.78,8.75,2.67,13.2999,3.03
		c4.4601,0.33,8.4601,3.08,13.02,2.71c4.1801-0.22,6.67-5.05,11.02-4.57c5.79,0.47,10.8,4.68,16.77,4.06
		c2.51-0.21,4.4-2.0699,6.33-3.5c4.23-3.41,9.11-5.88,14.04-8.14c-6.0699-58.15-12.54-116.26-18.7-174.41
		C1531.37,383.6,1525.5,387.72,1519.4301,391.44 M1362.17,381.54c-6.11,57.09-12.4,114.17-18.38,171.28
		c6.13,2.62,11.5399,6.54,16.64,10.77c5.9099,3.28,11.7799-2.1,17.6-2.96c4.77-1.15,7.3099,4.79,11.96,4.54
		c4.14-0.19,7.8101-2.6,11.97-2.84c5.6901-0.34,10.9501-2.65,16.1901-4.71c0.76-6.17,0.1799-12.41,0.3199-18.61
		c-0.0599-32.67-0.15-65.34-0.23-98.01c-0.16-8.89,0.3-17.81-0.35-26.68C1398.74,404.47,1379.26,394.78,1362.17,381.54
		 M1456.4,416.48c-1.39,3.24-6.2001,2.62-8.11,0.25c-2.0601-2.96-3.14-6.63-5.9701-9.02c-3.1399-3.17-7.9399-0.98-11.84-1.27
		c-0.6699,3.95-1.58,7.85-2.51,11.75c-0.6699,0.05-1.99,0.17-2.65,0.22c0.14,32.2-0.0399,64.39,0.26,96.59
		c0.0901,29.64-0.08,59.28,0.1801,88.92c15.3,0.29,30.61,0.43,45.91-0.04c-0.05-7.3,0.9399-14.57,0.95-21.87
		c1.4301-24.64,0.47-49.34,0.8-74.01c-0.0901-30.35,0.26-60.69-0.0801-91.03c-1.76,0.65-3.5,1.31-5.24,1.96
		c-1.4-4.57-2.35-9.25-3.2899-13.92C1461.1899,408.19,1458.46,412.16,1456.4,416.48z"/>
	<path fill="#662583" stroke="#662583" stroke-width="0.4" d="M1444.33,43.32c7.9601-2.45,16.28,1.92,21.49,7.83
		c9.4601,10.66,14.4701,24.43,17.9401,38.05c1.65,6.75,2.96,13.6,3.46,20.54c-25.37-0.19-50.74-0.06-76.11-0.07
		c1.9-16.98,6.13-34.02,14.58-48.99C1430.0699,53.38,1435.88,45.95,1444.33,43.32z"/>
	<path fill="#A2185B" stroke="#A2185B" stroke-width="0.4" d="M1392.66,116.89c23.1-0.63,46.22-0.1,69.33-0.28
		c13.71,0.16,27.4301-0.32,41.13,0.27c-3.1899,4.48-7.08,8.4-10.8199,12.41c-1.0601,1.29-2.6101,1.97-4.25,1.9
		c-26.3601,0.01-52.7301-0.01-79.0901,0.01c-1.9399-0.1-4.2-0.03-5.51-1.7C1399.73,125.41,1395.87,121.41,1392.66,116.89z"/>
	<path fill="#F9EA1B" stroke="#F9EA1B" stroke-width="0.4" d="M1406.23,138.15c10.76-0.12,21.53,0.03,32.3-0.04
		c-13.8401,11.82-18.66,30.56-20.6901,47.93c0.02,2.91-1.9099,5.18-3.1599,7.64c-2.6001,4.9-3.7401,10.39-4.9501,15.75
		c-7.36-7.83-13.76-16.52-19.71-25.45c-1.1901-1.89-2.59-3.72-3.24-5.87C1392.71,164.54,1399.78,151.48,1406.23,138.15z"/>
	<path fill="#F9EA1C" stroke="#F9EA1C" stroke-width="0.4" d="M1459.67,138.08c9.6499,0.15,19.2999-0.12,28.96,0.11
		c6.37,13.34,13.5,26.34,19.36,39.91c-2.3,5.56-6.36,10.22-9.7,15.19c-4.1001,5.55-8.3501,11.01-13.1001,16.02
		c-0.8899-5.23-3.0099-10.13-4.0199-15.31c-0.9801-15.6-3.86-31.62-12.0701-45.17C1466.65,144.68,1463.25,141.25,1459.67,138.08z"/>
	<path fill="#F2C995" stroke="#F2C995" stroke-width="0.4" d="M1442.17,141.19c4.3199-2.78,10.1599-2.61,14.3999,0.24
		c6.2001,4.08,9.9701,10.8,12.9701,17.4c-5.2101-1.1-12.0801-1.86-15.52,3.18c-3.0701,5.48-1.27,12.02-1.8201,17.98
		c0.2201,2.31-2.3999,2.97-3.8099,4.19c-0.0701-5.73,0.2-11.47-0.11-17.19c-0.14-3.61-2.4401-7.12-5.9301-8.26
		c-4.5599-1.66-9.41-0.19-13.89,0.96C1431.49,152.61,1435.46,145.39,1442.17,141.19z"/>
	<path fill="#F1C998" stroke="#F1C998" stroke-width="0.4" d="M1427.53,161.55c4.48,0.54,8.87-1.88,13.36-0.67
		c2.8099,0.61,4.77,3.31,4.92,6.12c0.2999,5.48-0.04,10.97,0.1899,16.46c-3.36-1.96-7-3.83-11-3.59c-4.6801-0.2-8.84,2.2-12.78,4.39
		C1423.24,176.53,1425.16,168.97,1427.53,161.55 M1427.6801,169.16c0.61,1.06,1.1399,2.22,2,3.14c3.0599,1.03,6.34,0.3,9.38-0.46
		c-0.52-1.35-0.52-3.12-1.8601-3.97C1434.02,166.61,1430.5601,167.66,1427.6801,169.16z"/>
	<path fill="#F0C998" stroke="#F0C998" stroke-width="0.4" d="M1455.24,165.3c2.0601-6.33,10.84-5.47,15.55-3
		c3.1799,8.03,4.6799,16.66,5.63,25.22c-3.42-2.74-6.9401-5.57-11.1901-6.88c-3.39-1.15-7.02-0.7-10.48-0.29
		C1454.97,175.34,1454.3101,170.25,1455.24,165.3 M1461.47,167.63c-1.83,0.42-3.15,2.93-1.36,4.21c2.96,1.96,6.77,0.66,9.97-0.01
		c-0.5399-1.35-0.39-3.23-1.85-3.99C1466.04,167.19,1463.67,167.17,1461.47,167.63z"/>
	<path fill="#34A9DA" stroke="#34A9DA" stroke-width="0.4" d="M1427.6801,169.16c2.88-1.5,6.34-2.55,9.5199-1.29
		c1.3401,0.85,1.3401,2.62,1.8601,3.97c-3.04,0.76-6.3201,1.49-9.38,0.46C1428.8199,171.38,1428.29,170.22,1427.6801,169.16z"/>
	<path fill="#35A3D1" stroke="#35A3D1" stroke-width="0.4" d="M1461.47,167.63c2.2001-0.46,4.5701-0.44,6.76,0.21
		c1.46,0.76,1.3101,2.64,1.85,3.99c-3.2,0.67-7.01,1.97-9.97,0.01C1458.3199,170.56,1459.64,168.05,1461.47,167.63z"/>
	<path fill="#F9B234" stroke="#F9B234" stroke-width="0.4" d="M1418.16,196.14c3.15-7.12,10.8099-12.78,18.7999-11.97
		c4.16,0.37,6.91,3.79,10.13,6.02c2.2001-0.19,3.53-2.61,5.41-3.69c4.72-3.85,11.66-2.71,16.39,0.56c5.45,3.2,8.39,9.15,10.13,15
		c3.0599,10.13,3.35,20.83,5.8199,31.08c1.01,3.78,2.49,8.15,6.36,9.86c3.8301,1.46,7.8201-0.46,11.4501-1.67
		c-0.6,4.4-0.67,9.82-4.5801,12.73c-3.5699,2-7.98,0.2-10.7899-2.31c-4.79-3.99-7.1-9.91-9.6801-15.38
		c-0.6699-1.97-3.27-1.31-3.73,0.44c-7.5699,15.42-14.59,31.21-23.78,45.77c-1.74-0.54-3.5299-0.72-5.2,0.09
		c-9.39-14.72-16.33-30.82-24.15-46.39c-0.55-1.42-2.99-1.54-3.4399,0.01c-2.5601,5.74-5.1001,11.86-10.16,15.88
		c-2.75,2.29-6.89,3.74-10.23,1.95c-3.9401-2.9-4.05-8.31-4.6-12.72c3.85,1.19,8.3099,3.39,12.21,1.18
		c3.83-2.36,4.97-7.08,5.96-11.16C1413.05,219.67,1413.0601,207.22,1418.16,196.14 M1437.5601,201.19
		c0.6499,1.33,1.21,3.01,2.84,3.46c4.74,1.6,10.23,1.66,14.87-0.36c1.75-0.56,2.4-3.28,0.39-3.95
		C1450.05,197.46,1442.95,198.04,1437.5601,201.19z"/>
	<path fill="#0F0801" stroke="#0F0801" stroke-width="0.4" d="M1437.5601,201.19c5.3899-3.15,12.49-3.73,18.1-0.85
		c2.01,0.67,1.36,3.39-0.39,3.95c-4.64,2.02-10.13,1.96-14.87,0.36C1438.77,204.2,1438.21,202.52,1437.5601,201.19z"/>
	<path fill="#F3A3BC" stroke="#F3A3BC" stroke-width="0.4" d="M1486.8199,216.71c5.77,0.17,11.2101,2.52,16.2401,5.2
		c9.7999,5.41,17.98,14.91,19.45,26.29c0.91,10.97,2.27,21.91,3.41,32.86c0.6799,2.8-1.51,4.85-2.9601,6.93
		c-12.11,16.2-24.24,32.4-36.96,48.12c-0.27-3.78-2.9399-6.4-5.03-9.24c-0.23-25.06,0.12-50.13,0.03-75.19
		c3.3101,3.31,7.0601,6.79,11.95,7.29c3.76,0.71,7.91-0.65,10.14-3.87c3.65-5.24,3.75-11.96,3.7201-18.11
		c-0.16-3.54,0.35-7.32-1.17-10.63c-0.7001-1.54-2.6901-1.34-3.6801-0.25c-0.2799,2.92,0.5701,5.86,0.0701,8.76
		c-1.0901,3.24-4.9601,4.19-7.98,4.42c-2.6801,0-3.7101-3-4.4701-5.07C1487.9301,228.54,1486.84,222.63,1486.8199,216.71
		 M1496.1801,281.15c-1.4,5.02-7.6001,3.56-11.51,4.73c2.2699,2.47,4.95,4.61,6.95,7.35c-0.1899,3.3-0.99,6.54-1.4399,9.82
		c2.95-1.44,5.7599-3.18,8.85-4.33c3.26,0.92,6.1,2.9,9.1599,4.34c-0.4299-3.31-1.25-6.57-1.3199-9.9c1.99-2.64,4.54-4.78,6.74-7.25
		c-3.27-0.63-6.63-0.78-9.79-1.8c-1.7799-2.71-2.73-5.9-4.71-8.5C1498,277.4,1497.1,279.28,1496.1801,281.15z"/>
	<path fill="#F2A3BB" stroke="#F2A3BB" stroke-width="0.4" d="M1390.89,224.84c5.41-3.23,10.98-6.59,17.34-7.51
		c-0.59,6.65-1.24,13.57-4.12,19.68c-1.97,3.95-7.3099,1.99-9.97-0.1C1390.3101,233.74,1395.67,227.13,1390.89,224.84z"/>
	<path fill="#F3A3BC" stroke="#F3A3BC" stroke-width="0.4" d="M1376.29,248.92c0.8999-8.73,5.9199-16.54,12.47-22.19
		c-0.99,8.12-1.48,16.66,1.1,24.54c1.42,4.74,6.03,8.59,11.17,7.84c7.88-0.51,12.9399-7.36,16.86-13.44
		c-0.02,26.47,0.1899,52.93,0.21,79.39c0.5701,3.4-3.0399,5.12-3.77,8.14c-0.9199,3.55,0.92,6.96,1.7201,10.35
		c-14.64-16.71-27.62-34.83-41.0901-52.49c-0.99-1.56-2.8099-2.98-2.47-5.01C1373.66,273.67,1375.3101,261.33,1376.29,248.92
		 M1392.8101,279.56c-3.3301,0.35-6.63,0.84-9.9,1.45c2.2999,2.41,4.9299,4.53,6.97,7.19c-0.0699,3.39-0.9401,6.69-1.52,10
		c3.15-1.4,6.0701-3.8,9.53-4.29c3.0599,1.08,5.83,2.83,8.73,4.3c-0.58-3.35-1.13-6.69-1.65-10.04c2.39-2.36,4.79-4.72,7.0801-7.19
		c-3.28-0.57-6.5701-1.08-9.87-1.43c-1.5-3.01-3.03-6.01-4.53-9.01C1395.9,273.47,1394.29,276.49,1392.8101,279.56z"/>
	<path fill="#A2185B" stroke="#A2185B" stroke-width="0.4" d="M1452.51,286.56c8.34-12.21,14.13-25.91,21.1799-38.86
		c0.52,25.42,0.0901,50.85,0.05,76.27c-2.59-0.92-5.3199-1.58-7.61-3.11c-2.33-2.48-3.22-5.96-5.5601-8.43
		c-4.11-4.22-10.96-5.49-16.3199-3.16c-4.36,1.88-4.85,7.14-7.62,10.43c-3.39,2.32-7.5699,3-11.42,4.24
		c-0.0599-14.31-0.01-28.63-0.0699-42.94c0.13-8.37-0.8101-16.76,0.15-25.11c6.1599,11.03,11.09,22.86,18.9199,32.88
		C1447.0699,288.58,1450.84,289.64,1452.51,286.56z"/>
	<path fill="#A1195A" stroke="#A1195A" stroke-width="0.4" d="M1392.8101,279.56c1.48-3.07,3.09-6.09,4.84-9.02
		c1.5,3,3.03,6,4.53,9.01c3.2999,0.35,6.59,0.86,9.87,1.43c-2.29,2.47-4.6901,4.83-7.0801,7.19c0.52,3.35,1.0701,6.69,1.65,10.04
		c-2.9-1.47-5.67-3.22-8.73-4.3c-3.46,0.49-6.38,2.89-9.53,4.29c0.58-3.31,1.4501-6.61,1.52-10c-2.04-2.66-4.67-4.78-6.97-7.19
		C1386.1801,280.4,1389.48,279.91,1392.8101,279.56z"/>
	<path fill="#A1185A" stroke="#A1185A" stroke-width="0.4" d="M1496.1801,281.15c0.9199-1.87,1.8199-3.75,2.9299-5.54
		c1.98,2.6,2.9301,5.79,4.71,8.5c3.16,1.02,6.52,1.17,9.79,1.8c-2.2,2.47-4.75,4.61-6.74,7.25c0.0699,3.33,0.89,6.59,1.3199,9.9
		c-3.0599-1.44-5.8999-3.42-9.1599-4.34c-3.0901,1.15-5.9,2.89-8.85,4.33c0.45-3.28,1.25-6.52,1.4399-9.82
		c-2-2.74-4.6801-4.88-6.95-7.35C1488.58,284.71,1494.78,286.17,1496.1801,281.15z"/>
	<path fill="#F3A3BC" stroke="#F3A3BC" stroke-width="0.4" d="M1499.05,331.07c8.59-10.92,16.88-22.07,25.3199-33.11
		c2.14,25.33,4.91,50.62,6.62,75.99c-5.39,5.5-12.05,9.49-18.55,13.53c-12.8799,7.74-26.21,14.71-39.59,21.55
		c-2.4399-11.86-4.46-23.95-3.85-36.09c0.3199-3.7,0.5601-7.84,3.14-10.76C1482.1801,352.79,1490.46,341.74,1499.05,331.07
		 M1499.74,363.95c-3.36,0.59-6.74,1.09-10.11,1.59c2.1801,2.37,4.63,4.5,6.71,6.98c0.4701,3.43-0.87,6.89-1.3099,10.3
		c3.0399-1.53,6.0599-3.1,9.0499-4.75c3.04,1.58,6.0601,3.2,9.11,4.79c-0.45-3.26-1.24-6.48-1.36-9.77
		c1.6901-2.95,4.61-4.96,6.9401-7.4c-3.4401-0.67-6.9-1.18-10.3201-1.9c-1.33-2.97-2.72-5.91-4.08-8.86
		C1502.64,357.84,1501.1,360.86,1499.74,363.95z"/>
	<path fill="#F3A3BC" stroke="#F3A3BC" stroke-width="0.4" d="M1371.4301,298.35c13.1899,16.88,25.8099,34.24,39.6699,50.59
		c3.63,4.34,7.39,8.57,11.5801,12.39c4.0099,3.67,3.84,9.63,4.1,14.63c0.13,11.11-1.76,22.13-3.92,33
		c-15.3199-7.68-30.52-15.68-45.02-24.84c-4.5499-3.08-9.46-5.9-12.95-10.23c0.03-9.02,1.34-18.02,1.9299-27.02
		C1368.3199,330.69,1369.71,314.5,1371.4301,298.35 M1392.4399,350.01c-1.5,3-2.6899,6.21-4.7,8.91
		c-3.1899,1.04-6.59,1.13-9.88,1.58c2.2001,2.37,4.7001,4.48,6.76,7c0.54,3.45-0.76,6.97-0.98,10.44
		c3.03-1.46,5.8199-3.82,9.16-4.43c3.0499,1.09,5.7699,2.94,8.6399,4.45c-0.3199-3.26-0.99-6.48-1.2599-9.74
		c1.6399-3.03,4.7599-5.04,6.96-7.7c-3.35-0.44-6.6901-0.88-10.02-1.41C1395.62,356.04,1394.09,353,1392.4399,350.01z"/>
	<path fill="#7B6019" stroke="#7B6019" stroke-width="0.4" d="M1447.4,315.35c2.5599-0.37,5.5399-0.21,7.6,1.58
		c2.5601,2.61,3.39,6.47,6.01,9.05c4.8199,3.74,11.4,4.06,16.27,7.73c1.63,0.95,1.11,3.02,1.21,4.59
		c-0.16,2.47,0.01,5.02-0.6799,7.42c-3.2201,5.03-8.2301,8.53-11.9901,13.09c-3.09,3.83-2.21,9.64-6.0699,12.95
		c-6,5.64-11.1899,13.63-9.71,22.22c0.5399,4.01,4.11,6.3,6.6599,9.03c-1.22,2.12-2.9299,3.89-4.3999,5.83
		c-1.8501-2.54-3.9-4.92-6.12-7.14c1.7599-3.25,3.45-6.84,2.7899-10.65c-1.2-8.46-7.13-15.26-13.51-20.49
		c-2.4399-1.74-2.6799-4.87-3.5699-7.48c-1.37-5.3-6.33-8.31-9.8101-12.15c0.66-2.27,1.6001-4.53,1.61-6.92
		c-0.5199-3.03-2.08-5.78-2.5399-8.82c5.08-5.87,14-5.51,20.0699-9.95C1444.24,322.62,1444.83,318.33,1447.4,315.35z"/>
	<path fill="#A1185A" stroke="#A1185A" stroke-width="0.4" d="M1392.4399,350.01c1.65,2.99,3.1801,6.03,4.6801,9.1
		c3.33,0.53,6.67,0.97,10.02,1.41c-2.2001,2.66-5.3201,4.67-6.96,7.7c0.2699,3.26,0.9399,6.48,1.2599,9.74
		c-2.87-1.51-5.59-3.36-8.6399-4.45c-3.3401,0.61-6.13,2.97-9.16,4.43c0.22-3.47,1.52-6.99,0.98-10.44
		c-2.0599-2.52-4.5599-4.63-6.76-7c3.29-0.45,6.6901-0.54,9.88-1.58C1389.75,356.22,1390.9399,353.01,1392.4399,350.01z"/>
	<path fill="#A2185A" stroke="#A2185A" stroke-width="0.4" d="M1499.74,363.95c1.36-3.09,2.9-6.11,4.63-9.02
		c1.36,2.95,2.75,5.89,4.08,8.86c3.42,0.72,6.88,1.23,10.3201,1.9c-2.3301,2.44-5.25,4.45-6.9401,7.4c0.12,3.29,0.91,6.51,1.36,9.77
		c-3.0499-1.59-6.0699-3.21-9.11-4.79c-2.99,1.65-6.01,3.22-9.0499,4.75c0.4399-3.41,1.78-6.87,1.3099-10.3
		c-2.08-2.48-4.5299-4.61-6.71-6.98C1493,365.04,1496.38,364.54,1499.74,363.95z"/>
	<path fill="#B6B5B3" stroke="#B6B5B3" stroke-width="0.4" d="M1643.66,370.71c6.2-3.39,13.48-2.92,20.3199-2.91
		c7.75,0.03,16.13,1.74,21.8,7.43c4.46,4.36,4.72,11.45,2.38,16.94c-1.65,4.89-5.41,8.55-8.1,12.82c1.95,3.25,4.61,6.01,6.9299,9.01
		c-6.78,0.03-13.52-0.93-20.29-0.92c4.3301,5.32,9.54,9.87,13.5801,15.44c-7.67,0.13-15.11,2.02-22.41,4.16
		c4.26,1.55,9.65,1.04,12.9,4.67c2.08,2.8-0.24,6.16-1.75,8.62c-4.77,6.49-8.28,13.76-12.2001,20.76
		c-24.61,45.03-49.35,90-73.97,135.02c-0.9,1.39-2.0499,2.59-3.15,3.81c-2.38-7.51-4.38-15.13-6.58-22.68
		c-2.13-8.01-5.0699-15.85-5.95-24.12c-5.14-39.19-10.3-78.38-15.49-117.56c5.72-3.81,11.08-8.22,17.34-11.15
		c6.3099-3.31,13.28-5,20.25-6.29c-4.1901-5.24-10.2001-8.43-15.13-12.85c8.77-3.85,18.39-5.52,26.96-9.86
		c-2.39-3.16-5.11-6.06-7.45-9.26c6.45-0.44,12.91-0.09,19.37-0.17c4.64,0.12,7.76-3.91,11.29-6.32
		C1630.85,380.56,1636.5,374.56,1643.66,370.71z"/>
	<path fill="#F1C996" stroke="#F1C996" stroke-width="0.4" d="M1433.91,375.69c4.1799,3.75,7.97,8.23,9.6899,13.67
		c0.9,2.93,0.72,6.45-1.46,8.8c-2.6801,2.96-6.96,3.15-10.64,3.55C1432.75,393.09,1433.89,384.42,1433.91,375.69z"/>
	<path fill="#F0C999" stroke="#F0C999" stroke-width="0.4" d="M1454.89,392.98c-1.0601-6.29,2.96-11.85,6.88-16.31
		c0.13,7.67,0.9,15.31,2.15,22.88C1460.17,398.88,1455.74,397.17,1454.89,392.98z"/>
	<path fill="#F3A3BC" stroke="#F3A3BC" stroke-width="0.4" d="M1519.4301,391.44c6.0699-3.72,11.9399-7.84,17-12.89
		c6.1599,58.15,12.63,116.26,18.7,174.41c-4.9301,2.2599-9.8101,4.73-14.04,8.14c-1.9299,1.4301-3.8199,3.29-6.33,3.5
		c-5.97,0.62-10.98-3.59-16.77-4.06c-4.35-0.48-6.84,4.35-11.02,4.57c-4.5599,0.37-8.5599-2.38-13.02-2.71
		c-4.5499-0.36-9.09-1.25-13.2999-3.03c-0.8-6.38-0.1-12.93-0.3-19.38c0.16-42.29,0.05-84.6,0.41-126.89
		C1493.65,405.92,1506.9301,399.34,1519.4301,391.44 M1510.42,428.98c-1.4601,3.08-2.99,6.12-4.5,9.17
		c-3.36,0.41-6.7101,0.88-10.05,1.3c2.1901,2.4,4.6901,4.52,6.77,7.04c0.53,3.35-0.78,6.74-0.97,10.1c3.08-1.24,5.86-3.36,9.12-4.12
		c2.97,1.1,5.6699,2.8,8.58,4.08c-0.23-3.36-1.36-6.7-1-10.06c2.13-2.46,4.6-4.6,6.85-6.95c-3.37-0.5-6.72-0.99-10.0699-1.48
		C1513.66,434.99,1512.1,431.95,1510.42,428.98 M1509.78,503.09c-3.3401,0.57-6.7001,1.01-10.04,1.49
		c2.16,2.66,5.12,4.73,6.9301,7.65c-0.1001,3.29-0.9501,6.51-1.53,9.74c3.01-1.49,5.86-3.34,9.03-4.5099
		c3.24,0.93,6.0399,2.97,9.0499,4.47c-0.25-3.48-1.63-7.03-0.9299-10.49c2.0699-2.51,4.5599-4.63,6.7899-7
		c-3.33-0.4-6.75-0.37-9.9199-1.46c-2.25-2.56-3.1901-5.99-4.7201-8.99C1512.76,496.96,1511.22,500,1509.78,503.09z"/>
	<path fill="#F3A3BC" stroke="#F3A3BC" stroke-width="0.4" d="M1362.17,381.54c17.09,13.24,36.5699,22.93,55.72,32.78
		c-1.4501,4.76-0.97,9.78-0.92,14.68c0.02,39.01,0.16,78.01,0.1901,117.01c-0.12,3.89-0.17,7.85,0.99,11.61
		c-5.24,2.06-10.5,4.37-16.1901,4.71c-4.1599,0.24-7.83,2.65-11.97,2.84c-4.65,0.25-7.1899-5.69-11.96-4.54
		c-5.8201,0.86-11.6901,6.24-17.6,2.96c-5.1001-4.23-10.51-8.15-16.64-10.77C1349.77,495.71,1356.0601,438.63,1362.17,381.54
		 M1381.72,432.99c-3.33,0.64-6.6799,1.14-10.01,1.62c2.1801,2.57,4.86,4.73,6.8301,7.48c-0.11,3.32-0.9501,6.55-1.4701,9.82
		c3.03-1.49,6.02-3.08,8.9701-4.74c3.0299,1.59,6.0699,3.2,9.14,4.77c-0.4601-3.28-1.2401-6.51-1.37-9.82
		c1.83-2.84,4.6-4.9,6.9399-7.31c-3.42-0.67-6.86-1.17-10.24-1.95c-1.33-2.93-2.75-5.82-4.37-8.59
		C1384.5699,427.13,1383.09,430.03,1381.72,432.99 M1377.77,497.91c-3.1801,1.21-6.67,1.15-9.99,1.69c2.22,2.62,5.22,4.66,6.99,7.61
		c-0.1,3.32-0.97,6.56-1.51,9.84c2.99-1.45,5.8199-3.27,8.9399-4.47c3.3,0.71,6.0801,2.98,9.12,4.42c-0.36-3.27-1.11-6.5-1.21-9.78
		c1.7001-2.84,4.49-4.82,6.64-7.32c-3.2-0.73-6.49-0.97-9.61-1.93c-1.99-2.73-3.17-5.94-4.63-8.95
		C1380.9,491.97,1379.61,495.1,1377.77,497.91z"/>
	<path fill="#A3185B" stroke="#A3185B" stroke-width="0.4" d="M1456.4,416.48c2.0599-4.32,4.7899-8.29,8.41-11.47
		c0.9399,4.67,1.8899,9.35,3.2899,13.92c1.74-0.65,3.48-1.31,5.24-1.96c0.3401,30.34-0.01,60.68,0.0801,91.03
		c-0.3301,24.67,0.63,49.37-0.8,74.01c-0.01,7.3-1,14.57-0.95,21.87c-15.3,0.47-30.61,0.33-45.91,0.04
		c-0.26-29.64-0.09-59.28-0.1801-88.92c-0.2999-32.2-0.12-64.39-0.26-96.59c0.66-0.05,1.9801-0.17,2.65-0.22
		c0.9301-3.9,1.8401-7.8,2.51-11.75c3.9,0.29,8.7001-1.9,11.84,1.27c2.8301,2.39,3.91,6.06,5.9701,9.02
		C1450.2,419.1,1455.01,419.72,1456.4,416.48z"/>
	<path fill="#FBBED1" stroke="#FBBED1" stroke-width="0.4" d="M1416.97,429c-0.0499-4.9-0.53-9.92,0.92-14.68
		c0.65,8.87,0.1899,17.79,0.35,26.68c0.08,32.67,0.17,65.34,0.23,98.01c-0.14,6.2,0.4401,12.44-0.3199,18.61
		c-1.16-3.76-1.11-7.72-0.99-11.61C1417.13,507.01,1416.99,468.01,1416.97,429z"/>
	<path fill="#A1185A" stroke="#A1185A" stroke-width="0.4" d="M1381.72,432.99c1.37-2.96,2.85-5.86,4.42-8.72
		c1.62,2.77,3.04,5.66,4.37,8.59c3.38,0.78,6.8199,1.28,10.24,1.95c-2.34,2.41-5.11,4.47-6.9399,7.31
		c0.1299,3.31,0.9099,6.54,1.37,9.82c-3.0701-1.57-6.1101-3.18-9.14-4.77c-2.9501,1.66-5.9401,3.25-8.9701,4.74
		c0.52-3.27,1.3601-6.5,1.4701-9.82c-1.9701-2.75-4.65-4.91-6.8301-7.48C1375.04,434.13,1378.39,433.63,1381.72,432.99z"/>
	<path fill="#A2185A" stroke="#A2185A" stroke-width="0.4" d="M1510.42,428.98c1.6799,2.97,3.24,6.01,4.73,9.08
		c3.35,0.49,6.7,0.98,10.0699,1.48c-2.25,2.35-4.72,4.49-6.85,6.95c-0.36,3.36,0.77,6.7,1,10.06c-2.91-1.28-5.61-2.98-8.58-4.08
		c-3.26,0.76-6.04,2.88-9.12,4.12c0.1899-3.36,1.5-6.75,0.97-10.1c-2.08-2.52-4.58-4.64-6.77-7.04c3.34-0.42,6.6901-0.89,10.05-1.3
		C1507.4301,435.1,1508.96,432.06,1510.42,428.98z"/>
	<path fill="#A1185A" stroke="#A1185A" stroke-width="0.4" d="M1377.77,497.91c1.84-2.81,3.13-5.94,4.74-8.89
		c1.46,3.01,2.64,6.22,4.63,8.95c3.12,0.96,6.41,1.2,9.61,1.93c-2.15,2.5-4.9399,4.48-6.64,7.32c0.1,3.28,0.85,6.51,1.21,9.78
		c-3.0399-1.44-5.8199-3.71-9.12-4.42c-3.12,1.2-5.95,3.02-8.9399,4.47c0.54-3.28,1.41-6.52,1.51-9.84
		c-1.77-2.95-4.77-4.99-6.99-7.61C1371.1,499.06,1374.59,499.12,1377.77,497.91z"/>
	<path fill="#A1185B" stroke="#A1185B" stroke-width="0.4" d="M1509.78,503.09c1.4399-3.09,2.98-6.13,4.6599-9.1
		c1.53,3,2.4701,6.43,4.7201,8.99c3.1699,1.09,6.59,1.06,9.9199,1.46c-2.23,2.37-4.72,4.49-6.7899,7
		c-0.7001,3.46,0.6799,7.01,0.9299,10.49c-3.01-1.5-5.8099-3.54-9.0499-4.47c-3.17,1.17-6.02,3.02-9.03,4.5099
		c0.58-3.23,1.4299-6.45,1.53-9.74c-1.8101-2.92-4.77-4.99-6.9301-7.65C1503.08,504.1,1506.4399,503.66,1509.78,503.09z"/>
</g>
<g>
	<path fill="#0D0802" stroke="#0D0802" stroke-width="0.4" d="M919.39,43.61c8.17-3.18,17.55,4.57,16.23,13.14
		c-0.65,7.65-9.19,12.79-16.32,10.19c-5.68-1.73-9.34-8.02-8.15-13.82C911.89,48.76,915.17,44.96,919.39,43.61z"/>
	<path fill="#0D0802" stroke="#0D0802" stroke-width="0.4" d="M869.7,79.68c5.8-7.38,14.95-11.89,24.33-12.1
		c12.99-0.28,25.99,0.14,38.98-0.07c7.93,0.06,16.29-0.69,23.7,2.74c10.9,4.65,18.72,15.76,19.05,27.66
		c-0.07,7.28,0.69,14.7-0.95,21.87c-1.34,5.93-4.98,10.93-8.99,15.36c4.62,9.23,9.97,18.1,14.68,27.3
		c1.71,3.48,3.92,6.78,4.91,10.57c-0.36,2.35-1.89,4.28-3.12,6.24c-7.49,10.8-16.02,20.9-25.47,30.05
		c18.79,3.02,37.24,16.32,41.13,35.74c3.45,32.92,7.05,65.83,10.6,98.74c3.16,31.87,7.5,63.6,11.64,95.35
		c5.41,40.57,10.71,81.16,16.07,121.73c0.72,4.62,0.5699,9.37,1.89,13.89c2.99,10.78,5.9399,21.57,8.9,32.36
		c-35.05,2-70.04,5-105.0701,7.28c0.05-0.84,0.16-2.54,0.21-3.39c-16.81,0.14-33.62-0.02-50.43,0.09c0.06,0.8199,0.2,2.46,0.26,3.28
		c-33.91-2.34-67.79-5.08-101.69-7.42c5.07-19.7,10.58-39.29,15.53-59.01c10.68-98.6,21.25-197.22,31.9-295.83
		c0.03-10.3,4.58-20.31,11.81-27.56c6.92-7.25,16.15-11.98,25.8-14.46c-9.99-9.61-19.02-20.22-26.81-31.67
		c-1.45-2.28-3.68-5.01-1.85-7.73c6.69-13.83,14.63-27.02,21.73-40.63c-1.44-2.77-3.14-5.43-4.06-8.44
		c-2.29-6.97-1.33-14.41-1.52-21.61C862.73,92.71,865.07,85.36,869.7,79.68 M882.2,78.32c-6.44,3.1-10.71,9.91-11.88,16.83
		c-0.63,5.95-0.27,11.95-0.25,17.92c-0.05,4.79,2.05,9.18,4.32,13.27c4.01-3.29,7.48-7.16,11.18-10.78
		c12.84-12.9,25.78-25.7,38.58-38.64c0.67-0.72,1.35-1.43,2.04-2.16c-9.73-0.24-19.45-0.06-29.17-0.13
		C891.93,74.68,886.36,75.1,882.2,78.32 M928.89,81.9c-13.82,13.84-27.66,27.66-41.49,41.5c-2.75,2.58-5.4,5.27-7.7,8.26
		c3.52,2,7.16,4.14,11.3,4.51c4.98,0.44,10.01,0.35,15.02,0.22c2.02,0.2,3.44-1.37,4.81-2.6c14.79-14.87,29.66-29.65,44.46-44.51
		c2.22-2.29,4.81-4.32,6.48-7.09c-6.46-6.81-16.62-8.78-25.58-7.18C933.42,76.92,931.28,79.57,928.89,81.9 M920.31,134.11
		c-0.64,0.74-1.27,1.49-1.87,2.24c10.06,0.05,20.18,0.61,30.22-0.38c8.39-1.43,15.71-7.65,18.59-15.64
		c2.1-5.88,1.21-12.22,1.41-18.33c0.1801-4.7-0.48-9.44-2.48-13.72C950.72,103.38,935.48,118.71,920.31,134.11 M873.33,135.86
		c-4.67,8.78-9.66,17.38-14.29,26.17c-1.86,3.61-4.19,7.04-5.35,10.96c1.66,3.57,4.26,6.58,6.6,9.71
		c6.37,8.05,12.95,16.01,20.66,22.82c1.63-6.38,5.34-12.19,5.67-18.88c1.45-15.14,5.66-30.38,14.7-42.81
		c-4.98-0.23-10.06,0-14.91-1.33C881.61,141.28,877.47,138.44,873.33,135.86 M949.06,143.17c-4.76,0.69-9.58,0.42-14.35,0.64
		c8.93,12.56,13.27,27.79,14.62,43.01c0.29,5.41,3.12,10.13,4.91,15.12c8.71-8.85,17.08-18.3,23.48-28.96
		c-1.87-5.31-5.11-10-7.59-15.02c-3.44-6.04-6.37-12.39-10.22-18.18C956.25,140.78,952.83,142.6,949.06,143.17 M901.67,151.68
		c-1.85,2.29-3.15,4.93-4.15,7.68c4.48-0.77,9.22-2.2,13.7-0.62c3.14,1.02,5.38,4.02,5.71,7.28c0.69,6.34,0.06,12.74,0.39,19.11
		c1.24-0.72,2.47-1.47,3.71-2.23c0.05-5.96,0.1899-11.92,0.06-17.87c1.43-2.17,2.62-4.78,5.14-5.89c3.76-1.85,8.06-0.91,12.03-0.4
		c-2.41-5.3-5.14-10.72-9.58-14.62c-6.74-0.98-13.75-0.49-20.56-0.27C905.09,145.34,902.95,148.59,901.67,151.68 M896.25,161.68
		c-2.44,7.91-4.55,15.94-5.35,24.2c3.23-2.22,6.52-4.58,10.41-5.5c4.54-1.29,9.24-0.07,13.47,1.7c-0.2-5.01,0.1299-10.04-0.16-15.05
		c-0.07-2.76-1.99-5.43-4.73-6.07C905.35,159.8,900.82,161.77,896.25,161.68 M924.37,164.39c-1.54,5.37-0.54,11.06-0.69,16.56
		c3.58-0.88,7.36-1.54,11.02-0.63c3.75,0.97,6.95,3.25,10.31,5.08c-0.9-7.32-2.32-14.63-4.77-21.6c-0.63-2.77-3.99-2.75-6.22-3.15
		C930.53,160.23,925.87,160.61,924.37,164.39 M888.52,196.58c-4.95,11.45-4.99,24.17-7.76,36.18c-1.02,3.74-2.26,8.15-6.01,10.02
		c-3.88,2-8.09-0.27-11.84-1.44c0.7,4.46,0.4901,10.3,4.94,12.88c4.97,2.32,10.04-1.55,13.08-5.25c3.57-3.85,4.8-9.11,7.7-13.37
		c2.13-1.36,3.06,1.33,3.88,2.8c7.06,14.9,14.06,29.88,22.67,43.96c1.91,0.04,3.82,0.03,5.74-0.02
		c9.35-15.01,16.47-31.24,24.35-47.04c0.6,0,1.79-0.01,2.39-0.02c3.04,6.53,5.91,13.73,12.14,17.92c2.89,2.03,7.6,2.63,10.14-0.28
		c2.74-3.21,2.78-7.65,3.21-11.63c-3.7401,1.33-7.9,3.09-11.83,1.45c-3.59-2.01-5.05-6.22-6.01-9.98
		c-2.73-12.08-2.7-24.89-7.78-36.36c-3.13-7.39-11.16-13.27-19.3701-12.19c-4.1299,0.39-6.48,4.56-10.17,5.7
		c-3.42-1.13-5.54-4.97-9.31-5.53C900.12,182.64,891.92,189.11,888.52,196.58 M861.16,223.9c-8.2,5.92-15.0699,14.65-16.03,25.01
		c-0.36,6.12-1.59,12.19-1.34,18.32c-2.75,2.89-1.64,7.48-2.11,11.12c0.22,3.18-0.65,6.41,0,9.54c2.04,3.37,4.4,6.57,7.07,9.48
		c2.34,2.97,4.3,6.22,6.64,9.19c4.8,6.18,9.47,12.46,14.36,18.56c1.51,2,3.06,3.97,4.68,5.89c3.81,4.23,6.57,9.73,11.3,12.94
		c2.39-7.41,0.61-15.42,1.05-23.07c0.1299-3.13,0.1299-6.25,0.08-9.37c-0.11-10.13-0.1-20.26-0.08-30.39
		c-0.03-10.73-0.2-21.47-0.28-32.2c-0.34,0.52-0.67,1.05-0.99,1.59c-2.83,2.98-5.8,5.9-9.42,7.91c-2.63,0.54-5.32,1.04-8,0.71
		c-3.21-0.71-5.22-3.59-7.11-6.02c-2.63-7.08-2.49-14.74-2.15-22.17c0.03-2.3,1.32-4.26,2.09-6.35c0.82,0.79,1.77,1.39,2.84,1.81
		c-0.18,2.84-0.72,5.73-0.18,8.57c0.99,3.04,4.61,3.91,7.42,4.33c2.38,0.46,3.7-2.08,4.49-3.89c2.23-6,2.87-12.45,3.47-18.77
		C872.61,217.9,866.67,220.57,861.16,223.9 M957.11,216.56c0.58,5.84,1.3,11.72,2.96,17.37c0.74,2.07,1.64,4.7,4,5.38
		c3.27,0.25,6.22-1.48,8.66-3.47c0.11-3.26-0.38-6.53-0.01-9.77c2.03-2.29,4.47,0.73,4.3701,2.94c0.65,8.05,0.85,16.43-1.95,24.15
		c-1.52,1.97-3.19,3.83-5.12,5.4c-2.91,0.36-5.96,0.98-8.8-0.06c-4.8-1.4-8.08-5.4-11.3-8.95c-0.29,7.44-0.03,14.89-0.22,22.33
		c-0.12,3.29-0.19,6.58,0.1,9.86c-0.17,9.93,0.05,19.88-0.2,29.81c0.17,3.23-0.99,7.13,0.6,9.96c-0.92,6.67-0.64,13.45-0.28,20.15
		c3.85-3.73,6.94-8.13,10.29-12.29c2.1-2.5,3.91-5.22,5.94-7.78c4.52-5.23,8.47-10.94,12.72-16.39c1.47-1.95,2.93-3.91,4.35-5.9
		c3.6801-4.88,7.53-9.65,10.97-14.7l0.37,0.09c0.02-5.4,0.29-10.95-1.04-16.21c-0.21-0.27-0.63-0.81-0.83-1.08
		c0.16-6.89-0.94-13.74-1.55-20.58C988.03,230.58,972.68,219.44,957.11,216.56 M923.27,286.28c-1.6,3.03-5.25,2.42-8.09,2.59
		c-9.29-10.62-13.64-24.38-21.04-36.18c-0.96,11.07-0.16,22.21-0.38,33.31c0.14,15.32-0.32,30.65,0.38,45.96
		c2.37-1.79,5.95-2.98,6.35-6.35c1.12-5.17,2.85-10.55,6.97-14.13c5.28-5.32,14.42-5.72,20.32-1.24
		c5.39,4.18,7.95,10.98,8.6299,17.58c2.02,1.44,4.07,2.87,6.15,4.24c0.07-27.06,0.19-54.11,0.03-81.16
		C936.3,262.76,930.9,275.19,923.27,286.28 M840.29,298.48c-2.16,20.49-3.94,41.03-5.72,61.56c-0.12,4.61-1.16,9.21-0.75,13.83
		c1.55,2.31,3.84,4,6.26,5.32c2.37,2.63,5.61,4.24,8.53,6.19c13.87,8.57,28.31,16.17,42.86,23.52c2.02-7.48,2.91-15.22,3.75-22.91
		c0.44-6.52,0.85-13.21-0.71-19.62c-0.91-4.15-4.85-6.4-7.48-9.38c-15.36-16.77-28.55-35.38-42.7-53.12
		C843.09,301.99,841.73,300.2,840.29,298.48 M992.57,299.04c-1.06,1.09-1.95,2.32-2.94,3.46c-6.05,8.29-12.37,16.37-18.61,24.51
		c-9.57,12.02-18.78,24.45-29.96,35.06c-2.67,2.93-2.94,7.16-3.3,10.91c-0.65,12.12,1.66,24.13,3.77,36
		c15.27-7.57,30.34-15.6,44.79-24.65c4.61-3.14,9.64-5.97,13.17-10.38c0.37-6.99-1.04-13.94-1.31-20.91
		c-1.56-17.97-3.37-35.92-4.87-53.89l-0.27,0.31L992.57,299.04 M908.47,322.4c-1.24,3.13-0.84,6.54-1.22,9.81
		c-7.49,3.44-14.47,9.38-16.38,17.73c0.9,2.98,4.18,4.67,6.18,6.98c2.96,2.5,3.54,6.47,5.16,9.77c3.4,3.28,7.34,6.07,10.06,10.02
		c1.51,1.91,2.41,4.29,4.16,6.02c-1.55,1.21,1.4,3.43,1.69,1.27c3.08-5.39,7.88-9.48,12.71-13.25c0.61-3.7,1.09-7.55,3.02-10.84
		c3.05-4.58,7.97-7.54,11.06-12.11c-2.23-7.48-9.02-12.46-15.78-15.68c0.22-4.11,0.02-8.46-2.12-12.1
		c-1.87-3.52-5.66-6.52-9.84-5.89C912.92,314.79,909.87,318.55,908.47,322.4 M902.55,373.79c0.28,8.74-0.8,17.43-1.88,26.09
		c3.4-0.59,7.26-0.74,9.9-3.28c2.75-2.42,2.7-6.57,1.62-9.79C910.38,381.62,906.8,377.2,902.55,373.79 M920.37,390.38
		c-1.31,3.28-1.71,7.56,0.96,10.29c3.07,3.24,7.85,3.33,12.01,3.51c-1.22-8.85-2.59-17.69-2.78-26.64
		C926.11,380.83,922.49,385.27,920.37,390.38 M994.25,387.56c-2.14,1.36-4.25,2.75-6.36,4.14c-7.01,4.26-14.17,8.25-21.3,12.3
		c-2.42,1.16-4.8,2.42-7.1201,3.76c-3.3,1.89-7.11,3.05-9.95,5.62c-0.31,5.44,0.2,10.91-0.23,16.35c-0.2,3.08-0.22,6.17-0.03,9.26
		c0.25,10.11,0.24,20.25-0.06,30.36c-0.19,3.16-0.28,6.34,0.09,9.49c0.02,9.93,0.13,19.86-0.13,29.79
		c-0.39,4.13-0.04,8.27,0.36,12.4c0.03,12.45-0.01,24.9-0.06,37.35c0.45,0.23,1.36,0.69,1.81,0.92c3.97,1.87,8.33,2.66,12.68,3.1
		c4.15,0.36,7.88,2.62,12.06,2.81c4.56-0.04,7.25-5.53,11.97-4.6c5.84,1,11.24,5.37,17.4,3.46c2.65,1.68,4.67-2.45,6.78-3.66
		l-0.64-0.55c3.59-3.19,7.97-5.25,12.34-7.16c-0.33-5.66-1.01-11.29-1.74-16.91c-0.32-2.7,0.7-6.15-1.36-8.29
		c0.01-10.82-2.24-21.5-2.81-32.29c-0.42-3.6,0.22-7.88-1.75-11c-0.09-10.94-2.46-21.73-2.9-32.65c-0.53-3.41,0.14-7.32-1.57-10.38
		c-0.44-8.67-1.61-17.29-2.68-25.9c-0.85-5.55-0.07-11.3-1.52-16.74c-0.2-0.26-0.61-0.77-0.8101-1.02
		c0.27-6.28-0.87-12.49-1.58-18.7C1001.67,381.92,998.1,384.92,994.25,387.56 M831.02,381.69c-0.52,5.17-1.58,10.33-1.25,15.56
		c-2.73,2.87-1.65,7.45-2.09,11.08c-0.1,10.94-2.42,21.75-2.89,32.68c-2.12,2.93-1.55,7.09-1.62,10.55
		c-0.32,10.94-2.68,21.72-2.93,32.67c-2.46,2.95-1.3,7.48-2.13,11.08l0.61-0.49c-0.72,9.74-2.47,19.4-2.8799,29.17
		c-0.2401,3.74-2.65,7.17-1.56,11.02c-0.2401,5.71-1.27,11.35-1.61,17.05c3.75,2.88,8.27,4.59,12.08,7.42
		c1.74,1.51,3.38,3.2,5.41,4.36c2.16,0.85,4.56,0.6,6.84,0.45c4.27-1.31,8.33-4.19,12.97-3.66c3.4301,1.3,6,4.99,10.01,4.54
		c4.39-0.79,8.48-2.85,13-3.06c4.9-0.9,10.43-1.92,14.27-5.17c0.27-12.98,0.13-25.98-0.03-38.96c-0.02-3.08-0.0099-6.16,0-9.23
		c0.0601-10.02,0.22-20.05-0.14-30.06c0.01-3.12,0.04-6.23-0.16-9.34c0.55-1.72,0.28-3.57,0.35-5.33c-0.2-8.32,0.1-16.65-0.24-24.96
		c-0.03-3.11-0.03-6.21,0.0099-9.3c0.14-5.15,0.2-10.3-0.18-15.43c-3.81-1.78-7.56-3.69-11.27-5.64
		c-2.35-1.31-4.7401-2.54-7.14-3.73c-7.26-4.13-14.63-8.07-21.71-12.49c-2-1.26-3.99-2.49-5.97-3.76
		C837.46,386.45,834.26,384.03,831.02,381.69 M911.12,403.06c-0.24,8.03,1.79,15.97,4.79,23.37c-4.99,0.99-11.09,1.24-14.43,5.63
		c2.28,4.04,7.58,4.63,11.72,5.49c7.34,0.66,16,0.5,21.76-4.76c0.06-1.61-1.38-2.47-2.57-3.17c-3.54-2.02-7.66-2.45-11.58-3.17
		c2-5.62,3.89-11.36,4.38-17.34c-0.87-1.35-2.66-1.58-3.92-2.42c-3.13-1.35-4.93-4.38-6.59-7.17
		C913.49,400.68,911.87,401.54,911.12,403.06 M899.68,404.59c-1.04,4.32-1.47,8.81-3,13c-0.3,1.05-1.73,0.76-2.52,1.17
		c0.07,4.95-0.1,9.92,0.21,14.87c-0.3,56.72,0.21,113.45-0.04,170.17c15.83,0.69,31.7,0.32,47.55,0.25
		c0.48-26.01,0.19-52.04,0.38-78.05c-0.09-30.11,0.38-60.23-0.11-90.32c-2.77,2.44-5.46,5.16-8.97,6.53
		c-6.9,2.97-14.62,2.75-21.96,2.19c-6.5-0.94-13.64-3.76-16.6299-10.05c0.14-2.41-0.01-5.09,1.67-7.04
		c2.35-3.38,6.57-4.33,9.85-6.48c-0.66-5.56-1.81-11.05-2.39-16.61C902.36,404.35,901.01,404.47,899.68,404.59 M932.36,409.18
		c-0.74,3.99-1.45,7.99-2.04,12.01c4.81,1.2,8.52,4.52,11.85,8.01c0.29-4.08,0.28-8.17,0.02-12.25c-1.8,0.63-3.58,1.3-5.35,1.98
		c-0.89-3.2-1.6201-6.44-2.3-9.68C933.99,409.23,932.9,409.2,932.36,409.18z"/>
	<path fill="#A4BF4D" stroke="#A4BF4D" stroke-width="0.4" d="M882.2,78.32c4.16-3.22,9.73-3.64,14.82-3.69
		c9.72,0.07,19.44-0.11,29.17,0.13c-0.69,0.73-1.37,1.44-2.04,2.16c-8.98-1.59-18.12-0.38-27.17-0.78
		c-5.22-0.3-10.25,1.2-15.08,2.99L882.2,78.32z"/>
	<path fill="#0C8E36" stroke="#0C8E36" stroke-width="0.4" d="M928.89,81.9c2.39-2.33,4.53-4.98,7.3-6.89
		c8.96-1.6,19.12,0.37,25.58,7.18c-1.67,2.77-4.26,4.8-6.48,7.09c-14.8,14.86-29.67,29.64-44.46,44.51c-1.37,1.23-2.79,2.8-4.81,2.6
		c-5.01,0.13-10.04,0.22-15.02-0.22c-4.14-0.37-7.78-2.51-11.3-4.51c2.3-2.99,4.95-5.68,7.7-8.26
		C901.23,109.56,915.07,95.74,928.89,81.9z"/>
	<path fill="#97C11F" stroke="#97C11F" stroke-width="0.4" d="M881.9,79.13c4.83-1.79,9.86-3.29,15.08-2.99
		c9.05,0.4,18.19-0.81,27.17,0.78c-12.8,12.94-25.7401,25.74-38.58,38.64c-3.7,3.62-7.17,7.49-11.18,10.78
		c-2.27-4.09-4.37-8.48-4.32-13.27c-0.02-5.97-0.38-11.97,0.25-17.92c1.17-6.92,5.44-13.73,11.88-16.83L881.9,79.13z"/>
	<path fill="#97C11F" stroke="#97C11F" stroke-width="0.4" d="M920.31,134.11c15.17-15.4,30.41-30.73,45.87-45.83
		c2,4.28,2.66,9.02,2.48,13.72c-0.2,6.11,0.69,12.45-1.41,18.33c-2.88,7.99-10.2,14.21-18.59,15.64
		C939.38,133.36,929.61,136.77,920.31,134.11z"/>
	<path fill="#AECC50" stroke="#AECC50" stroke-width="0.4" d="M918.44,136.35c0.6-0.75,1.23-1.5,1.87-2.24
		c9.3,2.66,19.07-0.75,28.35,1.86C938.62,136.96,928.5,136.4,918.44,136.35z"/>
	<path fill="#946038" stroke="#946038" stroke-width="0.4" d="M873.33,135.86c4.14,2.58,8.28,5.42,13.08,6.64
		c4.85,1.33,9.9301,1.1,14.91,1.33c-9.04,12.43-13.25,27.67-14.7,42.81c-0.33,6.69-4.04,12.5-5.67,18.88
		c-7.71-6.81-14.29-14.77-20.66-22.82c-2.34-3.13-4.94-6.14-6.6-9.71c1.16-3.92,3.49-7.35,5.35-10.96
		C863.67,153.24,868.66,144.64,873.33,135.86z"/>
	<path fill="#946038" stroke="#946038" stroke-width="0.4" d="M949.06,143.17c3.77-0.57,7.19-2.39,10.85-3.39
		c3.85,5.79,6.78,12.14,10.22,18.18c2.48,5.02,5.72,9.71,7.59,15.02c-6.4,10.66-14.77,20.11-23.48,28.96
		c-1.79-4.99-4.62-9.71-4.91-15.12c-1.35-15.22-5.69-30.45-14.62-43.01C939.48,143.59,944.3,143.86,949.06,143.17z"/>
	<path fill="#B49733" stroke="#B49733" stroke-width="0.4" d="M901.67,151.68c1.28-3.09,3.42-6.34,6.45-7.83
		c6.81-0.22,13.82-0.71,20.56,0.27c4.44,3.9,7.17,9.32,9.58,14.62c-3.97-0.51-8.27-1.45-12.03,0.4c-2.52,1.11-3.71,3.72-5.14,5.89
		l-0.04-0.83c-0.66,0.5-1.31,0.99-1.94,1.49c-1.66-2.79-3-6.15-5.98-7.79c-3.91-1.83-8.36-1.15-12.52-1
		C900.91,155.15,901.23,153.4,901.67,151.68z"/>
	<path fill="#B39B49" stroke="#B39B49" stroke-width="0.4" d="M901.67,151.68c-0.44,1.72-0.76,3.47-1.06,5.22
		c4.16-0.15,8.61-0.83,12.52,1c2.98,1.64,4.32,5,5.98,7.79c0.63-0.5,1.28-0.99,1.94-1.49l0.04,0.83
		c0.1299,5.95-0.01,11.91-0.06,17.87c-1.2401,0.76-2.47,1.51-3.71,2.23c-0.33-6.37,0.3-12.77-0.39-19.11
		c-0.33-3.26-2.57-6.26-5.71-7.28c-4.48-1.58-9.22-0.15-13.7,0.62C898.52,156.61,899.82,153.97,901.67,151.68z"/>
	<path fill="#B49734" stroke="#B49734" stroke-width="0.4" d="M896.25,161.68c4.57,0.09,9.1-1.88,13.64-0.72
		c2.74,0.64,4.66,3.31,4.73,6.07c0.29,5.01-0.04,10.04,0.16,15.05c-4.23-1.77-8.9301-2.99-13.47-1.7c-3.89,0.92-7.18,3.28-10.41,5.5
		C891.7,177.62,893.81,169.59,896.25,161.68 M896.84,168.88c0.1,0.78,0.29,2.34,0.39,3.12c3.76,1.18,9.73,2.26,11.04-2.79
		C904.77,166.87,900.47,166.81,896.84,168.88z"/>
	<path fill="#B49636" stroke="#B49636" stroke-width="0.4" d="M924.37,164.39c1.5-3.78,6.16-4.16,9.65-3.74
		c2.23,0.4,5.59,0.38,6.22,3.15c2.45,6.97,3.87,14.28,4.77,21.6c-3.36-1.83-6.56-4.11-10.31-5.08c-3.66-0.91-7.44-0.25-11.02,0.63
		C923.83,175.45,922.83,169.76,924.37,164.39 M927.84,168.9c0.11,0.77,0.33,2.32,0.44,3.1c2.71,0.57,5.61,1.61,8.34,0.54
		c1.35-0.46,2.59-1.71,2.17-3.25C935.73,166.41,931.26,167.21,927.84,168.9z"/>
	<path fill="#452817" stroke="#452817" stroke-width="0.4" d="M896.84,168.88c3.6299-2.07,7.93-2.01,11.43,0.33
		c-1.31,5.05-7.28,3.97-11.04,2.79C897.13,171.22,896.94,169.66,896.84,168.88z"/>
	<path fill="#422B0E" stroke="#422B0E" stroke-width="0.4" d="M927.84,168.9c3.42-1.69,7.89-2.49,10.95,0.39
		c0.42,1.54-0.82,2.79-2.17,3.25c-2.73,1.07-5.63,0.03-8.34-0.54C928.17,171.22,927.95,169.67,927.84,168.9z"/>
	<path fill="#683C0F" stroke="#683C0F" stroke-width="0.4" d="M888.52,196.58c3.4-7.47,11.6-13.94,20.16-12.2
		c3.77,0.56,5.89,4.4,9.31,5.53c3.69-1.14,6.04-5.31,10.17-5.7c8.21-1.08,16.2401,4.8,19.3701,12.19
		c5.08,11.47,5.05,24.28,7.78,36.36c0.96,3.76,2.42,7.97,6.01,9.98c3.93,1.64,8.09-0.12,11.83-1.45
		c-0.4301,3.98-0.47,8.42-3.21,11.63c-2.54,2.91-7.25,2.31-10.14,0.28c-6.23-4.19-9.1-11.39-12.14-17.92
		c-0.6,0.01-1.79,0.02-2.39,0.02c-7.88,15.8-15,32.03-24.35,47.04c-1.92,0.05-3.83,0.06-5.74,0.02
		c-8.61-14.08-15.61-29.06-22.67-43.96c-0.82-1.47-1.75-4.16-3.88-2.8c-2.9,4.26-4.13,9.52-7.7,13.37
		c-3.04,3.7-8.11,7.57-13.08,5.25c-4.45-2.58-4.24-8.42-4.94-12.88c3.75,1.17,7.96,3.44,11.84,1.44c3.75-1.87,4.99-6.28,6.01-10.02
		C883.53,220.75,883.57,208.03,888.52,196.58 M917.35,201.31c-3.24,0.51-5.17,4.65-3.1,7.33c1.76,3.48,7.65,2.99,8.7-0.83
		C924.53,204.26,921.03,200.35,917.35,201.31z"/>
	<path fill="#0F0804" stroke="#0F0804" stroke-width="0.4" d="M917.35,201.31c3.6801-0.96,7.1801,2.95,5.6,6.5
		c-1.05,3.82-6.94,4.31-8.7,0.83C912.18,205.96,914.11,201.82,917.35,201.31z"/>
	<path fill="#F29104" stroke="#F29104" stroke-width="0.4" d="M861.16,223.9c5.51-3.33,11.45-6,17.8-7.26
		c-0.6,6.32-1.2401,12.77-3.47,18.77c-0.79,1.81-2.11,4.35-4.49,3.89c-2.81-0.42-6.43-1.29-7.42-4.33c-0.54-2.84,0-5.73,0.18-8.57
		c-1.07-0.42-2.02-1.02-2.84-1.81L861.16,223.9z"/>
	<path fill="#F19204" stroke="#F19204" stroke-width="0.4" d="M957.11,216.56c15.57,2.88,30.92,14.02,34.03,30.26
		c0.61,6.84,1.71,13.69,1.55,20.58c-6.16-4.36-11.93-9.23-17.55-14.24c2.8-7.72,2.6-16.1,1.95-24.15c0.1-2.21-2.34-5.23-4.3701-2.94
		c-0.37,3.24,0.1201,6.51,0.01,9.77c-2.44,1.99-5.39,3.72-8.66,3.47c-2.36-0.68-3.26-3.31-4-5.38
		C958.41,228.28,957.69,222.4,957.11,216.56z"/>
	<path fill="#F29204" stroke="#F29204" stroke-width="0.4" d="M845.13,248.91c0.96-10.36,7.83-19.09,16.03-25.01l-0.24,0.69
		c-0.77,2.09-2.06,4.05-2.09,6.35c-0.34,7.43-0.48,15.09,2.15,22.17c-5.4,5.09-11.24,9.71-17.19,14.12
		C843.54,261.1,844.77,255.03,845.13,248.91z"/>
	<path fill="#FCFDF6" stroke="#FCFDF6" stroke-width="0.4" d="M885.51,250.51c0.32-0.54,0.65-1.07,0.99-1.59
		c0.08,10.73,0.25,21.47,0.28,32.2c-10.58,8.34-20.77,17.16-31.39,25.44c-2.34-2.97-4.3-6.22-6.64-9.19
		c1.01,0.88,2.07,1.73,3.24,2.44c2.46-1.39,4.66-3.18,6.83-4.98c9.11-7.72,18.57-15.02,27.61-22.82
		C886.23,264.84,887.16,257.56,885.51,250.51z"/>
	<path fill="#F29202" stroke="#F29202" stroke-width="0.4" d="M949.92,249.55c3.22,3.55,6.5,7.55,11.3,8.95
		c2.84,1.04,5.89,0.42,8.8,0.06c7.61,5.8,14.94,11.98,22.28,18.12c2.71,1.8,2.21,5.12,1.89,7.92c-3.44,5.05-7.29,9.82-10.97,14.7
		c-11.37-8.89-22.49-18.1-33.52-27.42C949.89,264.44,949.63,256.99,949.92,249.55z"/>
	<path fill="#F29202" stroke="#F29202" stroke-width="0.4" d="M876.09,258.42c3.62-2.01,6.59-4.93,9.42-7.91
		c1.65,7.05,0.72,14.33,0.92,21.5c-9.04,7.8-18.5,15.1-27.61,22.82c-2.17,1.8-4.37,3.59-6.83,4.98c-1.17-0.71-2.23-1.56-3.24-2.44
		c-2.67-2.91-5.03-6.11-7.07-9.48c-0.65-3.13,0.22-6.36,0-9.54c7.02-5.51,13.78-11.34,20.74-16.93
		C866.13,257.83,871.69,260.43,876.09,258.42z"/>
	<path fill="#BE1522" stroke="#BE1522" stroke-width="0.4" d="M923.27,286.28c7.63-11.09,13.03-23.52,19.32-35.38
		c0.16,27.05,0.04,54.1-0.03,81.16c-2.08-1.37-4.13-2.8-6.15-4.24c-0.68-6.6-3.24-13.4-8.6299-17.58
		c-5.9-4.48-15.04-4.08-20.32,1.24c-4.12,3.58-5.85,8.96-6.97,14.13c-0.4,3.37-3.98,4.56-6.35,6.35
		c-0.7-15.31-0.24-30.64-0.38-45.96c0.22-11.1-0.58-22.24,0.38-33.31c7.4,11.8,11.75,25.56,21.04,36.18
		C918.02,288.7,921.67,289.31,923.27,286.28z"/>
	<path fill="#FCFDF6" stroke="#FCFDF6" stroke-width="0.4" d="M843.79,267.23c5.95-4.41,11.79-9.03,17.19-14.12
		c1.89,2.43,3.9,5.31,7.11,6.02c2.68,0.33,5.37-0.17,8-0.71c-4.4,2.01-9.96-0.59-13.67,3c-6.96,5.59-13.72,11.42-20.74,16.93
		C842.15,274.71,841.04,270.12,843.79,267.23z"/>
	<path fill="#FCFDF7" stroke="#FCFDF7" stroke-width="0.4" d="M975.14,253.16c5.62,5.01,11.39,9.88,17.55,14.24
		c0.2,0.27,0.62,0.81,0.83,1.08c1.33,5.26,1.06,10.81,1.04,16.21l-0.37-0.09c0.32-2.8,0.82-6.12-1.89-7.92
		c-7.34-6.14-14.67-12.32-22.28-18.12C971.95,256.99,973.62,255.13,975.14,253.16z"/>
	<path fill="#FDFDF6" stroke="#FDFDF6" stroke-width="0.4" d="M949.7,271.88c11.03,9.32,22.15,18.53,33.52,27.42
		c-1.42,1.99-2.8799,3.95-4.35,5.9c-9.71-7.79-18.93-16.23-29.07-23.46C949.51,278.46,949.58,275.17,949.7,271.88z"/>
	<path fill="#F29203" stroke="#F29203" stroke-width="0.4" d="M855.39,306.56c10.62-8.28,20.81-17.1,31.39-25.44
		c-0.02,10.13-0.03,20.26,0.08,30.39c-5.92,4.27-11.23,9.3-17.11,13.61C864.86,319.02,860.19,312.74,855.39,306.56z"/>
	<path fill="#F29202" stroke="#F29202" stroke-width="0.4" d="M949.8,281.74c10.14,7.23,19.36,15.67,29.07,23.46
		c-4.25,5.45-8.2,11.16-12.72,16.39c-0.9901,0.39-1.9901,0.65-3.01,0.79c-4.8-3.24-8.89-7.39-13.54-10.83
		C949.85,301.62,949.63,291.67,949.8,281.74z"/>
	<path fill="#F9B234" stroke="#F9B234" stroke-width="0.4" d="M840.29,298.48c1.44,1.72,2.8,3.51,4.04,5.39
		c-1.07-0.64-2.16-1.23-3.23-1.82c-1.34,14.98-2.61,29.98-4.17,44.95c-0.23,8.86-2.04,17.62-1.71,26.49
		c1.66,1.85,3.25,3.78,4.86,5.7c-2.42-1.32-4.71-3.01-6.26-5.32c-0.41-4.62,0.63-9.22,0.75-13.83
		C836.35,339.51,838.13,318.97,840.29,298.48z"/>
	<path fill="#D09742" stroke="#D09742" stroke-width="0.4" d="M992.57,299.04l0.47,0.42c-0.04,1.04-0.07,2.08-0.09,3.13
		c-1.12-0.04-2.23-0.07-3.32-0.09C990.62,301.36,991.51,300.13,992.57,299.04z"/>
	<path fill="#F29201" stroke="#F29201" stroke-width="0.4" d="M993.04,299.46l0.27-0.31c1.5,17.97,3.31,35.92,4.87,53.89
		c0.27,6.97,1.68,13.92,1.31,20.91c-3.53,4.41-8.56,7.24-13.17,10.38c-14.45,9.05-29.52,17.08-44.79,24.65
		c-2.11-11.87-4.42-23.88-3.77-36c0.36-3.75,0.63-7.98,3.3-10.91c11.18-10.61,20.39-23.04,29.96-35.06
		c6.24-8.14,12.56-16.22,18.61-24.51c1.09,0.02,2.2,0.05,3.32,0.09C992.97,301.54,993,300.5,993.04,299.46z"/>
	<path fill="#F29201" stroke="#F29201" stroke-width="0.4" d="M841.1,302.05c1.07,0.59,2.16,1.18,3.23,1.82
		c14.15,17.74,27.34,36.35,42.7,53.12c2.6299,2.98,6.5699,5.23,7.48,9.38c1.56,6.41,1.15,13.1,0.71,19.62
		c-0.84,7.69-1.73,15.43-3.75,22.91c-14.55-7.35-28.99-14.95-42.86-23.52c-2.92-1.95-6.16-3.56-8.53-6.19
		c-1.61-1.92-3.2-3.85-4.86-5.7c-0.33-8.87,1.48-17.63,1.71-26.49C838.49,332.03,839.76,317.03,841.1,302.05z"/>
	<path fill="#FDFCF8" stroke="#FDFCF8" stroke-width="0.4" d="M869.75,325.12c5.88-4.31,11.19-9.34,17.11-13.61
		c0.05,3.12,0.05,6.24-0.08,9.37c-4.41,3-8.51,6.43-12.35,10.13C872.81,329.09,871.26,327.12,869.75,325.12z"/>
	<path fill="#FDFDF6" stroke="#FDFDF6" stroke-width="0.4" d="M950.2,321.51c-1.59-2.83-0.43-6.73-0.6-9.96
		c4.65,3.44,8.7401,7.59,13.54,10.83c1.02-0.14,2.02-0.4,3.01-0.79c-2.03,2.56-3.84,5.28-5.94,7.78
		C957.01,326.57,953.64,323.99,950.2,321.51z"/>
	<path fill="#FDDD10" stroke="#FDDD10" stroke-width="0.4" d="M908.47,322.4c1.4-3.85,4.45-7.61,8.7-8.27
		c4.18-0.63,7.97,2.37,9.84,5.89c2.14,3.64,2.34,7.99,2.12,12.1c6.76,3.22,13.55,8.2,15.78,15.68
		c-3.09,4.57-8.0099,7.53-11.06,12.11c-1.93,3.29-2.41,7.14-3.02,10.84c-4.83,3.77-9.63,7.86-12.71,13.25
		c-0.42-0.32-1.27-0.96-1.69-1.27c-1.75-1.73-2.65-4.11-4.16-6.02c-2.72-3.95-6.66-6.74-10.06-10.02c-1.62-3.3-2.2-7.27-5.16-9.77
		c-2-2.31-5.28-4-6.18-6.98c1.91-8.35,8.89-14.29,16.38-17.73C907.63,328.94,907.23,325.53,908.47,322.4 M903.43,341.34
		c-1.54,0.62-1.31,2.85-1.03,4.2c0.93,3.29,6.71,3.11,6.9-0.57C910.16,341.6,906.05,339.41,903.43,341.34 M929.45,342.38
		c-1.62,0.58-1.55,2.95-1.31,4.38c0.69,3.76,7.08,2.99,7.15-0.82C935.66,342.76,932.06,340.8,929.45,342.38 M915.25,346.12
		c-4.77,2.13-5.21,9.82-0.48,12.23c4.42,3.25,11.26-1.03,10.77-6.35C925.36,347.09,919.58,343.83,915.25,346.12z"/>
	<path fill="#F19204" stroke="#F19204" stroke-width="0.4" d="M874.43,331.01c3.84-3.7,7.94-7.13,12.35-10.13
		c-0.44,7.65,1.34,15.66-1.05,23.07C881,340.74,878.24,335.24,874.43,331.01z"/>
	<path fill="#F19105" stroke="#F19105" stroke-width="0.4" d="M950.2,321.51c3.44,2.48,6.81,5.06,10.01,7.86
		c-3.35,4.16-6.44,8.56-10.29,12.29C949.56,334.96,949.28,328.18,950.2,321.51z"/>
	<path fill="#9CBD1B" stroke="#9CBD1B" stroke-width="0.4" d="M903.43,341.34c2.62-1.93,6.73,0.26,5.87,3.63
		c-0.19,3.68-5.97,3.86-6.9,0.57C902.12,344.19,901.89,341.96,903.43,341.34z"/>
	<path fill="#DD351D" stroke="#DD351D" stroke-width="0.4" d="M929.45,342.38c2.61-1.58,6.21,0.38,5.84,3.56
		c-0.07,3.81-6.46,4.58-7.15,0.82C927.9,345.33,927.83,342.96,929.45,342.38z"/>
	<path fill="#349486" stroke="#349486" stroke-width="0.4" d="M915.25,346.12c4.33-2.29,10.11,0.97,10.29,5.88
		c0.4901,5.32-6.35,9.6-10.77,6.35C910.04,355.94,910.48,348.25,915.25,346.12 M916.28,347.14c-2.89,1.49-4.21,5.36-2.57,8.21
		c2.18,3.44,8.5,3.21,9.7-0.99C925.16,350.2,920.59,344.91,916.28,347.14z"/>
	<path fill="#039FE4" stroke="#039FE4" stroke-width="0.4" d="M916.28,347.14c4.31-2.23,8.8799,3.06,7.1299,7.22
		c-1.2,4.2-7.52,4.43-9.7,0.99C912.07,352.5,913.39,348.63,916.28,347.14z"/>
	<path fill="#B6B5B3" stroke="#B6B5B3" stroke-width="0.4" d="M1139.42,363.43c5.36-2.79,11.8099-4.06,17.76-2.62
		c1.8199,0.3,3.2799,2.01,2.7,3.91c-2.49,3.73-7.23,4.54-11.11,6.13c9.08,0.58,18.73-0.81,27.26,3.1
		c3.4099,1.37,6.22,5.49,3.88,8.99c-3.78,5.71-8.5701,11.11-14.87,14.1c-4.0901,2.06-8.4501,3.47-12.78,4.89
		c1.64,5.14,2.9299,10.39,3.67,15.74c-10.17,4.53-20.5601,8.58-31.1001,12.16c-3.21,1.14-6.97,1.64-9.1499,4.55
		c7.63,0.85,15.9199,1.77,22.0699,6.85c2.73,2.07,3.29,6.17,1.37,8.98c-9.89,15.09-19.6801,30.26-29.5,45.41
		c-11.23,17.01-21.3,34.74-31.84,52.17c-6.61,11.36-13.7001,22.43-20.16,33.86c-3.1899,8.24-5.29,16.89-7.9,25.34
		c-0.6699,0.03-2,0.09-2.6699,0.12c-2.9601-10.79-5.91-21.58-8.9-32.36c-1.3201-4.52-1.17-9.27-1.89-13.89
		c-5.36-40.57-10.66-81.16-16.07-121.73c10.14-3.13,20.65-4.86,31.22-5.54c-5.5901-5.12-11.6-10.17-14.5901-17.36
		c11.12-6.14,22.7101-11.37,34.04-17.13c-0.4-2.4-1.63-5.14-0.04-7.36c4.6801-6.98,11.0801-12.99,19.14-15.8
		c15.53-6.79,32.7101-5.12,49.1901-5.09c-1.15-0.75-2.3-1.5-3.42-2.24C1136.23,366.46,1137.29,364.37,1139.42,363.43z"/>
	<path fill="#B49634" stroke="#B49634" stroke-width="0.4" d="M902.55,373.79c4.25,3.41,7.83,7.83,9.64,13.02
		c1.08,3.22,1.13,7.37-1.62,9.79c-2.64,2.54-6.5,2.69-9.9,3.28C901.75,391.22,902.83,382.53,902.55,373.79z"/>
	<path fill="#B49735" stroke="#B49735" stroke-width="0.4" d="M920.37,390.38c2.12-5.11,5.74-9.55,10.19-12.84
		c0.19,8.95,1.56,17.79,2.78,26.64c-4.16-0.18-8.94-0.27-12.01-3.51C918.66,397.94,919.06,393.66,920.37,390.38z"/>
	<path fill="#F39207" stroke="#F39207" stroke-width="0.4" d="M994.25,387.56c3.85-2.64,7.42-5.64,10.89-8.74
		c0.71,6.21,1.85,12.42,1.58,18.7C1002.47,394.31,998.31,391,994.25,387.56z"/>
	<path fill="#F19309" stroke="#F19309" stroke-width="0.4" d="M831.02,381.69c3.24,2.34,6.44,4.76,9.75,7.02
		c-3.62,2.9-7.28,5.76-11,8.54C829.44,392.02,830.5,386.86,831.02,381.69z"/>
	<path fill="#FCFDF6" stroke="#FCFDF6" stroke-width="0.4" d="M916.43,382.73c0.42,0.31,1.27,0.95,1.69,1.27
		C917.83,386.16,914.88,383.94,916.43,382.73z"/>
	<path fill="#FDFCF7" stroke="#FDFCF7" stroke-width="0.4" d="M987.89,391.7c2.11-1.39,4.22-2.78,6.36-4.14
		c4.06,3.44,8.22,6.75,12.47,9.96c0.2,0.25,0.61,0.76,0.8101,1.02c1.45,5.44,0.67,11.19,1.52,16.74c-0.39-2.29-0.49-4.66-1.29-6.85
		c-1.18-1.87-3.05-3.12-4.69-4.53C997.97,399.88,993.09,395.59,987.89,391.7z"/>
	<path fill="#FDFCF7" stroke="#FDFCF7" stroke-width="0.4" d="M829.77,397.25c3.72-2.78,7.38-5.64,11-8.54
		c1.98,1.27,3.97,2.5,5.97,3.76c-6.06,5.62-12.62,10.68-19.06,15.86C828.12,404.7,827.04,400.12,829.77,397.25z"/>
	<path fill="#F29203" stroke="#F29203" stroke-width="0.4" d="M846.74,392.47c7.08,4.42,14.45,8.36,21.71,12.49
		c-5.17,5.04-10.97,9.37-16.52,13.97c-8.99,7.43-17.96,14.89-27.14,22.08c0.47-10.93,2.79-21.74,2.89-32.68
		C834.12,403.15,840.68,398.09,846.74,392.47z"/>
	<path fill="#F29203" stroke="#F29203" stroke-width="0.4" d="M966.59,404c7.1299-4.05,14.29-8.04,21.3-12.3
		c5.2,3.89,10.08,8.18,15.18,12.2c1.64,1.41,3.51,2.66,4.69,4.53c0.8,2.19,0.9,4.56,1.29,6.85c1.07,8.61,2.24,17.23,2.68,25.9
		c-9.58-7.34-18.72-15.22-28.1-22.81C977.94,413.58,971.92,409.18,966.59,404z"/>
	<path fill="#FCDD10" stroke="#FCDD10" stroke-width="0.4" d="M911.12,403.06c0.75-1.52,2.37-2.38,3.56-3.54
		c1.66,2.79,3.46,5.82,6.59,7.17c1.26,0.84,3.05,1.07,3.92,2.42c-0.49,5.98-2.38,11.72-4.38,17.34c3.92,0.72,8.04,1.15,11.58,3.17
		c1.19,0.7,2.63,1.56,2.57,3.17c-5.76,5.26-14.42,5.42-21.76,4.76c-4.14-0.86-9.44-1.45-11.72-5.49c3.34-4.39,9.44-4.64,14.43-5.63
		C912.91,419.03,910.88,411.09,911.12,403.06z"/>
	<path fill="#BA1925" stroke="#BA1925" stroke-width="0.4" d="M899.68,404.59c1.33-0.12,2.68-0.24,4.04-0.37
		c0.58,5.56,1.73,11.05,2.39,16.61c-3.28,2.15-7.5,3.1-9.85,6.48c-1.68,1.95-1.53,4.63-1.67,7.04l-0.22-0.72
		c-0.31-4.95-0.14-9.92-0.21-14.87c0.79-0.41,2.22-0.12,2.52-1.17C898.21,413.4,898.64,408.91,899.68,404.59z"/>
	<path fill="#FDFDF7" stroke="#FDFDF7" stroke-width="0.4" d="M959.47,407.76c2.32-1.34,4.7-2.6,7.1201-3.76
		c5.33,5.18,11.35,9.58,17.04,14.37c9.38,7.59,18.52,15.47,28.1,22.81c1.71,3.06,1.04,6.97,1.57,10.38
		C995.07,437.32,977.49,422.26,959.47,407.76z"/>
	<path fill="#FDFDF7" stroke="#FDFDF7" stroke-width="0.4" d="M868.45,404.96c2.4,1.19,4.79,2.42,7.14,3.73
		c-17.52,14.24-34.85,28.7-52.42,42.87c0.07-3.46-0.5-7.62,1.62-10.55c9.18-7.19,18.15-14.65,27.14-22.08
		C857.48,414.33,863.28,410,868.45,404.96z"/>
	<path fill="#F29202" stroke="#F29202" stroke-width="0.4" d="M949.52,413.38c2.84-2.57,6.65-3.73,9.95-5.62
		c18.02,14.5,35.6,29.56,53.83,43.8c0.44,10.92,2.81,21.71,2.9,32.65c-22.66-17.71-44.57-36.37-66.91-54.48
		C949.72,424.29,949.21,418.82,949.52,413.38z"/>
	<path fill="#F29202" stroke="#F29202" stroke-width="0.4" d="M875.59,408.69c3.71,1.95,7.46,3.86,11.27,5.64
		c0.38,5.13,0.32,10.28,0.18,15.43c-22.36,18.04-44.38,36.5-66.8,54.47c0.25-10.95,2.61-21.73,2.93-32.67
		C840.74,437.39,858.07,422.93,875.59,408.69z"/>
	<path fill="#B81927" stroke="#B81927" stroke-width="0.4" d="M932.36,409.18c0.54,0.02,1.63,0.05,2.18,0.07
		c0.68,3.24,1.41,6.48,2.3,9.68c1.77-0.68,3.55-1.35,5.35-1.98c0.26,4.08,0.27,8.17-0.02,12.25c-3.33-3.49-7.04-6.81-11.85-8.01
		C930.91,417.17,931.62,413.17,932.36,409.18z"/>
	<path fill="#FDFDF7" stroke="#FDFDF7" stroke-width="0.4" d="M820.24,484.23c22.42-17.97,44.44-36.43,66.8-54.47
		c-0.04,3.09-0.04,6.19-0.0099,9.3c-23,18.29-45.53,37.18-68.3101,55.76l-0.61,0.49C818.94,491.71,817.78,487.18,820.24,484.23z"/>
	<path fill="#FDFDF7" stroke="#FDFDF7" stroke-width="0.4" d="M949.29,429.73c22.34,18.11,44.25,36.77,66.91,54.48
		c1.97,3.12,1.33,7.4,1.75,11c-22.85-18.79-45.66-37.64-68.69-56.22C949.07,435.9,949.09,432.81,949.29,429.73z"/>
	<path fill="#BF1522" stroke="#BF1522" stroke-width="0.4" d="M894.37,433.63l0.22,0.72c2.99,6.29,10.1299,9.11,16.6299,10.05
		c7.34,0.56,15.0601,0.78,21.96-2.19c3.51-1.37,6.2-4.09,8.97-6.53c0.49,30.09,0.02,60.21,0.11,90.32
		c-0.19,26.01,0.1,52.04-0.38,78.05c-15.85,0.07-31.72,0.44-47.55-0.25C894.58,547.08,894.07,490.35,894.37,433.63z"/>
	<path fill="#F29202" stroke="#F29202" stroke-width="0.4" d="M818.72,494.82c22.78-18.58,45.3101-37.47,68.3101-55.76
		c0.34,8.31,0.04,16.64,0.24,24.96c-0.07,1.76,0.2,3.61-0.35,5.33c-13.74,11.1-27.34,22.38-41.03,33.53
		c-10.06,8.03-19.68,16.61-30.04,24.24c0-0.78,0-2.35-0.0099-3.13C816.25,514.22,818,504.56,818.72,494.82z"/>
	<path fill="#F29202" stroke="#F29202" stroke-width="0.4" d="M949.26,438.99c23.03,18.58,45.84,37.43,68.69,56.22
		c0.57,10.79,2.82,21.47,2.81,32.29c-24.18-18.97-47.5-39.03-71.56-58.15C949.5,459.24,949.51,449.1,949.26,438.99z"/>
	<path fill="#FDFDF7" stroke="#FDFDF7" stroke-width="0.4" d="M845.89,502.88c13.69-11.15,27.29-22.43,41.03-33.53
		c0.2,3.11,0.17,6.22,0.16,9.34c-11.2,8.14-21.47,17.48-32.32,26.07c-12.86,10.52-25.68,21.1-38.58,31.57
		c-0.48-0.33-1.43-0.99-1.9-1.32c-1.09-3.85,1.3199-7.28,1.56-11.02c0.0099,0.78,0.0099,2.35,0.0099,3.13
		C826.21,519.49,835.83,510.91,845.89,502.88z"/>
	<path fill="#FDFDF6" stroke="#FDFDF6" stroke-width="0.4" d="M949.2,469.35c24.06,19.12,47.38,39.18,71.56,58.15
		c2.06,2.14,1.04,5.59,1.36,8.29c-2.12-0.03-4.09-0.85-5.65-2.24c-19.12-15.91-38.47-31.54-57.66-47.37
		c-3.09-2.56-6.2-5.09-9.52-7.34C948.92,475.69,949.01,472.51,949.2,469.35z"/>
	<path fill="#F29202" stroke="#F29202" stroke-width="0.4" d="M854.76,504.76c10.85-8.59,21.12-17.93,32.32-26.07
		c0.36,10.01,0.2,20.04,0.14,30.06c-21.06,16.62-41.4,34.14-62.47,50.73c-3.81-2.83-8.33-4.54-12.08-7.42
		c0.34-5.7,1.37-11.34,1.61-17.05c0.47,0.33,1.42,0.99,1.9,1.32C829.08,525.86,841.9,515.28,854.76,504.76z"/>
	<path fill="#F29202" stroke="#F29202" stroke-width="0.4" d="M949.29,478.84c3.32,2.25,6.43,4.78,9.52,7.34
		c19.19,15.83,38.54,31.46,57.66,47.37c1.5601,1.39,3.53,2.21,5.65,2.24c0.73,5.62,1.41,11.25,1.74,16.91
		c-4.37,1.91-8.75,3.97-12.34,7.16c-20.73-17.15-41.6-34.12-62.36-51.23C949.42,498.7,949.31,488.77,949.29,478.84z"/>
	<path fill="#FDFDF6" stroke="#FDFDF6" stroke-width="0.4" d="M824.75,559.48c21.07-16.59,41.41-34.11,62.47-50.73
		c-0.0099,3.07-0.02,6.15,0,9.23c-12.31,9.36-23.97,19.54-36.04,29.21c-6.47,5.7-13.75,10.51-19.62,16.86
		c1.8,0.1,3.61,0.22,5.44,0.24c-2.28,0.15-4.68,0.4-6.84-0.45C828.13,562.68,826.49,560.99,824.75,559.48z"/>
	<path fill="#FDFDF7" stroke="#FDFDF7" stroke-width="0.4" d="M949.16,508.63c20.76,17.11,41.63,34.08,62.36,51.23l0.64,0.55
		c-2.11,1.21-4.1299,5.34-6.78,3.66c-14.85-12.68-30.22-24.73-45.16-37.3c-3.06-2.59-6.25-5.05-9.78-6.97
		c-0.61,9.38-0.08,18.79-0.3,28.19c0.08,3.77-0.47,7.76,1.13,11.31c-0.45-0.23-1.36-0.69-1.81-0.92c0.05-12.45,0.09-24.9,0.06-37.35
		C949.12,516.9,948.77,512.76,949.16,508.63z"/>
	<path fill="#F29202" stroke="#F29202" stroke-width="0.4" d="M851.18,547.19c12.07-9.67,23.73-19.85,36.04-29.21
		c0.16,12.98,0.3,25.98,0.03,38.96c-3.84,3.25-9.37,4.27-14.27,5.17c-4.52,0.21-8.61,2.27-13,3.06c-4.01,0.45-6.58-3.24-10.01-4.54
		c-4.64-0.53-8.7,2.35-12.97,3.66c-1.83-0.02-3.64-0.14-5.44-0.24C837.43,557.7,844.71,552.89,851.18,547.19z"/>
	<path fill="#F29202" stroke="#F29202" stroke-width="0.4" d="M950.44,519.8c3.53,1.92,6.72,4.38,9.78,6.97
		c14.94,12.57,30.3101,24.62,45.16,37.3c-6.16,1.91-11.56-2.46-17.4-3.46c-4.72-0.93-7.41,4.56-11.97,4.6
		c-4.18-0.19-7.91-2.45-12.06-2.81c-4.35-0.44-8.71-1.23-12.68-3.1c-1.6-3.55-1.05-7.54-1.13-11.31
		C950.36,538.59,949.83,529.18,950.44,519.8z"/>
</g>
</svg>
