<?xml version="1.0" standalone="no"?>
<!DOCTYPE svg PUBLIC "-//W3C//DTD SVG 1.1//EN" "http://www.w3.org/Graphics/SVG/1.1/DTD/svg11.dtd">
<!--Generator: Xara Designer (www.xara.com), SVG filter version: 6.1.0.16-->
<svg stroke-width="0.501" stroke-linejoin="bevel" fill-rule="evenodd" xmlns:xlink="http://www.w3.org/1999/xlink" xmlns="http://www.w3.org/2000/svg" version="1.1" overflow="visible" width="720pt" height="720pt" viewBox="0 0 720 720">
 <defs>
	</defs>
 <g id="Document" fill="none" stroke="black" font-family="Times New Roman" font-size="16" transform="scale(1 -1)">
  <g id="Spread" transform="translate(0 -720)">
   <g id="Layer 1">
    <path d="M 408.467,639.084 L 375.585,667.54 L 370.104,663.086 L 294.068,600.682 L 276.258,585.939 L 270.777,585.596 L 265.984,585.253 L 261.873,584.225 L 258.105,583.539 L 253.994,582.512 L 250.569,581.139 L 246.46,579.769 L 243.033,578.396 L 237.897,573.939 L 232.759,569.139 L 227.964,563.996 L 223.512,559.196 L 220.087,553.71 L 217.003,547.54 L 214.262,539.651 L 212.551,531.424 L 212.208,523.194 L 212.894,514.965 L 214.605,507.079 L 217.003,499.538 L 220.43,492.336 L 224.539,486.165 L 237.211,472.106 L 242.006,469.366 L 246.46,466.279 L 249.885,464.906 L 253.31,462.506 L 501.286,462.506 L 504.711,464.563 L 509.163,468.679 L 511.217,471.079 L 513.617,473.82 L 516.698,477.249 L 520.807,481.365 L 526.289,486.508 L 530.4,492.679 L 534.165,499.195 L 537.59,505.708 L 539.304,513.594 L 540.331,520.794 L 540.674,527.994 L 539.647,535.194 L 538.276,542.394 L 535.536,549.253 L 532.454,555.767 L 528.686,561.596 L 524.575,567.082 L 521.837,569.139 L 519.78,571.539 L 517.382,573.596 L 514.985,575.31 L 512.244,577.026 L 509.163,578.739 L 506.422,580.112 L 502.997,581.482 L 488.955,585.939 L 470.802,585.939 L 467.377,587.996 L 464.636,590.053 L 461.554,592.455 L 458.13,594.855 L 455.732,597.255 L 452.991,601.368 L 442.717,609.941 L 416.687,631.884 L 408.467,639.084 Z" stroke="#000000" fill="#800180" stroke-width="1.068" stroke-linejoin="miter" marker-start="none" marker-end="none" stroke-miterlimit="79.8403193612775"/>
    <path d="M 59.45,273.929 L 50.544,259.53 L 54.655,250.614 L 69.724,239.3 L 113.567,208.098 L 96.441,187.526 L 95.414,202.612 L 62.875,228.328 L 77.604,207.069 L 41.981,171.753 L 68.697,103.182 L 88.905,106.952 L 107.742,111.409 L 124.868,115.525 L 140.624,120.668 L 155.01,126.154 L 168.368,132.324 L 180.356,139.524 L 191.657,147.07 L 201.934,155.297 L 210.84,164.556 L 219.401,174.84 L 226.936,185.812 L 234.129,198.155 L 240.295,211.871 L 246.117,226.614 L 251.253,242.73 L 264.611,291.759 L 260.159,307.874 L 256.734,325.017 L 254.68,343.531 L 253.653,362.046 L 252.966,380.56 L 252.966,397.362 L 253.31,412.791 L 253.31,425.818 L 107.058,425.818 L 108.429,421.705 L 111.51,416.562 L 114.937,412.448 L 117.676,410.048 L 120.416,407.305 L 123.5,404.905 L 126.239,402.505 L 129.32,400.791 L 132.404,398.732 L 135.829,396.675 L 138.57,394.619 L 141.995,392.219 L 145.419,390.505 L 149.53,388.105 L 153.298,386.389 L 157.066,384.332 L 160.832,382.276 L 164.257,380.219 L 168.025,378.16 L 171.792,376.446 L 175.56,374.389 L 179.669,372.333 L 183.437,370.619 L 187.548,369.246 L 191.316,367.533 L 195.425,366.16 L 199.536,364.79 L 203.647,363.76 L 207.756,362.73 L 211.867,362.046 L 214.949,360.333 L 220.43,360.333 L 223.168,356.219 L 225.909,352.103 L 228.991,347.644 L 231.388,343.187 L 234.129,337.36 L 236.527,331.531 L 238.924,325.361 L 240.638,318.845 L 242.349,314.045 L 243.033,309.245 L 241.665,304.445 L 239.951,299.643 L 237.897,294.502 L 236.183,289.702 L 233.786,285.243 L 231.732,280.443 L 229.334,275.986 L 226.593,271.529 L 223.512,266.043 L 220.087,260.9 L 216.662,256.1 L 212.894,251.3 L 208.783,246.5 L 204.672,242.043 L 200.22,237.584 L 195.768,233.471 L 189.946,228.671 L 184.464,224.214 L 178.642,219.755 L 173.163,215.298 L 167.341,211.528 L 161.518,207.755 L 155.353,204.326 L 149.187,201.242 L 140.967,211.871 L 139.254,217.698 L 137.199,222.841 L 134.459,227.984 L 131.72,232.441 L 128.293,236.557 L 124.868,240.327 L 120.76,243.757 L 116.305,246.843 L 111.853,249.584 L 107.401,252.67 L 102.606,255.414 L 97.811,257.814 L 93.016,260.216 L 87.878,262.614 L 83.083,265.013 L 77.944,267.757 L 68.356,268.786 L 59.45,273.929 Z" stroke="#000000" fill="#000000" stroke-width="1.068" stroke-linejoin="miter" marker-start="none" marker-end="none" stroke-miterlimit="79.8403193612775"/>
    <path d="M 500.599,251.3 L 509.163,222.498 L 517.382,198.498 L 525.945,178.269 L 535.536,161.126 L 545.81,147.07 L 556.087,135.754 L 567.39,126.838 L 579.035,119.981 L 591.364,115.181 L 604.038,112.095 L 616.71,110.038 L 630.411,108.665 L 644.112,108.325 L 658.155,107.981 L 672.54,107.981 L 687.266,107.295 L 688.293,107.981 L 688.637,108.325 L 689.323,110.725 L 704.049,187.183 L 695.829,195.069 L 681.103,213.928 L 661.579,199.185 L 661.579,179.642 L 659.523,185.126 L 657.468,190.269 L 642.742,210.155 L 686.925,241.014 L 687.953,243.414 L 691.377,246.843 L 693.775,248.214 L 695.829,249.584 L 699.94,252.67 L 703.022,259.53 L 695.829,270.5 L 693.775,274.959 L 677.335,268.1 L 626.3,242.387 L 605.408,201.242 L 600.613,203.642 L 597.532,205.355 L 594.791,207.069 L 592.393,208.785 L 589.309,210.498 L 586.569,212.555 L 584.173,214.612 L 581.433,216.328 L 576.637,220.098 L 571.842,223.528 L 567.39,226.957 L 562.593,230.728 L 558.484,234.155 L 554.03,238.271 L 549.578,242.387 L 545.126,246.843 L 541.358,250.957 L 537.933,255.07 L 534.165,259.186 L 530.4,263.643 L 526.973,268.1 L 523.548,272.559 L 520.464,277.359 L 517.382,282.5 L 515.328,287.645 L 512.587,292.788 L 510.19,297.929 L 507.792,303.758 L 506.081,308.902 L 505.054,314.729 L 505.397,320.561 L 506.765,326.731 L 509.849,332.901 L 510.533,335.644 L 512.93,340.104 L 514.985,345.244 L 517.726,350.731 L 520.807,355.876 L 526.632,358.96 L 532.795,361.703 L 538.963,364.446 L 545.126,366.846 L 551.635,369.246 L 558.141,371.646 L 564.306,374.389 L 570.472,376.789 L 576.981,379.533 L 583.144,381.932 L 589.309,385.019 L 595.475,387.762 L 601.297,391.189 L 606.779,394.619 L 612.258,398.389 L 617.396,402.505 L 621.505,405.591 L 625.273,408.332 L 629.381,411.075 L 633.149,413.818 L 636.917,416.905 L 640.685,419.648 L 644.112,422.734 L 646.851,425.818 L 491.352,425.818 L 492.723,400.105 L 493.75,374.733 L 493.75,350.047 L 492.039,325.361 L 500.599,251.3 Z" stroke="#000000" fill="#000000" stroke-width="1.068" stroke-linejoin="miter" marker-start="none" marker-end="none" stroke-miterlimit="79.8403193612775"/>
    <path d="M 669.799,482.049 L 671.51,489.936 L 674.251,497.479 L 677.678,504.335 L 681.787,511.195 L 686.239,517.708 L 691.034,524.222 L 695.829,530.394 L 700.624,536.908 L 705.42,543.424 L 709.531,549.94 L 713.296,556.794 L 716.037,563.996 L 718.091,571.88 L 719.464,579.769 L 719.464,588.339 L 718.091,597.598 L 716.037,606.511 L 713.296,614.741 L 710.215,622.284 L 705.763,628.798 L 704.392,631.884 L 702.681,634.284 L 700.968,636.684 L 698.913,639.084 L 696.856,641.484 L 694.802,643.884 L 692.748,645.94 L 690.693,648.34 L 687.953,650.054 L 685.212,651.427 L 682.13,653.827 L 679.046,656.227 L 676.992,657.943 L 672.883,660.343 L 670.826,661.029 L 668.772,661.713 L 658.495,664.799 L 647.88,666.856 L 637.604,668.57 L 626.986,669.599 L 616.366,670.283 L 606.092,670.626 L 595.475,670.626 L 584.514,670.283 L 573.897,669.599 L 563.279,669.256 L 552.662,668.913 L 542.044,668.57 L 531.084,668.227 L 510.19,668.227 L 499.229,668.913 L 486.214,668.913 L 480.051,668.227 L 473.883,667.54 L 467.72,666.513 L 461.554,665.143 L 455.732,663.427 L 450.253,661.713 L 444.428,659.656 L 438.949,657.256 L 433.47,654.856 L 428.332,652.113 L 423.193,649.37 L 418.398,645.94 L 413.26,642.513 L 408.467,639.084 L 417.028,631.884 L 420.109,635.311 L 423.534,638.397 L 426.961,641.484 L 430.729,644.57 L 435.181,646.97 L 439.292,649.37 L 443.744,651.427 L 448.539,653.484 L 453.335,654.856 L 457.787,656.227 L 462.925,657.256 L 467.72,658.286 L 472.515,658.627 L 477.31,659.313 L 481.762,659.313 L 486.214,658.97 L 514.985,660.343 L 558.827,660.343 L 573.897,660.686 L 577.665,661.029 L 602.327,661.029 L 608.49,660.686 L 618.08,660.686 L 632.125,661.029 L 639.317,660.686 L 646.164,659.656 L 652.332,658.286 L 658.155,656.227 L 663.977,654.17 L 669.115,651.77 L 673.91,648.684 L 678.362,645.6 L 682.13,641.827 L 686.239,638.054 L 690.007,634.625 L 693.089,630.17 L 696.172,626.398 L 698.913,621.941 L 701.652,617.825 L 704.049,613.368 L 708.16,596.912 L 709.187,580.112 L 707.133,563.653 L 701.652,547.88 L 699.597,544.11 L 697.543,541.024 L 695.488,537.937 L 693.432,534.851 L 691.034,532.11 L 688.637,529.367 L 686.239,526.624 L 683.498,524.222 L 681.446,521.138 L 679.046,517.708 L 676.649,514.281 L 674.594,510.508 L 672.883,507.079 L 671.51,503.308 L 670.142,499.538 L 668.772,495.765 L 668.086,491.992 L 668.429,489.249 L 669.115,486.508 L 669.799,482.049 Z" stroke="#000000" fill="#010180" stroke-width="1.068" stroke-linejoin="miter" marker-start="none" marker-end="none" stroke-miterlimit="79.8403193612775"/>
    <path d="M 237.211,471.763 L 224.539,485.822 L 220.43,491.992 L 217.003,499.195 L 214.605,506.735 L 212.894,514.624 L 212.208,522.851 L 212.551,531.081 L 213.921,539.308 L 216.662,547.54 L 219.744,553.367 L 223.512,558.853 L 227.964,563.996 L 237.554,573.596 L 243.033,578.396 L 248.171,583.196 L 252.966,587.996 L 257.078,591.425 L 261.186,594.855 L 264.954,598.282 L 268.722,601.712 L 272.831,604.795 L 276.599,607.882 L 280.367,610.625 L 284.135,613.027 L 285.848,620.568 L 288.246,627.427 L 290.643,633.941 L 293.041,639.77 L 295.095,645.256 L 297.15,650.054 L 299.207,654.513 L 300.575,658.627 L 294.411,653.827 L 288.246,649.37 L 282.424,644.913 L 276.258,640.454 L 270.093,636.341 L 263.927,631.541 L 257.762,626.741 L 251.596,621.254 L 246.801,617.482 L 242.006,613.027 L 237.211,608.568 L 232.759,603.425 L 227.623,597.939 L 222.825,592.112 L 217.687,585.596 L 212.894,578.739 L 210.497,584.225 L 207.413,589.709 L 204.672,595.539 L 201.59,601.025 L 198.509,606.855 L 195.084,612.684 L 191.657,618.511 L 188.232,623.998 L 185.151,628.454 L 182.069,632.911 L 178.985,637.027 L 175.56,641.484 L 172.476,645.256 L 168.711,649.37 L 165.627,653.14 L 161.859,656.57 L 158.091,651.084 L 154.323,645.6 L 150.558,639.77 L 146.446,634.284 L 143.022,628.798 L 139.597,622.968 L 135.829,617.482 L 133.088,611.655 L 131.377,608.568 L 129.664,605.482 L 128.293,601.712 L 126.925,598.282 L 124.868,594.512 L 123.157,590.053 L 121.1,585.253 L 118.705,579.082 L 112.881,585.253 L 107.742,591.425 L 102.606,597.255 L 97.125,602.739 L 91.986,608.225 L 86.851,613.368 L 81.371,618.168 L 76.233,622.968 L 71.095,627.084 L 65.616,631.197 L 60.137,635.311 L 53.969,639.427 L 47.806,643.54 L 41.297,647.313 L 34.104,651.084 L 26.571,654.856 L 29.309,650.054 L 32.05,645.256 L 34.791,640.797 L 37.186,636.684 L 39.586,632.227 L 41.638,627.77 L 44.038,623.998 L 46.092,619.882 L 49.517,617.825 L 52.941,614.741 L 56.709,611.311 L 60.821,607.539 L 64.929,603.425 L 69.04,598.968 L 73.152,594.855 L 77.26,590.053 L 81.371,585.253 L 85.48,580.455 L 89.591,575.653 L 93.016,571.196 L 96.441,567.082 L 99.522,562.967 L 102.263,559.539 L 104.318,556.11 L 77.604,522.165 L 84.796,471.763 L 237.211,471.763 Z" stroke="#000000" fill="#ffff80" stroke-width="1.068" stroke-linejoin="miter" marker-start="none" marker-end="none" stroke-miterlimit="79.8403193612775"/>
    <path d="M 251.253,242.387 L 254.337,236.557 L 258.105,228.671 L 262.216,218.728 L 267.011,207.755 L 272.831,196.099 L 278.999,183.412 L 286.192,170.383 L 294.068,157.697 L 302.972,145.354 L 312.222,133.697 L 322.839,123.068 L 334.14,113.811 L 346.471,106.609 L 359.486,101.125 L 373.529,98.382 L 388.944,98.038 L 408.124,112.095 L 424.564,124.095 L 438.265,135.067 L 449.567,144.667 L 458.473,152.897 L 466.006,160.783 L 471.831,167.983 L 476.283,174.84 L 480.051,182.04 L 482.789,189.239 L 485.187,196.785 L 487.241,205.012 L 489.639,214.612 L 492.38,225.241 L 495.804,237.241 L 500.259,251.3 L 491.696,325.017 L 490.666,318.158 L 489.298,311.645 L 487.584,305.131 L 485.873,298.615 L 483.476,291.759 L 480.735,284.9 L 477.651,278.043 L 474.226,271.529 L 472.172,268.443 L 470.458,265.013 L 468.404,261.243 L 466.35,257.473 L 463.609,253.7 L 461.211,250.27 L 458.13,246.843 L 452.991,245.814 L 445.799,253.014 L 440.317,257.814 L 433.127,262.957 L 424.221,267.413 L 413.603,271.529 L 401.272,274.616 L 404.356,278.729 L 407.438,283.529 L 407.781,288.672 L 402.986,294.502 L 403.67,291.415 L 403.67,287.986 L 402.986,285.243 L 400.588,284.559 L 398.191,284.216 L 395.793,283.186 L 393.736,281.129 L 391.341,279.416 L 388.6,277.359 L 385.176,275.302 L 381.064,274.273 L 376.269,273.586 L 372.161,275.645 L 369.077,277.359 L 366.338,279.416 L 363.938,281.129 L 361.541,282.843 L 359.146,283.872 L 356.405,284.9 L 353.321,284.9 L 352.637,287.986 L 352.98,290.729 L 353.321,294.159 L 350.239,291.759 L 347.499,288.329 L 346.131,283.529 L 347.155,279.416 L 347.499,275.986 L 346.131,274.616 L 344.074,273.929 L 341.335,273.586 L 339.279,273.243 L 336.881,272.9 L 334.827,272.559 L 332.429,272.216 L 330.032,272.216 L 327.977,271.873 L 325.237,269.473 L 322.496,266.729 L 319.755,264.329 L 317.017,261.93 L 314.276,259.53 L 311.194,257.13 L 308.797,254.73 L 306.397,251.984 L 296.466,243.757 L 294.411,246.157 L 292.355,248.557 L 290.3,251.3 L 288.587,253.357 L 286.532,255.757 L 284.819,258.157 L 282.767,260.557 L 280.71,263.3 L 278.999,266.729 L 276.599,270.157 L 274.545,273.586 L 272.831,276.672 L 270.436,280.443 L 268.722,283.872 L 266.668,287.986 L 264.611,291.759 L 251.253,242.387 Z" stroke="#000000" fill="#804104" stroke-width="1.068" stroke-linejoin="miter" marker-start="none" marker-end="none" stroke-miterlimit="79.8403193612775"/>
    <path d="M 253.31,425.818 L 501.629,425.818 L 501.629,462.506 L 489.639,462.506 L 489.639,433.707 L 262.9,433.707 L 262.9,462.506 L 253.31,462.506 L 253.31,425.818 Z" stroke="#000000" fill="#800180" stroke-width="1.068" stroke-linejoin="miter" marker-start="none" marker-end="none" stroke-miterlimit="79.8403193612775"/>
    <path d="M 253.31,425.818 L 253.31,412.791 L 252.966,397.019 L 252.966,380.56 L 253.653,362.046 L 254.68,343.187 L 256.734,325.017 L 260.159,307.531 L 264.611,291.415 L 266.668,287.645 L 268.379,283.872 L 270.436,280.443 L 272.49,276.672 L 274.545,273.586 L 276.599,270.157 L 278.656,266.386 L 280.71,262.957 L 282.767,260.557 L 284.819,257.814 L 286.532,255.414 L 288.587,253.357 L 290.3,250.957 L 292.355,248.557 L 294.068,246.157 L 296.123,243.757 L 306.056,251.984 L 308.797,254.386 L 311.194,256.786 L 314.276,259.186 L 317.017,261.586 L 319.755,263.986 L 322.496,266.386 L 327.977,271.873 L 330.032,272.216 L 332.429,272.216 L 334.484,272.559 L 336.538,272.9 L 338.936,273.243 L 341.335,273.586 L 344.074,273.929 L 346.131,274.616 L 347.499,275.986 L 347.155,279.416 L 346.131,283.529 L 347.499,288.329 L 350.239,291.415 L 353.321,294.159 L 356.405,295.529 L 353.321,294.159 L 352.98,290.729 L 352.637,287.986 L 353.321,284.9 L 356.405,284.9 L 359.146,283.872 L 361.541,282.843 L 363.938,281.129 L 366.338,279.416 L 369.077,277.359 L 372.161,275.645 L 376.269,273.586 L 381.064,274.273 L 385.176,275.302 L 388.6,277.359 L 391.341,279.416 L 393.736,281.129 L 395.793,283.186 L 398.191,284.216 L 400.588,284.559 L 402.986,285.243 L 404.013,287.986 L 403.67,291.072 L 402.986,294.159 L 408.124,288.672 L 407.781,283.529 L 404.699,278.729 L 401.272,274.616 L 413.946,271.529 L 424.221,267.413 L 433.127,262.614 L 440.317,257.473 L 446.142,252.67 L 450.253,248.557 L 453.335,245.814 L 458.473,246.843 L 461.211,249.927 L 463.952,253.7 L 466.35,257.473 L 468.404,261.243 L 470.458,264.67 L 472.515,268.1 L 474.569,271.529 L 477.651,278.043 L 481.078,284.9 L 483.476,291.415 L 485.873,298.615 L 487.928,305.131 L 489.639,311.645 L 490.666,318.158 L 491.696,325.017 L 493.75,350.047 L 493.407,374.733 L 492.38,400.105 L 491.352,425.818 L 253.31,425.818 Z" stroke="#000000" fill="#ffffff" stroke-width="1.068" stroke-linejoin="miter" marker-start="none" marker-end="none" stroke-miterlimit="79.8403193612775"/>
    <path d="M 353.321,294.159 L 352.98,290.729 L 352.637,287.986 L 353.321,284.9 L 356.405,284.9 L 359.146,283.872 L 361.541,282.843 L 363.938,281.129 L 366.338,279.416 L 369.077,277.359 L 372.161,275.645 L 376.269,273.586 L 381.064,274.273 L 385.176,275.302 L 388.6,277.359 L 391.341,279.416 L 393.736,281.129 L 395.793,283.186 L 398.191,284.216 L 400.588,284.559 L 402.986,285.243 L 404.013,287.986 L 403.67,291.072 L 402.986,294.159 L 408.124,288.672 L 407.781,283.529 L 404.699,278.729 L 401.272,274.616 L 413.946,271.529 L 424.221,267.413 L 433.127,262.614 L 440.317,257.473 L 446.142,252.67 L 450.253,248.557 L 453.335,245.814 L 458.473,246.843 L 461.211,249.927 L 463.952,253.7 L 466.35,257.473 L 468.404,261.243 L 470.458,264.67 L 472.515,268.1 L 474.569,271.529 L 477.651,278.043 L 481.078,284.9 L 483.476,291.415 L 485.873,298.615 L 487.928,305.131 L 489.639,311.645 L 490.666,318.158 L 491.696,325.017 L 493.75,350.047 L 493.407,374.733 L 492.38,400.105 L 491.352,425.818 L 253.31,425.818 L 253.31,412.791 L 252.966,397.019 L 252.966,380.56 L 253.653,362.046 L 254.68,343.187 L 256.734,325.017 L 260.159,307.531 L 264.611,291.415 L 266.668,287.645 L 268.379,283.872 L 270.436,280.443 L 272.49,276.672 L 274.545,273.586 L 276.599,270.157 L 278.656,266.386 L 280.71,262.957 L 282.767,260.557 L 284.819,257.814 L 286.532,255.414 L 288.587,253.357 L 290.3,250.957 L 292.355,248.557 L 294.068,246.157 L 296.123,243.757 L 306.056,251.984 L 308.797,254.386 L 311.194,256.786 L 314.276,259.186 L 317.017,261.586 L 319.755,263.986 L 322.496,266.386 L 327.977,271.873 L 330.032,272.216 L 332.429,272.216 L 334.484,272.559 L 336.538,272.9 L 338.936,273.243 L 341.335,273.586 L 344.074,273.929 L 346.131,274.616 L 347.499,275.986 L 347.155,279.416 L 346.131,283.529 L 347.499,288.329 L 350.239,291.415 L 353.321,294.159 Z" stroke="#000000" fill="#ffe1c5" stroke-width="1.068" stroke-linejoin="miter" marker-start="none" marker-end="none" stroke-miterlimit="79.8403193612775"/>
    <path d="M 489.639,462.506 L 263.243,462.506 L 263.243,433.707 L 489.639,433.707 L 489.639,462.506 Z" stroke="#000000" fill="#ffffe1" stroke-width="1.068" stroke-linejoin="miter" marker-start="none" marker-end="none" stroke-miterlimit="79.8403193612775"/>
    <path d="M 704.049,286.272 L 707.133,288.329 L 709.531,290.729 L 711.585,293.815 L 713.639,297.243 L 711.244,301.015 L 708.503,304.445 L 706.106,307.874 L 704.049,311.645 L 700.624,316.101 L 697.886,320.217 L 694.802,324.674 L 691.721,328.445 L 690.693,330.844 L 687.953,334.274 L 686.239,336.674 L 673.91,353.133 L 692.748,373.703 L 692.061,378.16 L 690.35,381.932 L 688.293,385.362 L 686.582,389.132 L 683.498,393.932 L 681.103,398.732 L 678.362,402.848 L 675.965,407.648 L 673.567,412.105 L 671.17,416.562 L 668.429,421.021 L 666.031,425.818 L 647.194,425.818 L 644.112,422.734 L 640.685,419.648 L 636.917,416.905 L 633.149,413.818 L 629.381,411.075 L 625.273,408.332 L 621.505,405.591 L 617.737,402.505 L 612.599,398.389 L 606.779,394.619 L 601.297,391.189 L 595.475,387.762 L 589.309,385.019 L 583.144,381.932 L 576.981,379.533 L 570.472,376.789 L 564.306,374.389 L 558.141,371.646 L 551.635,369.246 L 545.126,366.503 L 538.62,364.103 L 532.795,361.36 L 526.632,358.617 L 520.807,355.876 L 517.726,350.731 L 514.985,345.244 L 512.93,340.104 L 510.533,335.644 L 509.849,332.558 L 506.765,326.388 L 505.397,320.561 L 505.054,314.729 L 506.081,308.902 L 507.792,303.415 L 510.19,297.929 L 512.587,292.788 L 515.328,287.645 L 517.382,282.156 L 520.464,277.359 L 523.548,272.559 L 526.973,268.1 L 530.4,263.3 L 534.165,259.186 L 537.59,254.73 L 541.358,250.614 L 545.126,246.5 L 549.578,242.043 L 554.03,237.927 L 558.484,234.155 L 562.593,230.384 L 567.39,226.614 L 571.842,223.185 L 576.637,219.755 L 581.433,215.985 L 584.173,214.271 L 586.569,212.214 L 589.309,210.498 L 592.393,208.442 L 594.791,206.728 L 597.532,205.012 L 600.613,203.642 L 605.408,200.898 L 626.3,242.043 L 677.335,268.1 L 667.059,273.586 L 661.923,276.329 L 659.182,278.386 L 658.495,286.959 L 662.947,292.788 L 664.32,286.959 L 665.347,283.872 L 667.745,282.5 L 672.54,280.786 L 675.965,282.843 L 679.73,284.559 L 683.498,285.586 L 687.609,286.272 L 704.049,286.272 Z" stroke="#000000" fill="#ffc080" stroke-width="1.068" stroke-linejoin="miter" marker-start="none" marker-end="none" stroke-miterlimit="79.8403193612775"/>
    <path d="M 44.038,290.729 L 47.462,287.986 L 49.174,285.243 L 52.941,284.559 L 64.589,284.559 L 68.697,284.216 L 72.465,283.529 L 75.547,282.156 L 78.631,279.416 L 81.712,279.072 L 90.619,285.243 L 89.935,290.045 L 87.535,294.845 L 90.619,293.472 L 94.043,287.986 L 95.07,283.186 L 92.673,276.672 L 90.619,274.959 L 86.507,272.216 L 82.399,270.157 L 77.944,267.757 L 82.739,265.013 L 87.878,262.614 L 92.673,260.216 L 97.811,257.814 L 102.606,255.07 L 107.401,252.327 L 111.853,249.584 L 116.305,246.843 L 120.416,243.757 L 124.525,239.984 L 128.293,236.557 L 131.72,232.441 L 134.459,227.644 L 137.199,222.841 L 139.254,217.355 L 140.967,211.528 L 149.187,200.898 L 155.353,203.985 L 161.518,207.412 L 167.341,211.185 L 173.163,215.298 L 178.642,219.412 L 184.464,223.871 L 189.946,228.328 L 195.768,233.128 L 200.22,237.584 L 204.672,241.7 L 208.783,246.5 L 212.894,250.957 L 216.662,255.757 L 220.43,260.9 L 223.512,266.043 L 226.593,271.529 L 229.334,275.986 L 231.732,280.443 L 233.786,284.9 L 236.183,289.702 L 237.897,294.502 L 239.951,299.302 L 241.665,304.102 L 243.033,309.245 L 242.349,314.045 L 240.638,318.845 L 238.924,325.361 L 236.527,331.531 L 234.129,337.36 L 231.388,343.187 L 228.991,347.644 L 226.25,352.103 L 223.512,356.219 L 220.771,360.333 L 214.949,360.333 L 211.867,361.703 L 207.756,362.73 L 203.647,363.417 L 199.536,364.79 L 195.425,366.16 L 191.316,367.19 L 187.548,368.903 L 183.437,370.619 L 179.669,372.333 L 175.56,374.389 L 171.792,376.446 L 168.025,378.16 L 164.257,380.219 L 160.832,382.276 L 156.723,384.332 L 153.298,386.389 L 149.53,388.105 L 145.419,390.505 L 141.995,392.219 L 138.57,394.275 L 135.829,396.332 L 132.404,398.732 L 129.32,400.791 L 126.239,402.505 L 123.157,404.905 L 120.073,407.305 L 114.937,412.448 L 111.51,416.562 L 108.429,421.705 L 107.058,425.818 L 88.564,425.818 L 83.426,417.591 L 60.137,373.703 L 78.971,352.447 L 60.137,323.304 L 57.737,320.217 L 54.998,317.131 L 52.601,313.702 L 49.86,310.274 L 47.806,306.845 L 45.749,303.072 L 43.694,299.643 L 42.324,295.872 L 43.694,293.129 L 44.038,290.729 Z" stroke="#000000" fill="#ffc080" stroke-width="1.068" stroke-linejoin="miter" marker-start="none" marker-end="none" stroke-miterlimit="79.8403193612775"/>
    <path d="M 694.802,462.506 L 694.802,472.106 L 669.799,482.393 L 669.115,486.508 L 668.429,489.592 L 668.086,491.992 L 668.772,496.108 L 670.142,499.881 L 671.51,503.651 L 672.883,507.422 L 674.594,510.851 L 676.649,514.624 L 679.046,518.051 L 681.446,521.138 L 683.841,524.565 L 688.637,529.367 L 691.034,532.453 L 693.432,535.194 L 695.488,537.937 L 697.543,541.024 L 699.597,544.453 L 701.652,547.88 L 707.133,563.653 L 709.187,580.112 L 708.16,596.912 L 704.049,613.368 L 701.652,617.825 L 698.913,621.941 L 696.172,626.398 L 693.089,630.17 L 690.007,634.625 L 686.239,638.054 L 682.13,641.827 L 678.362,645.6 L 673.91,648.684 L 669.115,651.427 L 663.977,654.17 L 658.155,656.227 L 652.332,657.943 L 646.164,659.313 L 639.317,660.343 L 632.125,660.686 L 638.974,658.627 L 645.824,655.54 L 652.332,652.113 L 658.495,647.997 L 663.977,643.2 L 669.115,637.711 L 673.567,631.884 L 677.678,625.711 L 681.446,612.684 L 682.814,598.968 L 681.103,585.596 L 676.649,571.88 L 673.567,567.423 L 670.483,563.31 L 667.402,558.853 L 664.663,554.737 L 661.579,550.28 L 658.839,545.824 L 656.1,541.367 L 654.044,536.567 L 649.592,528.337 L 646.508,520.108 L 644.112,509.479 L 641.372,495.765 L 640.001,489.936 L 639.658,484.452 L 638.974,478.965 L 638.288,473.136 L 637.261,482.049 L 637.604,491.649 L 638.974,500.908 L 640.685,510.851 L 642.742,520.108 L 645.14,529.367 L 647.88,538.624 L 650.619,547.88 L 652.332,551.31 L 654.387,554.737 L 656.1,557.823 L 658.155,560.91 L 659.866,563.996 L 661.923,566.739 L 663.977,569.48 L 666.375,572.566 L 669.456,583.882 L 671.17,593.825 L 671.17,602.396 L 670.483,610.284 L 667.745,618.168 L 663.977,626.054 L 658.155,634.625 L 650.619,644.227 L 647.537,646.627 L 643.769,649.37 L 639.658,651.427 L 635.89,653.484 L 631.438,655.54 L 626.986,657.256 L 622.875,658.97 L 618.08,660.343 L 613.971,660.686 L 601.984,660.686 L 595.475,661.029 L 582.801,661.029 L 577.321,660.686 L 573.554,660.343 L 576.294,659.656 L 579.376,658.97 L 582.46,658.286 L 585.201,657.256 L 587.939,655.884 L 590.68,654.513 L 593.077,653.14 L 595.475,651.427 L 601.64,646.97 L 607.463,642.513 L 612.599,637.37 L 617.396,631.884 L 621.505,625.711 L 624.589,619.198 L 626.986,611.998 L 628.697,604.111 L 629.041,593.825 L 628.014,583.882 L 625.616,573.939 L 622.534,563.996 L 618.766,554.394 L 615.342,544.453 L 612.599,534.51 L 610.547,524.565 L 608.147,511.538 L 606.435,498.508 L 605.065,485.479 L 602.667,472.793 L 601.297,489.936 L 603.351,508.451 L 606.779,528.337 L 609.86,547.88 L 612.942,567.423 L 614.999,586.282 L 614.999,603.082 L 612.599,617.825 L 611.231,620.568 L 608.833,625.711 L 604.722,632.227 L 599.243,639.084 L 592.05,646.284 L 582.801,652.454 L 571.842,657.256 L 558.827,659.999 L 562.252,639.77 L 564.306,594.855 L 564.65,538.964 L 562.593,486.508 L 562.593,479.649 L 560.882,472.793 L 556.087,499.538 L 553.003,527.994 L 550.607,556.794 L 549.578,585.596 L 549.237,601.368 L 549.921,616.798 L 550.948,632.227 L 553.346,647.997 L 554.373,654.17 L 555.403,659.999 L 547.524,659.999 L 535.536,653.484 L 524.232,645.6 L 514.985,636.684 L 507.449,627.084 L 502.313,616.455 L 499.572,605.482 L 499.572,593.825 L 502.997,581.139 L 506.422,579.769 L 509.163,578.396 L 512.244,576.682 L 514.985,574.966 L 517.382,573.253 L 519.78,571.196 L 521.837,569.139 L 524.575,566.739 L 529.027,561.596 L 532.795,555.767 L 535.879,549.253 L 538.276,542.394 L 539.988,535.194 L 540.674,527.994 L 540.674,520.794 L 539.304,513.594 L 537.59,505.708 L 534.509,498.852 L 530.741,492.679 L 526.632,486.508 L 520.807,481.365 L 516.698,477.249 L 513.617,473.82 L 511.217,471.079 L 509.163,468.679 L 504.711,464.563 L 501.629,462.506 L 694.802,462.506 Z" stroke="#000000" fill="#e1ffff" stroke-width="1.068" stroke-linejoin="miter" marker-start="none" marker-end="none" stroke-miterlimit="79.8403193612775"/>
    <path d="M 80.685,635.654 L 77.944,637.37 L 74.52,639.77 L 70.411,642.513 L 65.616,645.256 L 60.477,648.34 L 54.655,651.427 L 48.833,654.513 L 42.667,657.943 L 36.845,661.029 L 30.679,664.113 L 24.855,666.856 L 19.376,669.599 L 14.24,671.999 L 9.445,673.713 L 4.99,675.429 L 1.568,676.456 L 9.101,667.54 L 18.348,652.113 L 26.911,637.37 L 34.791,622.968 L 41.981,608.568 L 48.833,593.825 L 54.655,578.739 L 60.137,562.967 L 64.589,545.824 L 68.013,527.308 L 71.781,508.451 L 74.52,490.279 L 76.576,472.106 L 85.139,471.763 L 77.944,522.508 L 74.52,538.28 L 71.095,551.996 L 67.67,564.682 L 64.589,576.682 L 60.477,587.653 L 56.369,598.282 L 51.914,608.911 L 46.435,620.225 L 44.381,623.998 L 41.981,628.114 L 39.586,632.227 L 37.529,636.341 L 34.791,640.797 L 32.391,645.256 L 29.652,650.054 L 26.911,654.856 L 34.447,651.084 L 41.297,646.97 L 48.146,643.2 L 54.312,639.427 L 60.477,635.311 L 65.956,631.197 L 71.438,627.427 L 76.576,622.968 L 80.685,635.654 Z" stroke="#000000" fill="#000000" stroke-width="1.068" stroke-linejoin="miter" marker-start="none" marker-end="none" stroke-miterlimit="79.8403193612775"/>
    <path d="M 666.031,425.818 L 694.802,425.818 L 694.802,462.506 L 679.39,462.506 L 679.39,433.707 L 509.849,433.707 L 509.849,462.506 L 501.629,462.506 L 501.629,425.818 L 666.031,425.818 Z" stroke="#000000" fill="#e1ffff" stroke-width="1.068" stroke-linejoin="miter" marker-start="none" marker-end="none" stroke-miterlimit="79.8403193612775"/>
    <path d="M 631.781,660.686 L 618.08,660.343 L 622.875,658.627 L 626.986,657.256 L 631.438,655.54 L 635.549,653.484 L 639.658,651.427 L 643.769,649.027 L 647.537,646.627 L 650.619,643.884 L 658.155,634.625 L 663.977,626.054 L 667.745,618.168 L 670.483,610.284 L 671.17,602.052 L 671.17,593.482 L 669.456,583.539 L 666.375,572.566 L 663.977,569.48 L 661.923,566.396 L 659.866,563.653 L 658.155,560.567 L 656.1,557.48 L 654.387,554.394 L 652.332,551.31 L 650.619,547.88 L 647.88,538.624 L 645.14,529.367 L 642.742,520.108 L 640.685,510.508 L 638.631,500.908 L 637.604,491.649 L 636.917,482.049 L 637.945,473.136 L 638.974,478.965 L 639.317,484.452 L 640.001,489.936 L 641.372,495.765 L 644.112,509.479 L 646.508,519.765 L 649.592,528.337 L 654.044,536.567 L 656.1,541.367 L 658.495,545.824 L 661.579,549.94 L 664.663,554.394 L 667.402,558.51 L 670.483,562.967 L 673.567,567.423 L 676.649,571.88 L 681.103,585.253 L 682.814,598.968 L 681.446,612.684 L 677.678,625.711 L 673.567,631.884 L 669.115,637.711 L 663.977,642.857 L 658.495,647.656 L 652.332,651.77 L 645.824,655.54 L 638.974,658.286 L 631.781,660.686 Z" stroke="#000000" fill="#010180" stroke-width="1.068" stroke-linejoin="miter" marker-start="none" marker-end="none" stroke-miterlimit="79.8403193612775"/>
    <path d="M 573.554,660.686 L 558.827,660.343 L 571.842,657.256 L 582.801,652.454 L 591.707,646.284 L 599.243,639.427 L 604.722,632.568 L 608.833,625.711 L 611.231,620.911 L 612.599,617.825 L 614.999,603.082 L 614.999,586.282 L 612.942,567.766 L 609.86,547.88 L 606.435,528.337 L 603.351,508.451 L 601.297,489.936 L 602.667,472.793 L 604.722,485.479 L 606.435,498.508 L 607.806,511.538 L 610.547,524.565 L 612.258,534.51 L 615.342,544.453 L 618.766,554.394 L 622.191,563.996 L 625.273,573.939 L 628.014,583.882 L 629.041,593.825 L 628.697,604.455 L 626.643,611.998 L 624.246,619.198 L 621.162,625.711 L 617.053,632.227 L 612.599,637.711 L 607.463,642.857 L 601.64,647.313 L 595.475,651.77 L 593.077,653.14 L 590.336,654.513 L 587.596,655.884 L 584.857,657.256 L 582.117,658.286 L 579.035,659.313 L 576.294,659.999 L 573.554,660.686 Z" stroke="#000000" fill="#010180" stroke-width="1.068" stroke-linejoin="miter" marker-start="none" marker-end="none" stroke-miterlimit="79.8403193612775"/>
    <path d="M 558.827,660.343 L 555.059,660.343 L 554.03,654.17 L 553.003,648.34 L 550.948,632.568 L 549.921,617.141 L 549.237,601.368 L 549.578,585.596 L 550.607,556.794 L 552.662,527.994 L 556.087,499.538 L 560.539,472.793 L 562.252,479.649 L 562.252,486.508 L 564.65,539.308 L 564.306,594.855 L 561.909,639.77 L 558.827,660.343 Z" stroke="#000000" fill="#010180" stroke-width="1.068" stroke-linejoin="miter" marker-start="none" marker-end="none" stroke-miterlimit="79.8403193612775"/>
    <path d="M 76.233,472.106 L 66.643,472.106 L 66.643,425.818 L 253.31,425.818 L 253.31,462.506 L 249.542,464.906 L 246.46,466.279 L 242.006,469.366 L 237.211,471.763 L 84.796,471.763 L 76.233,472.106 Z" stroke="#000000" fill="#ffff80" stroke-width="1.068" stroke-linejoin="miter" marker-start="none" marker-end="none" stroke-miterlimit="79.8403193612775"/>
    <path d="M 679.39,462.506 L 509.849,462.506 L 509.849,433.707 L 679.39,433.707 L 679.39,462.506 Z" stroke="#000000" fill="#804104" stroke-width="1.068" stroke-linejoin="miter" marker-start="none" marker-end="none" stroke-miterlimit="79.8403193612775"/>
    <path d="M 76.576,462.506 L 243.033,462.506 L 243.033,433.707 L 76.576,433.707 L 76.576,462.506 Z" stroke="#000000" fill="#018001" stroke-width="1.068" stroke-linejoin="miter" marker-start="none" marker-end="none" stroke-miterlimit="79.8403193612775"/>
    <path d="M 325.58,343.531 L 328.318,345.244 L 331.059,346.274 L 334.14,347.303 L 336.538,348.331 L 337.908,350.39 L 303.315,350.39 L 288.587,344.217 L 289.273,346.617 L 290.643,349.36 L 296.466,355.19 L 294.411,356.903 L 291.671,357.59 L 283.451,357.246 L 292.355,373.703 L 288.93,375.419 L 285.848,376.446 L 282.424,376.446 L 278.999,375.76 L 275.572,375.076 L 272.147,374.046 L 269.065,373.362 L 265.984,373.019 L 275.915,379.533 L 277.969,382.276 L 362.227,393.246 L 364.282,390.505 L 365.652,390.162 L 367.706,391.532 L 370.104,390.505 L 362.227,375.76 L 363.938,373.019 L 368.733,362.73 L 368.049,351.76 L 364.625,340.79 L 360.514,330.501 L 360.17,335.644 L 360.514,341.131 L 360.17,346.274 L 358.118,350.731 L 355.378,349.017 L 351.951,347.644 L 348.869,346.274 L 345.444,344.56 L 342.363,344.217 L 339.622,343.874 L 336.881,342.847 L 333.8,342.503 L 331.4,342.16 L 328.661,341.817 L 325.58,343.531 Z" stroke="#000000" fill="#000000" stroke-width="1.068" stroke-linejoin="miter" marker-start="none" marker-end="none" stroke-miterlimit="79.8403193612775"/>
    <path d="M 195.084,557.823 L 163.573,611.655 L 135.145,558.51 L 164.6,508.451 L 195.084,557.823 Z" stroke="#000000" fill="#800101" stroke-width="1.068" stroke-linejoin="miter" marker-start="none" marker-end="none" stroke-miterlimit="79.8403193612775"/>
    <path d="M 270.093,471.763 L 267.695,472.106 L 265.641,472.793 L 263.243,473.479 L 260.846,473.82 L 258.789,474.849 L 256.391,475.536 L 253.994,476.22 L 251.253,477.249 L 248.858,478.965 L 246.46,480.336 L 242.006,483.765 L 239.265,486.849 L 236.183,489.936 L 233.102,493.365 L 230.704,497.136 L 226.593,507.765 L 224.539,519.081 L 224.196,530.394 L 226.936,541.71 L 228.991,547.196 L 231.732,551.996 L 234.47,555.767 L 237.211,559.196 L 239.951,561.596 L 243.033,563.653 L 245.433,565.366 L 248.171,567.082 L 250.912,568.11 L 253.653,569.48 L 256.734,570.853 L 260.846,572.223 L 264.954,573.253 L 270.436,574.282 L 276.258,574.282 L 282.767,573.253 L 287.903,572.223 L 293.041,570.51 L 297.493,568.453 L 301.602,566.053 L 305.713,563.653 L 309.138,560.223 L 312.222,556.794 L 315.303,553.023 L 321.125,541.367 L 323.866,528.681 L 323.866,515.651 L 319.071,501.595 L 317.017,496.795 L 314.276,492.679 L 311.535,489.249 L 308.11,485.822 L 304.686,482.736 L 300.575,479.993 L 296.466,477.593 L 292.014,475.193 L 289.273,474.506 L 286.532,473.479 L 283.792,472.793 L 281.051,472.106 L 278.312,471.763 L 275.915,471.422 L 272.831,471.422 L 270.093,471.763 Z" stroke="#000000" fill="#e1e1e1" stroke-width="1.068" stroke-linejoin="miter" marker-start="none" marker-end="none" stroke-miterlimit="79.8403193612775"/>
    <path d="M 475.597,473.136 L 484.503,474.506 L 492.039,475.879 L 498.545,477.593 L 503.683,479.993 L 508.135,482.393 L 511.903,485.479 L 515.328,488.906 L 518.412,492.336 L 521.837,497.822 L 524.918,503.995 L 527.316,510.508 L 528.686,517.365 L 529.713,524.565 L 529.37,531.767 L 528.343,538.964 L 525.945,545.824 L 523.891,548.567 L 522.18,551.653 L 520.807,554.394 L 518.753,557.137 L 508.135,567.082 L 502.656,570.166 L 496.834,572.566 L 490.325,574.623 L 483.819,575.31 L 476.967,575.653 L 470.118,574.966 L 463.609,573.253 L 457.1,570.853 L 452.991,568.796 L 449.91,566.739 L 446.826,564.682 L 443.744,562.626 L 441.347,559.88 L 438.949,557.137 L 436.892,554.053 L 435.181,550.624 L 430.729,540.337 L 429.016,529.367 L 429.359,518.394 L 431.07,507.765 L 433.127,503.308 L 435.865,498.852 L 438.606,495.079 L 440.66,491.649 L 444.428,487.879 L 447.853,484.793 L 451.964,482.049 L 456.075,479.649 L 460.527,477.593 L 465.322,475.879 L 470.118,474.506 L 475.597,473.136 Z" stroke="#000000" fill="#e1e1e1" stroke-width="1.068" stroke-linejoin="miter" marker-start="none" marker-end="none" stroke-miterlimit="79.8403193612775"/>
    <path d="M 369.42,473.136 L 365.995,473.82 L 362.57,474.849 L 359.83,475.879 L 357.089,476.906 L 352.98,479.306 L 349.212,482.049 L 345.444,484.793 L 342.019,487.879 L 338.936,491.306 L 335.854,495.079 L 333.456,499.538 L 331.4,503.995 L 329.004,511.538 L 327.634,519.422 L 327.291,527.308 L 329.004,534.851 L 329.004,539.994 L 330.716,544.794 L 333.116,549.253 L 335.511,553.71 L 344.074,562.967 L 348.183,566.739 L 352.98,569.48 L 358.118,571.539 L 363.254,573.253 L 369.077,574.282 L 374.901,574.966 L 381.408,574.966 L 387.23,574.623 L 391.684,572.91 L 395.45,571.196 L 399.218,569.48 L 402.986,567.423 L 406.41,565.026 L 409.835,562.626 L 413.26,559.539 L 416.001,556.11 L 418.398,552.68 L 420.453,549.253 L 422.509,545.137 L 424.564,541.367 L 425.934,533.137 L 426.277,525.251 L 425.591,517.365 L 424.221,510.165 L 421.482,503.308 L 417.714,496.795 L 413.26,490.963 L 407.438,486.165 L 404.013,482.393 L 399.904,479.649 L 395.107,476.906 L 390.655,475.536 L 385.516,473.82 L 380.037,473.136 L 374.558,472.793 L 369.42,473.136 Z" stroke="#000000" fill="#e1e1e1" stroke-width="1.068" stroke-linejoin="miter" marker-start="none" marker-end="none" stroke-miterlimit="79.8403193612775"/>
    <path d="M 344.074,187.183 L 370.104,211.528 L 366.681,212.898 L 362.227,213.585 L 357.775,213.585 L 355.718,214.271 L 350.583,215.641 L 348.183,216.669 L 344.76,219.755 L 348.869,220.441 L 352.637,219.412 L 356.405,218.728 L 359.83,218.385 L 363.938,218.041 L 379.01,218.041 L 383.121,218.385 L 386.887,218.385 L 390.655,219.069 L 394.766,219.412 L 398.875,220.098 L 402.643,220.441 L 406.41,221.128 L 407.438,219.755 L 405.727,218.041 L 403.67,216.328 L 401.272,215.298 L 398.531,214.612 L 395.793,213.928 L 392.712,213.241 L 390.312,212.555 L 387.916,210.841 L 409.835,187.869 L 417.714,190.612 L 430.386,221.128 L 427.645,224.557 L 424.221,227.984 L 420.796,231.071 L 417.714,233.814 L 413.946,235.871 L 410.519,236.898 L 406.751,237.584 L 402.986,237.927 L 399.218,237.927 L 395.45,238.614 L 391.684,238.957 L 387.916,239.984 L 384.832,239.984 L 382.092,241.014 L 379.696,242.043 L 377.297,243.757 L 373.872,241.014 L 372.845,240.671 L 369.42,239.984 L 366.338,239.643 L 363.254,239.3 L 360.17,238.957 L 357.089,238.614 L 354.007,238.271 L 350.923,237.584 L 347.155,236.898 L 344.76,235.528 L 342.363,233.814 L 339.963,232.441 L 337.224,231.071 L 334.827,229.7 L 332.429,227.984 L 330.372,225.928 L 335.854,191.642 L 344.074,187.183 Z" stroke="#000000" fill="#ffe1c5" stroke-width="1.068" stroke-linejoin="miter" marker-start="none" marker-end="none" stroke-miterlimit="79.8403193612775"/>
    <path d="M 247.828,633.941 L 244.063,641.141 L 240.638,648.34 L 237.211,654.513 L 233.786,660.343 L 230.361,665.483 L 226.25,669.942 L 222.141,673.713 L 217.346,676.797 L 215.292,674.399 L 212.894,670.97 L 209.467,666.856 L 206.386,662.056 L 202.618,656.227 L 199.193,650.397 L 195.768,643.884 L 193.027,637.027 L 188.232,623.998 L 192,618.511 L 195.425,612.684 L 198.852,606.855 L 201.934,601.025 L 205.015,595.539 L 207.756,589.709 L 210.497,584.225 L 212.894,578.739 L 218.03,585.939 L 223.168,592.112 L 227.964,597.939 L 232.759,603.425 L 237.554,608.568 L 242.349,613.027 L 247.144,617.482 L 251.596,621.254 L 247.828,633.941 Z" stroke="#000000" fill="#808004" stroke-width="1.068" stroke-linejoin="miter" marker-start="none" marker-end="none" stroke-miterlimit="79.8403193612775"/>
    <path d="M 46.092,620.225 L 51.574,609.255 L 56.369,598.282 L 60.477,587.653 L 64.245,576.682 L 67.67,564.682 L 71.095,552.337 L 74.52,538.28 L 77.944,522.508 L 104.661,556.11 L 102.263,559.539 L 99.522,563.31 L 96.441,567.082 L 93.359,571.196 L 89.591,575.996 L 85.823,580.455 L 81.712,585.253 L 77.604,590.053 L 73.492,594.855 L 69.384,599.312 L 60.821,607.882 L 57.053,611.311 L 52.941,614.741 L 49.517,617.825 L 46.092,620.225 Z" stroke="#000000" fill="#800101" stroke-width="1.068" stroke-linejoin="miter" marker-start="none" marker-end="none" stroke-miterlimit="79.8403193612775"/>
    <path d="M 132.404,635.311 L 130.691,641.141 L 127.952,647.313 L 124.868,653.14 L 121.444,658.627 L 117.676,664.113 L 113.908,668.57 L 110.142,672.686 L 106.031,675.772 L 102.606,671.656 L 98.838,667.199 L 95.07,662.056 L 91.303,656.57 L 88.221,651.084 L 85.139,645.6 L 82.739,640.113 L 80.685,635.654 L 76.576,622.968 L 82.055,618.168 L 87.194,613.368 L 92.33,608.225 L 97.468,602.739 L 102.606,597.255 L 107.742,591.425 L 113.224,585.596 L 118.705,579.082 L 121.1,585.253 L 123.5,590.396 L 125.212,594.512 L 126.925,598.625 L 128.293,602.052 L 130.007,605.482 L 131.377,608.225 L 133.088,611.998 L 133.775,624.684 L 132.404,635.311 Z" stroke="#000000" fill="#808004" stroke-width="1.068" stroke-linejoin="miter" marker-start="none" marker-end="none" stroke-miterlimit="79.8403193612775"/>
    <path d="M 294.068,600.339 L 294.411,606.168 L 295.439,612.341 L 298.52,620.911 L 301.602,629.484 L 304.686,637.711 L 308.454,645.94 L 312.222,653.827 L 315.989,661.37 L 320.441,668.57 L 324.893,675.429 L 319.414,673.713 L 314.276,672.342 L 309.138,670.626 L 304.002,668.57 L 299.207,666.17 L 294.411,664.113 L 289.614,661.713 L 284.819,658.97 L 280.367,656.227 L 275.572,653.484 L 271.12,650.054 L 266.325,646.97 L 261.873,643.884 L 257.078,640.454 L 252.282,637.027 L 247.487,633.941 L 251.253,621.254 L 257.762,626.398 L 263.927,631.541 L 270.093,635.997 L 276.258,640.454 L 282.424,644.913 L 288.587,649.37 L 294.411,653.827 L 300.575,658.627 L 299.207,654.513 L 297.493,650.054 L 295.439,645.256 L 293.041,639.77 L 290.643,633.941 L 288.587,627.427 L 285.848,620.568 L 284.135,613.027 L 276.258,585.596 L 294.068,600.339 Z" stroke="#000000" fill="#000000" stroke-width="1.068" stroke-linejoin="miter" marker-start="none" marker-end="none" stroke-miterlimit="79.8403193612775"/>
    <path d="M 489.298,585.939 L 490.666,599.312 L 492.38,610.625 L 494.777,620.225 L 498.545,629.141 L 504.367,636.684 L 512.93,644.227 L 524.918,651.77 L 540.674,659.999 L 514.985,660.343 L 507.449,659.313 L 500.599,658.286 L 494.093,656.227 L 488.271,653.827 L 482.446,651.084 L 477.31,647.656 L 472.858,644.227 L 468.747,640.113 L 464.979,635.997 L 461.895,631.197 L 459.5,626.741 L 457.1,621.598 L 455.389,616.455 L 454.019,611.655 L 453.335,606.168 L 452.991,601.025 L 455.732,597.255 L 458.13,594.855 L 461.554,592.455 L 464.636,590.053 L 467.377,587.996 L 470.802,585.939 L 489.298,585.939 Z" stroke="#000000" fill="#e1ffff" stroke-width="1.068" stroke-linejoin="miter" marker-start="none" marker-end="none" stroke-miterlimit="79.8403193612775"/>
    <path d="M 437.236,341.474 L 440.66,342.503 L 433.127,347.987 L 432.097,350.39 L 429.016,352.447 L 439.292,350.731 L 442.717,351.074 L 446.142,351.76 L 449.567,352.447 L 452.991,353.133 L 456.075,354.16 L 459.5,354.846 L 462.925,355.876 L 466.35,356.903 L 469.09,357.933 L 472.172,358.617 L 475.256,358.276 L 477.31,357.246 L 478.678,356.56 L 480.051,355.533 L 468.404,373.019 L 462.238,377.476 L 464.979,379.533 L 469.431,380.56 L 471.831,380.56 L 474.226,380.219 L 476.283,379.876 L 478.678,379.533 L 481.078,378.846 L 483.476,377.476 L 484.503,376.446 L 484.16,381.932 L 480.735,382.962 L 476.283,385.705 L 473.199,386.732 L 470.458,387.076 L 467.377,387.762 L 463.952,388.448 L 461.211,389.132 L 458.13,389.819 L 455.048,390.848 L 449.223,391.189 L 443.401,391.876 L 437.236,392.562 L 431.757,393.246 L 426.277,393.589 L 420.453,393.932 L 414.63,393.246 L 409.151,392.562 L 406.751,390.505 L 402.986,386.389 L 401.959,382.619 L 405.727,379.533 L 407.438,377.817 L 404.356,370.276 L 401.272,363.074 L 399.218,354.846 L 398.531,346.274 L 405.727,357.246 L 407.094,357.933 L 409.835,357.933 L 412.576,354.846 L 412.919,351.76 L 414.63,349.703 L 416.687,348.331 L 419.082,346.96 L 421.823,346.274 L 424.907,345.244 L 427.645,344.217 L 430.386,343.187 L 433.127,342.16 L 434.497,342.16 L 437.236,341.474 Z" stroke="#000000" fill="#000000" stroke-width="1.068" stroke-linejoin="miter" marker-start="none" marker-end="none" stroke-miterlimit="79.8403193612775"/>
    <path d="M 547.524,660.343 L 540.331,660.343 L 524.575,652.113 L 512.93,644.57 L 504.367,636.684 L 498.545,629.141 L 494.777,620.225 L 492.723,610.625 L 491.009,598.968 L 489.298,585.939 L 503.34,581.139 L 499.915,593.482 L 499.915,605.482 L 502.313,616.455 L 507.792,627.084 L 514.985,636.684 L 524.575,645.6 L 535.536,653.484 L 547.524,660.343 Z" stroke="#000000" fill="#010180" stroke-width="1.068" stroke-linejoin="miter" marker-start="none" marker-end="none" stroke-miterlimit="79.8403193612775"/>
    <path d="M 514.985,660.343 L 486.214,658.97 L 475.597,653.827 L 467.377,649.027 L 461.211,644.227 L 456.416,639.084 L 452.991,633.254 L 449.567,626.741 L 446.485,618.854 L 442.717,609.941 L 453.335,601.368 L 453.335,606.511 L 454.362,611.655 L 455.389,616.798 L 457.443,621.598 L 459.5,626.741 L 461.895,631.197 L 465.322,635.997 L 469.09,640.113 L 473.199,644.227 L 477.651,647.656 L 482.446,651.084 L 488.271,653.827 L 494.093,656.227 L 500.599,658.286 L 507.449,659.313 L 514.985,660.343 Z" stroke="#000000" fill="#010180" stroke-width="1.068" stroke-linejoin="miter" marker-start="none" marker-end="none" stroke-miterlimit="79.8403193612775"/>
    <path d="M 442.717,609.941 L 446.485,618.854 L 449.567,626.741 L 452.991,633.254 L 456.416,639.084 L 461.211,644.227 L 467.377,649.027 L 475.597,653.827 L 486.214,658.97 L 477.31,658.97 L 472.515,658.627 L 467.72,658.286 L 462.925,657.256 L 458.13,656.227 L 453.335,654.856 L 448.539,653.14 L 443.744,651.427 L 439.633,649.37 L 435.181,646.97 L 430.729,644.227 L 426.961,641.484 L 423.534,638.397 L 420.109,635.311 L 417.028,631.884 L 442.717,609.941 Z" stroke="#000000" fill="#e1ffff" stroke-width="1.068" stroke-linejoin="miter" marker-start="none" marker-end="none" stroke-miterlimit="79.8403193612775"/>
    <path d="M 193.027,637.027 L 189.603,643.54 L 185.835,649.713 L 182.069,655.2 L 178.301,660.343 L 174.533,664.456 L 170.765,668.57 L 166.654,671.999 L 162.886,675.429 L 157.75,669.942 L 152.955,665.143 L 148.844,660.343 L 145.076,655.54 L 141.651,650.74 L 138.57,645.94 L 135.488,640.797 L 132.747,635.311 L 134.115,624.341 L 133.431,611.655 L 136.515,617.482 L 139.94,622.968 L 143.365,628.454 L 147.133,634.284 L 150.898,639.77 L 154.666,645.256 L 158.434,650.74 L 162.202,656.57 L 165.627,653.14 L 169.054,649.37 L 172.476,645.256 L 175.901,641.141 L 178.985,637.027 L 182.069,632.568 L 185.151,628.454 L 188.232,623.998 L 193.027,637.027 Z" stroke="#000000" fill="#808004" stroke-width="1.068" stroke-linejoin="miter" marker-start="none" marker-end="none" stroke-miterlimit="79.8403193612775"/>
    <path d="M 681.446,321.588 L 676.306,328.445 L 673.224,331.874 L 670.142,335.644 L 667.402,339.76 L 666.715,344.903 L 668.086,350.731 L 668.772,356.56 L 669.799,362.046 L 672.883,366.503 L 674.251,368.219 L 681.446,376.446 L 677.335,384.676 L 620.821,370.619 L 622.534,369.589 L 626.643,367.876 L 629.725,366.846 L 639.317,362.046 L 636.577,360.333 L 634.179,358.276 L 631.438,355.876 L 629.381,353.133 L 627.67,350.39 L 625.959,346.96 L 624.246,343.531 L 622.875,340.104 L 648.221,342.16 L 661.579,336.331 L 663.634,333.588 L 681.446,321.588 Z" stroke="#000000" fill="#000000" stroke-width="1.068" stroke-linejoin="miter" marker-start="none" marker-end="none" stroke-miterlimit="79.8403193612775"/>
    <path d="M 681.103,213.585 L 694.118,226.271 L 686.925,241.014 L 642.742,209.814 L 657.468,189.926 L 659.523,184.783 L 661.579,179.299 L 661.579,198.842 L 681.103,213.585 Z" stroke="#000000" fill="#ffc080" stroke-width="1.068" stroke-linejoin="miter" marker-start="none" marker-end="none" stroke-miterlimit="79.8403193612775"/>
    <path d="M 74.863,321.588 L 78.971,325.017 L 83.083,328.445 L 86.851,331.874 L 90.962,334.96 L 95.414,337.704 L 100.209,339.76 L 105.345,341.131 L 110.826,341.474 L 113.567,341.131 L 116.305,340.79 L 119.046,340.104 L 121.444,339.76 L 123.841,339.417 L 126.239,338.731 L 128.636,337.704 L 128.98,342.847 L 127.266,345.931 L 125.896,348.674 L 124.184,351.074 L 122.128,353.474 L 117.676,357.246 L 115.278,358.96 L 112.537,360.333 L 131.377,369.246 L 75.89,382.962 L 71.438,373.703 L 74.863,370.962 L 77.604,367.533 L 80.342,364.103 L 82.739,359.99 L 84.453,355.876 L 85.823,351.76 L 86.851,346.617 L 87.194,341.474 L 83.767,336.674 L 80.685,331.874 L 77.604,327.074 L 74.52,322.274 L 74.863,321.588 Z" stroke="#000000" fill="#000000" stroke-width="1.068" stroke-linejoin="miter" marker-start="none" marker-end="none" stroke-miterlimit="79.8403193612775"/>
    <path d="M 295.439,520.794 L 272.147,549.253 L 247.828,522.851 L 270.777,496.108 L 295.439,520.794 Z" stroke="#000000" fill="#018001" stroke-width="1.068" stroke-linejoin="miter" marker-start="none" marker-end="none" stroke-miterlimit="79.8403193612775"/>
    <path d="M 506.081,524.565 L 482.446,553.023 L 458.473,526.624 L 481.762,499.538 L 506.081,524.565 Z" stroke="#000000" fill="#018001" stroke-width="1.068" stroke-linejoin="miter" marker-start="none" marker-end="none" stroke-miterlimit="79.8403193612775"/>
    <path d="M 400.588,523.538 L 376.953,551.996 L 352.98,525.594 L 375.929,498.508 L 400.588,523.538 Z" stroke="#000000" fill="#0000ff" stroke-width="1.068" stroke-linejoin="miter" marker-start="none" marker-end="none" stroke-miterlimit="79.8403193612775"/>
    <path d="M 70.068,239.3 L 62.875,228.328 L 95.414,202.612 L 96.441,187.526 L 113.567,208.098 L 70.068,239.3 Z" stroke="#000000" fill="#ffc080" stroke-width="1.068" stroke-linejoin="miter" marker-start="none" marker-end="none" stroke-miterlimit="79.8403193612775"/>
    <path d="M 44.038,290.388 L 44.038,286.272 L 46.776,281.816 L 50.544,279.072 L 56.709,275.986 L 59.45,273.929 L 68.356,268.443 L 78.287,267.757 L 82.739,270.157 L 86.851,272.216 L 90.962,274.959 L 93.016,276.672 L 95.414,283.186 L 94.386,287.645 L 90.962,293.472 L 87.878,294.845 L 89.935,289.702 L 90.962,285.243 L 81.712,279.072 L 78.631,279.416 L 75.89,282.156 L 72.465,283.529 L 68.697,284.216 L 64.929,284.559 L 52.941,284.559 L 49.517,285.243 L 47.462,287.645 L 44.038,290.388 Z" stroke="#000000" fill="#000000" stroke-width="1.068" stroke-linejoin="miter" marker-start="none" marker-end="none" stroke-miterlimit="79.8403193612775"/>
    <path d="M 693.775,274.616 L 704.049,286.272 L 691.377,286.272 L 687.266,285.929 L 683.498,285.243 L 679.73,284.559 L 675.965,282.843 L 672.54,280.786 L 667.745,282.5 L 665.347,283.872 L 664.32,286.959 L 662.947,292.788 L 658.495,286.959 L 659.182,278.386 L 661.923,276.329 L 667.059,273.586 L 677.335,268.1 L 693.775,274.616 Z" stroke="#000000" fill="#000000" stroke-width="1.068" stroke-linejoin="miter" marker-start="none" marker-end="none" stroke-miterlimit="79.8403193612775"/>
    <path d="M 243.033,578.396 L 246.801,579.769 L 250.569,581.139 L 253.994,582.512 L 258.105,583.539 L 261.873,584.225 L 265.984,585.253 L 270.777,585.596 L 276.258,585.939 L 284.135,613.368 L 280.367,610.625 L 276.599,607.882 L 272.831,605.139 L 269.065,602.052 L 264.954,598.625 L 261.186,595.198 L 257.421,591.768 L 252.966,587.996 L 248.171,583.196 L 243.033,578.396 Z" stroke="#000000" fill="#800101" stroke-width="1.068" stroke-linejoin="miter" marker-start="none" marker-end="none" stroke-miterlimit="79.8403193612775"/>
    <path d="M 532.111,433.364 L 544.099,446.734 L 532.454,462.506 L 521.494,446.734 L 532.111,433.364 Z" stroke="#000000" fill="#f0f0f0" stroke-width="1.068" stroke-linejoin="miter" marker-start="none" marker-end="none" stroke-miterlimit="79.8403193612775"/>
    <path d="M 623.902,433.707 L 635.89,447.077 L 623.902,462.506 L 613.285,447.077 L 623.902,433.707 Z" stroke="#000000" fill="#f0f0f0" stroke-width="1.068" stroke-linejoin="miter" marker-start="none" marker-end="none" stroke-miterlimit="79.8403193612775"/>
    <path d="M 562.936,433.707 L 574.924,447.077 L 563.279,462.506 L 552.319,447.077 L 562.936,433.707 Z" stroke="#000000" fill="#f0f0f0" stroke-width="1.068" stroke-linejoin="miter" marker-start="none" marker-end="none" stroke-miterlimit="79.8403193612775"/>
    <path d="M 654.728,433.707 L 666.715,447.077 L 655.071,462.506 L 644.112,447.077 L 654.728,433.707 Z" stroke="#000000" fill="#f0f0f0" stroke-width="1.068" stroke-linejoin="miter" marker-start="none" marker-end="none" stroke-miterlimit="79.8403193612775"/>
    <path d="M 115.278,446.391 L 105.688,462.506 L 98.838,446.391 L 106.717,433.707 L 115.278,446.391 Z" stroke="#000000" fill="#e1ffe1" stroke-width="1.068" stroke-linejoin="miter" marker-start="none" marker-end="none" stroke-miterlimit="79.8403193612775"/>
    <path d="M 222.482,446.391 L 213.235,462.506 L 205.699,446.391 L 213.921,433.707 L 222.482,446.391 Z" stroke="#000000" fill="#e1ffe1" stroke-width="1.068" stroke-linejoin="miter" marker-start="none" marker-end="none" stroke-miterlimit="79.8403193612775"/>
    <path d="M 185.835,446.391 L 176.588,462.506 L 168.368,447.077 L 177.274,433.707 L 185.835,446.391 Z" stroke="#000000" fill="#e1ffe1" stroke-width="1.068" stroke-linejoin="miter" marker-start="none" marker-end="none" stroke-miterlimit="79.8403193612775"/>
    <path d="M 150.558,446.734 L 141.995,462.506 L 133.775,446.734 L 141.995,434.05 L 150.558,446.734 Z" stroke="#000000" fill="#e1ffe1" stroke-width="1.068" stroke-linejoin="miter" marker-start="none" marker-end="none" stroke-miterlimit="79.8403193612775"/>
    <path d="M 592.734,433.707 L 604.379,447.077 L 592.734,461.82 L 582.117,447.077 L 592.734,433.707 Z" stroke="#000000" fill="#ffffff" stroke-width="1.068" stroke-linejoin="miter" marker-start="none" marker-end="none" stroke-miterlimit="79.8403193612775"/>
    <path d="M 76.576,436.791 L 81.028,446.391 L 76.576,457.707 L 76.576,436.791 Z" stroke="#000000" fill="#e1ffe1" stroke-width="1.068" stroke-linejoin="miter" marker-start="none" marker-end="none" stroke-miterlimit="79.8403193612775"/>
    <path d="M 124.525,453.936 L 122.128,453.593 L 118.705,450.163 L 118.019,447.763 L 118.705,445.02 L 122.128,441.591 L 124.525,440.904 L 128.636,442.964 L 130.007,445.02 L 130.691,447.763 L 130.007,450.163 L 126.925,453.593 L 124.525,453.936 Z" stroke="#000000" fill="#ffc0c0" stroke-width="1.068" stroke-linejoin="miter" marker-start="none" marker-end="none" stroke-miterlimit="79.8403193612775"/>
    <path d="M 90.275,453.25 L 85.823,451.536 L 84.453,449.477 L 84.11,447.077 L 84.453,444.677 L 87.878,441.248 L 90.275,440.904 L 92.673,441.248 L 96.098,444.677 L 96.441,447.077 L 96.098,449.477 L 92.673,452.907 L 90.275,453.25 Z" stroke="#000000" fill="#ffc0c0" stroke-width="1.068" stroke-linejoin="miter" marker-start="none" marker-end="none" stroke-miterlimit="79.8403193612775"/>
    <path d="M 232.418,453.25 L 229.677,452.907 L 226.593,449.477 L 225.909,447.077 L 227.623,442.62 L 229.677,441.248 L 232.418,440.904 L 236.87,442.62 L 237.897,444.677 L 238.581,447.077 L 237.897,449.477 L 234.813,452.907 L 232.418,453.25 Z" stroke="#000000" fill="#ffc0c0" stroke-width="1.068" stroke-linejoin="miter" marker-start="none" marker-end="none" stroke-miterlimit="79.8403193612775"/>
    <path d="M 196.111,453.25 L 193.714,452.907 L 190.632,449.477 L 189.946,447.077 L 190.632,444.677 L 193.714,441.248 L 196.111,440.904 L 198.509,441.248 L 201.934,444.677 L 202.277,447.077 L 201.934,449.477 L 198.509,452.907 L 196.111,453.25 Z" stroke="#000000" fill="#ffc0c0" stroke-width="1.068" stroke-linejoin="miter" marker-start="none" marker-end="none" stroke-miterlimit="79.8403193612775"/>
    <path d="M 159.118,453.936 L 157.066,453.593 L 153.639,450.163 L 152.955,447.763 L 153.639,445.02 L 157.066,441.591 L 159.118,440.904 L 161.859,441.591 L 164.943,445.02 L 165.627,447.763 L 164.943,450.163 L 161.859,453.593 L 159.118,453.936 Z" stroke="#000000" fill="#ffc0c0" stroke-width="1.068" stroke-linejoin="miter" marker-start="none" marker-end="none" stroke-miterlimit="79.8403193612775"/>
   </g>
  </g>
 </g>
</svg>
